<?xml version="1.0" encoding="UTF-8"?>
<svg xmlns="http://www.w3.org/2000/svg" xmlns:xlink="http://www.w3.org/1999/xlink" version="1.2" >
<font id="Glorious Sunday Title">
<font-face  font-family="Glorious Sunday Title" units-per-em="1000" ascent="750" descent="-250" font-style="normal" font-weight="400" font-stretch="normal" cap-height="700" x-height="500" underline-position="-75" underline-thickness="50" />
<missing-glyph  horiz-adv-x="210" d="" />
<glyph glyph-name="NULL" d="" />
<glyph glyph-name="CR" unicode="&#xd;" horiz-adv-x="250" d="" />
<glyph glyph-name="space" unicode="&#x20;" horiz-adv-x="210" d="" />
<glyph glyph-name="exclam" unicode="&#x21;" horiz-adv-x="109" d="M13 552 C4 534 3 533 10 519 C12 515 14 505 16 492 L16 488 L14 486 L14 485 C13 485 14 484 16 484 L14 484 C14 483 17 481 17 480 C19 470 20 458 20 445 C20 429 19 415 20 401 C21 396 21 391 20 384 C21 384 21 383 22 383 L21 383 C21 374 22 363 20 354 C21 353 21 351 20 348 C20 345 20 344 19 341 C21 336 20 330 20 325 C21 323 21 322 21 321 C21 313 20 307 21 299 C21 294 19 287 19 282 L22 270 C22 256 19 250 22 237 C23 231 22 238 21 233 C21 231 20 230 21 230 L21 221 C23 215 22 208 22 203 C22 202 23 202 23 202 L23 197 C22 195 22 194 22 193 C22 189 20 185 23 182 L22 182 C24 180 24 175 24 172 L25 172 C25 171 26 169 27 168 C27 167 28 167 27 165 L29 158 C31 156 30 153 32 150 C35 146 36 140 40 137 C41 136 42 134 43 134 C45 134 50 129 54 128 C57 129 60 128 62 128 C66 129 72 127 74 134 L74 131 L76 131 L76 136 C78 137 79 138 79 141 C83 146 79 154 82 159 C81 162 81 163 83 164 C85 173 83 182 83 191 C82 193 82 194 83 195 C82 197 82 198 81 198 C82 198 83 199 83 200 C83 202 82 203 82 203 L83 206 C83 206 83 208 84 208 C85 212 85 215 85 217 L83 221 C84 222 85 225 84 229 L86 233 C86 234 86 225 88 226 C89 230 89 233 88 237 C86 239 86 243 88 247 C91 259 88 266 91 278 C93 282 93 285 92 288 C91 291 91 292 92 295 C94 300 94 307 92 312 L92 314 C92 316 91 316 91 317 L91 321 C91 332 92 344 92 356 L101 451 C107 499 96 510 56 530 C47 536 38 539 28 545 L13 552 Z M85 57 L85 59 C83 63 83 67 81 70 L79 72 C78 76 77 76 76 77 C75 76 74 76 74 77 C71 80 68 79 67 80 L64 80 C60 84 56 80 53 84 C48 84 46 85 43 88 C37 89 32 85 27 85 C24 85 23 84 23 83 L21 72 L21 75 C19 71 19 66 18 66 C16 63 16 59 18 58 L18 57 L17 55 C16 52 16 49 16 45 C16 45 16 44 17 41 C16 37 13 33 13 32 C16 32 18 33 19 33 C23 28 27 22 32 18 C43 1 52 0 71 8 C71 13 85 10 80 23 L79 22 C78 24 79 27 79 30 L79 31 C80 36 80 41 85 44 L85 45 C88 50 88 55 85 57 L85 57 Z " />
<glyph glyph-name="quotedbl" unicode="&#x22;" horiz-adv-x="154" d="M136 604 C133 610 126 609 121 609 C115 609 108 606 103 609 C99 609 94 609 91 609 C83 606 82 601 82 593 C83 583 82 572 84 561 C84 560 84 559 84 558 C86 546 85 533 88 521 C88 518 88 515 90 512 C91 504 95 497 100 492 C106 486 112 485 117 494 C118 497 121 500 122 503 C124 506 127 508 127 513 C128 522 130 530 130 537 C132 545 132 550 133 558 C133 561 134 563 135 567 C135 571 136 573 136 577 C138 579 138 580 138 582 C138 583 138 587 138 588 C138 593 139 600 136 604 L136 604 Z M57 604 C53 610 47 609 41 609 C35 609 30 606 24 609 C19 609 14 609 11 609 C5 606 2 601 3 593 C3 583 2 572 5 561 C5 560 5 559 5 558 C7 546 6 533 8 521 C8 518 9 515 9 512 C11 504 15 497 22 492 C27 486 33 485 37 494 C38 497 41 500 44 503 C45 506 47 508 48 513 C48 522 50 530 50 537 C51 545 51 550 53 558 C55 561 55 563 56 567 C56 571 57 573 58 577 C58 579 58 580 58 582 C59 583 59 587 59 588 C59 593 59 600 57 604 L57 604 Z " />
<glyph glyph-name="numbersign" unicode="&#x23;" horiz-adv-x="464" d="M430 317 C429 330 422 335 410 335 C402 337 393 334 385 337 L382 337 C376 335 369 336 362 336 L360 336 C359 336 359 337 358 337 L357 337 C356 337 356 337 355 338 L355 340 C358 345 357 349 357 354 L359 359 C362 359 361 364 364 364 C367 365 369 366 369 369 C369 373 366 376 362 378 C358 383 355 389 347 390 C342 390 340 394 336 396 C329 398 319 400 318 394 C315 378 305 365 300 351 C298 345 301 333 288 334 C282 332 276 335 270 332 L263 332 C252 331 240 330 228 332 C227 336 229 339 231 342 C235 347 236 353 235 359 L238 364 C241 367 239 371 239 374 C239 375 239 375 238 376 L239 376 C240 375 240 375 241 376 C243 383 243 389 238 395 C238 398 236 399 234 400 C232 403 230 406 226 407 C219 413 209 416 201 420 C192 424 188 420 186 414 C180 396 173 377 168 359 C161 332 161 332 133 331 C131 331 129 332 127 332 C123 330 119 332 115 330 C107 326 98 327 92 320 L90 318 C86 320 83 317 81 314 C82 306 90 305 95 301 C98 300 99 297 102 298 C104 297 104 293 107 294 C108 294 109 293 110 293 C115 291 120 293 125 291 C131 293 136 287 142 287 C136 284 142 277 137 274 C137 271 136 269 136 267 C131 264 134 259 132 255 C124 231 122 230 100 233 C91 234 82 234 73 233 L57 230 C53 229 48 226 54 222 C65 215 75 205 90 206 C95 204 100 206 104 204 C112 205 112 200 112 194 C108 188 105 182 106 174 C103 163 102 151 103 139 C104 129 107 122 117 121 C123 119 130 119 136 121 C142 124 148 129 151 135 C160 138 156 149 163 153 C164 155 165 157 164 159 L166 165 C170 174 174 184 177 194 C179 194 181 194 183 193 C190 192 197 193 204 193 L206 193 C206 192 207 192 208 192 C217 192 226 192 236 191 L233 174 C232 170 232 166 233 162 C235 158 229 155 231 150 L233 145 L233 144 C232 144 233 143 233 143 C233 142 233 142 232 141 C232 137 233 133 231 130 C233 118 236 108 248 104 C254 102 261 103 267 103 C274 110 280 117 284 126 C296 134 295 148 299 160 C302 168 306 175 306 184 C310 191 312 195 320 197 C330 200 340 197 350 199 L352 199 L352 198 C357 197 361 198 366 197 C372 200 378 203 386 205 C394 208 398 217 399 224 C400 229 395 233 389 233 C373 235 356 234 340 233 L321 233 C321 241 327 247 328 254 C330 262 334 270 335 279 C336 281 337 283 340 284 C343 286 346 284 350 285 L350 286 C355 284 360 284 364 286 L371 286 C372 286 372 287 373 287 L374 287 C377 287 381 286 384 288 C388 292 393 290 398 291 C406 293 416 292 420 303 C427 305 432 309 430 317 L430 317 Z M268 270 C263 263 261 255 257 248 C255 244 253 239 253 235 C251 232 252 228 247 229 C230 229 212 227 194 230 C190 230 189 231 191 235 C196 242 195 251 197 259 C201 262 198 266 199 269 C203 281 210 284 223 282 C235 280 248 279 261 281 C269 282 273 279 268 270 L268 270 Z " />
<glyph glyph-name="dollar" unicode="&#x24;" horiz-adv-x="281" d="M269 165 C266 191 224 244 208 258 C160 300 156 266 120 338 C112 355 111 370 117 379 C126 399 146 427 172 422 C195 418 209 387 201 372 C197 366 184 341 191 331 C195 324 212 323 219 325 C227 328 237 347 241 355 C257 377 251 426 233 454 C222 464 206 471 188 474 C188 477 190 480 188 483 C187 488 188 492 187 497 C187 498 187 499 186 500 C186 503 185 505 185 507 C184 508 184 509 184 510 L182 514 C180 518 176 519 172 521 C168 524 165 528 160 528 C158 529 155 529 153 529 C151 530 149 530 147 530 C143 529 139 530 136 527 C135 526 135 525 135 524 C134 515 138 505 136 496 C134 488 133 479 134 474 C87 462 55 382 63 344 C65 333 66 320 70 309 C79 286 95 282 113 265 C138 241 161 217 176 185 C179 183 181 183 184 177 C191 165 188 146 188 132 C187 129 187 126 186 123 C184 108 180 96 174 89 C168 82 162 74 151 69 C137 63 123 65 110 65 C84 66 102 89 107 95 C144 94 159 151 115 145 C66 138 42 69 55 31 C58 23 65 18 70 13 C81 6 93 1 107 -1 C110 -1 114 -2 117 -2 C116 -7 115 -12 115 -15 C115 -19 116 -23 117 -27 C118 -31 117 -35 118 -40 C118 -43 121 -44 122 -47 C123 -48 121 -49 123 -51 C124 -52 126 -51 127 -52 L129 -52 C131 -54 133 -54 135 -54 C136 -55 136 -56 136 -57 C137 -57 137 -57 138 -58 C138 -59 139 -59 139 -60 C140 -61 141 -62 142 -62 C143 -63 145 -64 146 -64 C148 -64 149 -63 151 -63 L158 -63 C159 -63 160 -62 161 -62 L163 -56 C164 -55 164 -54 164 -54 L167 -48 L167 -42 C166 -35 169 -29 169 -22 C169 -15 169 -11 168 -7 C168 -5 168 -3 168 -1 C184 2 200 7 212 18 C253 60 274 107 269 165 L269 165 Z " />
<glyph glyph-name="ampersand" unicode="&#x26;" horiz-adv-x="422" d="M406 370 C406 371 406 372 407 372 C407 375 407 378 408 382 C407 383 406 384 406 386 C407 407 402 428 389 444 C371 467 346 479 319 480 C302 481 291 473 287 454 C284 445 288 436 285 428 C282 421 286 414 288 407 C290 399 295 397 301 398 C308 399 308 405 307 411 C305 420 305 427 307 435 C306 451 315 460 327 456 L344 450 C358 445 364 433 364 416 C365 408 366 400 364 393 C355 375 343 364 328 352 C319 348 310 344 302 338 C299 337 294 338 292 333 C288 335 286 329 284 326 C254 307 229 279 212 242 C211 237 213 232 211 228 C204 210 213 196 215 180 C216 179 217 178 218 178 C229 176 237 165 248 160 C253 159 258 161 263 159 C282 165 286 173 280 186 C278 190 274 191 275 197 C271 202 267 200 262 199 C260 197 258 194 256 191 C250 213 269 252 289 257 C293 258 295 255 297 253 C306 242 310 232 314 218 C317 214 314 210 316 206 C317 205 317 203 317 202 C319 199 317 194 319 191 L319 188 C317 187 316 186 317 184 C317 182 317 180 318 179 C317 177 317 175 317 174 C316 170 315 167 316 165 C315 162 316 160 314 158 C301 112 276 93 233 82 C229 78 224 82 220 79 C214 77 208 73 201 74 C194 72 186 71 178 71 L168 71 C163 71 157 72 152 74 C101 81 53 208 151 272 C167 268 182 268 193 288 C197 289 199 291 200 295 C204 301 203 311 205 317 C201 339 179 355 158 351 C155 352 153 352 150 352 C149 352 148 352 148 351 L144 351 C144 351 143 350 142 350 L140 350 C140 350 139 350 139 351 C138 351 137 351 136 350 C127 347 117 345 108 340 C103 337 95 333 94 345 C94 346 93 347 92 348 C90 349 88 351 89 355 C89 356 88 357 87 359 L87 381 C88 382 88 386 89 388 L89 398 L91 398 C95 402 91 408 94 413 L101 428 L107 437 L134 456 L163 465 C166 465 168 465 171 467 C185 453 174 441 168 430 C161 420 167 419 173 415 C182 410 190 416 198 421 C201 422 203 425 203 428 C206 430 208 433 207 437 C205 447 209 479 203 486 C167 524 139 506 121 506 L114 503 C108 500 101 498 96 494 C93 495 91 491 89 490 C74 483 59 463 52 449 C44 433 42 416 39 398 C38 394 38 389 39 384 C40 382 40 381 40 379 C42 373 40 366 42 360 C47 345 59 327 73 319 C75 317 74 316 72 314 L57 299 C54 299 54 296 52 294 C47 290 42 286 37 281 C34 282 33 279 32 274 C25 267 18 259 15 246 C12 246 13 243 13 241 C10 235 6 229 5 219 C3 216 4 213 4 210 C5 210 5 209 5 209 L5 206 C5 206 4 205 4 204 C4 199 3 191 5 186 C5 183 5 180 6 176 C6 174 7 170 8 167 C11 159 7 152 10 145 C12 128 19 113 25 98 C28 95 27 89 32 86 C33 82 35 77 40 76 C41 72 44 69 47 66 C47 63 49 62 52 62 C54 59 54 56 57 56 C61 53 62 47 67 45 C76 38 85 30 96 25 C124 11 153 3 183 3 C189 1 195 1 200 2 C207 3 213 3 219 3 C224 5 228 3 233 5 C255 12 278 14 299 26 C303 25 305 27 307 30 C329 47 351 65 366 90 C375 106 376 126 379 145 C380 147 380 148 379 149 L379 150 C381 153 380 157 379 161 C379 165 379 169 378 173 C376 177 379 182 376 186 C375 188 377 193 374 196 C374 200 372 202 370 204 C370 215 362 226 357 234 L349 244 C344 254 339 260 332 264 C330 265 327 264 326 267 C326 270 320 270 322 274 C324 274 325 274 327 275 C330 273 332 280 334 280 C337 280 338 283 339 285 C342 285 345 284 346 287 C350 289 354 291 357 294 L364 297 C368 298 369 303 371 307 C380 311 383 321 391 325 C393 329 395 335 398 338 L406 353 C408 356 407 357 407 361 L406 361 L406 370 Z " />
<glyph glyph-name="quotesingle" unicode="&#x27;" horiz-adv-x="75" d="M57 604 C53 610 47 609 41 609 C35 609 30 606 24 609 C19 609 14 609 11 609 C5 606 2 601 3 593 C3 583 2 572 5 561 C5 560 5 559 5 558 C7 546 6 533 8 521 C8 518 9 515 9 512 C11 504 15 497 22 492 C27 486 33 485 37 494 C38 497 41 500 44 503 C45 506 47 508 48 513 C48 522 50 530 50 537 C51 545 51 550 53 558 C55 561 55 563 56 567 C56 571 57 573 58 577 C58 579 58 580 58 582 C59 583 59 587 59 588 C59 593 59 600 57 604 L57 604 Z " />
<glyph glyph-name="parenleft" unicode="&#x28;" horiz-adv-x="178" d="M5 235 C6 233 6 231 7 230 L7 227 C8 227 8 226 8 225 C8 225 8 224 7 224 C8 224 8 222 7 222 C8 221 8 220 7 219 C8 218 8 218 7 217 C10 211 7 197 9 190 C9 188 9 186 10 184 C12 180 9 175 11 171 C13 165 17 160 18 153 C19 146 18 140 21 137 C22 137 22 136 21 135 C22 133 23 132 23 131 C26 129 24 126 25 124 C26 124 26 123 26 123 C26 121 27 121 28 120 C32 115 33 109 38 105 C39 101 41 98 42 96 C43 94 43 94 43 93 C44 92 43 87 45 85 C45 81 47 79 49 76 L54 66 C57 57 65 50 72 43 C77 38 83 32 87 25 C89 20 93 15 98 15 C105 15 111 7 119 5 C126 3 134 1 142 2 C145 3 148 3 152 2 C158 -1 157 2 161 5 C162 5 166 6 166 7 L166 10 C166 12 160 15 159 16 C156 17 153 21 151 24 C147 30 143 33 140 38 C136 47 131 51 127 56 C125 61 116 67 116 72 C116 73 115 75 115 76 C114 76 114 77 114 77 C114 79 113 79 113 80 L113 81 C112 83 111 85 112 87 C112 88 111 90 110 92 L110 94 C108 97 109 102 108 105 C107 105 107 106 107 107 C105 109 107 112 105 114 L105 116 C105 118 104 121 103 122 C102 123 102 124 102 125 C102 127 102 130 100 131 C98 136 102 143 96 148 C95 148 95 150 96 152 C94 159 95 167 91 173 L91 177 C90 180 90 182 89 183 C89 185 89 186 88 188 C89 191 88 195 86 199 L86 203 C86 205 86 205 85 205 C86 205 86 207 86 207 C87 213 86 216 84 219 C82 224 84 230 82 234 C81 236 81 240 82 242 C82 244 82 247 81 249 C80 275 80 294 82 314 C81 317 81 326 82 330 C84 333 82 337 84 340 L84 345 C86 348 84 352 86 355 C85 358 85 359 86 360 C89 364 86 369 88 376 C88 378 87 380 88 382 C90 385 90 394 90 397 L92 410 C92 411 96 418 95 420 C95 420 95 421 96 421 C98 424 96 429 98 435 C97 436 98 436 98 438 C100 441 99 445 100 449 C100 450 100 452 101 453 C102 454 102 456 102 458 C103 459 103 461 103 463 L105 466 C104 467 104 467 105 468 C107 469 107 472 107 474 L110 483 C116 498 118 513 124 524 C125 526 125 528 126 529 C127 530 128 530 128 532 C129 532 130 533 130 534 C132 534 132 535 133 539 L133 540 L135 543 C136 544 137 545 137 546 C140 549 141 554 142 556 C142 559 144 560 145 561 C147 567 145 571 147 574 L147 575 C148 578 146 579 144 580 C143 579 143 579 142 580 C140 582 138 582 135 580 C135 579 135 579 134 579 C132 579 130 579 128 578 C128 577 128 577 127 577 C126 577 125 576 124 575 C123 574 122 574 122 572 C121 572 120 571 119 571 C118 569 116 569 114 568 C113 567 111 567 110 564 C109 564 108 562 107 561 C106 560 104 561 103 559 L100 556 C100 555 99 554 98 554 C98 552 97 552 97 552 C95 552 94 550 93 549 C93 548 92 548 91 545 C90 545 90 544 89 543 C88 543 87 541 87 540 C86 539 85 539 85 535 C83 535 82 534 82 533 C81 533 80 532 80 531 C78 530 79 528 77 527 L72 521 C72 520 71 519 70 519 C69 518 68 517 68 516 C64 509 58 500 54 488 C53 487 49 478 49 476 C50 475 50 475 49 475 C48 474 47 473 47 471 C47 471 47 470 46 470 C46 469 45 468 45 467 C45 466 45 466 44 465 C44 464 43 463 42 461 C43 461 43 460 42 460 L40 454 L40 453 C38 451 39 449 38 448 C36 445 36 442 35 441 L35 435 C34 433 33 431 33 428 C33 426 33 426 32 426 C32 425 31 424 31 423 C30 423 30 422 30 421 C29 419 29 416 28 415 L29 414 L28 413 C26 411 28 408 26 406 C26 405 26 404 25 404 C25 401 25 399 24 398 C24 396 24 395 23 394 C22 392 22 390 21 389 C19 386 21 382 19 378 C19 371 20 369 19 367 C18 366 17 365 17 364 C17 363 17 362 16 362 C15 360 16 356 15 353 C15 353 15 352 14 352 C15 350 15 349 14 347 C13 346 12 345 12 344 L12 342 C11 341 11 341 11 340 L11 325 C10 325 10 325 10 324 C10 314 9 309 9 306 C9 303 8 299 7 294 C7 291 7 288 6 286 C5 274 5 256 5 245 L5 235 Z " />
<glyph glyph-name="parenright" unicode="&#x29;" horiz-adv-x="182" d="M166 245 C166 256 166 274 165 286 C164 288 164 291 164 294 C163 299 162 303 162 306 C162 309 161 314 161 324 C161 325 161 325 160 325 L160 340 C160 341 160 341 159 342 L159 344 C159 345 158 346 157 347 C156 349 156 350 157 352 C156 352 156 353 156 353 C155 356 156 360 155 362 C154 362 154 363 154 364 C154 365 153 366 152 367 C151 369 152 371 152 378 C150 382 152 386 150 389 C149 390 149 392 148 394 C147 395 147 396 147 398 C146 399 146 401 146 404 C145 404 145 405 145 406 C143 408 145 411 143 413 L142 414 L143 415 C142 416 142 419 141 421 C141 422 141 423 140 423 C140 424 139 425 139 426 C138 426 138 426 138 428 C138 431 137 433 136 435 L136 441 C135 442 135 445 133 448 C132 449 133 451 131 453 L131 454 L129 460 C128 460 128 461 129 461 C128 463 127 464 127 465 C126 466 126 466 126 467 C126 468 125 469 125 470 C124 470 124 471 124 471 C124 473 123 474 122 475 C121 475 121 475 122 476 C122 478 118 487 117 488 C113 500 107 509 103 516 C103 517 102 518 101 519 C100 519 99 520 99 521 L94 527 C92 528 93 530 91 531 C91 532 90 533 89 533 C89 534 88 535 86 535 C86 539 85 539 84 540 C84 541 83 543 82 543 C81 544 81 545 80 545 C79 548 78 548 78 549 C77 550 76 552 74 552 C74 552 73 552 73 554 C72 554 71 555 71 556 L68 559 C67 561 65 560 64 561 C63 562 62 564 61 564 C60 567 58 567 57 568 C55 569 53 569 52 571 C51 571 50 572 49 572 C49 574 48 574 47 575 C46 576 45 577 44 577 C43 577 43 577 43 578 C41 579 39 579 37 579 C36 579 36 579 36 580 C33 582 31 582 29 580 C28 579 28 579 27 580 C25 579 23 578 24 575 L24 574 C26 571 24 567 26 561 C27 560 29 559 29 556 C30 554 31 549 34 546 C34 545 35 544 36 543 L38 540 L38 539 C39 535 39 534 41 534 C41 533 42 532 43 532 C43 530 44 530 45 529 C46 528 46 526 47 524 C53 513 55 498 61 483 L64 474 C64 472 64 469 66 468 C67 467 67 467 66 466 L68 463 C68 461 68 459 69 458 C69 456 69 454 70 453 C71 452 71 450 71 449 C72 445 71 441 73 438 C73 436 74 436 73 435 C75 429 73 424 75 421 C76 421 76 420 76 420 C75 418 79 411 79 410 L81 397 C81 394 81 385 83 382 C84 380 83 378 83 376 C85 369 82 364 85 360 C86 359 86 358 85 355 C87 352 85 348 87 345 L87 340 C89 337 87 333 89 330 C90 326 90 317 89 314 C91 294 91 275 90 249 C89 247 89 244 89 242 C90 240 90 236 89 234 C87 230 89 224 87 219 C85 216 84 213 85 207 C85 207 85 205 86 205 C85 205 85 205 85 203 L85 199 C83 195 82 191 83 188 C82 186 82 185 82 183 C81 182 81 180 80 177 L80 173 C76 167 77 159 75 152 C76 150 76 148 75 148 C69 143 73 136 71 131 C69 130 69 127 69 125 C69 124 69 123 68 122 C67 121 66 118 66 116 L66 114 C64 112 66 109 64 107 C64 106 64 105 63 105 C62 102 63 97 61 94 L61 92 C60 90 59 88 59 87 C60 85 59 83 58 81 L58 80 C58 79 57 79 57 77 C57 77 57 76 56 76 C56 75 55 73 55 72 C55 67 46 61 44 56 C40 51 35 47 31 38 C28 33 24 30 20 24 C18 21 15 17 12 16 C11 15 5 12 5 10 L5 7 C5 6 9 5 10 5 C14 2 13 -1 19 2 C23 3 26 3 29 2 C37 1 45 3 52 5 C60 7 66 15 73 15 C78 15 82 20 84 25 C88 32 94 38 99 43 C106 50 114 57 117 66 L122 76 C124 79 126 81 126 85 C128 87 127 92 128 93 C128 94 128 94 129 96 C130 98 132 101 133 105 C138 109 139 115 143 120 C144 121 145 121 145 123 C145 123 145 124 146 124 C147 126 145 129 148 131 C148 132 149 133 150 135 C149 136 149 137 150 137 C153 140 152 146 153 153 C154 160 158 165 160 171 C162 175 159 180 161 184 C162 186 162 188 162 190 C164 197 161 211 164 217 C163 218 163 218 164 219 C163 220 163 221 164 222 C163 222 163 224 164 224 C163 224 163 225 163 225 C163 226 163 227 164 227 L164 230 C165 231 165 233 166 235 L166 245 Z " />
<glyph glyph-name="asterisk" unicode="&#x2a;" horiz-adv-x="184" d="M163 590 C168 596 170 607 166 613 C160 619 153 616 147 613 C138 606 128 600 119 592 L105 583 C103 616 94 628 75 633 C66 628 64 621 64 613 C64 604 66 596 64 585 C51 592 38 612 28 607 C13 592 37 578 43 564 C38 564 26 570 23 570 C16 568 7 570 6 560 C6 553 9 547 14 540 C20 535 39 540 46 536 C42 531 25 517 21 512 C15 505 18 493 25 490 C29 484 37 486 43 493 C47 498 58 508 62 513 C66 505 62 491 65 484 C73 463 88 465 91 476 C95 487 92 507 92 512 C104 503 113 491 125 484 C152 467 142 496 134 509 C127 519 123 525 117 536 C128 536 134 535 143 535 C149 535 155 536 158 540 C174 561 146 559 132 563 L163 590 Z " />
<glyph glyph-name="plus" unicode="&#x2b;" horiz-adv-x="299" d="M278 264 L276 267 L275 267 C275 270 274 271 274 272 L273 272 C272 273 272 275 269 277 L269 279 C268 282 268 284 266 286 C266 286 265 287 265 288 C264 289 264 292 264 294 C263 300 255 297 252 299 C250 304 244 301 242 300 C229 295 213 296 200 296 C191 296 190 297 179 307 C179 311 181 319 178 323 C177 327 180 331 180 334 C179 337 181 342 181 344 L179 344 C176 348 178 352 175 356 L175 355 C172 359 173 362 170 364 C168 367 170 371 168 373 C166 374 167 378 165 380 L163 382 L161 383 L161 384 C161 386 157 386 156 387 C155 388 154 391 154 392 C153 392 152 393 151 394 C148 395 145 395 144 396 C143 396 142 396 142 397 C141 398 136 398 135 399 C133 403 130 399 126 403 L128 403 C117 407 106 405 96 403 C93 400 93 398 95 396 L95 387 C97 385 93 383 95 380 C96 376 96 373 95 371 C93 369 93 367 95 364 C96 362 96 361 95 359 C93 356 93 355 95 352 C96 351 96 349 95 347 C92 340 96 333 92 326 C92 322 93 319 92 315 C87 308 95 298 86 292 C85 290 84 290 82 292 C81 290 79 290 76 290 C74 290 73 289 70 290 L69 290 C64 287 59 295 55 290 C49 288 44 292 38 288 L37 288 C32 285 25 289 20 286 C19 285 18 285 18 286 C14 284 14 282 13 278 L13 277 C14 274 15 270 13 264 L10 263 C11 260 5 254 5 250 L5 249 C5 246 9 241 13 240 L18 240 L19 239 C20 238 21 237 22 237 C23 234 26 235 30 234 L31 234 L31 233 C34 231 36 231 38 233 C42 233 43 233 45 234 C48 235 51 235 55 234 L59 234 C69 234 78 243 87 233 L88 231 C88 231 88 230 90 230 C91 229 90 228 90 227 L90 226 C100 189 91 167 91 164 C91 161 95 158 96 157 L92 157 C93 156 91 155 91 154 C91 153 96 150 99 150 L100 150 C104 144 124 150 129 143 L130 142 C133 142 139 146 143 143 L144 143 C147 143 151 144 152 149 C153 146 153 146 154 149 C155 150 158 150 161 150 L168 152 L169 152 C172 152 172 153 173 154 L177 157 L179 161 C180 162 181 163 181 164 C183 164 183 165 183 166 C184 166 184 166 185 167 C184 167 185 168 185 168 L185 171 C187 173 188 174 188 176 C187 178 188 180 189 183 C190 193 190 201 188 210 C187 213 188 217 188 221 C185 224 188 229 185 233 L185 237 L190 237 C190 238 181 239 196 239 C196 240 195 242 197 245 C200 242 201 242 205 245 L209 245 C211 246 212 246 213 245 C216 245 216 246 218 248 C218 248 219 249 220 249 C221 248 223 250 223 250 C229 250 235 249 241 252 L241 251 C243 253 247 251 250 253 C253 254 255 254 257 253 C263 252 267 251 273 254 C275 257 282 252 282 260 C279 261 280 264 278 264 L278 264 Z " />
<glyph glyph-name="comma" unicode="&#x2c;" horiz-adv-x="158" d="M103 41 C102 45 101 53 98 57 C97 60 95 60 93 62 C92 63 92 65 91 67 C90 71 85 72 83 73 C80 77 75 79 72 80 C67 84 60 84 54 80 C52 80 50 79 48 78 C45 77 43 72 42 71 C41 68 39 68 39 67 C38 65 38 60 35 58 C35 57 35 54 34 53 C36 47 34 39 34 35 C35 27 38 22 39 13 C42 9 46 7 51 7 C54 7 57 8 60 7 C61 6 63 5 64 -2 C64 -5 62 -10 61 -14 C59 -19 58 -22 56 -25 C51 -30 45 -39 43 -48 L43 -54 C43 -58 43 -59 45 -60 C50 -65 50 -65 56 -60 C57 -60 59 -60 60 -59 C63 -59 65 -55 69 -54 C71 -53 74 -52 78 -49 C81 -44 83 -43 87 -39 C91 -36 94 -32 97 -25 C99 -25 99 -20 101 -19 C107 -8 107 9 107 22 C105 27 103 33 103 39 L103 41 Z " />
<glyph glyph-name="hyphen" unicode="&#x2d;" horiz-adv-x="321" d="M119 217 C117 216 116 216 115 216 C114 216 113 216 112 215 C105 215 98 212 91 212 C88 212 86 212 83 211 C81 211 80 210 78 210 L75 210 C73 210 72 209 71 209 C70 208 69 208 68 208 L63 205 C62 204 62 204 62 203 C62 201 63 199 64 197 C64 196 65 196 65 195 L68 192 C69 192 69 191 69 191 C70 190 71 190 71 189 C72 189 72 188 72 188 L77 183 C78 182 78 181 79 181 C85 178 89 175 94 171 L96 169 C105 163 115 158 126 160 C127 160 128 161 129 161 L135 163 C136 163 137 163 138 164 C140 164 142 165 143 165 L156 165 C157 165 158 165 159 166 C161 167 164 167 167 166 C168 166 169 166 170 165 L179 165 C183 166 187 166 190 165 C193 164 196 164 199 164 L218 164 C220 164 221 164 222 165 C225 165 229 167 232 167 C235 167 237 167 239 168 L247 170 L250 170 C252 171 255 171 257 171 L260 171 C262 172 264 173 267 173 L269 173 C270 172 271 172 272 172 C274 172 275 173 276 173 C278 174 280 175 282 175 C283 175 284 176 285 176 C287 177 289 178 290 180 L290 183 C290 184 290 186 289 187 C288 188 287 189 286 189 C285 189 284 189 284 190 L282 194 C282 195 280 196 279 197 C277 198 275 199 273 201 C272 202 271 202 271 203 L268 206 C268 206 268 207 267 207 L266 208 L265 208 C264 207 263 207 262 208 C261 209 260 209 260 209 C258 210 257 211 256 211 C254 212 253 212 252 212 C239 216 224 214 211 217 C205 218 199 217 194 217 L147 217 L119 217 Z " />
<glyph glyph-name="period" unicode="&#x2e;" horiz-adv-x="129" d="M113 51 C116 69 98 88 82 95 C69 101 65 99 56 86 C55 83 54 81 51 80 C41 74 39 63 40 53 C43 41 46 30 52 19 C57 5 71 3 84 8 C106 17 112 32 113 51 L113 51 Z " />
<glyph glyph-name="slash" unicode="&#x2f;" horiz-adv-x="395" d="M200 205 C199 206 199 206 200 207 C201 208 202 208 202 210 L202 211 C204 213 203 215 205 216 C206 217 206 220 207 221 C206 222 206 223 207 223 C208 224 208 225 209 225 C211 226 210 229 211 230 C211 231 211 232 212 232 C212 233 213 234 213 235 L213 239 C213 240 216 243 217 244 C216 245 217 246 218 246 C219 247 219 249 221 251 C221 252 222 252 223 254 C222 254 223 255 223 255 C224 257 224 259 225 260 C227 261 227 263 227 265 C227 267 227 268 228 269 C229 270 230 271 230 272 C230 273 230 274 231 274 C231 275 232 276 232 276 C232 278 232 279 233 281 C233 282 234 282 234 283 C236 284 236 286 237 288 C239 290 240 293 241 295 L241 297 C243 298 243 300 243 302 C243 303 267 360 269 361 C270 363 270 365 271 366 C271 367 272 368 272 368 C273 370 275 372 275 373 C275 374 275 376 276 378 C277 379 278 385 279 387 C280 390 283 393 284 396 C285 399 283 402 285 404 C286 405 287 406 287 408 C289 409 289 411 290 412 L290 414 C291 416 291 418 292 419 C301 429 304 444 309 455 C310 456 310 457 310 458 L312 462 C312 463 313 464 313 465 C313 465 314 466 314 467 C315 468 315 468 315 469 L317 474 C317 475 318 477 319 478 C319 479 319 479 320 479 C320 480 321 481 321 481 C322 482 322 483 322 484 C322 485 323 487 323 489 C323 490 324 490 324 491 C324 492 325 493 326 494 C326 495 326 496 327 497 C327 498 328 499 328 500 C329 501 329 502 329 502 C330 504 330 506 331 507 C331 508 332 509 332 510 C332 512 333 513 334 515 L334 518 C336 524 338 530 335 536 L335 539 C335 540 334 541 334 542 C333 542 333 542 333 543 C332 543 332 544 331 545 C331 545 330 545 330 546 C329 546 329 547 328 547 C328 548 327 548 327 548 L325 550 C324 550 323 551 323 551 C321 551 319 552 318 553 L310 553 C309 553 309 552 308 552 L305 550 C305 549 304 548 303 547 C299 539 295 529 290 520 C291 519 290 519 290 519 C289 518 288 517 288 516 C286 514 285 512 283 511 C282 511 282 510 281 510 C281 509 280 508 280 508 L278 505 C278 502 277 500 276 498 C275 497 275 496 275 495 C274 494 273 493 273 492 L271 489 C271 487 270 485 269 483 C268 483 268 482 268 481 C267 480 267 480 267 479 C266 478 266 477 266 477 L264 474 L263 473 C263 472 262 472 262 471 C261 471 261 470 261 469 L259 466 L258 466 C258 465 257 465 257 464 L256 463 C246 454 243 436 239 423 C237 415 231 409 226 403 C222 397 222 393 220 387 C214 370 178 299 169 284 C166 279 165 273 164 267 C163 263 162 260 160 257 C159 255 155 252 156 250 L156 248 C155 248 155 248 155 247 C155 246 151 240 150 239 C149 235 149 232 147 228 C143 221 136 214 135 206 C136 205 135 204 135 204 C134 203 134 201 133 199 C133 198 133 198 132 197 C131 196 132 194 131 193 C128 190 126 182 124 178 L118 162 C116 158 113 154 111 149 C107 142 97 123 94 114 L94 112 L92 109 C92 109 93 108 92 108 L92 107 C92 107 91 107 91 106 C90 106 89 105 88 104 C88 103 87 101 86 99 C86 99 86 98 85 97 C85 96 84 95 84 94 C83 93 83 92 83 91 C82 90 82 88 81 86 C80 85 79 83 79 80 C78 79 77 77 77 75 C77 74 76 74 76 73 C77 70 78 68 76 66 C74 64 76 60 74 58 L72 56 L70 50 C70 50 70 49 69 49 L69 46 C69 44 69 43 68 41 C69 36 65 32 67 27 L69 12 L71 9 L79 5 C80 4 81 4 82 4 L89 2 C90 2 91 2 92 3 L105 6 L107 8 L109 13 C109 13 110 13 110 14 C110 14 111 15 112 15 C112 16 113 16 114 17 C114 17 115 18 116 18 C116 19 116 20 117 21 C117 22 118 24 119 25 L119 26 C120 27 121 27 121 28 C122 29 122 30 123 30 L125 38 L126 39 C126 40 127 41 127 41 L128 42 C129 43 129 44 130 44 C130 45 131 46 131 47 C132 49 132 52 134 55 L134 57 L136 59 C137 60 137 63 138 64 C138 65 138 65 139 66 C140 67 139 69 140 71 C143 73 141 76 143 78 L145 82 C147 84 146 86 147 88 C147 88 147 89 148 89 C148 90 149 91 150 92 L152 96 C152 97 152 98 153 98 C154 100 153 102 155 103 C156 104 156 107 157 108 C156 109 156 110 157 110 C158 111 159 112 159 113 C158 114 159 114 159 115 C161 116 160 118 161 120 C161 120 161 121 162 122 C162 122 163 123 163 124 C166 126 170 140 172 142 C174 143 173 145 174 147 C174 148 175 150 175 151 C176 153 175 154 177 156 L181 161 L181 163 C183 164 182 166 184 168 C183 168 183 169 184 170 C185 170 185 171 186 172 C187 173 187 175 188 177 C188 178 188 180 189 181 C189 182 190 183 190 183 C193 186 194 190 195 194 L195 195 C197 196 196 198 198 200 C199 201 199 203 200 205 L200 205 Z " />
<glyph glyph-name="zero" unicode="0" horiz-adv-x="305" d="M290 245 C289 259 289 273 288 287 C286 310 281 331 274 353 C269 369 264 387 257 404 L249 424 C246 428 242 444 239 447 L238 447 L238 448 C238 451 237 453 237 456 C236 456 236 457 236 457 C235 460 235 462 234 464 L229 470 C228 470 228 471 228 472 L225 476 C225 476 224 476 225 478 C224 480 221 480 220 481 C220 483 219 484 217 485 C216 485 215 486 215 488 C214 489 213 490 212 490 C212 492 210 493 209 493 L207 497 L201 502 C200 503 199 504 198 504 L196 504 L196 506 C195 506 194 507 194 508 C194 509 194 511 194 511 L194 511 L194 512 C194 513 192 512 190 514 C188 517 185 514 182 517 L176 522 C175 526 171 523 170 526 C167 528 164 526 161 528 C159 531 154 530 152 531 C151 531 149 531 147 532 C145 534 143 534 142 534 L140 534 L139 535 C137 536 135 536 131 535 C131 534 130 534 129 535 L126 535 C126 534 125 534 124 534 C123 534 122 532 122 531 C121 528 115 525 114 522 L102 508 C99 503 95 499 95 495 C95 493 90 489 89 484 C88 478 83 474 80 469 L73 457 C71 452 65 448 61 443 C59 439 58 433 54 429 C53 428 52 427 52 425 C52 424 52 423 51 423 C50 422 50 420 48 420 C47 419 47 415 46 414 C45 413 44 411 44 410 L44 409 L43 409 C43 408 41 406 40 405 C41 404 41 404 40 402 C39 401 38 400 38 399 C39 397 38 397 38 396 C37 396 36 395 36 392 L36 391 C33 390 34 386 33 385 C30 382 32 378 30 376 C31 375 30 373 30 373 C29 371 29 368 27 367 C27 366 27 366 26 364 C25 363 26 361 25 358 C25 357 25 357 24 355 L22 352 C23 352 23 350 22 350 C21 348 21 345 19 344 C17 341 19 338 17 335 C15 333 16 329 14 326 C11 324 14 320 11 317 L11 312 C9 310 10 306 9 302 C9 301 8 299 8 297 C7 294 8 291 5 288 C7 287 7 287 5 285 C4 283 5 279 3 275 L3 271 C2 268 3 263 2 259 C2 257 2 255 2 254 C1 250 2 247 1 243 C1 242 1 240 0 238 C-1 233 1 226 -1 221 C0 217 0 213 -1 209 C-2 200 -1 190 -1 180 L-1 177 C-1 175 -1 174 -1 171 C0 166 0 160 -1 154 C0 151 -1 146 0 142 C1 142 1 140 0 139 C2 137 2 133 2 130 C2 128 2 124 3 121 L4 121 L3 120 C4 118 4 115 7 112 C8 111 7 109 9 107 C9 106 10 105 10 104 C11 104 12 104 11 102 C11 101 12 100 14 98 C15 97 15 97 14 96 C15 95 16 93 16 92 C18 91 17 88 19 87 L24 81 C26 79 25 76 27 76 C27 74 29 73 30 72 L36 65 C37 64 38 62 40 60 L44 55 C44 54 45 53 46 51 C47 50 47 49 50 49 C50 48 51 46 52 46 C54 45 59 37 61 35 C64 34 68 31 71 28 C72 27 73 25 75 23 C76 22 79 22 80 22 L89 17 L90 17 L91 16 C93 15 95 15 95 13 C95 12 95 12 95 11 L96 11 L96 9 C99 8 101 8 103 8 C104 8 104 8 106 7 C109 4 114 2 120 2 L121 2 C123 -1 125 1 128 1 C128 -1 129 -1 130 -1 C132 -1 135 -1 137 -2 L143 -2 C144 -3 146 -3 147 -2 C152 1 157 2 160 1 C161 1 163 4 161 4 C163 4 163 3 163 3 C166 3 168 2 172 2 C172 3 172 3 173 3 C175 3 176 3 178 4 C179 3 181 3 182 4 L185 4 C185 6 186 6 186 6 C186 6 187 7 188 7 L188 8 L189 8 C192 8 194 8 194 11 C194 12 194 12 194 13 C194 15 196 15 198 17 C200 17 200 18 201 20 C205 21 208 21 209 25 L210 26 L210 25 L215 27 L215 28 L216 28 C222 28 230 41 234 46 C241 55 245 64 250 74 C255 83 262 91 266 100 C273 114 278 129 281 144 C285 162 288 179 289 196 C290 210 291 228 290 242 L290 245 Z M227 226 C225 207 220 190 217 172 L214 166 C194 123 173 65 123 54 C115 53 109 58 103 64 C95 72 95 81 86 90 C81 93 79 100 76 106 C69 126 64 147 62 167 C62 177 60 186 61 196 C62 205 62 214 62 224 C62 235 65 243 65 255 C66 263 66 274 69 280 C74 293 82 303 87 316 C95 340 95 366 110 386 C123 405 138 424 150 444 C156 456 163 461 173 469 C190 481 194 462 194 448 C198 441 198 434 199 427 C203 405 210 383 215 361 C220 339 222 317 225 297 C230 273 229 249 227 226 L227 226 Z " />
<glyph glyph-name="one" unicode="1" horiz-adv-x="167" d="M44 497 C43 496 43 495 42 495 L39 491 L35 488 L33 486 C33 484 32 484 31 484 C29 483 29 482 31 479 L31 482 C31 481 32 481 33 481 C34 470 34 474 35 473 L35 472 C36 470 37 469 37 468 C38 466 39 465 40 465 L40 464 C41 463 43 460 44 460 C45 460 46 459 47 459 C51 459 56 457 59 459 C62 460 64 465 67 466 C72 468 71 461 70 457 C69 453 69 446 67 442 C67 438 68 433 67 430 C65 424 67 417 65 411 C65 411 65 410 64 408 C64 407 63 405 63 402 C63 399 63 398 62 397 C61 396 61 393 60 390 C61 389 61 389 60 388 C58 383 60 376 58 370 C59 369 58 369 58 367 C55 363 58 357 56 353 C54 350 55 347 54 343 C53 341 53 340 53 338 C51 335 53 330 51 326 L51 323 C49 321 50 317 49 314 L49 309 C47 305 48 302 47 299 C47 298 46 296 46 294 C44 290 47 286 44 282 C45 280 45 278 44 277 L42 267 L42 253 C40 249 42 245 40 241 C40 238 40 237 39 236 C37 231 39 224 38 219 L38 214 C38 206 38 199 37 191 C36 188 37 184 35 182 L35 154 C33 147 35 141 33 135 L32 134 C32 134 32 133 33 133 L33 121 C35 121 33 115 35 110 C36 105 35 103 35 98 C37 93 35 88 37 81 L37 74 C39 71 39 69 37 65 L35 65 C33 66 24 63 21 63 C16 63 10 66 6 62 C2 60 -1 54 -1 49 C-2 44 0 44 1 40 C2 39 1 30 3 30 C3 30 4 29 3 27 C4 26 4 25 6 25 C6 22 7 22 8 21 C8 20 9 18 10 18 C11 17 12 16 13 16 L14 16 L15 14 C15 14 16 13 17 13 C18 12 20 9 20 8 C22 7 24 7 26 7 C30 7 35 3 39 3 C50 3 62 -1 74 -1 L96 -1 C104 -1 110 9 119 9 C124 9 131 9 136 13 C142 17 146 29 146 38 C146 48 141 56 135 61 C134 61 134 61 133 62 L118 69 L118 72 C115 72 113 71 115 75 C114 76 115 75 115 76 C118 83 115 89 117 97 L117 98 L118 98 C118 99 118 99 117 101 L117 103 C120 108 119 115 118 121 L118 123 C119 123 119 124 119 124 C119 124 120 124 120 125 C120 125 120 126 119 126 C120 129 120 130 120 133 C121 134 121 137 120 138 L120 142 C121 143 121 146 120 147 L120 150 C123 163 127 175 122 188 L122 191 C123 192 123 193 122 195 C121 197 121 200 122 202 C123 204 123 205 123 206 C123 208 123 208 124 208 C126 211 126 214 124 218 L124 220 C126 224 125 229 126 233 C125 235 126 236 126 237 C126 238 125 241 126 242 L126 247 C129 260 130 275 131 289 C130 290 131 290 131 291 C134 295 133 299 133 303 L133 305 L135 307 L135 308 L134 309 L134 308 C133 314 135 321 133 327 C133 329 133 331 134 332 C136 341 133 350 135 360 C135 362 134 367 135 369 C138 374 136 383 137 387 C138 394 142 398 143 406 C143 411 142 416 142 423 C141 428 139 433 140 438 C140 439 139 441 139 441 C140 446 149 451 147 456 L143 459 C147 463 149 461 149 469 C149 474 150 482 148 486 C147 488 144 488 143 490 C141 492 144 500 144 502 C144 509 143 513 140 518 L138 518 L135 523 C135 526 132 524 131 527 L132 527 C128 532 118 535 117 537 L116 536 L115 536 C115 536 114 540 113 538 C112 538 111 540 111 540 C104 541 97 540 90 538 C80 536 76 520 68 514 C64 511 60 513 57 510 L44 497 Z " />
<glyph glyph-name="two" unicode="2" horiz-adv-x="271" d="M249 66 C248 67 248 69 247 69 C246 75 241 78 236 81 C235 81 235 81 234 82 L232 85 C231 86 229 86 228 85 L226 85 C221 81 214 85 209 82 C206 81 203 80 200 80 C199 78 197 78 196 78 L192 78 C190 78 188 78 186 80 C177 80 168 81 159 81 C151 77 144 82 136 78 L128 78 L121 75 C118 74 115 74 113 75 C110 73 107 75 104 73 C103 71 100 73 99 74 C99 75 100 82 101 85 C102 89 105 93 106 97 C107 98 107 100 108 100 C110 102 108 106 110 109 L111 105 L112 104 L112 110 C114 112 114 116 115 117 C114 118 115 120 115 121 C116 122 118 124 118 125 C118 125 118 126 119 126 C119 128 120 129 120 132 C120 132 120 133 121 133 C122 134 121 138 123 140 C122 141 122 141 123 142 L125 148 C126 149 127 151 127 153 C127 153 127 155 128 155 C128 156 129 157 129 159 L129 160 L130 160 C131 163 131 165 132 167 C133 168 133 172 134 173 L134 176 L136 179 C139 181 139 184 139 185 C139 187 139 188 140 188 C141 189 141 192 142 195 C141 196 142 196 142 197 C143 199 143 200 144 200 L144 203 C145 205 145 208 146 209 C148 211 147 214 149 216 C148 218 146 218 147 219 C149 222 149 227 149 231 C149 232 153 232 153 235 C153 235 154 236 155 236 C159 239 161 250 163 254 C164 259 164 266 166 271 C168 274 170 275 172 279 C171 278 171 282 171 282 C171 285 173 289 174 291 L182 299 C187 307 189 321 189 331 C191 333 190 335 192 337 C192 338 193 339 194 341 C193 344 193 346 194 349 L196 353 L196 356 C199 358 196 362 200 365 C201 366 201 369 201 372 C201 372 201 373 202 374 L204 380 C203 381 204 382 204 382 C205 385 205 388 206 389 C207 390 207 393 208 396 C208 398 208 400 209 401 C210 404 210 406 210 408 L210 409 L211 411 C213 413 211 417 213 420 L213 425 C216 433 213 441 215 448 L215 457 C214 460 214 464 215 467 C214 469 214 473 214 478 C213 478 213 479 213 480 C214 483 214 484 213 486 C212 488 210 491 210 492 C210 494 209 494 209 495 C209 496 209 498 208 498 C207 500 208 503 206 504 C206 506 205 507 204 507 C202 510 203 512 202 514 L199 516 C199 518 197 519 196 519 C195 522 193 520 192 523 C190 524 188 524 187 526 C186 527 185 528 184 528 C183 528 183 528 182 530 C181 531 179 530 177 532 C176 534 174 534 172 535 L168 538 C166 541 164 539 162 541 C161 541 160 542 159 543 C154 547 150 550 146 550 C139 550 133 551 126 549 C123 549 121 547 118 546 C116 546 109 547 108 545 C108 543 107 543 107 543 C104 542 101 543 99 541 L98 541 L91 538 L87 535 C86 534 83 534 82 531 L74 526 L74 524 L73 526 L70 523 C69 522 68 520 67 520 C66 518 64 519 63 516 C62 515 61 515 61 512 C60 512 59 511 59 510 C58 510 57 508 57 507 C54 507 53 506 53 503 C53 502 53 502 51 502 C50 500 49 500 49 498 C47 498 47 496 46 494 C47 494 46 492 46 492 C45 491 45 490 44 490 C43 488 42 487 42 486 C41 486 40 484 40 483 C38 482 38 479 37 478 C36 476 34 475 34 473 C32 472 33 469 31 468 C30 465 30 464 31 461 C33 460 32 457 33 456 L34 455 C34 452 36 451 37 451 C38 448 39 448 40 447 C40 445 41 445 41 443 C43 441 44 439 46 439 C47 436 48 435 49 435 L51 435 C52 433 52 432 54 432 C55 432 57 432 58 431 C65 429 71 429 78 431 L78 432 L79 432 C80 432 81 433 82 435 L85 437 C85 439 86 440 87 440 C87 441 88 443 89 444 C91 447 89 451 91 453 C92 453 93 455 93 456 L89 456 C89 459 94 460 97 463 L98 461 C99 463 100 464 101 464 L103 465 C104 467 109 467 109 468 C109 469 111 471 112 473 L112 475 C114 475 114 476 115 478 C116 478 116 479 118 480 L120 480 L123 483 C126 486 129 486 132 490 C132 491 133 491 134 492 L135 492 C138 492 139 494 140 495 C142 496 145 496 148 496 C156 491 151 483 151 476 L151 473 C147 471 149 464 146 459 C146 457 145 456 144 455 C145 452 141 443 141 439 C139 432 135 428 132 421 C129 413 130 402 125 394 C124 393 124 390 123 388 C123 386 123 386 122 386 C122 385 121 384 121 382 C121 381 121 380 120 380 C120 378 119 377 119 376 C116 374 116 372 115 370 C114 369 113 368 113 366 C114 364 115 362 114 361 C113 360 114 357 114 356 C106 354 110 353 110 352 L108 349 C108 348 107 346 106 345 C107 345 107 344 106 344 C103 339 102 331 100 326 C99 323 88 309 93 310 L91 302 C92 302 92 301 91 301 C90 299 89 298 89 297 L89 294 L87 289 C85 287 86 285 85 282 C83 281 83 278 82 275 C83 275 82 274 82 272 L80 267 C79 266 79 263 78 260 C75 259 77 254 74 252 C73 250 73 247 72 246 L72 243 C71 240 69 238 69 236 C69 235 69 232 68 231 C66 228 66 226 66 223 C66 223 66 222 65 222 C62 215 63 207 60 200 C59 197 55 195 54 192 C52 189 51 185 51 183 C50 177 48 173 46 169 C44 167 46 163 44 160 C44 159 44 159 43 157 C43 156 42 155 42 153 C42 152 42 152 41 152 C41 151 40 149 40 148 C40 147 40 145 39 145 L37 140 C36 138 34 137 34 136 C34 134 34 133 33 133 C33 132 32 130 32 129 C32 128 32 128 31 128 C30 126 30 125 30 122 L29 121 C28 120 27 118 27 117 C28 116 27 116 27 114 L25 109 C23 106 23 104 23 102 C23 101 23 100 22 100 L20 96 C21 94 20 94 20 93 L18 88 C17 86 17 84 16 81 C16 80 16 80 14 78 C13 75 13 74 13 71 C13 69 13 67 12 66 C11 63 12 59 10 57 L10 51 C8 43 8 35 10 27 L10 25 C11 23 11 19 12 18 C14 17 13 12 16 11 C16 10 17 10 18 8 L22 6 C25 3 27 0 30 -1 C36 -4 40 -5 46 -5 C55 -4 64 -4 72 -1 C78 0 82 0 87 0 C91 0 100 -1 104 2 C105 3 106 3 108 3 C110 4 113 3 115 4 C116 6 119 6 121 4 C122 3 124 3 125 4 C127 6 128 6 130 4 C135 3 141 3 146 4 C148 6 149 6 150 6 C152 7 153 7 154 6 L161 6 C162 7 163 7 164 6 L169 6 C171 7 173 7 175 6 L177 6 C180 7 182 4 185 6 L186 6 C197 8 209 4 221 8 C223 10 225 10 227 8 C228 8 229 10 230 11 C231 12 231 14 232 14 C243 22 251 31 251 49 C254 55 250 61 249 66 L249 66 Z " />
<glyph glyph-name="three" unicode="3" horiz-adv-x="281" d="M68 469 L78 477 C83 481 87 487 92 488 C99 491 105 495 113 495 C120 495 129 488 125 479 L122 469 L124 468 L122 468 C120 460 119 453 118 446 C118 446 118 444 117 444 C115 443 115 442 115 439 C115 439 115 438 114 438 C113 437 113 435 112 435 C108 430 104 426 102 420 C98 418 98 414 96 412 L91 405 C89 404 87 403 87 399 C84 399 84 398 84 395 C84 394 80 390 78 387 C76 386 71 381 70 379 C67 375 65 370 62 365 C62 362 61 361 61 359 C60 357 58 352 58 351 L58 349 C59 347 59 343 58 339 C58 336 59 335 60 335 C60 334 61 333 62 331 L61 331 C61 330 62 330 62 329 L65 329 C66 322 71 325 75 322 C82 313 90 314 99 317 L100 317 C108 318 117 318 122 326 C124 326 125 327 125 329 C127 330 129 330 130 331 L130 333 L132 331 L139 334 C140 334 141 335 142 335 C144 335 145 336 147 336 C148 338 151 338 154 338 C161 340 171 336 178 334 C182 331 186 326 188 321 C189 317 188 308 192 305 C192 303 191 301 191 299 C189 296 188 294 192 291 C194 283 189 275 193 269 C194 266 194 264 193 261 C188 246 193 230 188 216 C185 213 186 208 186 204 C186 204 186 203 185 201 C182 199 182 194 180 190 L178 190 C174 186 180 179 171 175 C171 173 172 170 170 169 L171 169 C166 166 165 162 164 157 L162 157 C162 156 162 155 161 153 L162 153 C161 153 161 149 159 148 C159 149 157 144 157 144 L151 139 C147 133 143 123 136 118 C130 114 126 105 118 105 L118 101 C117 101 115 100 114 99 C114 97 113 96 112 96 C112 95 111 95 111 95 C108 95 107 94 106 92 C106 92 106 91 105 92 C103 91 100 91 99 90 C98 88 98 88 97 88 C95 87 92 88 90 88 C88 88 87 87 85 87 C84 86 83 86 81 86 C77 83 74 86 70 83 C69 83 69 82 68 83 C66 82 63 81 62 81 C60 81 56 78 54 81 L54 82 C52 86 53 88 52 92 C51 99 51 107 52 113 C53 114 54 116 54 117 C53 118 53 118 54 118 C56 121 54 125 56 127 C59 130 59 138 60 140 L67 156 C69 160 74 164 74 169 C74 170 71 178 69 178 C68 177 68 178 67 178 L65 181 C63 182 62 183 61 183 C60 183 60 183 59 184 C59 184 58 186 56 186 C53 191 47 186 44 190 L39 190 L36 187 C35 186 35 184 33 184 L30 181 C30 179 29 179 28 178 C28 177 26 175 25 175 C24 173 24 170 23 169 C22 169 21 168 21 166 C19 165 19 164 19 162 C18 162 18 161 17 160 L15 157 C13 156 14 153 13 151 C6 146 6 135 6 126 C6 122 7 117 7 112 C7 109 3 101 6 99 C7 97 6 96 6 96 C8 92 3 87 8 84 C9 82 7 78 10 75 C11 75 13 74 13 73 C13 71 14 70 14 69 C15 69 15 68 15 66 C17 60 21 55 25 51 L28 48 C31 44 29 40 35 38 C38 35 41 34 44 29 C46 22 51 17 56 14 C60 13 62 13 66 10 C68 9 71 5 74 6 L75 6 C77 4 78 6 81 6 L85 3 C90 1 96 3 100 3 C107 3 114 1 121 3 C127 3 136 3 141 6 C144 9 150 9 154 10 C156 13 159 14 163 16 C170 18 173 22 178 29 L184 34 L191 39 C192 40 193 40 193 42 C194 43 195 44 195 45 C198 47 198 49 199 51 L198 51 C199 53 200 55 200 57 C200 58 204 60 204 61 L206 62 L207 62 C208 65 210 64 211 65 L213 66 L214 66 C215 66 216 68 217 70 C216 70 217 71 217 71 C218 73 219 74 219 75 C221 75 222 77 222 78 C224 79 225 83 228 84 L230 87 L233 92 C233 92 233 94 235 94 C235 95 236 95 236 96 C236 96 237 96 237 97 C238 97 238 99 239 100 C239 100 239 101 240 103 C240 103 241 104 241 105 C241 105 243 107 243 108 C243 109 244 110 244 112 C245 112 245 113 245 114 L247 118 C247 118 247 120 248 121 C248 122 250 123 250 125 L250 127 C250 130 250 133 251 134 C254 136 252 140 254 143 C255 144 255 147 256 149 C255 151 255 151 256 151 C260 156 260 162 262 168 C263 179 263 190 261 201 C256 227 252 253 250 279 C248 287 247 294 244 299 C243 300 243 301 243 301 C243 316 239 326 232 338 C222 353 209 365 194 373 C181 382 179 391 182 405 C182 408 182 412 184 414 C185 417 185 420 185 421 L185 422 L186 424 L188 427 L188 431 C189 433 189 434 188 435 L188 438 L189 439 C189 439 189 440 188 440 L188 444 C191 450 188 456 191 461 L191 468 C192 469 192 472 192 473 C189 477 192 485 191 488 C189 492 187 495 186 498 C184 501 181 507 178 509 C176 513 172 514 170 518 C169 518 167 521 167 521 C166 521 165 522 164 524 L159 526 C158 529 156 527 154 529 C152 531 150 531 148 533 C148 531 147 531 147 533 L140 535 L139 534 L139 535 C136 538 133 535 129 538 L128 538 C125 540 121 539 119 540 C117 540 114 542 112 542 C103 543 95 543 85 542 C84 542 83 540 82 540 C78 539 75 540 73 538 L70 538 C69 537 67 537 65 535 C63 534 61 534 60 531 C59 531 58 530 56 529 L54 526 L51 524 C51 521 47 522 47 520 C45 520 45 518 44 517 C43 517 41 516 41 514 C40 513 39 513 39 511 C38 511 37 509 36 508 L33 503 L28 496 L26 496 C24 495 22 492 22 491 L24 491 L21 485 C19 485 19 483 18 482 L19 482 C17 481 18 477 17 476 L17 473 L15 466 L15 464 C14 460 13 456 15 453 C15 452 16 451 17 450 C18 447 21 446 23 444 C25 442 29 443 31 442 C32 438 50 447 52 448 C56 453 59 460 62 465 L68 469 Z " />
<glyph glyph-name="four" unicode="4" horiz-adv-x="309" d="M282 182 L282 181 L282 182 Z M293 210 C292 211 292 213 292 213 C289 218 295 226 291 226 C281 228 274 245 263 241 C257 238 250 246 245 246 L244 246 C242 246 238 243 235 245 C233 246 234 251 234 254 C233 261 228 268 227 275 C223 293 231 319 216 332 C209 338 197 333 189 333 L184 333 C182 330 180 332 178 330 C177 329 177 329 176 329 C174 328 170 329 168 327 C167 325 165 325 164 324 C163 323 162 321 162 319 C163 318 162 316 162 316 C164 302 162 288 162 274 C162 268 162 260 161 252 C159 232 153 228 135 228 C125 227 115 231 105 229 C104 228 103 227 101 227 C105 227 105 246 108 250 C113 261 120 270 124 283 C127 297 133 311 137 325 C144 332 145 342 149 350 C150 351 150 352 150 353 C151 355 152 357 152 358 C153 360 153 361 153 362 C154 365 154 367 156 370 C156 371 157 373 157 374 C158 375 158 376 158 378 C158 379 159 380 159 381 C156 389 161 397 161 404 C163 412 165 420 166 427 C169 440 179 452 183 465 C187 475 191 486 189 499 C189 504 186 508 186 513 C185 519 186 525 183 528 L182 528 L179 532 C178 532 177 534 177 535 C176 536 175 536 174 537 L171 540 C170 541 169 542 168 542 C167 545 165 545 164 546 C162 548 160 548 159 549 C158 551 154 550 153 551 C152 551 152 551 151 553 C149 554 147 554 144 553 L142 553 C140 554 136 554 134 551 C133 551 132 550 132 549 C132 546 132 545 131 544 C130 540 131 536 129 534 C130 534 130 532 129 531 C128 530 128 527 127 525 C128 523 128 523 127 522 C125 521 126 518 125 517 C121 514 124 509 122 507 C122 505 122 505 121 504 C120 503 120 500 119 498 C120 496 119 496 119 495 C118 494 117 494 116 493 C115 493 115 491 114 490 C114 490 114 489 113 488 C113 488 113 486 112 485 C112 484 112 484 111 482 C111 481 111 481 110 480 C110 479 109 477 109 476 C108 475 108 475 108 473 C106 472 106 471 105 470 C105 468 104 468 104 467 C104 466 103 466 103 465 C103 463 102 462 102 462 C101 461 101 459 100 457 L100 454 C100 452 101 450 100 448 C98 447 98 444 97 442 L98 440 L97 439 L94 435 C94 435 93 434 93 433 C92 431 92 430 91 429 C91 427 91 426 89 425 L89 422 C89 422 89 421 91 421 C91 420 91 419 89 419 C88 417 88 415 87 413 C86 411 85 411 85 408 L85 407 L84 407 C83 404 83 402 82 401 C83 399 82 398 82 398 C81 397 81 396 80 394 C79 394 79 393 78 393 C77 392 77 390 76 389 C76 388 76 387 75 387 C75 384 75 383 73 381 C73 381 72 380 73 380 C72 380 72 379 71 379 C71 378 70 376 70 376 C70 375 69 374 69 373 C69 373 68 371 68 370 C68 369 67 367 66 366 C65 365 65 364 64 364 C64 362 63 361 63 361 C63 360 62 358 62 358 C61 357 61 356 61 355 C60 355 60 353 60 352 C59 351 59 350 57 350 C57 348 57 347 56 346 C56 346 55 344 55 343 C55 342 54 342 54 341 C54 339 53 338 53 337 C52 337 52 335 52 334 C51 333 51 333 51 332 C50 330 49 329 49 327 C48 327 48 325 47 324 C46 321 45 320 44 318 C32 297 22 275 14 254 C6 232 -1 209 3 185 C3 182 4 181 5 180 C5 178 5 178 6 177 L8 174 C10 174 10 173 11 173 L14 169 C15 168 16 168 17 167 C19 167 21 165 23 164 C23 164 24 163 26 163 C31 160 36 159 43 160 C44 162 44 163 45 163 L46 164 L47 164 C54 165 63 165 71 164 L76 164 C83 168 92 164 100 165 L110 165 C112 165 114 167 115 167 C116 167 118 167 119 168 C122 169 127 172 131 169 C134 169 136 169 138 172 C141 172 142 172 144 173 C148 174 152 176 158 172 C158 171 158 169 157 168 C156 164 156 160 154 157 C154 154 158 151 158 149 L158 145 C158 144 154 141 153 139 L153 63 C153 61 152 59 152 58 L152 53 L152 49 C153 47 153 44 153 40 C152 39 152 38 153 36 C154 35 154 34 153 31 L153 29 C157 24 159 19 162 15 C162 13 163 13 163 12 C164 12 165 11 165 11 C166 10 167 8 168 8 L184 1 C186 1 189 -1 191 -1 C196 -2 201 1 206 1 C211 1 216 10 215 19 L217 19 L218 19 C218 19 219 20 219 22 C219 24 218 24 219 24 C219 25 220 26 222 26 L222 27 L223 27 C224 27 225 29 226 30 C227 34 225 34 224 35 L224 39 C225 40 225 43 224 44 C223 47 223 49 224 50 C225 54 227 57 228 61 C228 63 227 66 228 68 C231 77 228 88 230 96 L230 102 C234 114 230 127 233 140 C232 142 232 144 233 145 C234 148 234 149 233 151 C232 154 232 157 233 160 C230 164 233 167 235 169 C240 176 245 174 251 173 L252 173 C260 176 267 176 275 178 L276 180 L277 178 C278 180 281 180 282 182 C284 183 283 186 284 187 C285 188 287 188 288 190 L288 191 L289 191 C291 191 292 192 292 194 C293 194 294 195 295 197 L295 205 C294 206 294 209 293 210 L293 210 Z " />
<glyph glyph-name="five" unicode="5" horiz-adv-x="290" d="M277 540 L277 537 C275 540 277 543 275 545 L279 545 C278 545 278 546 279 546 L274 546 C274 553 269 553 266 556 C262 558 258 561 253 559 C248 558 245 557 240 557 C230 557 220 558 210 557 L197 554 C194 554 192 553 189 553 C183 550 177 552 170 550 C161 548 151 545 142 545 L115 545 C108 546 101 544 93 545 C90 545 87 548 86 545 L86 546 C86 545 76 541 68 543 L69 541 C64 539 57 543 51 541 C49 540 48 541 46 543 C45 543 42 544 41 541 C39 541 38 541 36 543 C35 543 33 544 33 544 C31 546 30 546 28 545 C27 544 27 543 26 543 L26 541 C22 540 20 536 18 532 C16 530 14 527 16 523 L16 522 L14 521 C13 519 11 518 12 514 L12 512 C10 509 12 505 10 502 C11 500 11 499 10 496 C7 486 10 473 8 462 L8 460 L7 460 C7 458 7 458 8 457 C9 453 9 449 7 446 C2 439 6 434 8 427 L8 426 C8 426 8 425 7 425 C3 412 6 399 8 387 C9 377 7 365 10 355 L16 339 C17 336 21 333 20 328 C22 325 23 317 26 317 C29 317 31 315 33 312 L33 315 C36 312 38 312 40 311 C44 308 47 304 50 303 C55 299 67 293 73 298 C75 302 79 302 83 304 C84 306 85 306 85 307 L87 307 C89 308 92 308 93 310 L95 312 C97 314 99 317 101 317 C103 317 105 316 106 319 L106 317 L107 317 C110 317 111 317 111 320 C112 320 114 320 115 321 L116 323 C117 325 122 323 124 325 C125 326 126 326 129 325 C132 328 136 325 140 328 C141 329 142 330 142 332 C145 334 150 330 153 334 L155 334 C156 336 159 336 161 334 C164 332 168 332 171 334 C174 336 178 334 181 333 C182 333 183 332 184 332 C184 330 186 329 187 329 C190 323 188 315 192 310 L192 308 C193 306 193 304 192 303 L192 298 C192 251 199 184 161 147 C156 142 150 139 148 132 C149 134 133 121 132 121 C121 111 100 107 88 118 C75 130 82 159 93 171 C94 173 95 174 95 175 C97 175 97 176 98 178 C99 179 101 180 101 182 C103 182 105 184 106 187 C107 188 111 188 111 191 C111 195 112 197 112 201 C112 202 111 204 111 205 C111 206 108 210 106 210 C105 210 104 210 104 211 C103 211 102 213 101 214 C101 215 99 215 98 217 C97 218 96 219 95 219 L88 219 C85 223 85 219 83 219 C80 219 78 220 76 220 C71 219 66 213 64 209 L57 196 C55 192 51 189 48 187 L38 175 L33 169 L33 163 C32 163 31 161 31 160 L31 158 L30 157 C29 154 28 151 29 148 C29 147 28 145 28 144 C26 141 28 136 26 132 C27 131 27 131 26 130 C26 130 27 130 27 129 C27 127 27 127 26 126 C25 125 25 122 26 121 L26 114 C25 113 25 110 26 109 C27 108 27 108 26 107 C26 94 30 81 36 70 L38 66 C38 65 38 65 39 64 C39 63 40 61 41 60 C42 59 42 56 45 55 C45 53 46 52 47 52 C47 51 48 50 49 48 L51 46 C52 43 55 41 57 39 C58 38 58 37 58 35 C58 34 58 33 59 31 L60 30 C61 29 61 28 63 28 C64 26 65 25 65 24 L66 24 C67 22 67 21 68 21 C69 20 69 20 70 20 L74 17 C75 17 76 16 76 16 C77 16 78 15 78 15 C79 15 80 13 80 13 L85 11 C85 11 86 11 87 9 C88 9 89 8 90 7 C92 7 93 7 93 6 C94 6 95 4 96 4 L99 4 C104 4 107 6 112 3 L113 4 L113 3 C115 6 117 4 120 4 C122 4 123 4 124 7 C127 8 131 8 134 7 L139 7 L143 9 C144 9 145 11 145 11 C148 12 149 13 150 16 C151 16 152 17 153 17 L153 19 L155 19 C156 19 158 20 159 21 C160 24 162 22 163 25 C164 25 165 26 165 28 C168 29 170 29 171 31 C170 33 170 33 171 33 C172 39 178 39 181 43 C181 44 181 46 182 46 C182 47 183 47 184 48 C184 50 186 51 187 51 L188 52 L189 52 C191 52 193 53 193 56 L193 57 C194 59 194 60 196 60 C196 61 197 63 198 64 C198 65 201 65 202 66 C203 68 203 69 205 69 C206 72 209 70 210 73 C211 73 212 74 212 77 C212 78 212 78 214 78 C218 87 228 92 233 101 C235 105 237 112 238 117 C238 121 238 123 241 127 C243 127 244 129 244 130 C246 134 247 139 252 141 C254 143 253 147 254 148 C255 149 256 149 257 152 C256 152 256 153 257 153 L259 161 C258 161 258 162 259 162 C262 165 259 169 262 173 C265 175 262 180 265 184 C264 187 264 188 265 189 C266 192 267 193 266 196 C267 198 267 202 267 205 C269 211 266 217 267 223 C266 224 267 226 267 226 C269 228 267 229 267 232 L267 235 C267 254 264 273 259 292 C259 294 258 297 258 298 C258 306 254 315 249 321 C248 324 248 326 246 328 C246 329 245 330 244 332 L241 337 C240 338 239 339 239 341 C237 342 238 345 236 346 C236 347 235 348 234 348 C233 350 231 351 231 352 L228 355 C227 356 227 358 226 358 L222 361 L218 364 C217 365 216 367 216 368 C215 368 214 369 212 369 C211 372 209 372 207 373 L202 376 C200 378 198 378 197 378 C196 378 194 378 194 380 C193 381 192 382 191 382 C190 381 190 381 189 382 C188 383 186 383 183 385 C182 385 182 385 181 386 C180 387 178 386 175 389 C175 387 174 387 173 389 C172 391 168 389 167 391 C163 394 160 391 158 394 C156 394 154 394 153 395 C141 396 129 396 116 394 C114 391 111 394 108 391 C108 391 107 390 106 391 C104 389 101 391 98 389 C97 386 95 387 93 386 C93 385 93 385 92 385 C89 385 87 382 86 385 L86 389 C87 400 87 412 86 424 L86 427 C87 430 87 434 86 436 C85 438 85 440 86 442 C84 447 86 453 86 458 L86 460 C86 462 85 465 85 468 C84 471 85 474 88 475 C90 477 93 477 96 475 C97 474 97 474 98 475 L101 475 C108 473 115 473 122 475 L123 475 C126 475 131 477 134 477 L146 477 C153 477 160 478 167 478 C172 479 178 480 183 483 C190 486 197 484 203 486 C209 487 216 487 220 490 C222 491 225 490 226 491 L228 491 C230 493 234 491 236 493 L237 495 L237 493 C239 493 240 495 241 496 L243 497 L244 496 C247 500 254 495 256 501 C256 502 257 502 258 502 C262 502 263 505 265 508 C266 509 268 514 269 513 C271 512 272 518 273 518 C278 518 281 530 277 540 L277 540 Z " />
<glyph glyph-name="six" unicode="6" horiz-adv-x="282" d="M56 57 C56 54 72 44 75 44 C76 44 76 44 76 42 C77 42 78 41 80 41 C80 38 81 38 83 37 L84 38 L84 37 C85 36 87 34 88 34 L90 34 C91 33 94 33 95 33 C97 33 100 30 101 29 L102 29 L103 28 C104 26 106 25 108 25 L109 25 C110 24 111 22 113 22 L114 22 L115 21 C118 19 122 17 126 16 C130 11 135 5 142 7 C143 7 143 9 144 9 C150 7 157 9 163 9 C165 9 167 4 168 4 C169 5 170 5 172 5 C174 7 178 9 180 9 L180 8 L181 8 C183 8 188 7 188 9 C188 13 195 9 198 12 L198 13 L199 13 C201 15 204 13 205 16 C207 17 209 17 211 19 C212 21 214 20 215 22 C217 22 218 24 219 25 L220 25 C221 25 222 26 224 28 L225 29 L226 28 L230 32 C232 33 235 38 237 41 C240 46 245 52 247 57 L253 69 C254 73 257 77 257 79 C258 85 257 85 259 89 C261 94 261 99 263 104 C265 110 268 114 265 120 C265 122 265 122 266 123 C268 127 267 131 266 135 C266 136 265 137 265 139 C267 140 267 143 265 144 L265 147 C265 148 264 148 263 148 C263 152 263 155 260 157 L260 172 C259 173 259 173 259 174 C259 176 259 176 258 176 L258 177 C258 181 259 184 257 188 C254 190 257 194 254 197 C252 198 252 209 251 211 C248 219 246 226 241 231 C240 234 237 235 235 238 C234 240 234 244 231 246 C230 246 230 246 230 247 C230 250 228 251 227 251 C226 252 226 252 226 254 C226 256 222 256 221 258 L219 262 C217 263 215 268 213 269 C212 272 209 271 208 273 L205 276 C204 277 204 279 202 279 C201 280 200 281 199 281 C199 284 198 284 196 285 C194 288 191 289 188 291 C187 291 186 291 186 292 C185 293 183 293 183 295 C181 296 179 296 178 297 C176 300 174 299 172 300 C169 304 166 301 163 304 C162 302 162 302 161 304 C159 306 155 304 153 306 C150 306 149 306 147 308 C144 312 137 312 136 320 C136 320 136 321 137 322 C137 324 142 328 144 330 L149 342 C149 345 149 347 150 350 L159 361 C163 370 166 380 169 390 C175 395 178 402 180 408 C182 409 181 412 182 415 C185 415 185 419 186 420 C187 421 187 423 188 423 C191 425 193 427 194 429 C196 432 198 436 199 439 C201 440 204 441 205 445 C206 445 207 446 207 448 C208 449 209 450 209 452 C212 453 214 456 215 458 C215 460 215 462 217 464 C217 464 218 465 218 466 C220 468 221 469 221 470 L221 473 C222 473 224 474 224 477 L224 478 L225 478 C225 479 226 481 226 482 C228 482 228 483 230 485 C231 486 232 486 232 487 L238 495 C238 497 238 497 240 497 L246 506 C247 507 248 509 248 510 L248 523 L246 531 C245 532 245 536 241 536 C240 536 240 536 240 538 C240 542 237 540 235 543 L234 543 L234 544 C234 547 233 548 232 548 C231 551 228 549 227 552 C226 553 225 555 224 555 L221 555 C220 556 218 556 215 557 C214 557 214 557 213 559 L209 561 C209 560 208 560 207 561 C204 564 198 561 194 564 L192 564 C189 563 187 560 186 557 C185 557 185 556 183 556 C182 555 182 555 181 555 C178 552 179 546 175 543 C173 542 170 539 169 536 C168 535 167 535 167 534 C165 532 166 530 163 528 C163 527 162 527 161 527 C159 526 160 523 159 522 L157 522 C156 520 154 519 154 518 C154 516 150 515 150 512 C148 511 149 507 147 506 C146 503 143 505 142 502 C141 502 140 501 140 499 C139 499 137 498 137 497 L134 494 L120 478 C120 477 118 477 117 476 C116 474 115 473 115 472 C114 472 113 470 113 468 C111 466 110 464 109 464 C106 461 103 457 101 454 C100 453 98 452 98 450 C97 450 96 449 96 448 C94 446 94 445 93 444 C94 442 94 442 93 441 C91 441 91 440 90 439 C89 437 88 436 88 435 C88 433 89 433 88 432 L88 429 C88 428 84 428 83 427 L82 425 L82 424 C81 423 81 416 80 416 C78 416 77 416 76 415 C77 413 77 413 76 413 C75 412 75 411 74 411 C72 409 72 407 70 404 C70 404 69 403 69 402 C67 400 67 398 65 396 C64 395 63 394 63 392 C61 391 61 388 61 386 C58 384 58 382 57 380 C56 379 56 375 55 374 C52 371 55 367 51 365 L49 359 C48 357 48 354 46 353 C45 351 44 350 44 349 C44 347 44 347 43 346 C42 345 41 343 41 342 L42 341 L41 341 C39 338 39 336 38 334 C38 333 38 332 37 332 C37 330 36 329 36 328 C36 326 36 326 35 325 L32 317 L33 317 L32 316 C31 314 31 312 30 309 L30 306 C28 305 28 301 28 300 L28 299 L26 297 C24 295 26 291 24 288 C25 287 24 287 24 285 C23 283 23 280 22 279 C22 277 22 275 20 273 C19 271 20 268 19 267 C19 266 19 264 18 264 C17 262 17 259 16 258 C17 256 16 255 16 255 L13 247 C15 246 13 244 12 243 C11 239 12 235 11 232 C11 232 11 231 10 230 C7 226 11 219 7 214 L7 209 C6 207 6 206 7 206 L7 202 C6 202 6 201 7 199 C9 198 9 196 7 193 C6 192 6 189 7 188 C9 185 9 182 7 178 C11 173 9 164 10 159 L12 143 C13 139 16 132 18 129 C19 128 19 126 20 123 L22 123 L22 122 L24 114 C25 112 26 112 26 111 C29 107 31 103 32 99 L43 86 L56 57 Z M199 139 C198 136 196 135 196 132 C193 111 180 99 162 91 C150 86 140 78 128 73 C121 70 117 71 114 78 C108 86 102 94 101 104 C100 108 98 114 95 116 C88 136 87 156 90 176 L100 225 C103 240 110 254 114 272 C122 264 129 256 139 256 C161 259 183 239 195 219 C208 196 207 164 199 139 L199 139 Z " />
<glyph glyph-name="seven" unicode="7" horiz-adv-x="313" d="M300 513 C299 515 302 516 303 519 C302 520 303 521 303 523 C303 523 298 524 298 525 L295 525 C293 528 292 532 288 533 C288 536 284 534 283 537 C281 537 281 538 279 540 C279 538 278 540 278 540 C276 541 275 541 275 542 C274 544 273 545 271 545 C269 545 268 545 266 546 C263 548 259 545 255 548 C252 548 251 548 250 549 C249 550 246 549 244 550 C242 550 242 550 241 552 C239 554 230 553 226 554 C218 554 211 556 203 554 C197 554 191 552 184 552 C174 552 165 553 155 550 C151 549 146 550 141 549 C139 549 138 548 135 546 C125 546 116 548 107 546 C97 545 87 545 77 549 C67 552 57 545 47 545 C44 544 39 546 37 545 C35 544 35 544 33 544 C28 545 23 531 20 527 C16 521 16 517 16 511 C16 508 13 498 14 496 C14 495 13 494 13 494 C11 491 11 488 10 487 C10 486 7 484 7 483 C9 480 5 478 5 475 L5 469 C5 466 7 462 10 459 L11 458 L11 457 C13 455 14 454 14 453 L15 453 L15 451 C16 449 16 446 18 445 L20 441 C23 440 21 437 23 436 C25 434 24 430 26 430 C28 430 29 430 29 429 C30 429 30 428 31 426 C33 426 33 425 34 424 C35 422 38 422 40 421 L48 421 L50 424 C52 426 55 425 55 428 C55 429 55 429 57 430 L59 434 C58 436 53 437 54 438 C57 442 50 447 50 451 C50 458 54 465 58 471 C62 476 68 482 68 490 C71 492 68 496 69 500 C71 500 72 502 73 502 L76 502 C81 499 86 503 91 499 L91 500 L92 499 C95 498 96 498 98 499 C100 500 101 499 102 496 C105 498 107 499 108 496 C115 492 122 498 129 494 C134 492 139 495 145 494 C148 495 150 495 153 494 C155 495 158 495 159 494 L175 494 C180 490 188 492 193 492 C201 492 201 488 201 482 L198 482 C197 480 197 478 194 476 L192 473 C192 470 191 470 189 469 C189 467 191 466 189 465 C186 458 183 450 182 444 C172 429 167 412 159 397 C158 397 155 388 156 388 C150 387 151 382 151 376 C150 371 145 366 140 363 C135 359 129 360 122 360 C121 360 106 357 107 359 C107 359 107 360 106 360 C102 360 100 364 96 363 C95 362 95 359 95 358 L95 355 C93 354 93 350 92 349 L92 345 C93 342 93 339 95 338 C96 337 96 335 95 335 C96 334 97 333 97 331 C98 331 98 330 98 330 C98 328 102 328 103 326 L103 325 C105 324 107 322 108 322 C110 322 111 320 112 320 L114 320 C115 321 116 321 117 320 L119 321 L120 320 C122 318 125 318 126 316 C127 312 124 308 122 305 C119 299 115 289 117 280 C117 275 115 270 110 266 C107 263 108 259 107 256 C107 255 107 254 106 252 C102 248 102 238 101 238 C95 235 96 230 96 225 C91 214 86 205 86 193 C86 187 85 181 83 175 C82 172 81 163 78 161 C77 160 77 158 76 155 C73 154 74 150 73 146 C73 144 73 143 72 142 C72 138 68 136 71 132 C71 131 69 131 69 130 C68 127 69 123 68 121 C68 119 68 119 67 118 C66 117 66 114 64 111 C66 111 66 110 64 110 C62 106 64 101 62 97 C63 97 62 96 62 96 C59 78 62 63 59 47 C62 43 62 39 63 35 C64 34 66 35 67 34 C67 34 66 32 67 32 C67 31 67 30 68 30 C69 30 69 28 71 28 L74 24 C76 24 76 23 77 23 C77 23 77 22 78 22 C78 20 78 19 77 19 L77 18 L78 16 C79 15 79 15 81 15 C82 14 83 14 85 14 C85 13 86 13 86 13 C86 11 87 11 87 10 C88 10 88 9 90 7 L93 2 L95 1 C95 1 96 -1 97 -1 C97 -1 98 -2 100 -2 L105 1 C106 1 106 1 107 2 C108 2 108 3 110 3 C110 5 111 5 111 6 L120 6 C120 7 120 7 121 9 C130 11 125 28 126 36 C126 42 129 45 131 49 C135 56 132 64 136 69 C135 71 136 72 136 72 C139 76 136 81 139 85 C139 85 139 86 140 86 C141 88 140 90 141 93 C141 96 141 98 143 101 C144 102 144 105 145 107 L145 113 C146 114 146 117 148 119 L150 129 C153 134 155 138 156 143 C158 147 156 151 158 155 C158 158 160 160 162 163 L162 167 L164 177 C163 179 164 180 164 181 C165 184 165 185 164 187 C165 187 167 188 167 188 C167 189 165 190 165 193 C167 194 165 194 165 196 C165 196 168 196 168 197 C168 198 169 201 169 202 C170 202 172 204 172 205 C174 208 174 210 173 213 L175 213 L175 218 C177 218 178 218 178 219 L178 222 C179 222 179 222 179 223 L178 225 C179 225 179 225 179 223 C179 225 180 225 180 226 C180 226 180 227 182 227 C180 229 180 229 180 230 L182 231 L182 233 C183 233 183 234 183 234 C183 237 183 238 184 239 C184 241 186 242 184 243 C186 245 186 245 186 246 C186 247 186 247 187 248 C188 250 188 252 189 255 C188 255 188 256 189 256 C191 259 191 262 192 263 L192 266 C193 267 194 267 194 268 L194 271 L197 277 C199 279 198 284 199 285 C203 291 199 299 206 302 C213 302 213 316 223 312 L227 312 C235 310 241 309 247 312 L252 314 C254 316 255 316 255 317 C257 318 256 322 257 324 C257 325 257 325 259 326 C259 328 260 328 260 330 C260 333 259 333 257 334 L257 337 C257 342 254 345 249 346 C247 346 247 346 246 347 C246 350 245 351 244 351 C242 354 240 353 239 355 C234 362 234 368 236 376 L236 380 C237 383 237 386 239 387 C241 389 239 395 241 399 C242 399 244 400 244 401 C247 404 245 408 247 411 C246 411 246 412 247 412 C252 420 254 429 257 437 C260 442 263 447 266 453 C269 457 269 462 271 465 C271 466 271 467 273 467 C274 470 275 474 278 476 C279 478 280 478 280 480 L280 482 L281 482 C283 486 285 490 289 494 C292 496 297 498 299 503 C299 503 299 504 300 505 C302 508 302 511 300 513 L300 513 Z " />
<glyph glyph-name="eight" unicode="8" horiz-adv-x="266" d="M242 133 L242 138 C242 142 245 149 242 152 L244 152 C240 158 244 164 242 169 C240 172 240 173 240 174 C238 181 235 187 234 194 C234 199 234 201 231 206 C229 210 226 213 225 218 C221 226 220 236 216 245 C215 249 212 251 210 255 C207 260 205 265 201 271 C194 278 192 285 188 294 L184 305 C180 310 173 312 171 319 C169 330 174 340 179 348 L183 350 C183 351 184 353 184 354 C187 354 187 355 187 358 L191 362 C192 363 192 364 193 364 L196 367 C197 368 198 369 198 371 C200 371 201 372 202 373 L205 376 L207 381 C208 382 210 384 210 385 C211 385 212 386 212 387 C216 389 214 394 216 395 L219 399 L221 404 C224 405 222 408 224 409 C226 412 225 416 228 418 C226 419 226 421 228 421 C229 422 229 423 230 423 C231 425 233 426 233 427 C231 428 233 430 233 430 L235 435 C236 436 238 437 238 439 L238 440 L239 441 C240 443 240 445 240 448 C240 452 239 454 242 458 C243 459 243 461 244 461 C243 462 243 463 244 463 C245 470 245 476 244 484 C243 484 243 485 244 485 C243 488 243 490 242 491 C239 495 238 500 236 504 C234 509 228 512 225 516 C222 520 222 521 219 523 C217 525 217 526 216 526 C215 526 214 527 212 527 C211 530 208 530 207 531 C206 532 206 534 203 534 L202 534 L196 536 C194 539 192 539 189 539 C188 539 187 540 186 540 C183 541 180 541 179 541 C179 543 178 544 177 545 L171 548 C169 549 166 549 165 550 C164 550 163 550 163 552 C160 553 156 552 154 553 C152 553 150 553 149 554 C145 556 141 556 137 554 L135 554 C133 556 131 556 129 553 C128 552 126 553 123 552 C122 550 121 550 118 550 C115 548 110 550 107 548 L105 548 C104 548 103 547 101 545 L103 545 C103 544 98 544 96 541 C93 541 91 539 90 536 C89 536 87 535 87 534 L84 531 C84 529 80 530 80 527 C77 527 77 526 76 525 L71 525 L68 520 L71 520 C70 518 68 518 68 517 C67 516 66 514 65 514 L62 511 C61 511 61 507 59 505 C58 504 57 503 57 502 C57 500 57 500 56 500 C56 499 54 498 54 496 C54 495 54 495 53 494 L51 491 C48 486 47 484 47 477 C45 473 42 470 40 464 C40 461 40 455 42 450 L42 441 C42 440 43 439 43 437 C44 436 44 434 44 431 C47 427 45 422 47 418 C48 417 48 414 48 413 C51 410 51 407 53 404 C54 401 57 399 58 395 C59 393 58 389 59 385 C59 381 62 378 63 375 C65 372 66 369 70 367 C71 366 71 363 73 362 C75 360 73 358 76 357 C80 350 80 339 76 339 C72 339 72 333 70 331 C70 330 68 328 67 328 C67 327 66 326 66 324 C62 323 61 315 59 315 L57 315 C57 315 56 315 56 317 C56 313 51 304 47 299 L48 298 L47 296 C47 296 45 295 45 294 C45 292 45 292 44 291 C40 289 39 283 37 280 C38 278 37 277 37 277 C35 276 35 274 34 274 C33 273 31 272 33 271 C33 269 29 265 29 263 C29 262 29 262 28 260 C28 259 26 258 26 256 C23 253 23 247 20 242 C21 241 20 241 20 240 L17 235 C17 233 17 232 16 232 C16 229 16 228 15 226 C15 224 15 222 14 220 C11 214 11 222 8 199 L10 204 C10 201 8 197 7 195 C7 192 7 191 6 190 C2 185 5 178 5 172 C5 165 3 160 3 155 C5 150 3 140 6 136 C7 134 7 133 7 131 C8 128 6 124 8 122 C10 122 10 120 8 119 L11 114 L11 110 C10 108 14 99 15 95 C17 91 20 88 24 86 L28 77 C30 74 31 73 33 69 L40 61 C40 61 42 60 42 59 C43 59 43 57 43 57 C43 54 45 52 48 52 C49 50 49 50 52 48 C52 47 53 46 54 46 C54 45 56 43 57 43 C57 42 58 41 61 41 C62 41 62 39 62 38 C63 37 63 36 66 34 C67 36 67 34 67 34 C68 33 70 33 70 32 C71 31 72 29 73 29 C73 28 75 27 76 27 C77 24 80 24 81 23 C84 22 86 22 87 20 L93 18 C94 15 96 16 99 15 L100 15 L101 14 C103 13 105 13 108 13 C109 11 110 11 113 11 C115 10 118 11 121 9 L122 10 L123 9 C127 7 129 9 133 6 L160 6 C161 5 161 5 163 6 L164 6 L165 7 C169 10 173 11 177 11 C180 11 184 13 188 15 L189 15 C192 15 192 16 193 18 C194 19 196 19 196 20 C197 22 198 22 198 24 C201 24 203 24 205 25 L208 29 C208 29 210 31 210 32 C211 33 212 33 212 34 C217 37 216 45 219 48 L224 55 C230 64 233 73 234 82 C235 92 240 101 244 110 C247 117 245 122 244 128 C244 129 242 129 243 131 C243 132 242 133 242 133 L242 133 Z M151 143 C145 127 137 113 132 96 C129 84 128 73 117 65 C110 60 101 66 96 70 C81 83 75 105 76 124 C76 137 75 150 76 163 C79 176 82 190 87 201 C96 220 103 241 114 260 C117 265 119 273 126 273 C132 272 132 264 135 259 L152 213 C161 190 159 165 151 143 L151 143 Z M143 417 C132 408 123 396 114 385 C96 400 94 421 93 441 C93 448 95 454 99 459 C109 471 118 485 135 491 C145 495 155 500 165 503 C173 505 179 503 186 504 C189 505 191 500 191 498 C189 488 186 480 182 471 C173 450 160 432 143 417 L143 417 Z " />
<glyph glyph-name="nine" unicode="9" horiz-adv-x="266" d="M247 353 C246 367 247 380 247 393 C249 396 249 397 247 400 L247 401 C246 405 246 411 247 415 L247 419 C246 420 246 421 247 423 L247 436 C247 437 246 439 244 440 C243 441 244 443 244 445 C244 447 243 453 243 456 L243 466 C244 470 243 472 242 474 C239 484 239 492 238 500 C236 512 227 525 220 533 C217 536 215 536 212 537 C209 540 209 542 207 545 C207 546 198 552 197 552 C196 550 196 550 194 552 C192 553 189 553 186 553 C181 553 174 553 167 556 C165 556 162 556 160 557 C156 558 154 558 151 557 C129 556 104 544 85 533 L78 528 C76 530 75 529 72 529 C66 529 58 517 52 513 L43 506 C41 504 40 500 39 500 C36 498 36 498 34 496 C33 496 33 493 30 492 C30 490 29 489 28 488 L25 485 C25 484 24 482 24 481 L24 480 L22 480 C22 478 21 477 21 477 C18 476 18 473 17 470 L14 465 L14 462 C13 461 13 458 11 456 C11 456 11 454 10 453 C10 452 10 449 9 448 L9 445 C6 435 6 424 9 413 C9 411 10 409 10 405 C10 403 10 400 11 396 C14 388 17 380 21 372 C25 364 32 357 37 352 C43 345 49 333 56 332 L58 332 L58 331 C59 329 60 328 62 328 L64 328 C64 327 66 325 67 325 C68 323 71 324 72 323 C75 319 81 321 85 319 C86 317 89 317 91 316 C93 317 94 317 95 316 C97 315 98 313 100 313 C102 315 105 315 108 313 C116 312 125 311 133 313 L135 315 L136 313 C137 313 139 315 139 316 L143 316 C146 315 148 316 151 319 L152 320 L154 319 C156 321 162 320 165 324 C162 317 166 309 163 303 C159 299 163 291 160 291 L159 289 C159 289 159 288 160 288 C160 287 160 285 159 284 C158 281 159 279 158 276 C152 273 158 268 154 264 L154 259 C152 257 152 257 152 256 C151 253 151 252 151 251 C150 248 148 247 148 244 L148 241 C146 239 147 235 146 232 C143 231 144 228 144 225 C143 225 143 224 143 224 C140 221 141 217 140 215 C141 209 135 195 133 189 C132 187 128 184 127 180 C127 176 129 172 121 172 C121 172 120 165 117 161 C118 161 118 161 117 160 C117 159 117 159 116 157 L113 152 L113 150 C112 150 110 148 110 147 L101 124 C100 122 94 118 93 115 C94 114 93 112 93 112 L90 110 C89 108 87 108 87 107 C85 104 83 102 82 98 C79 96 81 94 78 92 C78 91 76 91 75 90 L72 86 L70 86 C70 84 67 82 64 80 C64 80 51 72 48 71 C39 64 21 40 25 27 C26 24 28 22 32 20 C33 20 34 19 36 19 L40 14 C43 12 45 12 48 10 C51 8 53 6 56 6 L63 6 L63 4 C64 3 66 3 67 4 L68 4 L70 3 C70 4 71 7 72 6 C74 4 75 6 76 6 C79 6 82 4 83 6 C85 7 87 6 89 6 L104 6 C105 6 106 7 108 8 L110 12 C112 12 112 14 113 15 L116 18 C116 18 117 19 118 18 C121 19 120 22 123 23 L123 24 L124 24 C125 24 127 27 128 27 L128 30 L129 30 C132 30 132 30 133 31 L133 30 C135 31 136 31 136 32 L137 32 C137 32 140 32 141 34 L141 36 C143 36 144 39 146 42 C147 42 147 43 148 44 C148 46 148 46 150 47 C150 47 150 48 151 50 L155 55 C160 56 160 62 162 67 C163 68 163 68 163 70 L166 72 C167 74 169 74 169 76 C169 80 175 82 175 87 L182 98 C185 103 189 106 192 111 C193 112 194 124 197 124 L197 127 C200 127 198 131 201 132 C200 135 200 136 201 138 C205 142 205 147 207 151 L207 152 C208 154 209 155 209 156 L209 159 C212 161 212 164 212 167 L212 169 C215 171 215 173 215 176 C217 177 217 179 215 181 L215 183 L216 184 C219 192 225 200 227 209 C230 215 227 223 230 228 L230 231 C232 232 232 235 232 237 L232 239 C235 241 234 245 235 248 C235 249 235 249 236 251 C238 253 236 256 239 259 C238 260 238 261 239 261 C240 264 240 267 242 268 C240 269 240 269 242 271 C244 275 242 279 244 283 C244 285 243 288 244 291 C247 295 244 300 247 305 C246 317 246 329 247 343 C250 345 250 349 247 353 L247 353 Z M166 443 C155 427 143 411 128 397 C117 387 104 380 89 376 C76 371 66 377 63 392 C60 409 66 425 71 443 C71 444 74 447 75 448 C94 468 114 486 141 497 L171 504 C173 496 173 488 175 481 C179 466 174 454 166 443 L166 443 Z M143 35 C143 36 141 32 141 31 L141 34 C141 34 143 34 143 35 L143 35 Z " />
<glyph glyph-name="colon" unicode="&#x3a;" horiz-adv-x="193" d="M177 191 C180 209 162 228 146 235 C133 241 129 239 120 226 C119 223 118 221 115 220 C105 214 103 203 104 193 C107 181 110 170 116 159 C121 145 135 143 148 148 C170 157 176 172 177 191 L177 191 Z M116 342 C119 331 129 323 142 323 C154 322 160 327 168 342 C169 348 170 355 173 362 C185 384 168 403 147 411 C140 414 120 411 118 403 C113 396 112 385 107 375 L116 342 Z " />
<glyph glyph-name="semicolon" unicode="&#x3b;" horiz-adv-x="211" d="M116 326 C123 331 128 337 132 343 C138 357 145 370 149 383 C152 397 149 400 134 404 C128 404 124 408 121 409 C97 414 84 408 79 386 C78 373 79 360 81 349 C81 343 86 337 91 335 C98 329 108 328 116 326 L116 326 Z M140 197 C139 201 138 209 135 213 C134 216 132 216 130 218 C129 219 129 221 128 223 C127 227 122 228 120 229 C117 233 112 235 109 236 C104 240 97 240 91 236 C89 236 87 235 85 234 C82 233 80 228 79 227 C78 224 76 224 76 223 C75 221 75 216 72 214 C72 213 72 210 71 209 C73 203 71 195 71 191 C72 183 75 178 76 169 C79 165 83 163 88 163 C91 163 94 164 97 163 C98 162 100 161 101 154 C101 151 99 146 98 142 C96 137 95 134 93 131 C88 126 82 117 80 108 L80 102 C80 98 80 97 82 96 C87 91 87 91 93 96 C94 96 96 96 97 97 C100 97 102 101 106 102 C108 103 111 104 115 107 C118 112 120 113 124 117 C128 120 131 124 134 131 C136 131 136 136 138 137 C144 148 144 165 144 178 C142 183 140 195 140 195 L140 197 Z " />
<glyph glyph-name="less" unicode="&#x3c;" horiz-adv-x="413" d="M385 26 C383 31 385 37 382 40 C378 43 382 47 374 48 C372 48 367 55 366 56 C354 66 349 77 335 86 C324 90 312 105 300 105 L297 105 L295 110 C295 110 294 112 292 113 C288 117 286 125 278 126 C277 132 271 133 268 135 L255 142 L226 157 C215 161 208 169 197 175 C192 180 181 183 174 187 C162 190 156 196 148 201 C143 207 130 210 132 218 C132 222 145 234 148 234 C150 236 150 237 154 237 L161 247 C172 254 180 259 190 268 C197 270 207 280 219 282 C222 285 223 286 225 286 C235 295 237 303 249 309 C261 314 263 323 277 328 C278 330 279 330 281 331 L281 333 C283 334 283 335 283 337 L292 341 L292 344 L295 344 C297 346 297 347 301 347 L301 351 C302 351 304 352 305 352 C305 353 307 354 311 355 C312 356 313 357 313 358 C315 364 322 366 325 368 C325 369 325 372 328 372 L328 376 C329 376 329 376 328 377 C336 377 337 379 337 381 L338 381 C340 384 340 387 341 389 L351 389 C351 390 351 391 352 392 L350 392 C352 394 351 398 354 399 C356 401 359 402 359 406 C367 408 366 412 367 414 C365 420 368 428 365 434 C358 435 359 439 356 440 C355 442 355 446 352 447 C350 450 349 452 340 453 C339 453 339 453 339 454 C338 455 337 455 337 455 C337 455 336 456 336 458 C335 460 330 461 328 461 C325 464 318 462 315 464 C307 464 302 463 297 464 C295 465 294 465 292 464 C290 463 288 463 288 461 C285 460 285 455 283 455 L279 453 C277 453 275 452 275 450 C263 449 269 443 263 441 L263 440 L258 438 C255 435 252 434 251 430 L249 430 C249 425 241 427 242 422 L241 422 C239 422 239 420 239 420 C237 420 237 419 237 419 L235 419 L235 418 C235 418 233 418 233 417 C219 407 208 395 195 384 C190 377 176 372 164 365 L150 354 C148 350 143 345 138 343 C136 342 135 340 135 339 L112 325 C106 322 99 321 95 315 C95 314 95 308 93 310 L93 311 L83 303 C80 299 72 298 71 295 L71 292 L69 292 C65 291 65 290 64 290 L63 289 L57 282 C52 282 51 281 50 281 C50 279 49 278 48 278 C47 277 46 275 43 275 C43 273 38 271 36 271 C36 269 35 268 32 268 C32 266 31 265 29 265 L29 262 C28 260 22 260 21 260 C21 259 21 257 20 255 C19 256 19 255 17 255 L13 251 L13 246 C11 246 9 245 9 244 C4 243 4 238 3 236 C4 235 3 235 3 234 C-1 231 2 225 -1 222 C2 219 2 214 -1 211 C2 208 -2 202 4 200 C13 186 33 177 48 166 C63 156 86 150 104 141 C124 133 143 121 161 110 L178 95 C192 81 213 71 231 59 L247 47 C251 45 269 40 269 38 C270 35 275 32 278 31 L278 33 C279 33 285 31 286 28 C292 20 301 16 313 15 L315 15 L315 14 C327 9 338 2 354 4 L355 4 C359 5 368 6 372 4 C374 5 376 5 378 4 C383 4 384 5 385 6 C390 13 389 18 385 24 L385 26 Z " />
<glyph glyph-name="equal" unicode="&#x3d;" horiz-adv-x="290" d="M275 149 L272 152 C262 159 252 170 238 172 L235 172 C232 173 230 176 227 177 L213 177 C209 175 205 175 201 177 L190 177 C185 177 181 180 175 179 C169 179 164 177 158 176 C150 175 139 172 131 172 C124 172 119 174 112 174 L104 174 C99 171 94 170 89 169 L82 169 C78 167 74 168 70 168 L66 168 C65 169 64 169 63 169 L58 169 L49 167 C47 167 44 167 42 166 C35 165 27 162 19 163 L16 163 C15 162 14 161 14 160 L14 157 L16 153 C16 152 17 151 17 150 L19 147 C20 146 20 145 21 145 L24 142 C24 141 25 140 25 140 C26 139 26 138 27 138 L29 136 C31 135 34 135 33 134 L40 128 L42 128 C43 127 43 126 44 126 L47 124 C47 124 48 123 49 123 L51 121 L56 117 C57 117 58 116 59 116 C62 116 65 115 68 115 L71 115 C85 116 98 114 111 118 C112 118 114 119 115 119 L148 121 C151 121 154 121 157 122 C161 123 166 123 170 123 C172 123 174 123 176 124 C184 126 192 125 201 126 C203 126 205 126 206 127 L217 129 L222 129 C225 131 229 128 233 129 L236 131 C237 133 237 130 238 130 L242 130 C249 129 256 134 263 134 C265 134 266 135 267 135 C270 136 273 136 276 138 C278 140 278 142 277 145 C277 146 276 147 275 149 L275 149 Z M12 229 L17 224 L17 223 C18 223 18 222 19 221 C19 220 20 219 21 219 C22 218 23 217 25 217 C25 216 26 216 27 215 C27 215 28 214 29 214 L31 212 C32 211 33 210 34 210 C34 209 35 209 36 208 C37 208 38 207 39 206 C40 206 40 206 40 205 C41 205 42 204 43 204 C43 203 44 202 45 202 C47 201 49 200 51 200 C53 200 55 200 57 201 C73 202 90 201 107 201 C110 201 113 201 116 202 L120 202 C121 203 121 203 122 203 L132 205 C136 205 141 203 146 204 C148 204 150 204 152 205 C155 206 158 207 161 206 L166 206 C168 207 171 207 174 207 L179 207 C180 207 181 208 182 208 C183 208 184 209 185 210 L186 210 C191 212 196 210 200 210 C202 210 203 210 204 211 C205 213 207 213 209 211 L212 211 C220 212 227 211 235 212 C236 212 237 212 239 213 C241 213 243 214 245 215 C246 216 247 216 248 216 C249 217 251 218 252 218 L255 221 C259 226 259 232 255 238 L252 245 C250 247 247 248 245 249 L241 251 L238 251 C236 251 234 252 233 253 C227 256 221 257 216 259 C215 260 213 260 212 260 L205 260 C204 260 203 259 202 259 C192 258 183 258 174 259 C173 259 172 260 172 260 L170 260 C169 260 168 260 166 259 C161 258 156 259 150 260 C149 260 148 259 147 259 C130 259 114 255 98 256 L94 256 C86 254 79 253 72 253 C71 254 69 254 68 253 L56 253 C48 250 38 251 29 251 L26 251 C19 250 12 251 7 245 C6 244 6 242 6 241 L8 237 C8 236 9 235 9 234 C10 233 11 232 11 231 C12 230 12 229 12 229 L12 229 Z " />
<glyph glyph-name="greater" unicode="&#x3e;" horiz-adv-x="402" d="M3 24 C-1 18 -2 13 3 6 C4 5 5 4 10 4 C12 5 14 5 16 4 C20 6 29 5 33 4 L34 4 C50 2 61 9 73 14 L73 15 L75 15 C87 16 96 20 102 28 C103 31 109 33 110 33 L110 31 C113 32 118 35 119 38 C119 40 137 45 141 47 L157 59 C175 71 196 81 210 95 L227 110 C245 121 264 133 284 141 C302 150 325 156 340 166 C355 177 375 186 384 200 C390 202 386 208 389 211 C386 214 386 219 389 222 C386 225 389 231 385 234 C385 235 384 235 385 236 C384 238 384 243 379 244 C379 245 377 246 375 246 L375 251 L371 255 C369 255 369 256 368 255 C367 257 367 259 367 260 C366 260 360 260 359 262 L359 265 C357 265 356 266 356 268 C353 268 352 269 352 271 C350 271 345 273 345 275 C342 275 341 277 340 278 C339 278 338 279 338 281 C337 281 336 282 331 282 L325 289 L324 290 C323 290 323 291 319 292 L317 292 L317 295 C316 298 308 299 305 303 L295 311 L295 310 C293 308 293 314 293 315 C289 321 282 322 276 325 L253 339 C253 340 252 342 250 343 C245 345 240 350 238 354 L224 365 C212 372 198 377 193 384 C180 395 169 407 155 417 C155 418 153 418 153 418 L153 419 L151 419 C151 419 151 420 149 420 C149 420 149 422 147 422 L146 422 C147 427 139 425 139 430 L137 430 C136 434 133 435 130 438 L125 440 L125 441 C119 443 125 449 113 450 C113 452 111 453 109 453 L105 455 C103 455 103 460 100 461 C100 463 98 463 96 464 C94 465 93 465 91 464 C86 463 81 464 73 464 C70 462 63 464 60 461 C58 461 53 460 52 458 C52 456 51 455 51 455 C51 455 50 455 49 454 C49 453 49 453 48 453 C39 452 38 450 36 447 C33 446 33 442 32 440 C29 439 30 435 23 434 C20 428 23 420 21 414 C22 412 21 408 29 406 C29 402 32 401 34 399 C37 398 36 394 38 392 L36 392 C37 391 37 390 37 389 L47 389 C48 387 48 384 50 381 L51 381 C51 379 52 377 60 377 C59 376 59 376 60 376 L60 372 C63 372 63 369 63 368 C66 366 73 364 75 358 C75 357 76 356 77 355 C81 354 83 353 83 352 C84 352 86 351 87 351 L87 347 C91 347 91 346 93 344 L96 344 L96 341 L105 337 C105 335 105 334 107 333 L107 331 C109 330 110 330 111 328 C125 323 127 314 139 309 C151 303 153 295 163 286 C165 286 166 285 169 282 C181 280 191 270 198 268 C208 259 216 254 227 247 L234 237 C238 237 238 236 240 234 C243 234 256 222 256 218 C258 210 245 207 240 201 C232 196 226 190 214 187 C207 183 196 180 191 175 C180 169 173 161 162 157 L133 142 L120 135 C117 133 111 132 110 126 C102 125 100 117 96 113 C94 112 93 110 93 110 L91 105 L88 105 C76 105 64 90 53 86 C39 77 34 66 22 56 C21 55 16 48 14 48 C6 47 10 43 6 40 C3 37 5 31 3 26 L3 24 Z " />
<glyph glyph-name="question" unicode="&#x3f;" horiz-adv-x="320" d="M280 310 L283 310 C283 312 283 315 285 317 C288 319 288 323 288 326 C290 325 291 327 293 329 C295 330 295 336 296 340 L294 340 C296 341 296 346 296 349 C305 353 305 357 305 363 C305 364 306 368 308 371 L308 382 C309 389 308 394 308 401 C306 409 308 417 306 427 C306 431 305 436 304 442 C304 443 303 443 303 443 C303 444 301 446 301 447 C298 448 298 450 298 451 C298 454 298 456 296 458 L296 462 C294 462 293 465 293 469 C290 473 289 474 289 477 C288 481 285 484 285 486 C284 488 283 490 283 495 C279 497 279 503 276 505 C275 505 274 505 271 508 C271 509 271 511 269 511 L269 515 L265 522 C264 523 264 524 262 526 C262 527 260 530 258 530 L254 535 C252 535 249 535 248 538 C247 538 244 539 243 541 C240 542 237 546 234 550 C233 550 229 552 228 552 C228 553 223 553 223 554 C223 557 220 556 219 560 C217 562 212 560 209 564 L202 567 C199 567 199 567 198 568 C197 571 184 569 182 569 C174 569 171 571 166 571 C161 571 157 568 152 568 L131 568 C128 568 122 568 120 567 C117 567 107 569 107 568 C104 565 97 569 92 567 C92 565 91 565 89 567 C87 565 84 565 81 564 C80 561 79 561 76 560 L72 560 C71 556 67 554 64 554 C63 552 61 550 59 550 C59 549 55 548 54 548 C51 545 50 542 49 542 C48 539 46 538 45 538 C44 535 39 535 38 535 C38 531 36 531 34 531 C34 527 33 526 31 526 C30 523 28 523 26 523 C26 522 25 519 24 518 C23 515 21 511 20 511 L16 505 C16 504 16 503 13 501 C13 499 11 496 9 495 C9 489 9 486 7 482 L7 465 C5 461 5 451 7 447 L7 423 C9 420 9 416 10 412 L11 412 L11 406 C13 405 13 405 13 404 C13 401 14 401 16 398 C19 393 23 389 26 387 C28 384 30 383 31 382 C33 379 34 379 36 379 L36 376 C39 376 41 376 45 375 C48 375 50 375 50 370 C61 368 69 368 79 370 L79 374 L80 374 C82 374 86 371 87 375 C91 376 92 376 92 378 C95 389 95 397 92 405 C89 412 92 417 89 421 C86 427 87 431 85 435 C84 437 85 444 85 448 C87 450 86 456 87 456 L89 458 L89 459 C92 462 89 467 92 471 L92 477 C95 477 97 482 99 486 L99 484 C104 486 105 490 106 496 L109 499 C116 504 121 505 125 515 C126 512 126 515 128 515 L141 519 C152 524 162 523 173 523 L174 523 C179 522 182 522 183 519 C184 515 186 516 189 516 C191 511 196 512 196 511 C198 509 203 501 207 497 C209 490 216 486 217 478 C219 474 218 469 219 463 C220 458 222 450 222 444 C222 437 219 427 222 420 L223 418 C222 420 220 418 220 417 C222 416 220 416 220 414 C219 412 219 409 219 406 L218 406 L218 402 L217 402 C216 401 216 398 216 394 C216 394 214 394 214 391 C214 391 214 390 212 390 C212 389 211 387 211 384 C211 383 211 383 209 382 C208 376 204 374 203 368 L204 367 L203 364 C202 364 199 363 199 361 C197 360 198 356 196 355 L196 351 C194 351 194 349 194 349 C194 349 194 348 193 346 C193 346 191 349 189 349 L189 348 C187 348 186 344 184 344 L184 340 L183 340 C183 336 182 334 179 334 C179 330 177 329 174 329 L173 327 L172 327 C172 327 171 326 169 326 L166 321 C162 319 162 319 162 317 C161 317 160 315 160 315 C157 315 156 315 155 314 L156 314 C156 312 155 311 155 310 L152 310 L152 306 L147 306 C146 303 145 300 142 300 C141 299 140 298 138 298 L133 293 L128 288 C128 285 126 285 125 285 L122 284 L120 281 C118 280 117 280 117 278 C117 276 116 276 114 276 C112 276 111 274 109 273 C107 272 106 270 106 269 C106 268 105 266 104 266 C104 264 101 264 101 261 C101 261 100 261 100 259 C97 258 97 255 95 254 C94 253 95 246 94 243 C91 242 91 239 89 235 C89 231 89 230 87 230 L87 219 C89 205 82 187 94 172 C100 148 117 134 141 140 C142 143 146 141 147 145 C150 147 148 151 152 152 L155 162 C157 168 160 177 160 185 C161 196 168 205 174 212 C183 219 189 230 198 234 C198 236 199 239 203 239 C204 242 208 245 212 245 C212 246 214 249 214 249 C217 249 218 249 220 250 L224 255 C228 254 229 254 230 257 C233 259 237 258 240 259 C242 264 243 266 247 269 L265 287 C269 289 269 293 271 296 C275 302 279 302 280 310 L280 310 Z M179 58 L179 61 C177 65 177 69 174 72 L172 75 C171 79 169 79 168 80 C167 79 166 79 166 80 C162 83 160 81 158 83 L155 83 C150 87 145 83 141 87 C136 87 133 88 130 91 C122 92 117 88 111 88 C107 88 106 87 106 86 L104 75 L104 77 C101 73 101 68 100 68 C97 65 97 61 100 60 L100 58 L99 57 C97 53 97 50 97 46 C97 46 97 45 99 42 C97 38 95 34 95 33 C97 33 100 34 101 34 C106 28 111 22 117 18 C130 0 140 -1 162 7 C162 12 179 9 173 23 L172 22 C171 24 172 27 172 30 L172 31 C173 37 173 42 179 45 L179 46 C182 52 182 57 179 58 L179 58 Z " />
<glyph glyph-name="at" unicode="&#x40;" horiz-adv-x="447" d="M411 149 C408 147 405 149 402 148 C401 148 399 141 398 140 C398 139 397 138 396 137 L396 136 C378 114 333 74 309 68 C308 67 307 67 306 67 L301 64 C300 64 299 64 298 63 C282 57 267 51 251 46 C250 46 249 45 248 45 C242 43 236 43 230 42 C200 38 172 42 147 64 C122 86 94 108 76 138 C62 162 55 196 56 224 C56 234 60 242 62 252 C65 267 65 281 73 295 C86 320 108 340 132 356 C162 377 198 398 234 404 C250 406 265 403 280 404 C299 404 317 399 333 388 L339 384 L343 378 C347 375 350 371 353 367 C362 355 369 343 370 327 C372 284 378 286 371 242 C368 222 360 205 348 189 C344 184 330 186 324 188 C316 191 316 202 316 210 C315 228 315 245 317 263 C318 278 317 293 305 304 C293 316 286 302 280 287 L274 277 C260 255 246 239 235 215 C224 194 201 187 179 180 C164 176 153 185 152 201 C151 219 164 234 173 249 C185 268 193 275 211 287 C226 296 248 314 265 320 C273 323 284 316 292 317 C308 321 315 337 304 349 C295 358 284 365 271 366 C234 370 208 353 175 338 C143 325 119 286 103 257 L101 253 C95 234 89 232 94 212 C96 202 99 192 104 183 C108 174 115 167 120 159 C128 143 140 131 157 125 C159 125 160 125 161 124 C162 124 164 123 165 122 C166 122 167 122 168 121 L178 118 L185 118 C189 118 182 119 187 119 C189 119 191 120 194 120 C197 121 201 122 204 122 C206 122 207 122 209 123 C212 124 215 125 218 125 C219 126 220 126 221 126 C221 126 222 127 223 127 C225 128 226 128 227 128 C228 129 230 130 231 130 C232 131 233 131 233 131 C235 132 236 133 237 133 L240 135 L248 139 L250 141 L254 147 C258 152 279 169 283 174 C285 178 287 173 291 170 C294 132 312 129 334 131 C339 130 354 136 361 139 C364 140 367 145 370 146 L373 148 C374 148 375 149 375 149 C376 150 377 151 378 151 L381 154 C383 155 384 156 384 157 C384 159 386 160 388 162 C389 164 391 165 393 168 C392 168 392 169 393 169 L395 173 C396 173 397 174 398 174 L401 177 C401 177 401 178 402 178 C402 179 403 179 403 180 L405 182 L409 187 C410 188 410 188 410 189 L412 198 C412 199 413 200 413 201 C413 203 414 205 415 207 C415 209 416 211 416 213 C416 214 417 216 417 217 L417 220 C417 223 416 225 418 227 L418 232 C421 237 421 242 422 247 C422 248 422 249 423 250 C424 256 421 262 422 268 C423 273 425 279 425 284 C425 295 424 305 422 316 C421 322 420 334 416 338 C414 339 415 341 415 342 C415 343 415 345 414 345 C413 347 412 347 411 348 C410 349 410 350 410 350 C410 351 409 352 409 353 C408 354 407 354 408 355 C407 357 407 358 405 358 C405 359 404 360 403 361 C402 362 401 363 400 363 C400 364 399 365 398 366 C397 367 396 368 396 369 C394 370 395 373 392 373 C392 374 391 375 390 376 C390 377 389 378 388 379 C387 379 387 379 388 380 C387 381 387 382 387 383 C386 384 386 384 386 385 L384 389 C384 390 383 391 382 391 C382 392 381 393 380 395 C379 395 379 395 378 396 L376 398 C376 399 375 399 374 400 L364 408 L362 410 L359 416 C359 417 358 417 358 418 L356 421 C342 436 322 443 303 448 C301 448 300 448 299 449 C296 449 293 447 290 449 L280 451 C278 451 277 452 275 452 C273 452 270 452 268 453 L265 453 C262 453 259 454 257 454 C254 455 251 455 248 455 L238 455 C237 454 236 454 235 454 C232 453 229 452 226 452 C225 452 223 452 222 451 C220 451 218 450 216 449 C212 449 209 448 207 446 C205 445 203 444 201 444 L198 442 C192 438 184 438 178 433 C177 432 176 432 176 431 C174 430 173 429 172 429 C171 428 170 428 170 427 C169 427 167 426 166 426 C165 425 165 425 164 425 C163 424 162 424 162 424 C161 423 160 423 159 423 C158 422 156 422 154 421 C152 421 150 420 148 419 L142 416 C141 416 141 415 140 415 L137 413 L136 412 C135 412 135 411 134 411 L131 409 C130 409 129 408 128 407 C127 406 126 406 125 406 C124 405 123 404 122 404 C121 403 120 403 120 402 C119 402 118 401 118 401 C117 400 116 400 116 399 C115 399 114 399 114 398 C113 398 112 397 112 397 L108 395 C108 395 107 395 106 394 C106 393 105 393 104 392 L103 391 C103 391 102 390 101 390 C101 389 100 389 99 388 C98 387 97 386 96 386 L93 384 L87 378 C86 377 85 377 85 376 C84 375 83 374 81 374 C81 373 80 373 79 372 C78 371 77 371 77 370 C76 369 75 369 75 368 L71 365 C71 364 70 364 69 363 C68 362 67 360 65 359 C65 358 65 358 64 358 C64 357 63 356 62 355 C62 355 61 354 61 353 L59 350 C58 349 58 348 57 348 L54 345 C54 345 54 344 53 344 L51 342 L51 341 C50 341 49 340 49 339 L47 337 C47 336 46 335 46 335 L44 332 L42 328 C41 327 41 327 41 326 L39 322 L38 321 C38 321 37 320 37 319 C36 319 36 318 35 317 C35 316 34 315 34 314 L33 313 C32 313 32 312 31 311 C31 311 30 310 30 309 L28 306 C28 305 28 305 27 304 C27 303 26 302 26 301 C26 301 25 300 25 299 L25 295 C25 294 25 294 24 293 L22 287 L22 285 C17 280 20 273 17 267 C14 266 16 262 14 260 C11 256 15 250 10 246 C10 245 9 244 9 243 C8 235 10 227 8 219 C7 217 7 216 7 215 C6 213 6 211 6 210 L6 193 C8 186 9 180 9 173 C9 171 9 169 10 167 C12 159 17 152 18 143 C18 142 18 141 19 140 L22 134 L24 131 L33 113 L35 111 C36 110 37 108 37 107 C38 107 38 106 39 105 C39 104 40 103 40 102 C41 101 41 100 42 100 C42 99 43 98 43 98 L46 95 C46 95 47 94 47 93 C48 93 49 91 50 91 C50 90 51 89 52 88 C53 88 53 87 53 86 L54 85 C54 84 55 84 55 83 C56 83 56 82 57 81 C57 81 57 80 58 79 C58 78 59 78 59 77 L67 69 C68 68 68 67 69 67 L71 65 C71 65 71 64 72 64 C72 63 73 63 74 62 C74 62 74 61 75 61 C75 60 76 60 77 59 C77 58 78 57 79 57 C83 51 90 48 95 43 C95 42 96 42 97 41 L102 38 C103 37 103 37 104 37 C104 36 105 36 106 35 C107 35 108 34 108 34 C110 33 111 32 112 32 C112 31 113 30 114 30 L119 27 C119 26 119 26 120 26 C120 25 121 25 122 24 C123 24 124 23 125 23 L134 21 L135 21 L135 20 C138 17 142 17 146 15 C147 13 149 14 151 13 C151 12 152 11 153 11 L159 9 C160 9 160 8 161 8 C163 7 165 6 167 6 C168 5 170 5 171 5 C174 5 176 7 179 5 L181 5 C185 1 190 -1 196 2 L199 2 C205 -1 212 -2 219 1 C220 0 221 0 221 0 C224 -2 226 -2 229 0 L233 0 C236 2 239 0 241 2 C245 3 248 3 251 3 L257 5 L257 6 L258 5 C262 7 267 5 272 7 L272 8 L273 8 L279 10 L281 10 C284 12 287 10 289 13 L291 13 C295 15 301 14 304 18 L307 20 L308 21 L309 21 C311 21 313 21 314 23 C315 23 316 24 317 25 L318 26 L319 26 C320 26 321 27 322 27 L323 28 L324 28 C326 29 328 29 330 31 C333 31 335 34 337 35 L338 36 L339 36 L346 38 C347 38 348 39 348 39 C350 40 351 41 352 41 C353 41 354 42 354 42 L360 44 C361 44 361 45 362 45 L367 48 C368 49 369 49 369 50 L372 52 L374 54 C390 64 418 111 420 129 C420 130 421 131 421 133 C424 141 424 148 413 149 C412 148 412 148 411 149 L411 149 Z " />
<glyph glyph-name="A" unicode="A" horiz-adv-x="311" d="M285 88 C281 106 276 123 271 145 C267 161 266 179 261 200 C254 230 251 265 244 299 C236 330 230 366 223 402 C217 427 206 454 203 480 C198 515 186 539 161 560 C152 567 130 568 119 564 C110 560 106 544 103 535 C101 529 99 522 98 515 C90 476 81 438 74 403 C63 338 54 276 41 215 C30 160 17 106 9 51 C6 31 0 9 3 -10 C5 -23 13 -27 24 -31 C39 -36 68 -40 77 -20 C84 -8 84 10 86 24 C89 47 92 66 94 89 C96 96 98 104 100 112 C102 117 131 116 136 116 C149 115 170 122 179 113 C182 110 183 107 183 101 C184 77 188 55 193 34 C197 18 200 -1 215 -4 C229 -7 247 -1 261 -1 C273 0 289 4 293 18 C298 39 288 66 285 88 L285 88 Z M113 198 C114 207 114 211 115 216 C121 243 120 261 129 288 C137 314 143 337 149 364 C151 370 152 376 155 382 C165 317 172 266 176 198 L113 198 Z " />
<glyph glyph-name="B" unicode="B" horiz-adv-x="319" d="M213 347 L213 347 C223 364 228 384 232 403 C234 418 236 435 233 449 C228 476 215 498 193 514 C180 524 166 533 152 542 C149 543 146 543 143 543 C139 544 135 543 131 544 C114 547 98 548 81 547 C67 546 54 544 41 541 C33 539 26 534 18 529 C16 528 14 526 14 523 C13 518 12 513 11 508 C10 487 9 466 7 445 C5 411 3 377 2 343 C1 316 2 289 2 262 C2 227 1 193 1 159 C1 138 2 118 1 97 C0 76 2 56 5 36 C8 19 17 7 33 3 C46 -1 60 -2 73 -4 C80 -5 87 -7 93 -5 C104 -3 116 -8 126 1 C127 1 128 1 130 1 C143 1 156 0 167 9 C170 10 173 11 176 11 C200 15 223 22 243 38 C260 51 275 63 280 86 C281 88 283 90 284 93 C293 115 305 137 303 162 C302 182 298 202 293 222 C289 237 283 252 277 266 C266 291 254 315 232 332 C225 336 220 341 213 347 L213 347 Z M94 89 L94 89 C94 95 92 101 93 107 C95 137 94 166 92 195 C92 201 93 207 93 214 C92 228 92 243 91 258 C89 281 95 288 117 285 C123 284 129 285 136 285 C149 286 162 287 174 280 C177 279 179 278 182 277 C198 274 209 263 219 252 C222 248 224 244 226 239 C226 238 226 236 226 236 C236 230 236 219 237 210 C239 200 240 190 237 180 C232 165 229 150 225 135 C223 126 217 120 209 117 C192 110 176 104 158 100 C138 95 117 93 94 89 L94 89 Z M179 458 C180 445 176 435 168 426 C156 413 144 403 127 398 C116 395 105 390 93 387 C91 402 93 417 95 432 C96 440 96 449 96 457 C96 467 97 469 107 471 C114 473 122 474 129 473 C141 472 153 469 164 466 C169 465 174 460 179 458 L179 458 Z " />
<glyph glyph-name="C" unicode="C" horiz-adv-x="255" d="M0 279 C1 279 1 279 1 279 C1 273 2 267 1 262 C1 230 0 198 3 166 C5 142 8 118 15 95 C20 77 27 61 38 47 C50 33 63 20 81 13 C104 4 128 1 153 0 C170 -1 186 5 198 18 C212 33 226 48 233 68 C235 72 236 76 236 81 C238 93 239 106 240 118 C241 131 240 143 240 156 C240 166 240 177 239 187 C239 194 236 199 229 200 C221 201 214 203 206 203 C200 203 193 198 188 192 C185 188 166 92 166 88 C149 15 104 82 100 118 C95 156 90 194 87 233 C85 256 80 278 82 301 C82 303 81 304 81 305 C79 321 76 336 74 352 C73 364 72 376 71 388 C71 400 69 413 70 425 C73 440 67 457 81 469 C81 469 81 470 81 470 C81 480 88 486 92 493 C96 500 103 503 110 503 C113 504 117 502 118 500 C121 493 126 485 125 476 C125 461 126 445 125 430 C125 420 130 415 138 411 C149 405 158 407 167 415 C180 426 182 443 181 458 C179 481 170 502 160 522 C156 530 151 536 142 539 C133 542 124 546 114 548 C104 551 94 552 83 552 C58 550 41 533 27 514 C9 490 1 461 0 430 C0 401 0 373 0 344 C0 322 0 300 0 279 L0 279 Z " />
<glyph glyph-name="D" unicode="D" horiz-adv-x="316" d="M21 159 L21 159 C21 159 20 159 20 159 C21 127 22 96 24 64 C25 48 26 32 39 21 C46 15 64 9 71 3 C77 -2 84 -3 92 -1 C112 5 132 10 152 15 C223 35 284 151 293 228 C295 251 298 274 298 297 C298 317 296 336 294 356 C288 404 269 446 240 483 C207 524 164 548 111 547 C98 547 86 547 73 547 C67 548 49 548 43 550 C36 553 31 551 26 547 C19 542 15 536 16 527 C16 521 16 515 10 513 C9 513 8 510 7 509 C3 499 0 488 5 477 C7 473 7 467 7 463 C8 451 7 440 8 428 C14 383 19 338 18 292 C17 264 20 236 21 208 C22 192 21 175 21 159 L21 159 Z M79 482 C95 491 112 491 128 492 C132 492 137 491 142 491 C164 490 181 480 193 461 C212 431 221 397 223 361 C224 326 222 292 218 257 C212 212 197 170 169 134 C166 130 163 126 160 122 C148 106 138 100 116 96 C116 100 115 103 115 107 C115 125 116 143 114 161 C114 175 111 189 108 203 C106 213 105 222 104 232 C104 253 101 275 100 296 C99 321 92 345 89 370 C86 401 85 432 82 463 C82 469 80 476 79 482 L79 482 Z " />
<glyph glyph-name="E" unicode="E" horiz-adv-x="238" d="M101 76 C101 86 98 117 98 125 C98 141 98 156 97 171 C97 177 99 182 104 184 C118 188 130 195 146 192 C154 191 162 193 170 195 C174 195 178 199 179 202 C183 214 186 227 188 240 C189 242 187 244 187 246 C186 253 185 260 184 267 C183 272 183 277 183 284 C161 284 141 284 121 284 C115 284 109 285 104 286 C92 289 92 290 92 305 C92 307 91 309 91 312 C90 335 88 358 88 382 C87 394 88 406 89 418 C89 430 89 443 90 456 C90 463 93 467 100 468 C110 469 120 473 130 476 C146 479 162 482 179 480 C186 478 194 482 202 485 C209 489 216 507 213 514 C205 528 194 539 181 542 C149 549 116 550 83 544 C71 542 58 542 45 540 C42 539 39 537 36 534 C33 531 30 526 27 523 C12 521 9 518 5 503 C2 492 4 482 5 471 C6 424 7 378 8 331 C8 295 9 259 10 223 C10 215 9 206 9 198 C6 164 3 130 1 95 C0 79 1 62 4 46 C8 19 11 4 37 3 C37 3 37 3 38 2 C54 -4 197 -1 211 15 C219 24 219 26 214 38 C209 52 210 71 202 83 C154 82 144 78 101 76 L101 76 Z " />
<glyph glyph-name="F" unicode="F" horiz-adv-x="269" d="M251 545 C249 547 246 549 244 551 C235 559 226 563 215 562 C154 554 85 560 34 554 C24 554 16 550 9 544 C4 539 1 532 1 523 C1 479 0 421 0 377 C0 325 0 274 1 222 C2 188 5 155 5 122 C6 94 6 67 6 40 C6 34 7 27 10 22 C19 6 48 -4 67 -1 C74 0 82 -1 86 7 C93 16 99 26 96 39 C93 52 93 66 95 79 C96 90 97 101 97 112 C98 129 99 146 99 164 C99 184 99 205 98 225 C115 229 131 234 148 238 C156 241 165 242 173 243 C189 244 206 244 222 244 C227 255 237 264 227 277 C226 278 226 280 226 281 C231 289 226 294 222 298 C214 309 203 314 190 313 C163 310 136 307 109 304 C104 303 100 303 96 302 C95 307 95 312 95 317 C93 338 97 358 96 379 C96 385 92 463 95 464 C99 466 103 469 108 471 C132 478 208 475 252 489 C253 492 254 495 255 498 C263 516 264 531 251 545 L251 545 Z " />
<glyph glyph-name="G" unicode="G" horiz-adv-x="308" d="M254 35 C255 36 256 37 257 38 C282 68 282 115 282 151 C282 164 281 177 280 190 C278 224 291 286 247 294 C222 299 191 294 167 286 C155 282 140 287 133 275 C125 264 136 252 145 245 C160 234 174 244 188 238 C203 232 202 208 203 194 C204 165 200 137 193 109 C187 82 149 53 124 80 C115 90 115 107 112 120 C106 144 101 168 100 192 C99 199 98 205 98 211 C98 231 99 251 99 271 C99 304 97 337 99 369 C101 400 111 465 154 466 C173 467 194 442 202 426 C210 410 201 388 225 386 C242 384 248 395 253 411 C260 432 259 469 251 490 C229 552 134 562 86 524 C15 468 4 363 6 279 C6 242 0 204 6 166 C9 143 13 120 19 98 C29 58 53 28 93 14 C113 8 134 3 154 -2 C185 -8 231 12 254 35 L254 35 Z " />
<glyph glyph-name="H" unicode="H" horiz-adv-x="337" d="M309 28 C308 31 309 35 309 39 C308 50 308 61 308 71 C308 78 307 85 307 92 C307 101 308 110 306 118 C304 131 304 145 304 158 C302 188 299 218 297 248 C296 263 294 278 292 293 C289 329 286 366 283 402 C281 426 281 563 247 557 C229 554 212 539 206 518 C200 498 212 482 215 461 C223 410 218 359 218 308 C218 308 217 307 216 306 C184 300 151 294 117 288 C116 304 115 318 114 332 C113 364 111 396 112 428 C113 454 105 476 99 500 C97 509 92 512 84 513 C74 514 64 517 54 519 C50 520 46 521 40 522 C38 514 35 508 35 502 C33 476 33 451 32 425 C31 384 31 343 30 302 C30 299 31 296 31 294 C31 291 31 289 31 287 C30 287 30 286 29 286 C18 284 5 278 3 264 C0 248 7 236 8 221 C8 198 21 194 37 195 C37 179 38 163 39 147 C40 114 43 83 44 50 C45 31 52 17 69 10 C72 9 76 6 79 5 C92 -1 105 4 118 3 C118 3 119 4 120 5 C133 13 138 26 137 41 C135 71 133 100 130 130 C128 149 125 167 124 186 C122 198 126 204 137 206 C154 210 175 218 193 216 C218 213 210 193 209 169 C208 158 208 146 208 135 C209 108 211 81 212 54 C213 36 212 16 217 -2 C221 -15 228 -25 240 -30 C250 -34 261 -35 270 -40 C282 -45 293 -47 304 -42 C304 -37 305 -33 305 -29 C308 -10 313 8 309 28 L309 28 Z " />
<glyph glyph-name="I" unicode="I" horiz-adv-x="137" d="M0 537 C3 531 4 526 7 521 C12 513 13 504 14 495 C15 476 17 458 17 439 C17 390 17 341 17 293 C17 243 15 192 15 142 C15 110 18 77 21 45 C21 32 26 21 36 15 C51 7 66 -1 81 -8 C92 -13 98 -8 104 5 C113 22 113 42 114 62 C115 86 113 109 111 133 C109 159 110 184 109 210 C109 238 112 265 109 293 C106 324 106 355 105 386 C103 413 103 441 102 468 C101 476 100 484 99 492 C98 510 98 528 96 545 C94 560 87 568 75 568 C68 568 62 567 56 566 C47 564 39 563 29 561 C25 552 25 552 10 553 C7 548 4 542 0 537 L0 537 Z " />
<glyph glyph-name="J" unicode="J" horiz-adv-x="284" d="M125 465 C126 459 126 456 126 453 C128 406 129 360 132 314 C133 288 134 261 138 235 C143 195 142 155 143 116 C144 102 132 77 120 71 C111 67 95 67 87 72 C60 89 64 124 64 152 C64 167 68 193 52 198 C37 202 10 199 5 184 C0 167 5 147 5 130 C4 110 7 91 11 71 C17 40 35 20 62 10 C74 5 87 3 100 1 C135 -4 168 0 197 23 C211 34 218 50 225 66 C231 77 230 94 231 106 C232 121 229 137 228 151 C226 166 226 180 223 195 C221 207 221 220 219 233 C216 250 212 267 209 284 C204 305 200 327 197 348 C193 371 191 395 188 419 C187 430 186 441 186 452 C186 468 189 471 204 471 C221 472 238 475 252 487 C266 498 268 508 259 523 C253 533 246 540 235 541 C227 542 218 543 210 542 C189 541 167 538 146 535 C127 533 109 529 90 528 C73 527 56 523 39 526 C28 528 22 522 21 510 C21 506 20 501 21 497 C23 471 35 461 55 461 C74 461 93 463 111 464 C116 464 120 465 125 465 L125 465 Z " />
<glyph glyph-name="K" unicode="K" horiz-adv-x="366" d="M238 543 C191 482 145 424 98 364 C96 370 95 375 95 380 C93 425 92 469 91 514 C91 528 84 537 73 543 C64 547 54 551 45 554 C36 558 34 557 30 547 C30 546 28 544 27 543 C19 544 13 551 3 545 C5 540 7 533 1 528 C0 527 1 524 1 522 C2 507 3 491 3 476 C4 382 3 288 4 194 C4 164 6 133 6 103 C7 83 6 62 7 42 C8 25 13 9 27 -2 C32 -7 38 -9 45 -7 C58 -3 71 1 83 5 C87 6 90 8 93 9 C110 18 113 34 114 50 C117 74 118 99 118 123 C119 152 120 182 111 211 C110 216 110 222 109 227 C111 228 112 229 113 229 C114 227 114 225 116 224 C139 197 161 168 178 137 C188 117 201 99 211 79 C235 36 258 -8 281 -51 C287 -62 297 -70 309 -74 C314 -76 320 -76 325 -74 C337 -69 349 -62 360 -56 C367 -52 371 -47 371 -40 C371 -30 371 -19 365 -10 C355 5 345 19 334 33 C333 35 331 37 330 39 C321 56 312 73 302 89 C292 107 281 124 270 142 C265 150 258 157 253 165 C238 195 222 224 202 252 C191 267 182 283 170 297 C163 306 163 314 167 323 C180 355 200 384 220 412 C229 426 237 440 246 454 C256 469 266 485 276 500 C280 507 280 514 273 519 C265 525 258 531 250 537 C246 539 242 541 238 543 L238 543 Z " />
<glyph glyph-name="L" unicode="L" horiz-adv-x="256" d="M3 559 C3 553 1 545 1 537 C2 518 5 498 4 479 C4 446 2 414 1 381 C0 370 2 358 2 346 C2 328 1 310 1 292 C0 258 0 224 1 190 C1 183 1 176 2 170 C5 158 2 99 9 76 C10 56 14 37 21 18 C24 11 33 4 41 2 C52 -2 91 -6 103 1 C106 3 111 3 114 3 C141 1 168 5 195 7 C209 8 222 12 236 6 C244 3 250 9 250 19 C251 26 251 33 250 40 C249 59 241 73 223 78 C212 81 200 84 189 82 C169 79 149 79 129 79 C121 79 115 76 114 85 C113 91 114 97 114 103 C114 113 113 121 113 131 C113 149 113 168 113 187 C113 194 112 201 112 208 C110 233 111 258 109 283 C108 304 108 326 108 347 C105 369 105 526 96 548 C95 559 89 566 79 566 C66 566 17 568 3 559 L3 559 Z " />
<glyph glyph-name="M" unicode="M" horiz-adv-x="374" d="M165 282 C156 298 150 311 150 327 C150 331 147 335 146 339 C143 348 140 357 137 366 C131 386 126 408 117 427 C104 454 88 479 73 505 C71 508 70 512 68 516 C67 520 66 523 65 526 C61 537 53 540 42 537 C38 536 33 536 29 536 C9 534 9 535 8 514 C7 496 5 477 4 459 C3 440 1 421 0 402 C0 379 1 357 1 334 C1 305 1 277 1 249 C2 229 5 209 6 188 C7 160 8 131 10 103 C11 78 15 53 17 28 C18 19 22 15 29 13 C47 7 78 -8 97 -1 C100 3 105 9 106 15 C107 22 106 31 106 38 C106 60 103 80 101 102 C100 112 101 121 100 131 C98 147 100 165 96 181 C90 214 87 249 84 283 C83 289 85 296 84 302 C82 318 80 335 75 350 C73 353 74 357 74 363 C76 361 76 360 77 359 C78 357 79 354 79 352 C90 319 94 284 109 252 C115 240 122 228 126 215 C132 196 148 187 163 178 C172 173 184 176 189 184 C194 191 199 199 198 208 C197 221 201 233 206 244 C211 258 216 272 221 285 C222 289 224 291 225 294 C226 294 227 294 228 294 C230 269 232 244 233 220 C234 210 233 201 232 191 C232 168 231 146 231 123 C232 102 233 80 235 59 C236 34 239 10 242 -14 C243 -21 246 -29 249 -36 C253 -44 260 -50 270 -51 C282 -54 294 -55 307 -54 C318 -54 332 -57 341 -49 C350 -41 346 -21 345 -10 C343 18 342 47 341 75 C340 105 333 134 333 164 C333 194 334 225 332 255 C331 274 328 293 326 311 C325 338 322 365 317 391 C316 399 314 407 315 415 C315 428 317 441 318 454 C319 465 320 477 319 488 C317 502 312 516 308 530 C307 535 308 541 302 544 C297 545 292 548 287 548 C277 547 266 547 256 545 C249 544 241 542 237 535 C234 529 231 523 229 517 C222 498 215 479 210 460 C199 420 189 380 179 340 C174 322 170 303 165 282 L165 282 Z " />
<glyph glyph-name="N" unicode="N" horiz-adv-x="302" d="M1 487 C3 480 6 473 6 466 C6 437 6 409 5 380 C3 349 0 318 0 287 C0 228 1 169 2 110 C2 89 3 69 4 49 C4 35 10 23 21 14 C34 4 48 -6 66 -4 C70 -3 73 -5 77 -5 C79 -1 81 3 82 6 C85 14 90 22 90 30 C91 45 89 61 88 77 C86 91 82 105 81 119 C80 150 80 182 80 214 C80 242 78 270 79 298 C80 320 84 341 83 363 C83 365 85 367 86 372 C95 346 101 323 110 300 C132 240 149 178 161 115 C163 101 168 88 174 75 C183 58 192 41 200 24 C208 10 218 1 233 -2 C240 -4 244 0 249 6 C255 14 256 23 257 33 C259 47 262 62 261 77 C260 93 257 108 263 123 C263 125 262 127 262 130 C262 133 261 137 261 141 C263 166 265 192 267 217 C269 255 271 292 273 330 C273 339 275 349 275 358 C275 371 273 384 272 397 C271 413 272 429 271 446 C270 460 268 475 268 489 C269 511 266 531 257 550 C253 559 248 563 241 565 C230 567 220 563 211 558 C208 556 206 550 204 545 C202 541 200 535 199 530 C198 528 197 525 196 523 C196 506 195 490 195 473 C195 466 194 458 193 451 C190 420 187 388 189 357 C190 328 187 300 184 271 C176 285 170 299 165 313 C160 325 156 339 150 350 C143 364 137 379 134 394 C133 401 132 409 130 416 C119 445 108 474 92 500 C89 503 88 507 87 511 C85 525 67 542 55 540 C40 537 24 533 14 518 C8 508 0 499 1 487 L1 487 Z " />
<glyph glyph-name="O" unicode="O" horiz-adv-x="312" d="M0 315 C2 284 4 253 7 222 C9 200 11 178 14 156 C20 122 33 91 45 60 C63 14 136 -4 176 0 C190 2 202 6 212 19 C229 40 250 57 253 90 C253 91 254 91 254 92 C265 120 268 151 274 181 C280 210 283 241 286 272 C289 297 291 322 286 347 C281 373 279 399 275 425 C274 434 272 443 270 451 C268 458 267 465 265 472 C262 483 261 497 256 506 C243 527 225 543 203 547 C194 548 186 551 178 553 L154 556 C148 557 141 557 135 558 C126 559 89 559 82 555 C73 550 63 546 55 536 C46 524 41 510 34 496 C23 473 19 447 13 422 C5 387 4 350 0 315 L0 315 Z M151 57 C140 78 133 102 127 127 L127 128 C122 150 116 171 111 193 C109 200 109 209 107 217 C98 247 103 278 101 308 C100 331 101 353 104 376 C107 401 114 424 120 448 C125 470 138 484 150 499 C154 505 164 505 171 506 C174 507 178 502 181 498 C185 491 190 483 193 475 C204 439 211 402 213 364 C215 333 212 303 208 273 C205 242 202 212 199 182 C196 153 186 127 176 101 C170 86 160 72 151 57 L151 57 Z " />
<glyph glyph-name="P" unicode="P" horiz-adv-x="250" d="M245 409 L245 409 C246 433 237 464 223 482 C210 500 196 515 179 526 C140 553 99 557 56 538 C43 532 31 524 16 522 C12 522 6 517 5 513 C4 505 1 496 1 487 C3 459 5 432 4 404 C3 366 0 329 2 291 C4 243 7 195 8 147 C9 114 8 81 7 48 C6 29 9 11 17 -5 C19 -9 23 -13 26 -14 C32 -15 39 -14 45 -12 C55 -10 59 0 64 7 C67 12 68 18 72 20 C83 24 86 35 89 44 C93 58 97 71 100 85 C102 93 103 102 103 110 C103 121 102 133 101 144 C100 158 98 173 96 187 C95 199 93 210 91 221 C90 229 92 236 100 239 C103 241 107 243 110 245 C126 258 141 272 157 285 C161 288 165 290 170 292 C179 297 188 302 194 312 C198 317 204 321 209 326 C211 328 214 331 215 334 C220 349 234 360 237 378 C246 387 246 399 245 409 L245 409 Z M83 335 C83 344 82 352 81 360 C79 380 77 399 75 419 C75 424 75 429 75 433 C75 448 75 462 76 476 C76 487 77 488 86 492 C114 503 142 495 161 470 C170 457 179 445 180 427 C180 408 177 391 161 378 C143 363 123 354 103 344 C97 340 91 338 83 335 L83 335 Z " />
<glyph glyph-name="Q" unicode="Q" horiz-adv-x="361" d="M271 74 L271 74 C282 82 284 94 288 105 C323 198 320 440 232 533 C209 544 166 562 141 551 C138 550 134 550 131 550 C120 547 79 541 69 538 C58 535 50 525 44 515 C31 489 18 463 11 434 C5 402 0 371 0 339 C0 296 2 252 5 209 C9 156 25 108 54 66 C93 11 164 -26 230 20 C239 11 247 1 255 -7 C265 -17 276 -24 288 -24 C295 -24 302 -23 309 -23 C330 -21 345 0 343 26 C335 23 327 20 318 18 C307 14 297 20 291 30 C283 44 278 59 271 74 L271 74 Z M211 135 C212 136 180 148 176 148 C167 148 151 147 148 134 C140 107 174 105 188 97 C182 83 171 75 159 70 C157 69 153 70 151 71 C145 79 136 86 132 96 C121 126 111 158 106 191 C103 212 101 234 99 255 C98 278 96 301 97 324 C99 352 102 381 106 409 C108 425 114 441 118 456 C119 460 122 463 124 465 C142 481 160 496 183 500 C201 504 210 499 218 481 C229 459 236 435 237 408 C237 386 242 363 243 341 C244 324 242 308 241 292 C240 272 238 252 237 232 C234 198 228 166 211 135 L211 135 Z " />
<glyph glyph-name="R" unicode="R" horiz-adv-x="294" d="M156 320 L156 320 C173 324 185 335 198 346 C228 370 243 402 251 439 C253 450 251 463 246 475 C233 501 213 521 193 541 C175 560 152 570 128 579 C107 587 86 587 65 579 C50 573 35 565 19 565 C17 565 15 564 14 563 C10 559 6 556 2 552 C2 535 0 516 3 498 C8 466 7 432 9 400 C11 376 11 352 11 329 C11 298 11 268 11 237 C11 223 9 209 10 195 C11 163 12 131 14 99 C16 77 18 55 23 35 C30 7 46 3 70 -1 C73 -1 75 0 77 1 C84 4 91 7 98 11 C104 15 113 16 115 25 C117 36 120 47 122 58 C126 85 124 111 122 138 C120 158 116 179 113 203 C125 188 134 175 144 162 C153 150 160 136 171 126 C181 117 188 106 195 94 C207 74 221 55 245 48 C254 45 263 46 271 50 C278 54 282 61 280 69 C274 88 270 108 260 124 C246 147 231 169 219 192 C213 203 206 213 200 223 C191 241 182 259 173 276 C166 290 159 303 156 320 L156 320 Z M87 367 C86 392 85 414 84 437 C83 458 80 480 76 501 C73 514 77 523 88 531 C106 544 138 544 155 522 C166 506 179 492 187 473 C195 452 185 422 167 412 C145 399 123 386 102 374 C98 372 94 370 87 367 L87 367 Z " />
<glyph glyph-name="S" unicode="S" horiz-adv-x="249" d="M218 408 C217 419 214 429 214 439 C214 450 211 460 206 469 C197 541 115 561 52 526 C20 494 5 442 11 397 C15 367 27 340 44 315 C63 288 86 258 97 227 C113 187 136 154 141 112 C142 102 142 93 136 85 C128 73 111 46 94 64 C84 74 76 88 69 100 C61 113 43 151 66 158 C77 162 82 153 85 167 C90 186 82 198 67 206 C36 222 1 177 1 149 C0 111 14 67 37 38 C47 25 60 21 74 14 C85 9 95 4 107 3 C123 2 138 1 152 9 C161 14 171 16 179 22 C187 28 194 34 203 39 C209 42 213 46 217 52 C225 66 231 81 230 98 C230 122 228 145 224 169 C222 184 214 196 209 210 C206 219 202 227 197 235 C187 251 176 267 165 283 C162 287 158 290 155 294 C145 307 133 319 123 333 C115 344 108 358 100 370 C88 387 84 407 81 427 C78 443 83 457 95 468 C105 477 117 475 124 465 C130 456 134 448 133 437 C132 427 133 418 133 409 C132 401 131 394 129 387 C127 376 135 359 145 355 C151 353 156 350 160 345 C166 338 185 333 190 337 C199 343 211 347 210 362 C209 363 210 365 211 366 C214 380 219 393 218 408 L218 408 Z " />
<glyph glyph-name="T" unicode="T" horiz-adv-x="298" d="M93 484 C94 484 95 484 97 484 C111 483 112 483 112 470 C120 339 128 208 117 77 C115 61 117 45 120 28 C121 20 123 11 131 7 C140 2 150 -1 160 -1 C179 -2 213 11 208 36 C207 42 206 47 205 53 C188 150 187 337 179 460 C177 486 177 488 202 487 C228 487 251 496 275 503 C283 505 286 512 285 520 C284 524 283 528 280 532 C274 541 268 552 254 552 C232 551 211 552 189 552 C164 551 138 550 112 549 C95 549 78 550 62 550 C60 550 57 550 55 550 C48 549 41 547 33 547 C18 546 0 528 0 513 C0 511 0 509 0 508 C6 492 21 481 38 482 C56 483 74 483 93 484 L93 484 Z " />
<glyph glyph-name="U" unicode="U" horiz-adv-x="250" d="M3 544 C2 542 2 542 2 541 C3 498 4 455 3 412 C1 382 2 352 2 322 C2 297 2 271 2 246 C2 238 0 230 1 223 C5 179 5 134 13 91 C19 57 48 14 87 8 C97 6 108 4 118 2 C134 0 150 3 164 10 C183 20 195 40 210 55 C211 55 211 56 211 57 C219 72 223 89 225 105 C226 123 226 140 226 158 C226 175 225 193 224 210 C224 230 220 251 218 271 C216 289 216 307 213 324 C208 350 210 376 208 402 C206 433 206 464 205 495 C204 508 202 520 205 533 C207 543 201 552 191 554 C183 556 174 556 165 556 C157 555 154 549 156 541 C158 535 159 529 160 523 C160 510 159 497 159 484 C158 449 157 414 156 379 C156 341 153 303 155 265 C156 237 156 209 156 181 C156 159 157 137 157 114 C157 108 156 102 150 98 C143 93 137 86 130 79 C122 83 118 90 116 99 C114 109 112 119 110 129 C107 145 102 161 100 177 C97 204 95 231 87 258 C86 262 86 267 85 272 C84 281 84 291 82 300 C75 337 73 374 71 411 C69 438 68 464 66 491 C66 496 67 501 68 506 C71 516 69 526 60 533 C55 537 50 541 45 542 C31 547 17 554 3 544 L3 544 Z " />
<glyph glyph-name="V" unicode="V" horiz-adv-x="278" d="M130 253 C129 253 128 253 127 253 C126 256 124 260 123 264 C114 292 107 321 97 349 C85 381 77 414 72 448 C69 462 65 475 62 488 C59 500 55 512 54 524 C53 539 48 549 36 555 C27 559 17 560 8 563 C0 547 2 530 3 515 C6 486 9 457 13 428 C15 412 16 396 19 380 C23 360 28 340 29 320 C30 304 33 289 35 274 C37 262 40 249 41 236 C44 214 47 191 50 168 C52 155 55 141 57 128 C61 103 64 79 68 54 C70 43 74 32 77 21 C80 13 85 8 94 6 C111 4 128 2 144 0 C150 0 155 0 160 2 C169 6 169 7 168 17 C168 22 167 27 169 31 C175 47 180 63 177 80 C177 82 178 83 178 84 C186 118 192 152 193 187 C194 200 195 214 196 227 C200 257 206 287 209 317 C213 348 215 380 222 410 C228 434 231 458 237 481 C241 496 245 511 255 522 C266 533 265 539 253 547 C249 549 245 550 242 552 C230 557 218 563 206 568 C198 562 193 554 193 542 C193 540 192 538 191 536 C184 507 177 478 170 450 C166 431 162 412 158 392 C153 366 146 341 141 314 C137 294 133 274 130 253 L130 253 Z " />
<glyph glyph-name="W" unicode="W" horiz-adv-x="395" d="M294 8 C295 8 297 9 299 10 C311 14 313 17 314 32 C314 44 315 57 316 69 C316 73 317 78 318 83 C321 122 324 161 328 201 C331 233 335 266 338 298 C341 334 344 370 348 406 C352 448 357 490 362 532 C363 542 366 552 368 561 C375 583 372 607 347 612 C340 613 330 614 326 609 C320 603 316 609 312 609 C283 480 269 349 263 216 C260 223 260 231 258 238 C252 265 246 292 240 319 C237 332 234 345 230 357 C225 374 219 390 213 407 C210 416 209 425 213 434 C216 441 215 446 211 451 C203 462 175 465 166 459 C166 450 166 444 166 437 C164 427 163 418 160 408 C149 366 138 323 131 280 C128 261 123 244 115 225 C114 231 113 234 112 238 C111 251 110 264 108 277 C106 293 103 308 100 323 C99 331 99 339 97 346 C95 361 94 376 90 391 C84 415 79 440 76 464 C74 483 73 502 71 521 C70 527 66 533 62 538 C49 556 29 557 10 558 C7 558 4 557 0 556 C1 549 1 543 1 536 C6 490 11 443 16 396 C19 363 21 330 24 297 C27 268 31 239 33 210 C37 170 40 130 44 89 C45 73 49 56 60 44 C64 39 67 35 67 28 C67 24 71 20 74 17 C81 12 87 6 94 3 C101 -1 108 -2 115 3 C123 9 126 17 128 28 C134 56 143 84 150 112 C157 142 164 172 170 203 C176 238 181 274 187 309 C188 316 191 322 192 329 C195 327 196 325 196 324 C202 289 208 253 214 218 C220 178 226 137 233 96 C237 70 242 45 246 19 C248 7 255 1 263 -4 C278 -12 287 -9 294 8 L294 8 Z " />
<glyph glyph-name="X" unicode="X" horiz-adv-x="320" d="M141 358 C135 370 129 379 125 389 C113 418 99 447 89 477 C81 499 71 521 65 544 C63 553 58 556 52 558 C38 562 12 552 5 540 C0 534 0 529 6 525 C15 520 18 512 22 504 C29 487 35 470 41 453 C50 426 58 398 67 370 C77 339 87 308 97 277 C98 273 98 268 96 264 C82 229 67 195 54 160 C41 127 31 93 20 59 C18 52 18 44 18 37 C22 8 48 -7 71 6 C77 10 105 45 108 54 C108 54 108 54 108 55 C115 78 121 100 128 123 C129 128 131 133 132 137 C137 127 141 117 144 107 C149 88 157 70 166 53 C183 24 199 -5 216 -34 C235 -64 259 -75 291 -68 C295 -54 300 -39 304 -24 C305 -19 304 -12 302 -7 C299 5 294 16 291 28 C286 42 282 58 276 72 C268 94 258 116 248 137 C242 152 235 167 228 183 C216 213 208 246 191 274 C190 276 189 279 188 281 C185 289 186 296 189 303 C196 317 201 332 206 347 C220 385 235 423 256 458 C267 475 265 505 254 522 C243 540 218 538 210 519 C195 483 180 448 165 412 C157 395 149 377 141 358 L141 358 Z " />
<glyph glyph-name="Y" unicode="Y" horiz-adv-x="327" d="M0 509 C35 445 84 368 132 306 C132 301 132 296 132 290 C130 264 131 261 131 235 C131 215 132 194 133 174 C133 164 132 154 132 144 C132 121 132 98 132 74 C132 57 131 40 138 23 C141 16 145 10 152 8 C156 6 159 5 162 4 C182 -7 199 -3 216 12 C220 16 227 52 226 57 C222 90 205 335 211 347 C215 356 219 366 223 376 C228 391 235 405 242 419 C246 427 250 435 254 443 C261 454 268 465 276 476 C286 492 298 508 309 524 C310 527 313 530 313 532 C310 544 313 556 306 567 C302 574 284 580 276 578 C244 568 234 546 217 515 C205 493 194 472 182 450 C175 438 168 427 160 414 C157 419 155 421 154 424 C148 438 142 452 134 466 C122 487 104 528 92 549 C83 565 71 575 52 575 C36 569 15 531 0 509 L0 509 Z " />
<glyph glyph-name="Z" unicode="Z" horiz-adv-x="306" d="M235 483 C237 491 238 499 240 508 C246 542 213 536 192 538 C142 543 98 536 49 531 C40 530 17 532 10 527 C5 522 0 509 1 501 C2 475 56 479 72 479 C85 480 126 487 133 476 C140 464 129 424 127 412 C118 350 106 288 90 228 C79 189 71 148 59 109 C51 80 40 55 45 23 C50 -17 113 2 138 3 C167 4 196 0 225 6 C247 10 295 -6 294 33 C293 53 293 58 275 58 C243 57 210 55 177 56 C159 57 149 58 148 79 C145 107 152 139 157 166 C176 274 214 376 235 483 L235 483 Z " />
<glyph glyph-name="bracketleft" unicode="&#x5b;" horiz-adv-x="141" d="M5 178 C5 178 5 177 6 177 C5 170 6 165 6 158 C7 155 7 149 6 146 C6 146 7 146 7 145 L6 144 L6 129 C8 124 5 117 7 112 C8 106 7 102 7 97 C9 94 6 89 9 86 C9 86 10 86 10 85 C10 83 10 83 9 82 L9 75 C11 70 8 64 10 59 C11 58 11 57 11 54 C12 52 14 48 13 46 C12 42 15 35 15 30 C15 25 14 20 13 15 C13 13 12 9 12 8 C13 6 17 3 18 3 C21 1 25 1 28 1 L69 1 C74 2 79 2 84 2 L86 2 C90 1 94 -1 98 2 L101 2 C102 1 102 1 103 2 C104 2 104 2 104 3 L118 3 C124 3 129 12 129 18 L129 37 C130 45 128 45 124 46 C123 47 122 47 120 47 C117 47 113 48 109 48 L78 48 C78 54 77 60 78 66 C78 74 79 74 79 81 C81 208 71 327 70 453 C70 455 71 461 70 465 C70 468 70 470 71 471 C73 483 69 495 72 507 C73 515 67 527 77 527 L109 527 C113 527 117 528 120 528 C122 528 123 528 124 529 C128 530 130 530 129 538 L129 558 C129 563 124 572 118 572 C116 572 114 571 113 571 C111 571 109 572 107 572 L101 572 C80 573 46 576 28 574 L18 572 C17 571 13 570 12 568 C12 566 13 562 13 560 C14 556 15 549 15 546 C15 540 12 534 13 529 C14 526 12 524 11 520 C11 518 11 517 10 516 C8 512 11 505 9 501 L9 493 C10 492 10 491 10 491 C10 490 9 490 9 490 C6 487 9 481 7 479 C7 473 8 469 7 464 C5 458 8 452 6 446 L6 431 C7 431 7 431 7 430 L6 430 C7 424 7 421 6 418 C5 407 5 396 7 385 C8 384 8 381 7 379 C5 373 7 366 6 360 C5 352 5 349 5 341 C6 335 6 332 5 327 C5 321 8 312 7 308 C5 301 8 295 6 288 L6 286 L5 285 C7 276 4 267 4 260 C4 255 5 253 5 249 C5 247 7 243 6 242 C6 241 8 240 8 237 C5 232 9 225 6 220 C4 214 6 207 6 202 L6 201 C6 196 7 193 6 190 L5 190 C6 185 6 182 5 179 L5 178 Z " />
<glyph glyph-name="backslash" unicode="&#x5c;" horiz-adv-x="289" d="M142 204 C143 202 143 200 144 199 C146 197 145 195 147 194 L147 193 C148 189 149 185 152 182 C152 182 153 181 153 180 C154 179 154 177 154 176 C155 174 155 172 156 171 C157 170 157 169 158 169 C159 168 159 167 158 167 C160 165 159 163 161 162 L161 160 L165 155 C167 153 166 152 167 150 C167 149 168 147 168 146 C169 144 168 142 170 141 C172 139 176 125 179 123 C179 122 180 121 180 121 C181 120 181 119 181 119 C182 117 181 115 183 114 C183 113 184 113 183 112 C183 111 184 110 185 109 C186 109 186 108 185 107 C186 106 186 103 187 102 C189 101 188 99 189 97 C190 97 190 96 190 95 L192 91 C193 90 194 89 194 88 C195 88 195 87 195 87 C196 85 195 83 197 81 L199 77 C201 75 199 72 202 70 C203 68 202 66 203 65 C204 64 204 64 204 63 C205 62 205 59 206 58 L208 56 L208 54 C210 51 210 48 211 46 C211 45 212 44 212 43 C213 43 213 42 214 41 L215 40 C215 40 216 39 216 38 L217 37 L219 29 C220 29 220 28 221 27 C221 26 222 26 223 25 L223 24 C224 23 225 21 225 20 C226 19 226 18 226 17 C227 17 228 16 228 16 C229 15 230 15 230 14 C231 14 232 13 232 13 C232 12 233 12 233 12 L235 7 L237 5 L250 2 C251 1 252 1 253 1 L260 3 C261 3 262 3 263 4 L271 8 L273 11 L275 26 C277 31 273 35 274 40 C273 42 273 43 273 45 L273 48 C272 48 272 49 272 49 L270 55 L268 57 C266 59 268 63 266 65 C264 67 265 69 266 72 C266 73 265 73 265 74 C265 76 264 78 263 79 C263 82 262 84 261 85 C260 87 260 89 259 90 C259 91 259 92 258 93 C258 94 257 95 257 96 C256 97 256 98 256 98 C255 100 254 102 254 103 C253 104 252 105 251 105 C251 106 250 106 250 106 L250 107 C249 107 250 108 250 108 L248 111 L248 113 C245 122 235 141 231 148 C229 153 226 157 224 161 L218 177 C216 181 214 189 211 192 C210 193 211 195 210 196 C209 197 209 197 209 198 C208 200 208 202 207 203 C207 203 206 204 207 205 C206 213 199 220 195 227 C193 231 193 234 192 238 C191 239 187 245 187 246 C187 247 187 247 186 247 L186 249 C187 251 183 254 182 256 C180 259 179 262 178 266 C177 272 176 278 173 283 C164 298 128 369 122 386 C120 392 120 396 116 402 C111 408 105 414 103 422 C99 435 96 453 86 462 L85 463 C85 464 84 464 84 465 L83 465 L81 468 C81 469 81 470 80 470 C80 471 79 471 79 472 L78 473 L76 476 C76 476 76 477 75 478 C75 479 75 479 74 480 C74 481 74 482 73 482 C72 484 71 486 71 488 L69 491 C69 492 68 493 67 494 C67 495 67 496 66 497 C65 499 64 501 64 504 L62 507 C62 507 61 508 61 509 C60 509 60 510 59 510 C57 511 56 513 54 515 C54 516 53 517 52 518 C52 518 51 518 52 519 C47 528 43 538 39 546 C38 547 37 548 37 549 L34 551 C33 551 33 552 32 552 L24 552 C23 551 21 550 19 550 C19 550 18 549 17 549 L15 547 C15 547 14 547 14 546 C13 546 13 545 12 545 C12 544 11 544 11 544 C10 543 10 542 9 542 C9 541 9 541 8 541 C8 540 7 539 7 538 L7 535 C4 529 6 523 8 517 L8 514 C9 512 10 511 10 509 C10 508 11 507 11 506 C12 505 12 503 13 501 C13 501 13 500 14 499 C14 498 15 497 15 496 C16 495 16 494 16 493 C17 492 18 491 18 490 C18 489 19 489 19 488 C19 486 20 484 20 483 C20 482 20 481 21 480 C21 480 22 479 22 478 C23 478 23 478 23 477 C24 476 25 474 25 473 L27 468 C27 467 27 467 28 466 C28 465 29 464 29 464 C29 463 30 462 30 461 L32 457 C32 456 32 455 33 454 C38 443 41 428 50 418 C51 417 51 415 52 413 L52 411 C53 410 53 408 55 407 C55 405 56 404 57 403 C59 401 57 398 58 395 C59 392 62 389 63 386 C64 384 65 378 66 377 C67 375 67 373 67 372 C67 371 69 369 70 367 C70 367 71 366 71 365 C72 364 72 362 73 360 C75 359 99 302 99 301 C99 299 99 297 101 296 L101 294 C102 292 103 289 105 287 C106 285 106 283 108 282 C108 281 109 281 109 280 C110 278 110 277 110 275 C110 275 111 274 111 273 C112 273 112 272 112 271 C112 270 113 269 114 268 C115 267 115 266 115 264 C115 262 115 260 117 259 C118 258 118 256 119 254 C119 254 120 253 119 253 C120 251 121 251 121 250 C123 248 123 246 124 245 C125 245 126 244 125 243 C126 242 129 239 129 238 L129 234 C129 233 130 232 130 231 C131 231 131 230 131 229 C132 228 131 225 133 224 C134 224 134 223 135 222 C136 222 136 221 135 220 C136 219 136 216 137 215 C139 214 138 212 140 210 L140 209 C140 207 141 207 142 206 C143 205 143 205 142 204 L142 204 Z " />
<glyph glyph-name="bracketright" unicode="&#x5d;" horiz-adv-x="144" d="M129 179 C128 182 128 185 129 190 L128 190 C127 193 128 196 128 201 L128 202 C128 207 130 214 128 220 C125 225 129 232 126 237 C126 240 128 241 128 242 C127 243 129 247 129 249 C129 253 130 255 130 260 C130 267 127 276 129 285 L128 286 L128 288 C126 295 129 301 127 308 C126 312 129 321 129 327 C128 332 128 335 129 341 C129 349 129 352 128 360 C127 366 129 373 127 379 C126 381 126 384 127 385 C129 396 129 407 128 418 C127 421 127 424 128 430 L127 430 C127 431 127 431 128 431 L128 446 C126 452 129 458 127 464 C126 469 127 473 127 479 C125 481 128 487 125 490 C125 490 124 490 124 491 C124 491 124 492 125 493 L125 501 C123 505 126 512 124 516 C123 517 123 518 123 520 C122 524 120 526 121 529 C122 534 119 540 119 546 C119 549 120 556 121 560 C121 562 122 566 122 568 C121 570 117 571 116 572 L106 574 C88 576 54 573 33 572 L27 572 C25 572 23 571 21 571 C20 571 18 572 16 572 C10 572 5 563 5 558 L5 538 C4 530 6 530 10 529 C11 528 12 528 14 528 C17 528 21 527 25 527 L57 527 C67 527 61 515 62 507 C65 495 61 483 63 471 C64 470 64 468 64 465 C63 461 64 455 64 453 C63 327 53 208 55 81 C55 74 56 74 56 66 C57 60 56 54 56 48 L25 48 C21 48 17 47 14 47 C12 47 11 47 10 46 C6 45 4 45 5 37 L5 18 C5 12 10 3 16 3 L30 3 C30 2 30 2 31 2 C32 1 32 1 33 2 L36 2 C40 -1 44 1 48 2 L50 2 C55 2 60 2 65 1 L106 1 C109 1 113 1 116 3 C117 3 121 6 122 8 C122 9 121 13 121 15 C120 20 119 25 119 30 C119 35 122 42 121 46 C120 48 122 52 123 54 C123 57 123 58 124 59 C126 64 123 70 125 75 L125 82 C124 83 124 83 124 85 C124 86 125 86 125 86 C128 89 125 94 127 97 C127 102 126 106 127 112 C129 117 126 124 128 129 L128 144 L127 145 C127 146 128 146 128 146 C127 149 127 155 128 158 C128 165 129 170 128 177 C129 177 129 178 129 178 L129 179 Z " />
<glyph glyph-name="asciicircum" unicode="&#x5e;" horiz-adv-x="283" d="M248 545 C225 560 222 589 206 607 C204 610 204 610 204 612 L199 612 C199 612 198 615 194 615 L192 617 C189 617 189 617 189 621 C189 621 189 622 187 622 C187 623 184 627 182 629 L180 629 L174 636 C174 633 171 636 171 636 C168 640 171 643 168 648 L168 650 C168 651 168 651 166 653 L163 653 C163 653 163 657 160 657 C160 659 158 659 158 659 L153 662 L141 670 C140 670 140 671 139 671 C137 676 134 676 133 676 L118 676 C117 676 115 671 112 670 L107 662 C107 660 104 659 104 657 L101 653 L97 648 L95 645 C95 645 95 643 93 643 C93 640 93 637 91 637 C88 633 86 633 86 629 C83 629 83 627 83 623 C81 623 81 622 81 621 L77 617 C77 615 76 615 76 612 L75 612 C71 610 71 607 69 607 L69 603 C69 601 65 601 65 599 L65 597 C62 597 62 597 61 594 C61 594 61 591 58 591 L55 589 C55 589 55 586 53 586 C53 583 50 581 50 580 L48 578 L45 565 C45 564 41 563 41 563 C41 562 39 561 39 560 C39 559 38 558 38 558 C36 557 36 557 36 556 L31 556 C29 547 29 547 29 545 C28 543 28 541 27 541 C27 540 22 538 22 538 C22 535 22 530 20 530 L20 524 C20 522 20 518 19 516 C18 516 18 516 16 514 C16 511 11 509 9 506 L9 499 C9 498 9 494 7 494 C6 494 6 492 6 492 C4 492 4 488 4 488 C6 488 6 485 6 484 C7 484 7 481 9 478 L20 468 L22 468 L31 462 C36 462 36 461 38 461 C39 459 41 459 45 459 L48 459 L71 470 L76 473 C77 473 77 476 81 478 C81 481 83 481 83 484 C86 484 86 485 86 488 L86 492 L88 492 C91 492 93 494 95 494 C97 498 97 498 97 499 C99 500 99 506 99 509 C101 509 101 509 101 511 L107 516 L107 520 C109 520 109 522 112 522 L120 532 C120 532 122 532 122 535 L124 535 C133 538 133 538 133 540 L135 543 L135 545 L136 547 C136 556 136 556 137 556 L139 559 C138 560 139 561 139 561 C141 562 142 563 142 565 C153 574 155 574 157 565 C168 561 171 545 178 532 C184 522 189 509 192 498 C198 488 206 481 210 470 C213 461 214 461 225 452 C228 451 227 445 230 450 C237 450 248 464 253 468 C259 473 271 481 271 492 C271 504 266 509 259 518 C256 527 256 540 248 545 L248 545 Z " />
<glyph glyph-name="underscore" unicode="&#x5f;" horiz-adv-x="354" d="M236 -29 C242 -27 249 -31 256 -29 L259 -29 C259 -29 260 -30 262 -29 L267 -29 C270 -28 273 -29 276 -28 L278 -27 L280 -28 C283 -26 286 -28 292 -28 L295 -28 C297 -27 299 -27 304 -27 C306 -28 308 -28 310 -27 C311 -27 316 -26 318 -26 L321 -26 C329 -25 335 -24 340 -18 C342 -18 342 -17 342 -16 C343 -15 342 -13 342 -12 C342 -11 340 -10 340 -9 C339 -8 339 -6 336 -5 C333 -3 331 -3 329 -2 L324 -2 C322 -2 321 -1 320 0 C320 0 319 1 318 1 C317 1 317 0 316 0 C313 0 313 -1 311 -2 C309 -3 310 0 309 -1 C309 -1 308 -1 308 0 L306 0 L305 -1 C286 -2 271 6 254 3 L231 3 C225 2 219 3 212 3 C211 2 209 2 207 1 C206 0 203 0 201 1 C200 2 199 2 198 2 L187 2 C185 3 184 3 179 2 C176 2 172 1 165 1 L162 1 C159 0 152 1 149 -2 C146 -2 142 -2 138 -1 C135 1 133 0 130 1 C126 1 123 0 121 0 C119 -1 118 -1 118 -2 L113 -2 C112 0 111 0 109 -2 C105 -2 99 0 94 -2 C91 -2 89 -3 86 -3 C80 -2 74 -3 67 -1 C66 -1 66 -1 65 -2 L55 -2 C54 -3 53 -3 52 -3 C50 -4 45 -4 43 -4 L40 -4 L16 -6 C14 -6 13 -7 12 -7 L9 -9 C7 -10 5 -12 7 -14 C7 -15 7 -17 6 -19 C6 -20 7 -20 7 -21 C9 -23 10 -24 12 -24 L14 -26 L25 -29 C27 -29 28 -30 28 -30 L36 -33 L41 -33 C45 -32 51 -33 55 -33 C57 -33 61 -33 64 -32 C66 -31 67 -31 68 -32 C69 -33 71 -33 73 -33 C80 -32 87 -33 94 -31 L105 -31 C109 -32 113 -33 119 -32 C121 -32 122 -31 123 -30 C133 -29 142 -32 151 -30 C152 -30 153 -31 153 -31 L159 -31 C162 -30 165 -31 171 -31 C175 -30 178 -32 184 -30 L190 -30 C206 -33 219 -34 232 -29 L236 -29 Z " />
<glyph glyph-name="grave" unicode="&#x60;" horiz-adv-x="166" d="M65 598 C71 592 74 586 80 580 C83 576 88 570 93 570 C97 570 97 573 100 576 C102 580 105 583 105 587 C105 592 103 597 103 602 L101 617 C98 627 97 638 94 647 C94 651 94 656 91 660 C90 663 88 666 86 668 C82 672 74 670 69 668 C61 666 53 660 46 654 C40 648 42 636 47 629 C55 619 59 608 65 598 L65 598 Z " />
<glyph glyph-name="a" unicode="a" horiz-adv-x="305" d="M183 135 L183 135 C184 131 185 126 186 122 C187 101 191 80 196 60 C200 45 206 31 214 19 C218 13 222 10 228 8 C247 1 264 6 281 17 C290 23 291 27 285 37 C282 43 278 49 278 56 C277 77 276 98 271 118 C266 135 264 151 260 168 C258 178 255 188 254 198 C249 224 247 251 240 276 C236 293 232 309 229 325 C227 342 226 360 220 376 C218 383 218 391 216 399 C214 409 213 420 210 429 C201 454 194 480 188 506 C184 524 175 538 156 545 C150 547 147 547 144 540 C137 544 130 548 123 552 C114 544 109 535 106 524 C104 518 102 511 101 504 C93 469 84 435 77 400 C64 337 55 274 40 212 C37 195 16 202 10 196 C5 181 0 152 7 137 C10 133 22 137 21 132 C16 103 12 83 8 54 C5 38 7 23 15 9 C19 2 25 -2 33 -1 C40 0 47 -1 54 0 C73 3 82 7 85 28 C89 55 93 82 97 110 C99 117 101 125 103 133 C127 133 142 138 183 135 L183 135 Z M179 199 C157 199 137 199 116 199 C117 205 117 209 118 214 C124 241 123 270 132 297 C140 319 146 342 152 365 C154 371 155 377 158 383 C168 322 175 260 179 199 L179 199 Z " />
<glyph glyph-name="b" unicode="b" horiz-adv-x="285" d="M35 552 L35 552 C33 549 32 546 26 546 C12 545 9 540 9 525 C9 512 8 499 8 486 C7 460 6 434 5 408 C5 390 6 371 5 353 C5 336 2 318 2 300 C1 279 1 258 1 237 C1 205 1 173 0 141 C0 111 4 82 19 55 C21 51 23 46 21 41 C16 29 20 19 26 9 C29 3 33 0 40 1 C58 4 77 6 96 10 C108 12 119 16 131 17 C148 19 163 26 176 36 C192 49 206 64 223 76 C247 92 258 116 267 143 C273 160 270 178 270 195 C271 230 257 259 237 286 C223 304 205 318 185 329 C181 331 178 333 174 336 C188 356 200 372 204 397 C207 413 209 429 206 444 C202 467 193 488 177 504 C144 538 103 553 56 550 C49 550 43 551 35 552 L35 552 Z M89 288 L89 288 C105 291 119 296 133 297 C156 299 175 289 188 271 C211 242 218 226 211 190 C192 117 119 109 100 94 C100 169 94 213 89 288 L89 288 Z M82 358 C79 406 75 452 71 500 C75 504 80 505 87 503 C100 500 113 498 126 493 C144 485 150 469 151 452 C152 431 144 412 130 396 C124 389 116 383 109 378 C101 372 92 366 82 358 L82 358 Z " />
<glyph glyph-name="c" unicode="c" horiz-adv-x="234" d="M181 146 C175 136 168 128 168 116 C168 114 167 113 166 111 C162 104 158 98 155 90 C149 73 146 71 128 73 C123 73 120 75 119 79 C114 91 107 102 104 115 C96 152 89 190 88 229 C88 237 89 246 87 254 C84 274 83 294 83 314 C83 328 82 342 84 356 C88 381 91 406 90 431 C90 446 95 454 106 461 C109 463 110 464 113 466 C120 471 124 471 130 463 C143 448 161 445 179 445 C186 445 194 445 197 454 C205 478 196 505 175 519 C146 539 114 549 79 548 C56 547 36 538 19 521 C12 513 7 503 5 493 C2 473 0 452 0 432 C0 382 1 332 2 282 C4 241 7 200 9 160 C10 137 12 114 14 91 C15 84 17 77 20 71 C29 50 45 36 60 20 C67 12 76 9 86 7 C101 3 116 4 130 5 C144 6 156 12 166 22 C170 26 173 31 177 35 C185 44 194 53 203 63 C214 77 214 94 215 111 C216 114 214 118 213 120 C205 132 197 143 181 146 L181 146 Z " />
<glyph glyph-name="d" unicode="d" horiz-adv-x="297" d="M0 495 L0 495 C4 486 9 478 11 468 C14 456 15 444 16 431 C16 406 16 381 16 356 C16 313 16 270 16 227 C16 225 16 223 16 221 C16 206 15 191 15 177 C16 137 16 96 17 56 C17 40 19 27 31 16 C44 5 68 6 84 4 C107 1 132 2 154 10 C165 14 178 19 189 24 C204 31 218 43 232 52 C275 77 270 145 269 187 C268 248 267 308 266 368 C265 404 255 435 240 468 C226 497 193 533 164 543 C143 551 118 549 96 544 C73 539 48 538 24 535 C22 534 19 532 17 530 C14 527 12 524 10 521 C7 518 5 515 3 511 C1 506 0 500 0 495 L0 495 Z M94 477 C94 485 141 482 145 480 C169 470 182 427 187 402 C194 368 196 330 196 294 C196 259 197 223 193 189 C189 160 194 134 173 111 C163 100 150 92 137 88 C132 87 116 80 110 84 C103 90 107 105 107 113 C107 129 104 146 102 162 C100 203 97 245 96 286 C95 317 97 348 98 379 C100 408 99 437 95 466 C94 470 94 473 94 477 L94 477 Z " />
<glyph glyph-name="e" unicode="e" horiz-adv-x="236" d="M73 312 C71 331 69 348 68 366 C67 388 67 411 65 434 C63 460 66 465 89 470 C92 470 94 470 97 470 C119 472 141 477 162 484 C176 489 183 499 183 516 C183 537 183 537 163 545 C160 546 158 547 155 548 C141 552 126 553 112 548 C95 543 77 542 58 542 C54 543 50 543 46 547 C40 550 33 553 27 553 C18 552 9 536 9 526 C9 516 7 506 6 497 C5 480 2 464 2 448 C1 428 1 409 0 389 C0 360 0 330 1 301 C4 256 9 212 8 168 C7 133 9 98 9 63 C9 56 12 48 4 43 C3 42 2 39 3 37 C6 29 9 21 13 13 C14 10 17 8 19 7 C27 5 36 3 44 2 C95 -2 156 -6 205 10 C216 13 221 30 218 41 C213 61 201 79 182 81 C171 81 88 84 86 97 C85 103 81 122 82 128 C84 151 81 175 80 198 C79 213 83 219 96 224 C135 237 126 219 183 243 C194 252 193 273 187 287 C185 290 184 293 184 296 C183 304 179 308 173 309 C163 311 152 314 143 313 C122 311 95 315 73 312 L73 312 Z " />
<glyph glyph-name="f" unicode="f" horiz-adv-x="215" d="M42 551 C39 546 34 545 28 546 C13 549 0 534 4 520 C6 513 8 506 8 498 C8 474 8 450 8 426 C8 410 8 394 7 378 C6 353 4 328 2 303 C1 287 1 272 1 257 C1 235 3 158 3 136 C3 108 2 79 3 50 C3 41 6 31 9 22 C14 5 28 -1 45 3 C62 6 76 16 90 24 C95 27 99 34 102 40 C107 51 110 62 110 74 C110 91 110 108 111 124 C111 130 109 135 109 141 C110 159 109 233 109 251 C109 276 108 301 108 326 C111 327 112 329 114 329 C126 331 139 333 151 336 C162 339 173 341 183 345 C204 354 205 355 203 377 C203 381 200 384 198 386 C195 389 191 390 187 390 C167 392 146 394 125 395 C119 396 113 396 106 396 C103 427 100 457 98 489 C102 490 106 492 111 492 C118 494 125 494 132 494 C152 494 171 499 189 505 C206 511 211 520 207 538 C193 546 184 548 166 548 C144 548 122 549 99 549 C96 549 93 548 89 548 C78 548 67 547 55 547 C51 547 47 549 42 551 L42 551 Z " />
<glyph glyph-name="g" unicode="g" horiz-adv-x="270" d="M145 465 C151 461 155 455 159 449 C167 435 163 420 163 404 C162 380 185 370 202 384 C216 395 215 419 218 436 C223 462 215 494 203 516 C193 532 160 543 143 544 C113 546 57 546 35 519 C17 495 18 463 13 433 C8 398 8 361 6 325 C6 308 5 292 5 275 C3 229 0 183 6 138 C8 126 4 115 6 103 C9 84 16 66 26 51 C46 22 77 1 111 1 C144 1 183 -5 208 21 C253 67 239 154 228 211 C224 235 207 248 189 257 C175 265 160 267 145 266 C132 266 116 268 103 263 C94 250 89 228 106 221 C126 213 170 230 174 199 C174 198 174 197 174 196 C179 170 174 145 171 120 C166 80 145 48 105 70 C84 81 86 109 88 130 C90 158 88 183 84 211 C84 216 83 221 84 226 C86 244 88 263 88 282 C88 292 88 303 90 314 C92 331 90 349 92 367 C95 400 81 460 124 471 C132 473 139 470 145 465 L145 465 Z " />
<glyph glyph-name="h" unicode="h" horiz-adv-x="262" d="M142 132 C142 126 142 121 142 115 C143 93 142 72 144 51 C148 27 155 3 161 -20 C164 -32 172 -39 180 -45 C183 -47 189 -49 190 -48 C195 -40 202 -45 208 -44 C223 -42 231 -33 231 -13 C231 -8 232 -3 232 2 C233 10 234 19 234 27 C234 37 234 47 234 57 C234 81 234 104 234 127 C234 140 234 152 233 165 C233 171 231 178 231 184 C228 223 226 262 225 301 C223 333 223 365 222 396 C222 418 223 440 223 462 C223 474 222 486 220 498 C219 511 209 517 202 525 C201 526 200 526 199 526 C190 523 181 520 171 517 C171 511 171 506 171 501 C171 494 172 488 171 481 C168 448 164 414 160 380 C156 342 152 304 147 266 C145 250 143 233 145 217 C145 214 144 212 144 211 C125 208 106 204 87 201 C86 201 84 201 82 201 C77 201 75 205 75 211 C75 231 75 251 75 271 C75 292 75 312 75 333 C76 350 78 367 79 384 C81 415 83 447 85 478 C86 495 83 501 70 506 C53 512 35 516 15 523 C13 520 12 516 9 512 C3 505 1 498 5 488 C8 480 9 470 10 460 C10 435 11 409 11 383 C11 370 10 358 9 345 C7 303 4 260 3 218 C3 189 4 161 5 133 C5 124 5 114 4 106 C0 77 5 51 14 26 C16 21 19 16 22 12 C26 5 32 3 39 5 C42 6 46 6 50 6 C63 5 70 11 73 26 C77 45 78 64 77 84 C77 94 78 104 79 114 C81 127 81 127 92 129 C107 131 122 132 138 134 C139 134 140 133 142 132 L142 132 Z " />
<glyph glyph-name="i" unicode="i" horiz-adv-x="118" d="M87 291 C88 297 89 303 89 308 C90 325 91 341 91 358 C91 372 88 385 72 392 C62 396 48 399 37 400 C22 401 17 398 14 384 C11 366 8 348 9 329 C9 322 9 315 7 308 C0 268 18 121 16 81 C15 72 17 64 18 56 C15 40 20 28 31 18 L34 15 C46 4 72 -1 86 6 C90 8 93 12 95 16 C100 26 100 36 98 47 C97 51 96 54 96 58 C96 96 84 241 85 279 C85 283 86 287 87 291 L87 291 Z M56 424 C73 424 80 431 80 447 C80 457 81 467 82 477 L85 495 C85 513 69 535 51 540 L27 546 C25 546 20 546 19 544 C16 539 10 534 10 527 C10 514 10 502 8 490 C4 473 7 458 18 444 C28 431 39 422 56 424 L56 424 Z " />
<glyph glyph-name="j" unicode="j" horiz-adv-x="230" d="M81 58 C69 65 61 72 57 83 C52 100 50 117 53 135 C55 148 51 155 39 159 C34 161 28 162 23 162 C7 162 2 157 0 141 C0 139 0 138 0 136 C1 123 1 109 3 96 C5 79 8 62 18 47 C30 28 46 14 68 8 C97 0 127 -1 155 16 C159 18 164 22 167 21 C177 19 181 26 186 32 C191 40 196 49 196 60 C197 68 200 77 202 85 C203 93 205 102 205 110 C205 145 206 179 204 214 C203 242 186 376 189 404 C190 416 192 428 191 440 C190 459 189 477 192 495 C194 506 191 515 185 524 C167 549 141 559 114 565 C96 550 92 531 91 510 C90 490 89 469 88 449 C87 438 86 427 85 415 C84 377 100 232 99 193 C99 184 100 175 101 166 C103 143 96 122 94 99 C94 96 91 92 90 88 C88 83 85 77 84 72 C82 68 82 64 81 58 L81 58 Z " />
<glyph glyph-name="k" unicode="k" horiz-adv-x="338" d="M102 230 C103 231 104 231 104 232 C108 227 112 222 116 216 C132 189 149 162 166 134 C185 101 204 68 223 35 C228 27 234 19 241 15 C251 10 260 4 268 -4 C286 -20 292 -20 310 -5 C321 4 325 20 320 34 C317 40 314 46 311 52 C302 70 292 87 283 105 C273 125 263 144 253 164 C246 176 238 188 230 200 C217 218 205 236 193 254 C180 271 168 287 151 298 C140 306 139 314 144 326 C156 350 167 374 178 398 C179 401 181 405 182 408 C193 429 203 450 213 471 C218 481 223 492 227 502 C229 506 231 511 230 515 C225 535 207 551 188 551 C180 551 171 549 167 538 C164 528 160 520 155 511 C134 469 113 428 91 387 C89 383 87 379 83 371 C81 384 79 393 79 401 C79 425 80 449 80 473 C81 486 79 499 71 509 C59 524 43 532 27 538 C24 540 18 539 17 537 C9 528 1 520 1 505 C2 484 0 463 0 442 C0 417 0 392 0 367 C0 341 2 314 2 287 C2 251 1 215 1 179 C1 171 4 163 4 155 C4 135 4 114 3 94 C2 43 18 14 55 -5 C65 -2 75 2 85 4 C96 7 103 16 106 26 C110 37 112 50 112 61 C113 92 117 123 110 154 C105 179 104 205 102 230 L102 230 Z " />
<glyph glyph-name="l" unicode="l" horiz-adv-x="217" d="M109 64 C102 85 97 104 97 125 C97 134 97 143 96 152 C90 187 93 371 91 406 C91 409 90 413 91 416 C97 441 94 467 95 492 C96 512 88 527 70 537 C54 546 37 549 19 550 C8 551 2 545 2 534 C2 520 3 507 3 493 C3 479 3 465 3 451 C3 426 2 400 2 374 C3 354 5 184 1 164 C0 159 1 155 1 151 C2 125 5 100 5 75 C6 50 12 27 27 7 C33 -2 40 -8 52 -8 C56 -7 60 -8 64 -10 C74 -13 84 -13 93 -6 C101 -1 109 1 118 0 C125 0 131 2 137 3 C145 4 152 5 160 5 C171 6 183 6 195 7 C204 8 211 15 212 24 C214 37 206 52 193 57 C172 63 151 68 130 66 C123 65 116 65 109 64 L109 64 Z " />
<glyph glyph-name="m" unicode="m" horiz-adv-x="370" d="M68 375 C69 376 70 376 71 376 C72 375 73 374 74 373 C85 344 97 314 108 285 C110 278 111 271 114 265 C120 253 125 240 138 234 C142 236 145 238 148 239 C159 243 166 249 168 261 C169 268 174 275 178 281 C185 294 193 306 195 321 C197 331 200 340 204 349 C212 367 222 385 231 403 C234 409 238 415 241 420 C244 396 243 373 243 350 C243 342 241 334 241 326 C244 291 243 257 241 223 C239 190 245 48 244 16 C243 -3 245 -22 253 -40 C260 -56 271 -66 286 -73 C298 -77 310 -81 319 -68 C321 -66 324 -64 326 -64 C335 -62 337 -56 337 -49 C338 -27 339 -6 341 15 C342 33 344 51 345 69 C345 88 341 217 335 236 C333 244 330 252 330 260 C328 284 328 307 327 331 C326 347 324 364 324 380 C324 404 318 427 312 450 C308 465 298 480 295 496 C291 515 273 523 262 536 C259 539 253 539 249 539 C243 539 238 539 232 539 C213 538 204 528 205 510 C206 506 206 502 205 499 C198 479 192 459 182 440 C169 415 155 391 146 364 C146 363 145 362 144 360 C138 371 132 382 126 393 C121 403 116 414 111 425 C106 441 99 456 91 470 C83 483 77 497 70 510 C65 521 52 528 39 525 C30 524 20 521 11 518 C7 509 1 502 1 491 C1 456 0 420 0 384 C0 365 1 346 1 326 C0 283 6 130 5 86 C5 64 5 41 17 20 C24 9 33 0 47 -1 C60 -1 70 8 81 14 C82 15 83 17 83 19 C85 33 88 48 88 62 C89 89 79 225 80 251 C82 285 75 319 73 352 C72 360 70 368 68 375 L68 375 Z " />
<glyph glyph-name="n" unicode="n" horiz-adv-x="329" d="M91 372 C93 370 94 368 95 366 C103 335 111 304 118 272 C131 218 152 160 181 112 C193 92 197 66 207 45 C218 23 232 3 256 -6 C263 -8 272 -7 280 -6 C288 -4 288 4 290 10 C291 15 293 19 294 23 C296 30 299 37 299 44 C301 88 303 133 299 177 C295 207 296 238 293 268 C289 304 285 341 284 378 C283 411 304 502 272 526 C262 534 234 526 223 523 C211 491 215 445 215 411 C215 385 215 358 215 331 C215 308 221 271 213 252 C197 269 184 294 173 315 C163 335 155 355 150 376 C145 397 138 416 131 436 C124 458 114 479 113 503 C112 508 111 514 109 519 C104 531 98 541 85 543 C72 546 58 548 44 549 C26 551 11 537 10 519 C9 504 9 489 9 474 C6 363 0 118 29 26 C32 19 35 13 39 7 C41 4 46 2 49 2 C67 1 92 23 92 42 C93 70 91 98 91 127 C91 160 90 192 90 225 C90 243 91 260 91 278 C91 308 90 338 89 368 C89 369 90 370 91 372 L91 372 Z " />
<glyph glyph-name="o" unicode="o" horiz-adv-x="293" d="M-1 239 C3 205 4 169 11 136 C17 112 21 87 31 65 C38 51 43 38 52 26 C59 17 69 13 78 8 C84 4 120 4 128 5 C134 6 141 6 147 7 L170 10 C177 12 185 15 194 16 C215 20 232 35 245 55 C249 64 250 77 253 88 C255 95 256 101 258 108 C260 116 262 124 263 133 C267 158 269 183 273 208 C278 232 276 256 273 280 C270 310 268 339 262 367 C256 396 253 426 243 453 C243 454 242 454 242 455 C239 486 219 503 202 523 C193 535 181 539 168 541 C129 545 59 527 42 483 C30 454 18 424 12 391 C9 370 7 349 6 328 C3 298 1 268 -1 239 L-1 239 Z M144 486 C152 472 162 458 168 444 C177 419 187 394 190 366 C193 337 196 309 198 279 C202 250 205 221 203 191 C201 155 195 119 184 85 C181 77 176 70 173 63 C170 59 166 54 163 55 C156 56 147 56 143 62 C131 76 119 90 114 111 C108 134 102 156 99 180 C96 202 95 223 96 245 C98 274 93 304 102 333 C103 340 103 349 105 356 C110 377 116 397 121 418 L121 419 C126 443 133 466 144 486 L144 486 Z " />
<glyph glyph-name="p" unicode="p" horiz-adv-x="236" d="M29 566 L29 566 C12 559 7 546 7 530 C6 507 6 483 5 459 C5 448 4 437 4 427 C4 398 5 369 5 340 C5 329 5 319 4 308 C3 282 0 257 2 232 C5 191 4 105 4 65 C3 51 8 40 16 30 C18 28 20 25 20 23 C19 9 25 2 38 0 C40 0 41 -2 42 -2 C58 -6 68 -5 74 9 C77 17 82 24 86 31 C87 34 89 38 89 41 C89 49 88 57 88 65 C87 96 86 127 86 158 C85 175 90 238 90 255 C90 262 90 269 90 278 C94 277 99 277 102 275 C112 270 120 272 128 279 C137 288 148 294 157 302 C169 313 183 322 191 336 C207 365 224 394 228 429 C229 444 231 458 227 472 C220 496 210 518 194 536 C178 555 150 557 128 557 C104 557 79 552 65 530 C60 537 67 548 63 555 C58 563 48 565 41 560 C40 559 38 560 36 559 C34 561 31 564 29 566 L29 566 Z M144 506 C154 504 155 496 155 488 C156 473 155 457 149 442 C140 417 132 390 116 368 C111 360 96 348 85 344 C85 357 83 369 83 381 C83 401 84 421 84 441 C84 456 89 467 100 477 C108 484 116 491 125 497 C131 501 138 503 144 506 L144 506 Z " />
<glyph glyph-name="q" unicode="q" horiz-adv-x="279" d="M210 -65 L210 -65 C212 -64 215 -63 218 -62 C228 -59 240 -46 238 -36 C235 -24 225 5 219 16 C213 24 212 33 219 41 C226 50 225 52 227 62 C229 78 232 93 237 108 C238 110 238 114 238 117 C239 120 239 124 240 127 C248 153 247 180 251 207 C252 210 251 214 251 217 C252 226 252 234 252 243 C254 263 256 283 256 303 C255 326 253 350 251 374 C249 388 246 402 241 416 C236 431 229 445 228 461 C228 464 226 467 225 469 C219 482 214 495 207 507 C189 540 163 559 128 559 C113 559 99 554 85 550 C69 546 59 534 49 521 C39 507 34 490 28 474 C16 443 9 410 6 376 C2 329 2 281 1 234 C0 178 9 123 27 69 C36 45 51 27 74 18 C86 14 98 10 110 7 C121 4 132 2 143 0 C150 -1 158 -1 166 -1 C171 -21 189 -55 210 -65 L210 -65 Z M165 139 C157 159 148 180 130 182 C129 182 127 182 126 182 C115 186 103 173 100 161 C104 152 117 122 120 113 C123 104 130 96 127 86 C120 84 115 87 112 94 C109 101 107 109 104 117 C99 133 93 148 89 165 C81 204 77 244 75 285 C74 310 69 336 66 362 C64 380 64 398 69 415 C71 424 72 432 73 441 C76 470 89 490 112 503 C119 506 127 506 135 507 C140 508 144 505 147 499 C152 487 158 474 161 461 C172 427 173 392 175 357 C176 339 178 320 178 302 C179 278 179 253 179 229 C179 199 179 181 171 154 C170 149 167 144 165 139 L165 139 Z " />
<glyph glyph-name="r" unicode="r" horiz-adv-x="314" d="M123 239 L123 239 C126 235 128 233 129 231 C138 210 149 190 157 169 C166 146 174 124 187 103 C191 97 195 91 198 84 C208 61 222 40 233 18 C242 2 256 -5 272 -9 C281 -11 290 -8 296 -2 C302 3 298 10 296 16 C295 19 295 23 294 26 C280 59 266 93 252 126 C249 133 246 139 243 145 C232 170 221 195 209 219 C197 244 183 269 170 294 C166 301 163 310 160 318 C169 328 181 332 191 338 C206 347 220 357 230 373 C236 383 237 394 239 405 C244 433 243 460 226 485 C224 488 223 491 221 494 C213 509 202 521 189 530 C160 547 129 562 94 565 C76 564 33 570 19 557 C7 555 0 546 1 534 C2 522 5 510 6 499 C6 480 4 462 4 444 C4 412 4 380 5 348 C6 305 9 262 11 219 C13 191 15 163 17 135 C18 114 18 94 19 73 C20 61 20 48 23 36 C26 23 32 10 43 0 C51 -7 56 -6 65 2 C74 10 85 17 96 24 C102 29 109 33 114 37 C114 44 112 49 113 53 C115 63 117 73 120 82 C126 102 127 122 127 142 C126 171 123 201 122 230 C122 232 122 234 123 239 L123 239 Z M104 508 C123 518 139 514 150 497 C169 470 168 440 159 409 C158 407 157 405 155 403 C145 393 134 383 119 376 C119 386 119 394 119 402 C120 427 115 451 110 475 C107 485 106 496 104 508 L104 508 Z " />
<glyph glyph-name="s" unicode="s" horiz-adv-x="245" d="M111 52 C103 51 95 53 87 57 C66 69 57 90 53 113 C48 135 43 158 62 175 C62 176 62 176 62 176 C67 187 66 200 51 202 C46 202 41 203 37 203 C19 204 14 201 9 182 C3 160 0 136 1 112 C2 54 50 -1 108 3 C115 3 122 2 129 2 C138 3 146 3 154 5 C167 7 177 15 188 22 C203 31 212 43 214 61 C216 68 219 74 221 80 C223 91 228 102 227 113 C224 138 223 163 216 187 C214 192 213 198 211 202 C204 216 198 231 190 244 C178 263 167 283 153 301 C136 323 119 346 107 372 C100 387 94 403 89 419 C87 426 86 435 88 442 C90 450 96 458 102 465 C113 478 128 475 134 459 C135 458 135 456 136 454 C137 446 138 438 139 431 C140 414 146 400 152 386 C157 373 166 370 177 372 C182 372 190 375 193 380 C202 396 212 413 209 434 C208 441 207 448 206 455 C204 471 196 485 185 496 C177 504 167 509 160 518 C151 528 140 533 129 539 C102 554 68 543 50 514 C43 502 38 488 31 476 C24 462 23 448 24 432 C25 404 33 377 44 352 C57 324 72 298 87 271 C109 232 123 189 132 144 C135 131 135 116 130 103 C125 86 118 70 111 52 L111 52 Z " />
<glyph glyph-name="t" unicode="t" horiz-adv-x="261" d="M84 499 C84 496 84 493 84 491 C81 475 81 458 81 441 C82 406 80 370 80 335 C80 313 80 291 80 269 C81 235 81 201 83 167 C85 130 87 94 90 58 C91 46 94 34 97 22 C99 14 105 8 113 5 C124 3 134 1 143 -1 C147 4 149 7 152 9 C160 13 165 20 167 29 C169 37 171 46 172 55 C174 68 175 81 175 95 C176 109 174 122 173 136 C173 145 174 153 174 161 C173 194 166 226 158 257 C152 282 147 307 146 333 C145 343 144 353 143 363 C142 378 141 392 140 407 C139 422 138 436 137 451 C136 465 136 479 137 493 C138 504 141 505 152 505 C166 505 181 506 195 506 C210 506 224 506 239 505 C248 505 250 507 250 516 C250 524 250 532 250 541 C250 552 242 561 231 563 C218 564 206 566 193 566 C153 564 112 562 72 560 C65 560 56 559 51 562 C42 567 36 564 30 559 C24 554 18 548 13 542 C9 537 5 531 3 525 C0 518 2 510 9 506 C14 504 20 503 26 502 C31 501 36 502 41 501 C44 501 48 499 50 499 C61 503 72 500 84 499 L84 499 Z " />
<glyph glyph-name="u" unicode="u" horiz-adv-x="275" d="M5 186 C4 186 3 186 3 186 C4 163 5 140 6 117 C8 86 21 59 38 33 C40 29 44 24 48 22 C62 16 77 10 92 5 C115 -1 139 4 163 4 C168 4 173 7 177 9 C191 16 202 25 216 31 C221 33 224 39 227 44 C229 46 229 49 230 51 C238 62 244 73 244 88 C244 99 246 110 246 121 C247 132 247 143 246 155 C246 170 243 281 242 296 C242 302 244 308 244 314 C244 334 243 353 243 373 C243 389 244 405 244 421 C243 429 241 438 241 447 C241 466 242 485 242 504 C243 514 245 524 246 534 C248 544 246 549 236 550 C228 551 220 552 212 551 C209 551 204 548 203 545 C200 537 195 529 196 520 C197 504 197 488 197 472 C196 444 196 415 192 388 C188 354 189 225 188 192 C187 154 181 117 163 84 C157 74 149 70 138 74 C125 79 119 89 116 101 C113 122 111 144 108 165 C104 194 98 319 93 348 C89 371 84 395 84 419 C83 440 81 460 78 481 C76 496 77 510 78 525 C78 529 79 533 79 537 C79 548 72 556 61 558 C58 558 54 557 50 557 C47 556 43 556 39 556 C21 557 10 547 9 528 C7 504 6 480 5 457 C3 422 1 388 1 353 C0 329 4 209 5 186 L5 186 Z " />
<glyph glyph-name="v" unicode="v" horiz-adv-x="298" d="M139 180 C138 180 137 180 136 179 C134 186 132 193 131 200 C129 217 127 234 123 250 C115 283 108 315 101 348 C98 361 95 374 92 387 C88 406 84 425 80 444 C76 467 73 490 68 512 C67 523 63 532 55 537 C49 541 41 543 34 546 C20 550 4 540 2 523 C0 508 0 494 2 480 C10 407 19 335 27 263 C33 207 39 152 44 96 C46 79 52 66 63 55 C67 50 69 45 70 40 C71 33 72 25 75 19 C78 12 81 4 88 2 C102 -3 129 -9 142 6 C143 7 144 7 145 8 C150 12 156 16 159 22 C165 34 168 47 172 61 C179 82 183 104 189 126 C193 141 198 155 202 170 C209 198 214 226 221 254 C223 263 224 272 226 281 C233 309 242 337 248 365 C253 390 260 416 264 441 C269 474 271 507 284 538 C285 540 285 542 286 545 C287 558 286 559 275 560 C272 561 270 561 268 562 C250 567 232 561 227 540 C226 536 226 530 226 525 C225 519 225 513 224 507 C220 490 215 473 211 456 C200 416 189 376 178 335 C175 327 173 318 171 309 C160 266 149 223 139 180 L139 180 Z " />
<glyph glyph-name="w" unicode="w" horiz-adv-x="377" d="M164 212 C166 212 167 212 168 213 C174 191 180 170 186 149 C195 117 203 84 212 52 C219 28 229 5 248 -8 C256 -14 261 -15 267 -9 C279 4 290 19 300 34 C306 44 310 56 311 69 C313 88 315 107 319 126 C322 140 326 155 326 170 C326 176 327 183 328 189 C330 211 334 233 331 256 C330 264 330 272 331 279 C333 311 336 342 339 373 C341 396 343 420 344 443 C346 463 347 484 349 504 C350 517 350 529 352 541 C355 557 351 571 339 578 C329 583 318 586 308 591 C302 593 298 590 296 584 C292 570 283 559 284 543 C284 541 283 539 283 537 C277 509 270 481 265 452 C259 415 254 378 249 341 C245 302 242 264 239 225 C238 222 237 220 237 218 C231 232 225 247 218 262 C214 272 210 283 205 292 C192 314 147 318 133 297 C123 282 115 265 106 249 C105 247 103 245 101 243 C97 261 93 278 90 295 C86 313 83 331 80 349 C77 371 71 393 70 416 C70 447 67 477 74 507 C77 523 68 538 55 542 C41 546 28 545 14 543 C2 542 0 539 1 523 C1 520 3 517 4 513 C9 500 11 486 11 472 C13 445 14 419 17 392 C22 345 29 298 34 251 C36 232 35 212 37 193 C44 140 53 88 59 35 C62 6 98 -25 120 1 C125 6 128 10 128 17 C130 41 133 64 140 87 C143 97 144 109 145 120 C148 152 155 182 164 212 L164 212 Z " />
<glyph glyph-name="x" unicode="x" horiz-adv-x="337" d="M137 155 C148 124 158 96 167 67 C180 26 199 -11 219 -49 C227 -65 239 -70 254 -69 C273 -66 290 -58 302 -38 C312 -23 314 -6 307 9 C301 21 294 33 292 47 C292 49 290 50 290 52 C277 78 265 103 253 129 C249 138 244 146 240 155 C236 163 230 170 228 179 C222 199 214 216 205 233 C200 242 196 251 191 260 C185 272 187 283 192 294 C201 312 210 330 218 348 C232 379 246 410 260 441 C273 471 286 500 299 529 C306 543 303 555 290 561 C288 562 286 563 284 564 C269 570 255 576 241 583 C228 589 219 583 216 566 C215 561 212 557 210 552 C208 550 205 548 204 545 C196 526 188 507 180 488 C166 455 152 422 138 389 C137 386 135 385 133 381 C131 385 129 388 129 391 C123 409 119 429 111 446 C101 468 95 491 91 516 C89 524 85 529 80 535 C70 546 57 545 44 545 C34 545 24 545 19 532 C14 519 22 510 26 501 C31 490 38 480 41 469 C49 447 54 423 62 401 C72 370 83 339 94 309 C97 301 97 295 94 287 C79 253 66 219 52 185 C40 154 27 123 15 91 C10 80 6 68 3 57 C0 48 1 38 7 32 C15 21 24 10 34 1 C48 -11 63 -7 72 10 C82 29 91 48 100 68 C106 82 111 97 117 112 C123 126 130 139 137 155 L137 155 Z " />
<glyph glyph-name="y" unicode="y" horiz-adv-x="276" d="M170 542 C166 522 167 505 169 488 C169 430 171 378 173 319 C172 312 171 307 166 302 C155 272 107 212 98 287 C95 304 92 314 91 327 C89 357 89 383 89 411 C88 433 87 460 88 483 C88 493 84 503 84 508 C84 518 80 525 74 531 C55 557 12 548 6 515 C5 512 5 510 5 508 C3 468 0 427 4 389 C7 354 8 316 15 281 C22 248 50 210 80 199 C82 198 86 202 88 201 C111 185 133 181 156 201 C160 204 164 207 169 210 C169 208 170 206 170 205 C166 168 162 134 158 102 C155 75 138 65 123 64 C119 63 113 67 109 70 C100 80 96 94 97 107 C98 117 99 131 100 147 C100 153 99 158 94 161 C87 165 80 170 72 171 C63 174 54 172 45 174 C31 176 26 172 29 156 C27 86 25 -31 122 -21 C134 -19 146 -15 158 -11 C215 5 254 112 246 227 C245 253 246 275 245 300 C244 335 242 377 242 415 C243 431 240 453 242 468 C244 483 244 501 245 514 C246 527 238 545 225 549 C212 554 183 554 170 542 L170 542 Z " />
<glyph glyph-name="z" unicode="z" horiz-adv-x="267" d="M151 474 C148 464 146 456 143 449 C138 436 132 423 127 410 C106 349 84 289 63 228 C55 204 51 179 43 157 C30 124 24 89 8 58 C0 43 2 24 6 7 C8 -3 13 -7 20 -5 C33 -2 45 -8 58 -12 C66 -15 74 -17 82 -15 C105 -11 128 -9 150 -4 C168 0 186 2 202 16 C206 20 211 24 215 26 C231 34 233 37 231 59 C231 62 230 65 230 68 C230 74 227 77 223 79 C208 87 193 91 177 88 C161 85 146 84 129 83 C130 88 131 92 132 95 C135 107 138 119 141 131 C148 153 154 175 160 197 C164 208 168 218 171 229 C178 255 184 282 191 309 C197 332 204 356 211 379 C218 405 227 431 235 456 C237 463 240 469 243 475 C247 481 248 487 245 493 C243 498 241 503 238 506 C230 516 221 525 212 533 C209 535 204 536 201 536 C192 536 183 535 174 535 C152 533 130 533 108 531 C82 527 56 527 31 535 C22 519 22 519 26 496 C31 470 31 470 51 469 C53 469 54 468 55 468 C67 469 78 469 89 469 C109 471 129 472 151 474 L151 474 Z " />
<glyph glyph-name="braceleft" unicode="&#x7b;" horiz-adv-x="161" d="M153 17 C154 18 154 21 153 24 C153 25 153 28 152 29 C150 33 147 35 145 37 C139 40 136 34 133 31 L132 30 L130 31 C129 31 128 30 127 29 C121 27 112 29 106 33 C100 35 97 48 96 55 C92 69 96 84 96 97 C96 110 94 123 100 134 C102 141 102 145 102 153 C102 157 102 161 103 167 L108 185 C108 192 109 196 109 202 C109 202 109 203 110 203 C110 205 112 211 112 212 C111 213 111 213 112 214 C113 214 114 215 114 216 C113 217 114 219 114 219 C116 221 115 225 116 228 L116 244 L114 252 L114 254 C113 255 113 258 112 261 C111 261 111 262 112 263 C113 266 103 277 101 279 C96 284 88 290 81 291 C77 292 72 292 66 294 C63 296 77 310 78 311 L87 316 C89 320 91 322 94 325 C98 330 101 334 103 339 C105 345 105 349 106 354 C108 356 110 363 109 365 L109 367 C110 368 111 370 110 371 L110 377 C110 378 110 378 109 378 C109 380 106 399 103 403 L103 405 C103 408 103 411 101 414 L101 416 L94 441 L92 449 L89 460 C88 464 89 469 89 474 L89 488 C89 496 88 501 89 508 L92 515 C93 517 93 522 96 524 C97 527 99 529 102 533 C103 533 103 535 104 535 L105 536 L106 536 C108 536 109 537 110 538 C111 540 113 539 115 540 C118 544 123 543 127 545 C133 547 132 557 130 562 C129 576 112 576 102 573 L98 573 C96 572 93 572 92 570 C91 570 90 569 89 569 C87 567 82 567 79 563 C78 562 76 562 75 559 C74 559 73 558 73 557 L74 557 C70 553 67 552 67 546 C67 545 64 544 64 543 C64 541 63 541 62 540 C62 539 61 539 60 537 C61 537 60 536 60 536 L57 528 C57 527 57 526 56 524 C54 522 56 516 55 513 C51 510 55 503 52 500 C45 490 51 407 52 406 C53 405 53 405 52 404 C54 402 53 398 54 395 C55 394 55 394 55 393 L55 392 C55 390 55 389 56 386 C56 384 56 381 57 379 L57 377 C57 373 57 370 58 367 L60 366 L60 365 C60 363 60 362 58 361 L58 359 C60 351 60 346 58 338 C54 333 47 327 41 325 C34 322 26 323 21 319 C20 316 18 318 17 318 C16 318 15 316 14 315 C13 313 9 313 8 312 L6 309 C4 308 3 306 1 304 C-1 301 -2 297 1 294 L3 290 L4 290 L4 289 C4 286 5 285 6 285 L7 285 L8 284 C13 282 16 277 21 279 C22 279 25 278 26 277 C31 277 34 271 39 268 C41 268 42 265 43 265 C44 265 46 263 47 263 L52 261 C56 258 60 256 62 252 C65 248 66 242 66 236 L66 225 C66 224 66 223 65 221 C65 216 64 212 64 207 L64 203 C64 202 63 201 63 200 L64 200 C63 197 63 196 64 195 C64 193 44 121 42 113 C41 112 41 110 41 109 L41 105 C40 99 40 93 41 86 C42 83 42 77 42 73 C44 70 41 63 44 59 C45 58 45 55 46 52 C49 51 49 48 51 47 L54 40 C57 34 62 30 66 25 C70 21 75 16 79 13 C80 11 81 10 82 10 C84 7 86 7 88 6 L89 7 L90 6 L94 4 C97 2 100 4 102 2 C104 0 108 0 110 1 L112 1 C114 0 115 0 117 1 L120 1 C125 0 129 -1 135 2 C136 3 138 3 140 4 L145 6 C147 7 148 9 149 10 C152 13 153 15 153 17 L153 17 Z " />
<glyph glyph-name="bar" unicode="&#x7c;" horiz-adv-x="80" d="M7 669 C2 645 0 631 2 613 C6 586 6 563 5 538 C6 531 8 458 9 444 C8 440 7 429 9 419 L9 417 C12 403 8 388 11 375 C11 369 7 361 10 354 C13 345 6 337 10 327 L10 325 C12 316 9 310 12 301 C10 282 5 263 7 243 C9 233 6 223 8 214 C8 206 7 201 6 194 C6 171 5 151 5 129 C5 123 6 117 6 108 C7 92 7 75 7 61 C7 37 7 10 8 -13 C9 -26 14 -39 24 -46 L26 -7 C27 4 27 11 29 21 C42 64 47 113 49 165 C50 184 54 209 56 231 C58 263 62 296 62 325 C62 375 59 427 57 476 C56 520 53 566 44 607 C38 641 25 659 7 669 L7 669 Z " />
<glyph glyph-name="braceright" unicode="&#x7d;" horiz-adv-x="157" d="M-1 17 C-1 15 0 13 3 10 C4 9 5 7 7 6 L12 4 C14 3 16 3 17 2 C23 -1 27 0 32 1 L35 1 C37 0 38 0 40 1 L42 1 C44 0 48 0 50 2 C52 4 55 2 58 4 L62 6 L63 7 L64 6 C66 7 68 7 70 10 C71 10 72 11 73 13 C77 16 82 21 86 25 C90 30 95 34 98 40 L101 47 C103 48 103 51 106 52 C107 55 107 58 108 59 C111 63 108 70 110 73 C110 77 110 83 111 86 C112 93 112 99 111 105 L111 109 C111 110 111 112 110 113 C108 121 88 193 88 195 C89 196 89 197 88 200 L89 200 C89 201 88 202 88 203 L88 207 C88 212 87 216 87 221 C86 223 86 224 86 225 L86 236 C86 242 87 248 90 252 C92 256 96 258 100 261 L105 263 C106 263 108 265 109 265 C110 265 111 268 113 268 C118 271 121 277 126 277 C127 278 130 279 131 279 C136 277 139 282 144 284 L145 285 L146 285 C147 285 148 286 148 289 L148 290 L149 290 L151 294 C154 297 153 301 151 304 C149 306 148 308 146 309 L144 312 C143 313 139 313 138 315 C137 316 136 318 135 318 C134 318 132 316 131 319 C126 323 118 322 111 325 C105 327 98 333 94 338 C92 346 92 351 94 359 L94 361 C92 362 92 363 92 365 L92 366 L94 367 C95 370 95 373 95 377 L95 379 C96 381 96 384 96 386 C97 389 97 390 97 392 L97 393 C97 394 97 394 98 395 C99 398 98 402 100 404 C99 405 99 405 100 406 C101 407 107 490 100 500 C97 503 101 510 97 513 C96 516 98 522 96 524 C95 526 95 527 95 528 L92 536 C92 536 91 537 92 537 C91 539 90 539 90 540 C89 541 88 541 88 543 C88 544 85 545 85 546 C85 552 82 553 78 557 L79 557 C79 558 78 559 77 559 C76 562 74 562 73 563 C70 567 65 567 63 569 C62 569 61 570 60 570 C59 572 56 572 54 573 L50 573 C40 576 23 576 22 562 C20 557 19 547 25 545 C29 543 34 544 37 540 C39 539 41 540 42 538 C43 537 44 536 46 536 L47 536 L48 535 C49 535 49 533 50 533 C53 529 55 527 56 524 C59 522 59 517 60 515 L63 508 C64 501 63 496 63 488 L63 474 C63 469 64 464 63 460 L60 449 L58 441 L51 416 L51 414 C49 411 49 408 49 405 L49 403 C46 399 43 380 43 378 C42 378 42 378 42 377 L42 371 C41 370 42 368 43 367 L43 365 C42 363 44 356 46 354 C47 349 47 345 49 339 C51 334 54 330 58 325 C61 322 63 320 65 316 L74 311 C75 310 89 296 86 294 C80 292 75 292 71 291 C64 290 56 284 51 279 C49 277 39 266 40 263 C41 262 41 261 40 261 C39 258 39 255 38 254 L38 252 L36 244 L36 228 C37 225 36 221 38 219 C38 219 39 217 38 216 C38 215 39 214 40 214 C41 213 41 213 40 212 C40 211 42 205 42 203 C43 203 43 202 43 202 C43 196 44 192 44 185 L49 167 C50 161 50 157 50 153 C50 145 50 141 52 134 C58 123 56 110 56 97 C56 84 60 69 56 55 C55 48 52 35 46 33 C40 29 31 27 25 29 C24 30 23 31 22 31 L20 30 L19 31 C16 34 13 40 7 37 C5 35 2 33 0 29 C-1 28 -1 25 -1 24 C-2 21 -2 18 -1 17 L-1 17 Z " />
<glyph glyph-name="exclamdown" unicode="&#xa1;" horiz-adv-x="109" d="M97 0 C106 18 107 19 100 33 C98 37 96 47 94 60 L94 64 L96 66 L96 67 C97 67 96 68 94 68 L96 68 C96 69 93 71 93 72 C91 82 90 94 90 107 C90 123 91 137 90 151 C89 156 89 161 90 168 C89 168 89 169 88 169 L89 169 C89 178 88 189 90 198 C89 199 89 201 90 204 C90 207 90 208 91 211 C89 216 90 222 90 227 C89 229 89 230 89 231 C89 239 90 245 89 253 C89 258 91 265 91 270 L88 282 C88 296 91 302 88 315 C87 321 88 314 89 319 C89 321 90 322 89 322 L89 331 C87 337 88 344 88 349 C88 350 87 350 87 350 L87 355 C88 357 88 358 88 359 C88 363 90 367 87 370 L88 370 C86 372 86 377 86 380 L85 380 C85 381 84 383 83 384 C83 385 82 385 83 387 L81 394 C79 396 80 399 78 402 C75 406 74 412 70 415 C69 416 68 418 67 418 C65 418 60 423 56 424 C53 423 50 424 48 424 C44 423 38 425 36 418 L36 421 L34 421 L34 416 C32 415 31 414 31 411 C27 406 31 398 28 393 C29 390 29 389 27 388 C25 379 27 370 27 361 C28 359 28 358 27 357 C28 355 28 354 29 354 C28 354 27 353 27 352 C27 350 28 349 28 349 L27 346 C27 346 27 344 26 344 C25 340 25 337 25 335 L27 331 C26 330 25 327 26 323 L24 319 C24 318 24 327 22 326 C21 322 21 319 22 315 C24 313 24 309 22 305 C19 293 22 286 19 274 C17 270 17 267 18 264 C19 261 19 260 18 257 C16 252 16 245 18 240 L18 238 C18 236 19 236 19 235 L19 231 C19 220 18 208 18 196 L9 101 C3 53 14 42 54 22 C63 16 72 13 82 7 L97 0 Z M25 495 L25 493 C27 489 27 485 29 482 L31 480 C32 476 33 476 34 475 C35 476 36 476 36 475 C39 472 42 473 43 472 L46 472 C50 468 54 472 57 468 C62 468 64 467 67 464 C73 463 78 467 83 467 C86 467 87 468 87 469 L89 480 L89 477 C91 481 91 486 92 486 C94 489 94 493 92 494 L92 495 L93 497 C94 500 94 503 94 507 C94 507 94 508 93 511 C94 515 97 519 97 520 C94 520 92 519 91 519 C87 524 83 530 78 534 C67 551 58 552 39 544 C39 539 25 542 30 529 L31 530 C32 528 31 525 31 522 L31 521 C30 516 30 511 25 508 L25 507 C22 502 22 497 25 495 L25 495 Z " />
<glyph glyph-name="dieresis" unicode="&#xa8;" horiz-adv-x="295" d="M129 629 C131 643 117 659 104 665 C93 670 90 668 83 658 C82 655 82 653 79 652 C71 648 69 639 70 631 C73 621 74 612 80 603 C83 592 95 590 106 594 C123 601 128 614 129 629 L129 629 Z M229 629 C232 643 218 659 204 665 C194 670 191 668 183 658 C182 655 182 653 179 652 C171 648 170 639 171 631 C173 621 175 612 180 603 C184 592 195 590 206 594 C224 601 228 614 229 629 L229 629 Z " />
<glyph glyph-name="acute" unicode="&#xb4;" horiz-adv-x="187" d="M106 606 C112 616 116 627 124 637 C129 644 131 656 125 662 C118 668 110 674 102 676 C97 678 89 680 85 676 C83 674 81 671 80 668 C77 664 77 659 77 655 C74 646 73 635 70 625 L68 610 C68 605 66 600 66 595 C66 591 69 588 71 584 C74 581 74 578 78 578 C83 578 88 584 91 588 C97 594 100 600 106 606 L106 606 Z " />
<glyph glyph-name="questiondown" unicode="&#xbf;" horiz-adv-x="320" d="M34 260 L31 260 C31 258 31 255 29 253 C26 251 26 247 26 244 C24 245 23 243 21 241 C19 240 19 234 18 230 L20 230 C18 229 18 224 18 221 C9 217 9 213 9 207 C9 206 8 202 6 199 L6 188 C5 181 6 176 6 169 C8 161 6 153 8 143 C8 139 9 134 10 128 C10 127 11 127 11 127 C11 126 13 124 13 123 C16 122 16 120 16 119 C16 116 16 114 18 112 L18 108 C20 108 21 105 21 101 C24 97 25 96 25 93 C26 89 29 86 29 84 C30 82 31 80 31 75 C35 73 35 67 38 65 C39 65 40 65 43 62 C43 61 43 59 45 59 L45 55 L49 48 C50 47 50 46 52 44 C52 43 54 40 56 40 L60 35 C62 35 65 35 66 32 C67 32 70 31 71 29 C74 28 77 24 80 20 C81 20 85 18 86 18 C86 17 91 17 91 16 C91 13 94 14 95 10 C97 8 102 10 105 6 L112 3 C115 3 115 3 116 2 C117 -1 130 1 132 1 C140 1 143 -1 148 -1 C153 -1 157 2 162 2 L183 2 C186 2 192 2 194 3 C197 3 207 1 207 2 C210 5 217 1 222 3 C222 5 223 5 225 3 C227 5 230 5 233 6 C234 9 235 9 238 10 L242 10 C243 14 247 16 250 16 C251 18 253 20 255 20 C255 21 259 22 260 22 C263 25 264 28 265 28 C266 31 268 32 269 32 C270 35 275 35 276 35 C276 39 278 39 280 39 C280 43 281 44 283 44 C284 47 286 47 288 47 C288 48 289 51 290 52 C291 55 293 59 294 59 L298 65 C298 66 298 67 301 69 C301 71 303 74 305 75 C305 81 305 84 307 88 L307 105 C309 109 309 119 307 123 L307 147 C305 150 305 154 304 158 L303 158 L303 164 C301 165 301 165 301 166 C301 169 300 169 298 172 C295 177 291 181 288 183 C286 186 284 187 283 188 C281 191 280 191 278 191 L278 194 C275 194 273 194 269 195 C266 195 264 195 264 200 C253 202 245 202 235 200 L235 196 L234 196 C232 196 228 199 227 195 C223 194 222 194 222 192 C219 181 219 173 222 165 C225 158 222 153 225 149 C228 143 227 139 229 135 C230 133 229 126 229 122 C227 120 228 114 227 114 L225 112 L225 111 C222 108 225 103 222 99 L222 93 C219 93 217 88 215 84 L215 86 C210 84 209 80 208 74 L205 71 C198 66 193 65 189 55 C188 58 188 55 186 55 L173 51 C162 46 152 47 141 47 L140 47 C135 48 132 48 131 51 C130 55 128 54 125 54 C123 59 118 58 118 59 C116 61 111 69 107 73 C105 80 98 84 97 92 C95 96 96 101 95 107 C94 112 92 120 92 126 C92 133 95 143 92 150 L91 152 C92 150 94 152 94 153 C92 154 94 154 94 156 C95 158 95 161 95 164 L96 164 L96 168 L97 168 C98 169 98 172 98 176 C98 176 100 176 100 179 C100 179 100 180 102 180 C102 181 103 183 103 186 C103 187 103 187 105 188 C106 194 110 196 111 202 L110 203 L111 206 C112 206 115 207 115 209 C117 210 116 214 118 215 L118 219 C120 219 120 221 120 221 C120 221 120 222 121 224 C121 224 123 221 125 221 L125 222 C127 222 128 226 130 226 L130 230 L131 230 C131 234 132 236 135 236 C135 240 137 241 140 241 L141 243 L142 243 C142 243 143 244 145 244 L148 249 C152 251 152 251 152 253 C153 253 154 255 154 255 C157 255 158 255 159 256 L158 256 C158 258 159 259 159 260 L162 260 L162 264 L167 264 C168 267 169 270 172 270 C173 271 174 272 176 272 L181 277 L186 282 C186 285 188 285 189 285 L192 286 L194 289 C196 290 197 290 197 292 C197 294 198 294 200 294 C202 294 203 296 205 297 C207 298 208 300 208 301 C208 302 209 304 210 304 C210 306 213 306 213 309 C213 309 214 309 214 311 C217 312 217 315 219 316 C220 317 219 324 220 327 C223 328 223 331 225 335 C225 339 225 340 227 340 L227 351 C225 365 232 383 220 398 C214 422 197 436 173 430 C172 427 168 429 167 425 C164 423 166 419 162 418 L159 408 C157 402 154 393 154 385 C153 374 146 365 140 358 C131 351 125 340 116 336 C116 334 115 331 111 331 C110 328 106 325 102 325 C102 324 100 321 100 321 C97 321 96 321 94 320 L90 315 C86 316 85 316 84 313 C81 311 77 312 74 311 C72 306 71 304 67 301 L49 283 C45 281 45 277 43 274 C39 268 35 268 34 260 L34 260 Z M135 512 L135 509 C137 505 137 501 140 498 L142 495 C143 491 145 491 146 490 C147 491 148 491 148 490 C152 487 154 489 156 487 L159 487 C164 483 169 487 173 483 C178 483 181 482 184 479 C192 478 197 482 203 482 C207 482 208 483 208 484 L210 495 L210 493 C213 497 213 502 214 502 C217 505 217 509 214 510 L214 512 L215 513 C217 517 217 520 217 524 C217 524 217 525 215 528 C217 532 219 536 219 537 C217 537 214 536 213 536 C208 542 203 548 197 552 C184 570 174 571 152 563 C152 558 135 561 141 547 L142 548 C143 546 142 543 142 540 L142 539 C141 533 141 528 135 525 L135 524 C132 518 132 513 135 512 L135 512 Z " />
<glyph glyph-name="Agrave" unicode="&#xc0;" horiz-adv-x="311" d="M285 88 C281 106 276 123 271 145 C267 161 266 179 261 200 C254 230 251 265 244 299 C236 330 230 366 223 402 C217 427 206 454 203 480 C198 515 186 539 161 560 C152 567 130 568 119 564 C110 560 106 544 103 535 C101 529 99 522 98 515 C90 476 81 438 74 403 C63 338 54 276 41 215 C30 160 17 106 9 51 C6 31 0 9 3 -10 C5 -23 13 -27 24 -31 C39 -36 68 -40 77 -20 C84 -8 84 10 86 24 C89 47 92 66 94 89 C96 96 98 104 100 112 C102 117 131 116 136 116 C149 115 170 122 179 113 C182 110 183 107 183 101 C184 77 188 55 193 34 C197 18 200 -1 215 -4 C229 -7 247 -1 261 -1 C273 0 289 4 293 18 C298 39 288 66 285 88 L285 88 Z M113 198 C114 207 114 211 115 216 C121 243 120 261 129 288 C137 314 143 337 149 364 C151 370 152 376 155 382 C165 317 172 266 176 198 L113 198 Z M148 611 C154 605 157 599 163 593 C166 589 171 583 176 583 C180 583 180 586 183 589 C185 593 188 596 188 600 C188 605 186 610 186 615 L184 630 C181 640 180 651 177 660 C177 664 177 669 174 673 C173 676 171 679 169 681 C165 685 157 683 152 681 C144 679 136 673 129 667 C123 661 125 649 130 642 C138 632 142 621 148 611 L148 611 Z " />
<glyph glyph-name="Aacute" unicode="&#xc1;" horiz-adv-x="311" d="M285 88 C281 106 276 123 271 145 C267 161 266 179 261 200 C254 230 251 265 244 299 C236 330 230 366 223 402 C217 427 206 454 203 480 C198 515 186 539 161 560 C152 567 130 568 119 564 C110 560 106 544 103 535 C101 529 99 522 98 515 C90 476 81 438 74 403 C63 338 54 276 41 215 C30 160 17 106 9 51 C6 31 0 9 3 -10 C5 -23 13 -27 24 -31 C39 -36 68 -40 77 -20 C84 -8 84 10 86 24 C89 47 92 66 94 89 C96 96 98 104 100 112 C102 117 131 116 136 116 C149 115 170 122 179 113 C182 110 183 107 183 101 C184 77 188 55 193 34 C197 18 200 -1 215 -4 C229 -7 247 -1 261 -1 C273 0 289 4 293 18 C298 39 288 66 285 88 L285 88 Z M113 198 C114 207 114 211 115 216 C121 243 120 261 129 288 C137 314 143 337 149 364 C151 370 152 376 155 382 C165 317 172 266 176 198 L113 198 Z M163 610 C169 620 173 631 181 641 C186 648 188 660 182 666 C175 672 167 678 159 680 C154 682 146 684 142 680 C140 678 138 675 137 672 C134 668 134 663 134 659 C131 650 130 639 127 629 L125 614 C125 609 123 604 123 599 C123 595 126 592 128 588 C131 585 131 582 135 582 C140 582 145 588 148 592 C154 598 157 604 163 610 L163 610 Z " />
<glyph glyph-name="Acircumflex" unicode="&#xc2;" horiz-adv-x="311" d="M285 88 C281 106 276 123 271 145 C267 161 266 179 261 200 C254 230 251 265 244 299 C236 330 230 366 223 402 C217 427 206 454 203 480 C198 515 186 539 161 560 C152 567 130 568 119 564 C110 560 106 544 103 535 C101 529 99 522 98 515 C90 476 81 438 74 403 C63 338 54 276 41 215 C30 160 17 106 9 51 C6 31 0 9 3 -10 C5 -23 13 -27 24 -31 C39 -36 68 -40 77 -20 C84 -8 84 10 86 24 C89 47 92 66 94 89 C96 96 98 104 100 112 C102 117 131 116 136 116 C149 115 170 122 179 113 C182 110 183 107 183 101 C184 77 188 55 193 34 C197 18 200 -1 215 -4 C229 -7 247 -1 261 -1 C273 0 289 4 293 18 C298 39 288 66 285 88 L285 88 Z M113 198 C114 207 114 211 115 216 C121 243 120 261 129 288 C137 314 143 337 149 364 C151 370 152 376 155 382 C165 317 172 266 176 198 L113 198 Z M250 631 C230 639 226 654 213 664 C211 665 211 665 211 666 L208 666 C208 666 206 668 203 668 L201 669 C199 669 199 669 199 671 C199 671 199 672 197 672 C197 673 195 674 193 675 L191 676 L187 679 C187 677 184 679 184 679 C181 681 184 683 181 685 L181 686 C181 687 181 687 179 688 L177 688 C177 688 177 690 175 690 C175 691 173 691 173 691 L169 693 L159 697 C158 697 158 698 157 698 C155 699 152 699 151 699 L140 699 C138 699 136 698 134 697 L130 693 C130 692 127 691 127 690 L124 688 L120 684 C120 684 120 683 118 683 C118 681 118 680 116 680 C114 677 112 677 112 675 C110 675 110 674 110 673 C108 673 108 672 108 671 L105 669 C105 668 103 668 103 666 L102 666 C100 665 100 664 98 664 C98 663 97 663 97 662 C97 661 94 661 94 660 L94 659 C92 659 92 659 91 657 C91 657 91 655 88 655 L86 654 C86 654 86 653 85 653 C85 652 81 651 81 650 L80 649 L78 644 C78 643 74 642 74 642 C74 641 72 640 72 639 C72 638 71 637 71 637 C70 636 70 636 70 635 L66 635 C64 632 64 632 64 631 C63 630 63 629 61 629 C61 628 59 627 59 627 C59 626 59 624 57 624 L57 620 C57 619 57 617 55 616 C54 616 54 616 52 615 C52 614 49 613 47 611 L47 607 C47 606 47 605 45 605 C44 605 44 604 44 604 C42 603 42 602 42 602 C44 602 44 600 44 599 C45 599 45 598 47 596 L57 591 L59 591 L66 588 C70 588 70 587 71 587 C72 586 74 586 78 586 L80 586 L100 592 L103 594 C105 594 105 595 108 596 C108 598 110 598 110 599 C112 599 112 600 112 602 L112 603 C112 604 114 604 114 604 C116 604 118 605 120 605 C121 606 121 606 121 607 C123 608 123 611 123 613 C124 613 124 613 124 614 L130 616 L130 618 C132 618 132 619 134 619 L141 625 C141 625 142 625 142 626 L143 626 C151 627 151 627 151 628 L153 630 L153 631 L154 632 C154 635 154 635 155 635 L157 638 C156 639 157 640 157 640 C159 641 160 642 160 644 C169 647 170 647 171 644 C181 640 184 631 190 625 C195 619 199 613 201 606 C206 602 213 598 217 592 C219 587 220 587 230 583 C232 582 231 580 233 581 C240 581 250 589 252 591 C259 594 269 598 269 604 C269 610 264 613 259 617 C256 622 256 628 250 631 L250 631 Z " />
<glyph glyph-name="Atilde" unicode="&#xc3;" horiz-adv-x="311" d="M285 88 C281 106 276 123 271 145 C267 161 266 179 261 200 C254 230 251 265 244 299 C236 330 230 366 223 402 C217 427 206 454 203 480 C198 515 186 539 161 560 C152 567 130 568 119 564 C110 560 106 544 103 535 C101 529 99 522 98 515 C90 476 81 438 74 403 C63 338 54 276 41 215 C30 160 17 106 9 51 C6 31 0 9 3 -10 C5 -23 13 -27 24 -31 C39 -36 68 -40 77 -20 C84 -8 84 10 86 24 C89 47 92 66 94 89 C96 96 98 104 100 112 C102 117 131 116 136 116 C149 115 170 122 179 113 C182 110 183 107 183 101 C184 77 188 55 193 34 C197 18 200 -1 215 -4 C229 -7 247 -1 261 -1 C273 0 289 4 293 18 C298 39 288 66 285 88 L285 88 Z M113 198 C114 207 114 211 115 216 C121 243 120 261 129 288 C137 314 143 337 149 364 C151 370 152 376 155 382 C165 317 172 266 176 198 L113 198 Z M251 651 L251 653 C249 662 245 668 237 671 C234 673 224 678 221 674 C222 669 227 670 227 664 C227 658 225 653 221 650 C216 646 212 640 207 638 C198 633 186 635 176 636 C166 637 155 639 146 645 C137 651 126 652 116 656 C104 661 93 667 81 662 C69 658 60 648 59 635 C59 633 58 631 59 628 C60 626 60 625 60 623 C59 623 59 623 59 622 L60 621 C60 620 61 619 62 618 C62 617 63 616 64 615 C65 615 65 614 66 613 C75 606 79 618 81 625 C83 634 89 643 99 642 C109 641 116 635 124 629 C128 626 130 626 135 625 C141 623 149 618 155 615 C166 609 178 609 190 609 C198 609 208 607 216 611 C222 613 229 613 233 619 C236 620 239 622 240 625 L245 630 C247 631 247 633 248 635 L248 634 C253 637 252 645 251 651 L251 651 Z " />
<glyph glyph-name="Adieresis" unicode="&#xc4;" horiz-adv-x="311" d="M285 88 C281 106 276 123 271 145 C267 161 266 179 261 200 C254 230 251 265 244 299 C236 330 230 366 223 402 C217 427 206 454 203 480 C198 515 186 539 161 560 C152 567 130 568 119 564 C110 560 106 544 103 535 C101 529 99 522 98 515 C90 476 81 438 74 403 C63 338 54 276 41 215 C30 160 17 106 9 51 C6 31 0 9 3 -10 C5 -23 13 -27 24 -31 C39 -36 68 -40 77 -20 C84 -8 84 10 86 24 C89 47 92 66 94 89 C96 96 98 104 100 112 C102 117 131 116 136 116 C149 115 170 122 179 113 C182 110 183 107 183 101 C184 77 188 55 193 34 C197 18 200 -1 215 -4 C229 -7 247 -1 261 -1 C273 0 289 4 293 18 C298 39 288 66 285 88 L285 88 Z M113 198 C114 207 114 211 115 216 C121 243 120 261 129 288 C137 314 143 337 149 364 C151 370 152 376 155 382 C165 317 172 266 176 198 L113 198 Z M134 639 C136 653 122 669 109 675 C98 680 95 678 88 668 C87 665 87 663 84 662 C76 658 74 649 75 641 C78 631 79 622 85 613 C88 602 100 600 111 604 C128 611 133 624 134 639 L134 639 Z M234 639 C237 653 223 669 209 675 C199 680 196 678 188 668 C187 665 187 663 184 662 C176 658 175 649 176 641 C178 631 180 622 185 613 C189 602 200 600 211 604 C229 611 233 624 234 639 L234 639 Z " />
<glyph glyph-name="Aring" unicode="&#xc5;" horiz-adv-x="311" d="M285 88 C281 106 276 123 271 145 C267 161 266 179 261 200 C254 230 251 265 244 299 C236 330 230 366 223 402 C217 427 206 454 203 480 C198 515 186 539 161 560 C152 567 130 568 119 564 C110 560 106 544 103 535 C101 529 99 522 98 515 C90 476 81 438 74 403 C63 338 54 276 41 215 C30 160 17 106 9 51 C6 31 0 9 3 -10 C5 -23 13 -27 24 -31 C39 -36 68 -40 77 -20 C84 -8 84 10 86 24 C89 47 92 66 94 89 C96 96 98 104 100 112 C102 117 131 116 136 116 C149 115 170 122 179 113 C182 110 183 107 183 101 C184 77 188 55 193 34 C197 18 200 -1 215 -4 C229 -7 247 -1 261 -1 C273 0 289 4 293 18 C298 39 288 66 285 88 L285 88 Z M113 198 C114 207 114 211 115 216 C121 243 120 261 129 288 C137 314 143 337 149 364 C151 370 152 376 155 382 C165 317 172 266 176 198 L113 198 Z M213 679 C209 685 204 690 200 693 C195 701 187 703 181 708 C179 708 177 710 177 710 C171 711 168 711 159 711 C155 711 152 711 143 710 L127 703 C120 701 116 693 111 689 C107 685 102 677 100 671 C100 668 98 660 97 658 C97 655 98 647 100 644 C100 642 102 636 103 632 C107 630 110 626 112 623 C114 622 116 620 118 616 C120 614 121 614 124 613 C129 609 136 605 142 604 C151 604 156 602 160 602 C170 604 179 608 185 612 C199 622 211 632 214 647 L214 659 C214 668 214 674 213 679 L213 679 Z M199 659 L199 654 C197 641 187 631 177 625 C171 622 168 619 159 619 C156 616 153 619 145 620 C142 620 138 623 132 625 C130 626 129 628 129 628 L124 632 L118 641 C116 643 116 645 116 647 C114 654 114 655 114 657 C114 659 116 661 116 668 C116 671 121 675 124 679 C127 683 130 689 136 690 C140 692 143 693 145 696 C153 696 156 696 158 697 C166 697 168 697 170 696 C171 696 171 693 173 693 L188 685 L197 672 C199 670 199 661 199 659 L199 659 Z " />
<glyph glyph-name="Egrave" unicode="&#xc8;" horiz-adv-x="238" d="M101 76 C144 78 154 82 202 83 C210 71 209 52 214 38 C219 26 219 24 211 15 C197 -1 54 -4 38 2 C37 3 37 3 37 3 C11 4 8 19 4 46 C1 62 0 79 1 95 C3 130 6 164 9 198 C9 206 10 215 10 223 C9 259 8 295 8 331 C7 378 6 424 5 471 C4 482 2 492 5 503 C9 518 12 521 27 523 C30 526 33 531 36 534 C39 537 42 539 45 540 C58 542 71 542 83 544 C116 550 149 549 181 542 C194 539 205 528 213 514 C216 507 209 489 202 485 C194 482 186 478 179 480 C162 482 146 479 130 476 C120 473 110 469 100 468 C93 467 90 463 90 456 C89 443 89 430 89 418 C88 406 87 394 88 382 C88 358 90 335 91 312 C91 309 92 307 92 305 C92 290 92 289 104 286 C109 285 115 284 121 284 C141 284 161 284 183 284 C183 277 183 272 184 267 C185 260 186 253 187 246 C187 244 189 242 188 240 C186 227 183 214 179 202 C178 199 174 195 170 195 C162 193 154 191 146 192 C130 195 118 188 104 184 C99 182 97 177 97 171 C98 156 98 141 98 125 C98 117 101 86 101 76 L101 76 Z M111 609 C117 603 120 597 126 591 C129 587 134 581 139 581 C143 581 143 584 146 587 C148 591 151 594 151 598 C151 603 149 608 149 613 L147 628 C144 638 143 649 140 658 C140 662 140 667 137 671 C136 674 134 677 132 679 C128 683 120 681 115 679 C107 677 99 671 92 665 C86 659 88 647 93 640 C101 630 105 619 111 609 L111 609 Z " />
<glyph glyph-name="Eacute" unicode="&#xc9;" horiz-adv-x="238" d="M101 76 C144 78 154 82 202 83 C210 71 209 52 214 38 C219 26 219 24 211 15 C197 -1 54 -4 38 2 C37 3 37 3 37 3 C11 4 8 19 4 46 C1 62 0 79 1 95 C3 130 6 164 9 198 C9 206 10 215 10 223 C9 259 8 295 8 331 C7 378 6 424 5 471 C4 482 2 492 5 503 C9 518 12 521 27 523 C30 526 33 531 36 534 C39 537 42 539 45 540 C58 542 71 542 83 544 C116 550 149 549 181 542 C194 539 205 528 213 514 C216 507 209 489 202 485 C194 482 186 478 179 480 C162 482 146 479 130 476 C120 473 110 469 100 468 C93 467 90 463 90 456 C89 443 89 430 89 418 C88 406 87 394 88 382 C88 358 90 335 91 312 C91 309 92 307 92 305 C92 290 92 289 104 286 C109 285 115 284 121 284 C141 284 161 284 183 284 C183 277 183 272 184 267 C185 260 186 253 187 246 C187 244 189 242 188 240 C186 227 183 214 179 202 C178 199 174 195 170 195 C162 193 154 191 146 192 C130 195 118 188 104 184 C99 182 97 177 97 171 C98 156 98 141 98 125 C98 117 101 86 101 76 L101 76 Z M126 611 C132 621 136 632 144 642 C149 649 151 661 145 667 C138 673 130 679 122 681 C117 683 109 685 105 681 C103 679 101 676 100 673 C97 669 97 664 97 660 C94 651 93 640 90 630 L88 615 C88 610 86 605 86 600 C86 596 89 593 91 589 C94 586 94 583 98 583 C103 583 108 589 111 593 C117 599 120 605 126 611 L126 611 Z " />
<glyph glyph-name="Ecircumflex" unicode="&#xca;" horiz-adv-x="238" d="M101 76 C144 78 154 82 202 83 C210 71 209 52 214 38 C219 26 219 24 211 15 C197 -1 54 -4 38 2 C37 3 37 3 37 3 C11 4 8 19 4 46 C1 62 0 79 1 95 C3 130 6 164 9 198 C9 206 10 215 10 223 C9 259 8 295 8 331 C7 378 6 424 5 471 C4 482 2 492 5 503 C9 518 12 521 27 523 C30 526 33 531 36 534 C39 537 42 539 45 540 C58 542 71 542 83 544 C116 550 149 549 181 542 C194 539 205 528 213 514 C216 507 209 489 202 485 C194 482 186 478 179 480 C162 482 146 479 130 476 C120 473 110 469 100 468 C93 467 90 463 90 456 C89 443 89 430 89 418 C88 406 87 394 88 382 C88 358 90 335 91 312 C91 309 92 307 92 305 C92 290 92 289 104 286 C109 285 115 284 121 284 C141 284 161 284 183 284 C183 277 183 272 184 267 C185 260 186 253 187 246 C187 244 189 242 188 240 C186 227 183 214 179 202 C178 199 174 195 170 195 C162 193 154 191 146 192 C130 195 118 188 104 184 C99 182 97 177 97 171 C98 156 98 141 98 125 C98 117 101 86 101 76 L101 76 Z M214 623 C194 631 190 646 177 656 C175 657 175 657 175 658 L172 658 C172 658 170 660 167 660 L165 661 C163 661 163 661 163 663 C163 663 163 664 161 664 C161 665 159 666 157 667 L155 668 L151 671 C151 669 148 671 148 671 C145 673 148 675 145 677 L145 678 C145 679 145 679 143 680 L141 680 C141 680 141 682 139 682 C139 683 137 683 137 683 L133 685 L123 689 C122 689 122 690 121 690 C119 691 116 691 115 691 L104 691 C102 691 100 690 98 689 L94 685 C94 684 91 683 91 682 L88 680 L84 676 C84 676 84 675 82 675 C82 673 82 672 80 672 C78 669 76 669 76 667 C74 667 74 666 74 665 C72 665 72 664 72 663 L69 661 C69 660 67 660 67 658 L66 658 C64 657 64 656 62 656 C62 655 61 655 61 654 C61 653 58 653 58 652 L58 651 C56 651 56 651 55 649 C55 649 55 647 52 647 L50 646 C50 646 50 645 49 645 C49 644 45 643 45 642 L44 641 L42 636 C42 635 38 634 38 634 C38 633 36 632 36 631 C36 630 35 629 35 629 C34 628 34 628 34 627 L30 627 C28 624 28 624 28 623 C27 622 27 621 25 621 C25 620 23 619 23 619 C23 618 23 616 21 616 L21 612 C21 611 21 609 19 608 C18 608 18 608 16 607 C16 606 13 605 11 603 L11 599 C11 598 11 597 9 597 C8 597 8 596 8 596 C6 595 6 594 6 594 C8 594 8 592 8 591 C9 591 9 590 11 588 L21 583 L23 583 L30 580 C34 580 34 579 35 579 C36 578 38 578 42 578 L44 578 L64 584 L67 586 C69 586 69 587 72 588 C72 590 74 590 74 591 C76 591 76 592 76 594 L76 595 C76 596 78 596 78 596 C80 596 82 597 84 597 C85 598 85 598 85 599 C87 600 87 603 87 605 C88 605 88 605 88 606 L94 608 L94 610 C96 610 96 611 98 611 L105 617 C105 617 106 617 106 618 L107 618 C115 619 115 619 115 620 L117 622 L117 623 L118 624 C118 627 118 627 119 627 L121 630 C120 631 121 632 121 632 C123 633 124 634 124 636 C133 639 134 639 135 636 C145 632 148 623 154 617 C159 611 163 605 165 598 C170 594 177 590 181 584 C183 579 184 579 194 575 C196 574 195 572 197 573 C204 573 214 581 216 583 C223 586 233 590 233 596 C233 602 228 605 223 609 C220 614 220 620 214 623 L214 623 Z " />
<glyph glyph-name="Edieresis" unicode="&#xcb;" horiz-adv-x="238" d="M101 76 C144 78 154 82 202 83 C210 71 209 52 214 38 C219 26 219 24 211 15 C197 -1 54 -4 38 2 C37 3 37 3 37 3 C11 4 8 19 4 46 C1 62 0 79 1 95 C3 130 6 164 9 198 C9 206 10 215 10 223 C9 259 8 295 8 331 C7 378 6 424 5 471 C4 482 2 492 5 503 C9 518 12 521 27 523 C30 526 33 531 36 534 C39 537 42 539 45 540 C58 542 71 542 83 544 C116 550 149 549 181 542 C194 539 205 528 213 514 C216 507 209 489 202 485 C194 482 186 478 179 480 C162 482 146 479 130 476 C120 473 110 469 100 468 C93 467 90 463 90 456 C89 443 89 430 89 418 C88 406 87 394 88 382 C88 358 90 335 91 312 C91 309 92 307 92 305 C92 290 92 289 104 286 C109 285 115 284 121 284 C141 284 161 284 183 284 C183 277 183 272 184 267 C185 260 186 253 187 246 C187 244 189 242 188 240 C186 227 183 214 179 202 C178 199 174 195 170 195 C162 193 154 191 146 192 C130 195 118 188 104 184 C99 182 97 177 97 171 C98 156 98 141 98 125 C98 117 101 86 101 76 L101 76 Z M98 627 C100 641 86 657 73 663 C62 668 59 666 52 656 C51 653 51 651 48 650 C40 646 38 637 39 629 C42 619 43 610 49 601 C52 590 64 588 75 592 C92 599 97 612 98 627 L98 627 Z M198 627 C201 641 187 657 173 663 C163 668 160 666 152 656 C151 653 151 651 148 650 C140 646 139 637 140 629 C142 619 144 610 149 601 C153 590 164 588 175 592 C193 599 197 612 198 627 L198 627 Z " />
<glyph glyph-name="Igrave" unicode="&#xcc;" horiz-adv-x="137" d="M0 537 C4 542 7 548 10 553 C25 552 25 552 29 561 C39 563 47 564 56 566 C62 567 68 568 75 568 C87 568 94 560 96 545 C98 528 98 510 99 492 C100 484 101 476 102 468 C103 441 103 413 105 386 C106 355 106 324 109 293 C112 265 109 238 109 210 C110 184 109 159 111 133 C113 109 115 86 114 62 C113 42 113 22 104 5 C98 -8 92 -13 81 -8 C66 -1 51 7 36 15 C26 21 21 32 21 45 C18 77 15 110 15 142 C15 192 17 243 17 293 C17 341 17 390 17 439 C17 458 15 476 14 495 C13 504 12 513 7 521 C4 526 3 531 0 537 L0 537 Z M49 638 C55 632 58 626 64 620 C67 616 72 610 77 610 C81 610 81 613 84 616 C86 620 89 623 89 627 C89 632 87 637 87 642 L85 657 C82 667 81 678 78 687 C78 691 78 696 75 700 C74 703 72 706 70 708 C66 712 58 710 53 708 C45 706 37 700 30 694 C24 688 26 676 31 669 C39 659 43 648 49 638 L49 638 Z " />
<glyph glyph-name="Iacute" unicode="&#xcd;" horiz-adv-x="137" d="M0 537 C4 542 7 548 10 553 C25 552 25 552 29 561 C39 563 47 564 56 566 C62 567 68 568 75 568 C87 568 94 560 96 545 C98 528 98 510 99 492 C100 484 101 476 102 468 C103 441 103 413 105 386 C106 355 106 324 109 293 C112 265 109 238 109 210 C110 184 109 159 111 133 C113 109 115 86 114 62 C113 42 113 22 104 5 C98 -8 92 -13 81 -8 C66 -1 51 7 36 15 C26 21 21 32 21 45 C18 77 15 110 15 142 C15 192 17 243 17 293 C17 341 17 390 17 439 C17 458 15 476 14 495 C13 504 12 513 7 521 C4 526 3 531 0 537 L0 537 Z M76 619 C82 629 86 640 94 650 C99 657 101 669 95 675 C88 681 80 687 72 689 C67 691 59 693 55 689 C53 687 51 684 50 681 C47 677 47 672 47 668 C44 659 43 648 40 638 L38 623 C38 618 36 613 36 608 C36 604 39 601 41 597 C44 594 44 591 48 591 C53 591 58 597 61 601 C67 607 70 613 76 619 L76 619 Z " />
<glyph glyph-name="Icircumflex" unicode="&#xce;" horiz-adv-x="137" d="M0 537 C4 542 7 548 10 553 C25 552 25 552 29 561 C39 563 47 564 56 566 C62 567 68 568 75 568 C87 568 94 560 96 545 C98 528 98 510 99 492 C100 484 101 476 102 468 C103 441 103 413 105 386 C106 355 106 324 109 293 C112 265 109 238 109 210 C110 184 109 159 111 133 C113 109 115 86 114 62 C113 42 113 22 104 5 C98 -8 92 -13 81 -8 C66 -1 51 7 36 15 C26 21 21 32 21 45 C18 77 15 110 15 142 C15 192 17 243 17 293 C17 341 17 390 17 439 C17 458 15 476 14 495 C13 504 12 513 7 521 C4 526 3 531 0 537 L0 537 Z M163 642 C143 650 139 665 126 675 C124 676 124 676 124 677 L121 677 C121 677 119 679 116 679 L114 680 C112 680 112 680 112 682 C112 682 112 683 110 683 C110 684 108 685 106 686 L104 687 L100 690 C100 688 97 690 97 690 C94 692 97 694 94 696 L94 697 C94 698 94 698 92 699 L90 699 C90 699 90 701 88 701 C88 702 86 702 86 702 L82 704 L72 708 C71 708 71 709 70 709 C68 710 65 710 64 710 L53 710 C51 710 49 709 47 708 L43 704 C43 703 40 702 40 701 L37 699 L33 695 C33 695 33 694 31 694 C31 692 31 691 29 691 C27 688 25 688 25 686 C23 686 23 685 23 684 C21 684 21 683 21 682 L18 680 C18 679 16 679 16 677 L15 677 C13 676 13 675 11 675 C11 674 10 674 10 673 C10 672 7 672 7 671 L7 670 C5 670 5 670 4 668 C4 668 4 666 1 666 L-1 665 C-1 665 -1 664 -2 664 C-2 663 -6 662 -6 661 L-7 660 L-9 655 C-9 654 -13 653 -13 653 C-13 652 -15 651 -15 650 C-15 649 -16 648 -16 648 C-17 647 -17 647 -17 646 L-21 646 C-23 643 -23 643 -23 642 C-24 641 -24 640 -26 640 C-26 639 -28 638 -28 638 C-28 637 -28 635 -30 635 L-30 631 C-30 630 -30 628 -32 627 C-33 627 -33 627 -35 626 C-35 625 -38 624 -40 622 L-40 618 C-40 617 -40 616 -42 616 C-43 616 -43 615 -43 615 C-45 614 -45 613 -45 613 C-43 613 -43 611 -43 610 C-42 610 -42 609 -40 607 L-30 602 L-28 602 L-21 599 C-17 599 -17 598 -16 598 C-15 597 -13 597 -9 597 L-7 597 L13 603 L16 605 C18 605 18 606 21 607 C21 609 23 609 23 610 C25 610 25 611 25 613 L25 614 C25 615 27 615 27 615 C29 615 31 616 33 616 C34 617 34 617 34 618 C36 619 36 622 36 624 C37 624 37 624 37 625 L43 627 L43 629 C45 629 45 630 47 630 L54 636 C54 636 55 636 55 637 L56 637 C64 638 64 638 64 639 L66 641 L66 642 L67 643 C67 646 67 646 68 646 L70 649 C69 650 70 651 70 651 C72 652 73 653 73 655 C82 658 83 658 84 655 C94 651 97 642 103 636 C108 630 112 624 114 617 C119 613 126 609 130 603 C132 598 133 598 143 594 C145 593 144 591 146 592 C153 592 163 600 165 602 C172 605 182 609 182 615 C182 621 177 624 172 628 C169 633 169 639 163 642 L163 642 Z " />
<glyph glyph-name="Idieresis" unicode="&#xcf;" horiz-adv-x="137" d="M0 537 C4 542 7 548 10 553 C25 552 25 552 29 561 C39 563 47 564 56 566 C62 567 68 568 75 568 C87 568 94 560 96 545 C98 528 98 510 99 492 C100 484 101 476 102 468 C103 441 103 413 105 386 C106 355 106 324 109 293 C112 265 109 238 109 210 C110 184 109 159 111 133 C113 109 115 86 114 62 C113 42 113 22 104 5 C98 -8 92 -13 81 -8 C66 -1 51 7 36 15 C26 21 21 32 21 45 C18 77 15 110 15 142 C15 192 17 243 17 293 C17 341 17 390 17 439 C17 458 15 476 14 495 C13 504 12 513 7 521 C4 526 3 531 0 537 L0 537 Z M47 633 C49 647 35 663 22 669 C11 674 8 672 1 662 C0 659 0 657 -3 656 C-11 652 -13 643 -12 635 C-9 625 -8 616 -2 607 C1 596 13 594 24 598 C41 605 46 618 47 633 L47 633 Z M147 633 C150 647 136 663 122 669 C112 674 109 672 101 662 C100 659 100 657 97 656 C89 652 88 643 89 635 C91 625 93 616 98 607 C102 596 113 594 124 598 C142 605 146 618 147 633 L147 633 Z " />
<glyph glyph-name="Ntilde" unicode="&#xd1;" horiz-adv-x="302" d="M1 487 C0 499 8 508 14 518 C24 533 40 537 55 540 C67 542 85 525 87 511 C88 507 89 503 92 500 C108 474 119 445 130 416 C132 409 133 401 134 394 C137 379 143 364 150 350 C156 339 160 325 165 313 C170 299 176 285 184 271 C187 300 190 328 189 357 C187 388 190 420 193 451 C194 458 195 466 195 473 C195 490 196 506 196 523 C197 525 198 528 199 530 C200 535 202 541 204 545 C206 550 208 556 211 558 C220 563 230 567 241 565 C248 563 253 559 257 550 C266 531 269 511 268 489 C268 475 270 460 271 446 C272 429 271 413 272 397 C273 384 275 371 275 358 C275 349 273 339 273 330 C271 292 269 255 267 217 C265 192 263 166 261 141 C261 137 262 133 262 130 C262 127 263 125 263 123 C257 108 260 93 261 77 C262 62 259 47 257 33 C256 23 255 14 249 6 C244 0 240 -4 233 -2 C218 1 208 10 200 24 C192 41 183 58 174 75 C168 88 163 101 161 115 C149 178 132 240 110 300 C101 323 95 346 86 372 C85 367 83 365 83 363 C84 341 80 320 79 298 C78 270 80 242 80 214 C80 182 80 150 81 119 C82 105 86 91 88 77 C89 61 91 45 90 30 C90 22 85 14 82 6 C81 3 79 -1 77 -5 C73 -5 70 -3 66 -4 C48 -6 34 4 21 14 C10 23 4 35 4 49 C3 69 2 89 2 110 C1 169 0 228 0 287 C0 318 3 349 5 380 C6 409 6 437 6 466 C6 473 3 480 1 487 L1 487 Z M246 636 L246 638 C244 647 240 653 232 656 C229 658 219 663 216 659 C217 654 222 655 222 649 C222 643 220 638 216 635 C211 631 207 625 202 623 C193 618 181 620 171 621 C161 622 150 624 141 630 C132 636 121 637 111 641 C99 646 88 652 76 647 C64 643 55 633 54 620 C54 618 53 616 54 613 C55 611 55 610 55 608 C54 608 54 608 54 607 L55 606 C55 605 56 604 57 603 C57 602 58 601 59 600 C60 600 60 599 61 598 C70 591 74 603 76 610 C78 619 84 628 94 627 C104 626 111 620 119 614 C123 611 125 611 130 610 C136 608 144 603 150 600 C161 594 173 594 185 594 C193 594 203 592 211 596 C217 598 224 598 228 604 C231 605 234 607 235 610 L240 615 C242 616 242 618 243 620 L243 619 C248 622 247 630 246 636 L246 636 Z " />
<glyph glyph-name="Ograve" unicode="&#xd2;" horiz-adv-x="312" d="M0 315 C4 350 5 387 13 422 C19 447 23 473 34 496 C41 510 46 524 55 536 C63 546 73 550 82 555 C89 559 126 559 135 558 C141 557 148 557 154 556 L178 553 C186 551 194 548 203 547 C225 543 243 527 256 506 C261 497 262 483 265 472 C267 465 268 458 270 451 C272 443 274 434 275 425 C279 399 281 373 286 347 C291 322 289 297 286 272 C283 241 280 210 274 181 C268 151 265 120 254 92 C254 91 253 91 253 90 C250 57 229 40 212 19 C202 6 190 2 176 0 C136 -4 63 14 45 60 C33 91 20 122 14 156 C11 178 9 200 7 222 C4 253 2 284 0 315 L0 315 Z M151 57 C160 72 170 86 176 101 C186 127 196 153 199 182 C202 212 205 242 208 273 C212 303 215 333 213 364 C211 402 204 439 193 475 C190 483 185 491 181 498 C178 502 174 507 171 506 C164 505 154 505 150 499 C138 484 125 470 120 448 C114 424 107 401 104 376 C101 353 100 331 101 308 C103 278 98 247 107 217 C109 209 109 200 111 193 C116 171 122 150 127 128 L127 127 C133 102 140 78 151 57 L151 57 Z M148 609 C154 603 157 597 163 591 C166 587 171 581 176 581 C180 581 180 584 183 587 C185 591 188 594 188 598 C188 603 186 608 186 613 L184 628 C181 638 180 649 177 658 C177 662 177 667 174 671 C173 674 171 677 169 679 C165 683 157 681 152 679 C144 677 136 671 129 665 C123 659 125 647 130 640 C138 630 142 619 148 609 L148 609 Z " />
<glyph glyph-name="Oacute" unicode="&#xd3;" horiz-adv-x="312" d="M0 315 C4 350 5 387 13 422 C19 447 23 473 34 496 C41 510 46 524 55 536 C63 546 73 550 82 555 C89 559 126 559 135 558 C141 557 148 557 154 556 L178 553 C186 551 194 548 203 547 C225 543 243 527 256 506 C261 497 262 483 265 472 C267 465 268 458 270 451 C272 443 274 434 275 425 C279 399 281 373 286 347 C291 322 289 297 286 272 C283 241 280 210 274 181 C268 151 265 120 254 92 C254 91 253 91 253 90 C250 57 229 40 212 19 C202 6 190 2 176 0 C136 -4 63 14 45 60 C33 91 20 122 14 156 C11 178 9 200 7 222 C4 253 2 284 0 315 L0 315 Z M151 57 C160 72 170 86 176 101 C186 127 196 153 199 182 C202 212 205 242 208 273 C212 303 215 333 213 364 C211 402 204 439 193 475 C190 483 185 491 181 498 C178 502 174 507 171 506 C164 505 154 505 150 499 C138 484 125 470 120 448 C114 424 107 401 104 376 C101 353 100 331 101 308 C103 278 98 247 107 217 C109 209 109 200 111 193 C116 171 122 150 127 128 L127 127 C133 102 140 78 151 57 L151 57 Z M163 627 C169 637 173 648 181 658 C186 665 188 677 182 683 C175 689 167 695 159 697 C154 699 146 701 142 697 C140 695 138 692 137 689 C134 685 134 680 134 676 C131 667 130 656 127 646 L125 631 C125 626 123 621 123 616 C123 612 126 609 128 605 C131 602 131 599 135 599 C140 599 145 605 148 609 C154 615 157 621 163 627 L163 627 Z " />
<glyph glyph-name="Ocircumflex" unicode="&#xd4;" horiz-adv-x="312" d="M0 315 C4 350 5 387 13 422 C19 447 23 473 34 496 C41 510 46 524 55 536 C63 546 73 550 82 555 C89 559 126 559 135 558 C141 557 148 557 154 556 L178 553 C186 551 194 548 203 547 C225 543 243 527 256 506 C261 497 262 483 265 472 C267 465 268 458 270 451 C272 443 274 434 275 425 C279 399 281 373 286 347 C291 322 289 297 286 272 C283 241 280 210 274 181 C268 151 265 120 254 92 C254 91 253 91 253 90 C250 57 229 40 212 19 C202 6 190 2 176 0 C136 -4 63 14 45 60 C33 91 20 122 14 156 C11 178 9 200 7 222 C4 253 2 284 0 315 L0 315 Z M151 57 C160 72 170 86 176 101 C186 127 196 153 199 182 C202 212 205 242 208 273 C212 303 215 333 213 364 C211 402 204 439 193 475 C190 483 185 491 181 498 C178 502 174 507 171 506 C164 505 154 505 150 499 C138 484 125 470 120 448 C114 424 107 401 104 376 C101 353 100 331 101 308 C103 278 98 247 107 217 C109 209 109 200 111 193 C116 171 122 150 127 128 L127 127 C133 102 140 78 151 57 L151 57 Z M251 633 C231 641 227 656 214 666 C212 667 212 667 212 668 L209 668 C209 668 207 670 204 670 L202 671 C200 671 200 671 200 673 C200 673 200 674 198 674 C198 675 196 676 194 677 L192 678 L188 681 C188 679 185 681 185 681 C182 683 185 685 182 687 L182 688 C182 689 182 689 180 690 L178 690 C178 690 178 692 176 692 C176 693 174 693 174 693 L170 695 L160 699 C159 699 159 700 158 700 C156 701 153 701 152 701 L141 701 C139 701 137 700 135 699 L131 695 C131 694 128 693 128 692 L125 690 L121 686 C121 686 121 685 119 685 C119 683 119 682 117 682 C115 679 113 679 113 677 C111 677 111 676 111 675 C109 675 109 674 109 673 L106 671 C106 670 104 670 104 668 L103 668 C101 667 101 666 99 666 C99 665 98 665 98 664 C98 663 95 663 95 662 L95 661 C93 661 93 661 92 659 C92 659 92 657 89 657 L87 656 C87 656 87 655 86 655 C86 654 82 653 82 652 L81 651 L79 646 C79 645 75 644 75 644 C75 643 73 642 73 641 C73 640 72 639 72 639 C71 638 71 638 71 637 L67 637 C65 634 65 634 65 633 C64 632 64 631 62 631 C62 630 60 629 60 629 C60 628 60 626 58 626 L58 622 C58 621 58 619 56 618 C55 618 55 618 53 617 C53 616 50 615 48 613 L48 609 C48 608 48 607 46 607 C45 607 45 606 45 606 C43 605 43 604 43 604 C45 604 45 602 45 601 C46 601 46 600 48 598 L58 593 L60 593 L67 590 C71 590 71 589 72 589 C73 588 75 588 79 588 L81 588 L101 594 L104 596 C106 596 106 597 109 598 C109 600 111 600 111 601 C113 601 113 602 113 604 L113 605 C113 606 115 606 115 606 C117 606 119 607 121 607 C122 608 122 608 122 609 C124 610 124 613 124 615 C125 615 125 615 125 616 L131 618 L131 620 C133 620 133 621 135 621 L142 627 C142 627 143 627 143 628 L144 628 C152 629 152 629 152 630 L154 632 L154 633 L155 634 C155 637 155 637 156 637 L158 640 C157 641 158 642 158 642 C160 643 161 644 161 646 C170 649 171 649 172 646 C182 642 185 633 191 627 C196 621 200 615 202 608 C207 604 214 600 218 594 C220 589 221 589 231 585 C233 584 232 582 234 583 C241 583 251 591 253 593 C260 596 270 600 270 606 C270 612 265 615 260 619 C257 624 257 630 251 633 L251 633 Z " />
<glyph glyph-name="Otilde" unicode="&#xd5;" horiz-adv-x="312" d="M0 315 C4 350 5 387 13 422 C19 447 23 473 34 496 C41 510 46 524 55 536 C63 546 73 550 82 555 C89 559 126 559 135 558 C141 557 148 557 154 556 L178 553 C186 551 194 548 203 547 C225 543 243 527 256 506 C261 497 262 483 265 472 C267 465 268 458 270 451 C272 443 274 434 275 425 C279 399 281 373 286 347 C291 322 289 297 286 272 C283 241 280 210 274 181 C268 151 265 120 254 92 C254 91 253 91 253 90 C250 57 229 40 212 19 C202 6 190 2 176 0 C136 -4 63 14 45 60 C33 91 20 122 14 156 C11 178 9 200 7 222 C4 253 2 284 0 315 L0 315 Z M151 57 C160 72 170 86 176 101 C186 127 196 153 199 182 C202 212 205 242 208 273 C212 303 215 333 213 364 C211 402 204 439 193 475 C190 483 185 491 181 498 C178 502 174 507 171 506 C164 505 154 505 150 499 C138 484 125 470 120 448 C114 424 107 401 104 376 C101 353 100 331 101 308 C103 278 98 247 107 217 C109 209 109 200 111 193 C116 171 122 150 127 128 L127 127 C133 102 140 78 151 57 L151 57 Z M251 644 L251 646 C249 655 245 661 237 664 C234 666 224 671 221 667 C222 662 227 663 227 657 C227 651 225 646 221 643 C216 639 212 633 207 631 C198 626 186 628 176 629 C166 630 155 632 146 638 C137 644 126 645 116 649 C104 654 93 660 81 655 C69 651 60 641 59 628 C59 626 58 624 59 621 C60 619 60 618 60 616 C59 616 59 616 59 615 L60 614 C60 613 61 612 62 611 C62 610 63 609 64 608 C65 608 65 607 66 606 C75 599 79 611 81 618 C83 627 89 636 99 635 C109 634 116 628 124 622 C128 619 130 619 135 618 C141 616 149 611 155 608 C166 602 178 602 190 602 C198 602 208 600 216 604 C222 606 229 606 233 612 C236 613 239 615 240 618 L245 623 C247 624 247 626 248 628 L248 627 C253 630 252 638 251 644 L251 644 Z " />
<glyph glyph-name="Odieresis" unicode="&#xd6;" horiz-adv-x="312" d="M0 315 C4 350 5 387 13 422 C19 447 23 473 34 496 C41 510 46 524 55 536 C63 546 73 550 82 555 C89 559 126 559 135 558 C141 557 148 557 154 556 L178 553 C186 551 194 548 203 547 C225 543 243 527 256 506 C261 497 262 483 265 472 C267 465 268 458 270 451 C272 443 274 434 275 425 C279 399 281 373 286 347 C291 322 289 297 286 272 C283 241 280 210 274 181 C268 151 265 120 254 92 C254 91 253 91 253 90 C250 57 229 40 212 19 C202 6 190 2 176 0 C136 -4 63 14 45 60 C33 91 20 122 14 156 C11 178 9 200 7 222 C4 253 2 284 0 315 L0 315 Z M151 57 C160 72 170 86 176 101 C186 127 196 153 199 182 C202 212 205 242 208 273 C212 303 215 333 213 364 C211 402 204 439 193 475 C190 483 185 491 181 498 C178 502 174 507 171 506 C164 505 154 505 150 499 C138 484 125 470 120 448 C114 424 107 401 104 376 C101 353 100 331 101 308 C103 278 98 247 107 217 C109 209 109 200 111 193 C116 171 122 150 127 128 L127 127 C133 102 140 78 151 57 L151 57 Z M134 624 C136 638 122 654 109 660 C98 665 95 663 88 653 C87 650 87 648 84 647 C76 643 74 634 75 626 C78 616 79 607 85 598 C88 587 100 585 111 589 C128 596 133 609 134 624 L134 624 Z M234 624 C237 638 223 654 209 660 C199 665 196 663 188 653 C187 650 187 648 184 647 C176 643 175 634 176 626 C178 616 180 607 185 598 C189 587 200 585 211 589 C229 596 233 609 234 624 L234 624 Z " />
<glyph glyph-name="Ugrave" unicode="&#xd9;" horiz-adv-x="250" d="M3 544 C17 554 31 547 45 542 C50 541 55 537 60 533 C69 526 71 516 68 506 C67 501 66 496 66 491 C68 464 69 438 71 411 C73 374 75 337 82 300 C84 291 84 281 85 272 C86 267 86 262 87 258 C95 231 97 204 100 177 C102 161 107 145 110 129 C112 119 114 109 116 99 C118 90 122 83 130 79 C137 86 143 93 150 98 C156 102 157 108 157 114 C157 137 156 159 156 181 C156 209 156 237 155 265 C153 303 156 341 156 379 C157 414 158 449 159 484 C159 497 160 510 160 523 C159 529 158 535 156 541 C154 549 157 555 165 556 C174 556 183 556 191 554 C201 552 207 543 205 533 C202 520 204 508 205 495 C206 464 206 433 208 402 C210 376 208 350 213 324 C216 307 216 289 218 271 C220 251 224 230 224 210 C225 193 226 175 226 158 C226 140 226 123 225 105 C223 89 219 72 211 57 C211 56 211 55 210 55 C195 40 183 20 164 10 C150 3 134 0 118 2 C108 4 97 6 87 8 C48 14 19 57 13 91 C5 134 5 179 1 223 C0 230 2 238 2 246 C2 271 2 297 2 322 C2 352 1 382 3 412 C4 455 3 498 2 541 C2 542 2 542 3 544 L3 544 Z M117 616 C123 610 126 604 132 598 C135 594 140 588 145 588 C149 588 149 591 152 594 C154 598 157 601 157 605 C157 610 155 615 155 620 L153 635 C150 645 149 656 146 665 C146 669 146 674 143 678 C142 681 140 684 138 686 C134 690 126 688 121 686 C113 684 105 678 98 672 C92 666 94 654 99 647 C107 637 111 626 117 616 L117 616 Z " />
</font>
</svg>
