<?xml version="1.0" encoding="UTF-8"?>
<svg xmlns="http://www.w3.org/2000/svg" xmlns:xlink="http://www.w3.org/1999/xlink" version="1.2" >
<font id="Glorious Sunday Script">
<font-face  font-family="Glorious Sunday Script" units-per-em="1000" ascent="750" descent="-250" font-style="normal" font-weight="400" font-stretch="normal" cap-height="700" x-height="500" underline-position="-75" underline-thickness="50" />
<missing-glyph  horiz-adv-x="210" d="" />
<glyph glyph-name="NULL" d="" />
<glyph glyph-name="CR" unicode="&#xd;" horiz-adv-x="250" d="" />
<glyph glyph-name="space" unicode="&#x20;" horiz-adv-x="210" d="" />
<glyph glyph-name="exclam" unicode="&#x21;" horiz-adv-x="117" d="M13 552 C4 534 3 533 10 519 C12 515 14 505 16 492 L16 488 L14 486 L14 485 C13 485 14 484 16 484 L14 484 C14 483 17 481 17 480 C19 470 20 458 20 445 C20 429 19 415 20 401 C21 396 21 391 20 384 C21 384 21 383 22 383 L21 383 C21 374 22 363 20 354 C21 353 21 351 20 348 C20 345 20 344 19 341 C21 336 20 330 20 325 C21 323 21 322 21 321 C21 313 20 307 21 299 C21 294 19 287 19 282 L22 270 C22 256 19 250 22 237 C23 231 22 238 21 233 C21 231 20 230 21 230 L21 221 C23 215 22 208 22 203 C22 202 23 202 23 202 L23 197 C22 195 22 194 22 193 C22 189 20 185 23 182 L22 182 C24 180 24 175 24 172 L25 172 C25 171 26 169 27 168 C27 167 28 167 27 165 L29 158 C31 156 30 153 32 150 C35 146 36 140 40 137 C41 136 42 134 43 134 C45 134 50 129 54 128 C57 129 60 128 62 128 C66 129 72 127 74 134 L74 131 L76 131 L76 136 C78 137 79 138 79 141 C83 146 79 154 82 159 C81 162 81 163 83 164 C85 173 83 182 83 191 C82 193 82 194 83 195 C82 197 82 198 81 198 C82 198 83 199 83 200 C83 202 82 203 82 203 L83 206 C83 206 83 208 84 208 C85 212 85 215 85 217 L83 221 C84 222 85 225 84 229 L86 233 C86 234 86 225 88 226 C89 230 89 233 88 237 C86 239 86 243 88 247 C91 259 88 266 91 278 C93 282 93 285 92 288 C91 291 91 292 92 295 C94 300 94 307 92 312 L92 314 C92 316 91 316 91 317 L91 321 C91 332 92 344 92 356 L101 451 C107 499 96 510 56 530 C47 536 38 539 28 545 L13 552 L13 552 Z M85 57 L85 59 C83 63 83 67 81 70 L79 72 C78 76 77 76 76 77 C75 76 74 76 74 77 C71 80 68 79 67 80 L64 80 C60 84 56 80 53 84 C48 84 46 85 43 88 C37 89 32 85 27 85 C24 85 23 84 23 83 L21 72 L21 75 C19 71 19 66 18 66 C16 63 16 59 18 58 L18 57 L17 55 C16 52 16 49 16 45 C16 45 16 44 17 41 C16 37 13 33 13 32 C16 32 18 33 19 33 C23 28 27 22 32 18 C43 1 52 0 71 8 C71 13 85 10 80 23 L79 22 C78 24 79 27 79 30 L79 31 C80 36 80 41 85 44 L85 45 C88 50 88 55 85 57 L85 57 Z " />
<glyph glyph-name="quotedbl" unicode="&#x22;" horiz-adv-x="154" d="M136 604 C133 610 126 609 121 609 C115 609 108 606 103 609 C99 609 94 609 91 609 C83 606 82 601 82 593 C83 583 82 572 84 561 C84 560 84 559 84 558 C86 546 85 533 88 521 C88 518 88 515 90 512 C91 504 95 497 100 492 C106 486 112 485 117 494 C118 497 121 500 122 503 C124 506 127 508 127 513 C128 522 130 530 130 537 C132 545 132 550 133 558 C133 561 134 563 135 567 C135 571 136 573 136 577 C138 579 138 580 138 582 C138 583 138 587 138 588 C138 593 139 600 136 604 L136 604 Z M57 604 C53 610 47 609 41 609 C35 609 30 606 24 609 C19 609 14 609 11 609 C5 606 2 601 3 593 C3 583 2 572 5 561 C5 560 5 559 5 558 C7 546 6 533 8 521 C8 518 9 515 9 512 C11 504 15 497 22 492 C27 486 33 485 37 494 C38 497 41 500 44 503 C45 506 47 508 48 513 C48 522 50 530 50 537 C51 545 51 550 53 558 C55 561 55 563 56 567 C56 571 57 573 58 577 C58 579 58 580 58 582 C59 583 59 587 59 588 C59 593 59 600 57 604 L57 604 Z " />
<glyph glyph-name="numbersign" unicode="&#x23;" horiz-adv-x="464" d="M430 323 C429 336 422 341 410 341 C402 343 393 340 385 343 L382 343 C376 341 369 342 362 342 L360 342 C359 342 359 343 358 343 L357 343 C356 343 356 343 355 344 L355 346 C358 351 357 355 357 360 L359 365 C362 365 361 370 364 370 C367 371 369 372 369 375 C369 379 366 382 362 384 C358 389 355 395 347 396 C342 396 340 400 336 402 C329 404 319 406 318 400 C315 384 305 371 300 357 C298 351 301 339 288 340 C282 338 276 341 270 338 L263 338 C252 337 240 336 228 338 C227 342 229 345 231 348 C235 353 236 359 235 365 L238 370 C241 373 239 377 239 380 C239 381 239 381 238 382 L239 382 C240 381 240 381 241 382 C243 389 243 395 238 401 C238 404 236 405 234 406 C232 409 230 412 226 413 C219 419 209 422 201 426 C192 430 188 426 186 420 C180 402 173 383 168 365 C161 338 161 338 133 337 C131 337 129 338 127 338 C123 336 119 338 115 336 C107 332 98 333 92 326 L90 324 C86 326 83 323 81 320 C82 312 90 311 95 307 C98 306 99 303 102 304 C104 303 104 299 107 300 C108 300 109 299 110 299 C115 297 120 299 125 297 C131 299 136 293 142 293 C136 290 142 283 137 280 C137 277 136 275 136 273 C131 270 134 265 132 261 C124 237 122 236 100 239 C91 240 82 240 73 239 L57 236 C53 235 48 232 54 228 C65 221 75 211 90 212 C95 210 100 212 104 210 C112 211 112 206 112 200 C108 194 105 188 106 180 C103 169 102 157 103 145 C104 135 107 128 117 127 C123 125 130 125 136 127 C142 130 148 135 151 141 C160 144 156 155 163 159 C164 161 165 163 164 165 L166 171 C170 180 174 190 177 200 C179 200 181 200 183 199 C190 198 197 199 204 199 L206 199 C206 198 207 198 208 198 C217 198 226 198 236 197 L233 180 C232 176 232 172 233 168 C235 164 229 161 231 156 L233 151 L233 150 C232 150 233 149 233 149 C233 148 233 148 232 147 C232 143 233 139 231 136 C233 124 236 114 248 110 C254 108 261 109 267 109 C274 116 280 123 284 132 C296 140 295 154 299 166 C302 174 306 181 306 190 C310 197 312 201 320 203 C330 206 340 203 350 205 L352 205 L352 204 C357 203 361 204 366 203 C372 206 378 209 386 211 C394 214 398 223 399 230 C400 235 395 239 389 239 C373 241 356 240 340 239 L321 239 C321 247 327 253 328 260 C330 268 334 276 335 285 C336 287 337 289 340 290 C343 292 346 290 350 291 L350 292 C355 290 360 290 364 292 L371 292 C372 292 372 293 373 293 L374 293 C377 293 381 292 384 294 C388 298 393 296 398 297 C406 299 416 298 420 309 C427 311 432 315 430 323 L430 323 Z M268 276 C263 269 261 261 257 254 C255 250 253 245 253 241 C251 238 252 234 247 235 C230 235 212 233 194 236 C190 236 189 237 191 241 C196 248 195 257 197 265 C201 268 198 272 199 275 C203 287 210 290 223 288 C235 286 248 285 261 287 C269 288 273 285 268 276 L268 276 Z " />
<glyph glyph-name="dollar" unicode="&#x24;" horiz-adv-x="281" d="M269 165 C266 191 224 244 208 258 C160 300 156 266 120 338 C112 355 111 370 117 379 C126 399 146 427 172 422 C195 418 209 387 201 372 C197 366 184 341 191 331 C195 324 212 323 219 325 C227 328 237 347 241 355 C257 377 251 426 233 454 C222 464 206 471 188 474 C188 477 190 480 188 483 C187 488 188 492 187 497 C187 498 187 499 186 500 C186 503 185 505 185 507 C184 508 184 509 184 510 L182 514 C180 518 176 519 172 521 C168 524 165 528 160 528 C158 529 155 529 153 529 C151 530 149 530 147 530 C143 529 139 530 136 527 C135 526 135 525 135 524 C134 515 138 505 136 496 C134 488 133 479 134 474 C87 462 55 382 63 344 C65 333 66 320 70 309 C79 286 95 282 113 265 C138 241 161 217 176 185 C179 183 181 183 184 177 C191 165 188 146 188 132 C187 129 187 126 186 123 C184 108 180 96 174 89 C168 82 162 74 151 69 C137 63 123 65 110 65 C84 66 102 89 107 95 C144 94 159 151 115 145 C66 138 42 69 55 31 C58 23 65 18 70 13 C81 6 93 1 107 -1 C110 -1 114 -2 117 -2 C116 -7 115 -12 115 -15 C115 -19 116 -23 117 -27 C118 -31 117 -35 118 -40 C118 -43 121 -44 122 -47 C123 -48 121 -49 123 -51 C124 -52 126 -51 127 -52 L129 -52 C131 -54 133 -54 135 -54 C136 -55 136 -56 136 -57 C137 -57 137 -57 138 -58 C138 -59 139 -59 139 -60 C140 -61 141 -62 142 -62 C143 -63 145 -64 146 -64 C148 -64 149 -63 151 -63 L158 -63 C159 -63 160 -62 161 -62 L163 -56 C164 -55 164 -54 164 -54 L167 -48 L167 -42 C166 -35 169 -29 169 -22 C169 -15 169 -11 168 -7 C168 -5 168 -3 168 -1 C184 2 200 7 212 18 C253 60 274 107 269 165 L269 165 Z " />
<glyph glyph-name="ampersand" unicode="&#x26;" horiz-adv-x="422" d="M406 370 C406 371 406 372 407 372 C407 375 407 378 408 382 C407 383 406 384 406 386 C407 407 402 428 389 444 C371 467 346 479 319 480 C302 481 291 473 287 454 C284 445 288 436 285 428 C282 421 286 414 288 407 C290 399 295 397 301 398 C308 399 308 405 307 411 C305 420 305 427 307 435 C306 451 315 460 327 456 L344 450 C358 445 364 433 364 416 C365 408 366 400 364 393 C355 375 343 364 328 352 C319 348 310 344 302 338 C299 337 294 338 292 333 C288 335 286 329 284 326 C254 307 229 279 212 242 C211 237 213 232 211 228 C204 210 213 196 215 180 C216 179 217 178 218 178 C229 176 237 165 248 160 C253 159 258 161 263 159 C282 165 286 173 280 186 C278 190 274 191 275 197 C271 202 267 200 262 199 C260 197 258 194 256 191 C250 213 269 252 289 257 C293 258 295 255 297 253 C306 242 310 232 314 218 C317 214 314 210 316 206 C317 205 317 203 317 202 C319 199 317 194 319 191 L319 188 C317 187 316 186 317 184 C317 182 317 180 318 179 C317 177 317 175 317 174 C316 170 315 167 316 165 C315 162 316 160 314 158 C301 112 276 93 233 82 C229 78 224 82 220 79 C214 77 208 73 201 74 C194 72 186 71 178 71 L168 71 C163 71 157 72 152 74 C101 81 53 208 151 272 C167 268 182 268 193 288 C197 289 199 291 200 295 C204 301 203 311 205 317 C201 339 179 355 158 351 C155 352 153 352 150 352 C149 352 148 352 148 351 L144 351 C144 351 143 350 142 350 L140 350 C140 350 139 350 139 351 C138 351 137 351 136 350 C127 347 117 345 108 340 C103 337 95 333 94 345 C94 346 93 347 92 348 C90 349 88 351 89 355 C89 356 88 357 87 359 L87 381 C88 382 88 386 89 388 L89 398 L91 398 C95 402 91 408 94 413 L101 428 L107 437 L134 456 L163 465 C166 465 168 465 171 467 C185 453 174 441 168 430 C161 420 167 419 173 415 C182 410 190 416 198 421 C201 422 203 425 203 428 C206 430 208 433 207 437 C205 447 209 479 203 486 C167 524 139 506 121 506 L114 503 C108 500 101 498 96 494 C93 495 91 491 89 490 C74 483 59 463 52 449 C44 433 42 416 39 398 C38 394 38 389 39 384 C40 382 40 381 40 379 C42 373 40 366 42 360 C47 345 59 327 73 319 C75 317 74 316 72 314 L57 299 C54 299 54 296 52 294 C47 290 42 286 37 281 C34 282 33 279 32 274 C25 267 18 259 15 246 C12 246 13 243 13 241 C10 235 6 229 5 219 C3 216 4 213 4 210 C5 210 5 209 5 209 L5 206 C5 206 4 205 4 204 C4 199 3 191 5 186 C5 183 5 180 6 176 C6 174 7 170 8 167 C11 159 7 152 10 145 C12 128 19 113 25 98 C28 95 27 89 32 86 C33 82 35 77 40 76 C41 72 44 69 47 66 C47 63 49 62 52 62 C54 59 54 56 57 56 C61 53 62 47 67 45 C76 38 85 30 96 25 C124 11 153 3 183 3 C189 1 195 1 200 2 C207 3 213 3 219 3 C224 5 228 3 233 5 C255 12 278 14 299 26 C303 25 305 27 307 30 C329 47 351 65 366 90 C375 106 376 126 379 145 C380 147 380 148 379 149 L379 150 C381 153 380 157 379 161 C379 165 379 169 378 173 C376 177 379 182 376 186 C375 188 377 193 374 196 C374 200 372 202 370 204 C370 215 362 226 357 234 L349 244 C344 254 339 260 332 264 C330 265 327 264 326 267 C326 270 320 270 322 274 C324 274 325 274 327 275 C330 273 332 280 334 280 C337 280 338 283 339 285 C342 285 345 284 346 287 C350 289 354 291 357 294 L364 297 C368 298 369 303 371 307 C380 311 383 321 391 325 C393 329 395 335 398 338 L406 353 C408 356 407 357 407 361 L406 361 L406 370 Z " />
<glyph glyph-name="quotesingle" unicode="&#x27;" horiz-adv-x="75" d="M57 604 C53 610 47 609 41 609 C35 609 30 606 24 609 C19 609 14 609 11 609 C5 606 2 601 3 593 C3 583 2 572 5 561 C5 560 5 559 5 558 C7 546 6 533 8 521 C8 518 9 515 9 512 C11 504 15 497 22 492 C27 486 33 485 37 494 C38 497 41 500 44 503 C45 506 47 508 48 513 C48 522 50 530 50 537 C51 545 51 550 53 558 C55 561 55 563 56 567 C56 571 57 573 58 577 C58 579 58 580 58 582 C59 583 59 587 59 588 C59 593 59 600 57 604 L57 604 Z " />
<glyph glyph-name="parenleft" unicode="&#x28;" horiz-adv-x="178" d="M5 235 C6 233 6 231 7 230 L7 227 C8 227 8 226 8 225 C8 225 8 224 7 224 C8 224 8 222 7 222 C8 221 8 220 7 219 C8 218 8 218 7 217 C10 211 7 197 9 190 C9 188 9 186 10 184 C12 180 9 175 11 171 C13 165 17 160 18 153 C19 146 18 140 21 137 C22 137 22 136 21 135 C22 133 23 132 23 131 C26 129 24 126 25 124 C26 124 26 123 26 123 C26 121 27 121 28 120 C32 115 33 109 38 105 C39 101 41 98 42 96 C43 94 43 94 43 93 C44 92 43 87 45 85 C45 81 47 79 49 76 L54 66 C57 57 65 50 72 43 C77 38 83 32 87 25 C89 20 93 15 98 15 C105 15 111 7 119 5 C126 3 134 1 142 2 C145 3 148 3 152 2 C158 -1 157 2 161 5 C162 5 166 6 166 7 L166 10 C166 12 160 15 159 16 C156 17 153 21 151 24 C147 30 143 33 140 38 C136 47 131 51 127 56 C125 61 116 67 116 72 C116 73 115 75 115 76 C114 76 114 77 114 77 C114 79 113 79 113 80 L113 81 C112 83 111 85 112 87 C112 88 111 90 110 92 L110 94 C108 97 109 102 108 105 C107 105 107 106 107 107 C105 109 107 112 105 114 L105 116 C105 118 104 121 103 122 C102 123 102 124 102 125 C102 127 102 130 100 131 C98 136 102 143 96 148 C95 148 95 150 96 152 C94 159 95 167 91 173 L91 177 C90 180 90 182 89 183 C89 185 89 186 88 188 C89 191 88 195 86 199 L86 203 C86 205 86 205 85 205 C86 205 86 207 86 207 C87 213 86 216 84 219 C82 224 84 230 82 234 C81 236 81 240 82 242 C82 244 82 247 81 249 C80 275 80 294 82 314 C81 317 81 326 82 330 C84 333 82 337 84 340 L84 345 C86 348 84 352 86 355 C85 358 85 359 86 360 C89 364 86 369 88 376 C88 378 87 380 88 382 C90 385 90 394 90 397 L92 410 C92 411 96 418 95 420 C95 420 95 421 96 421 C98 424 96 429 98 435 C97 436 98 436 98 438 C100 441 99 445 100 449 C100 450 100 452 101 453 C102 454 102 456 102 458 C103 459 103 461 103 463 L105 466 C104 467 104 467 105 468 C107 469 107 472 107 474 L110 483 C116 498 118 513 124 524 C125 526 125 528 126 529 C127 530 128 530 128 532 C129 532 130 533 130 534 C132 534 132 535 133 539 L133 540 L135 543 C136 544 137 545 137 546 C140 549 141 554 142 556 C142 559 144 560 145 561 C147 567 145 571 147 574 L147 575 C148 578 146 579 144 580 C143 579 143 579 142 580 C140 582 138 582 135 580 C135 579 135 579 134 579 C132 579 130 579 128 578 C128 577 128 577 127 577 C126 577 125 576 124 575 C123 574 122 574 122 572 C121 572 120 571 119 571 C118 569 116 569 114 568 C113 567 111 567 110 564 C109 564 108 562 107 561 C106 560 104 561 103 559 L100 556 C100 555 99 554 98 554 C98 552 97 552 97 552 C95 552 94 550 93 549 C93 548 92 548 91 545 C90 545 90 544 89 543 C88 543 87 541 87 540 C86 539 85 539 85 535 C83 535 82 534 82 533 C81 533 80 532 80 531 C78 530 79 528 77 527 L72 521 C72 520 71 519 70 519 C69 518 68 517 68 516 C64 509 58 500 54 488 C53 487 49 478 49 476 C50 475 50 475 49 475 C48 474 47 473 47 471 C47 471 47 470 46 470 C46 469 45 468 45 467 C45 466 45 466 44 465 C44 464 43 463 42 461 C43 461 43 460 42 460 L40 454 L40 453 C38 451 39 449 38 448 C36 445 36 442 35 441 L35 435 C34 433 33 431 33 428 C33 426 33 426 32 426 C32 425 31 424 31 423 C30 423 30 422 30 421 C29 419 29 416 28 415 L29 414 L28 413 C26 411 28 408 26 406 C26 405 26 404 25 404 C25 401 25 399 24 398 C24 396 24 395 23 394 C22 392 22 390 21 389 C19 386 21 382 19 378 C19 371 20 369 19 367 C18 366 17 365 17 364 C17 363 17 362 16 362 C15 360 16 356 15 353 C15 353 15 352 14 352 C15 350 15 349 14 347 C13 346 12 345 12 344 L12 342 C11 341 11 341 11 340 L11 325 C10 325 10 325 10 324 C10 314 9 309 9 306 C9 303 8 299 7 294 C7 291 7 288 6 286 C5 274 5 256 5 245 L5 235 Z " />
<glyph glyph-name="parenright" unicode="&#x29;" horiz-adv-x="182" d="M166 245 C166 256 166 274 165 286 C164 288 164 291 164 294 C163 299 162 303 162 306 C162 309 161 314 161 324 C161 325 161 325 160 325 L160 340 C160 341 160 341 159 342 L159 344 C159 345 158 346 157 347 C156 349 156 350 157 352 C156 352 156 353 156 353 C155 356 156 360 155 362 C154 362 154 363 154 364 C154 365 153 366 152 367 C151 369 152 371 152 378 C150 382 152 386 150 389 C149 390 149 392 148 394 C147 395 147 396 147 398 C146 399 146 401 146 404 C145 404 145 405 145 406 C143 408 145 411 143 413 L142 414 L143 415 C142 416 142 419 141 421 C141 422 141 423 140 423 C140 424 139 425 139 426 C138 426 138 426 138 428 C138 431 137 433 136 435 L136 441 C135 442 135 445 133 448 C132 449 133 451 131 453 L131 454 L129 460 C128 460 128 461 129 461 C128 463 127 464 127 465 C126 466 126 466 126 467 C126 468 125 469 125 470 C124 470 124 471 124 471 C124 473 123 474 122 475 C121 475 121 475 122 476 C122 478 118 487 117 488 C113 500 107 509 103 516 C103 517 102 518 101 519 C100 519 99 520 99 521 L94 527 C92 528 93 530 91 531 C91 532 90 533 89 533 C89 534 88 535 86 535 C86 539 85 539 84 540 C84 541 83 543 82 543 C81 544 81 545 80 545 C79 548 78 548 78 549 C77 550 76 552 74 552 C74 552 73 552 73 554 C72 554 71 555 71 556 L68 559 C67 561 65 560 64 561 C63 562 62 564 61 564 C60 567 58 567 57 568 C55 569 53 569 52 571 C51 571 50 572 49 572 C49 574 48 574 47 575 C46 576 45 577 44 577 C43 577 43 577 43 578 C41 579 39 579 37 579 C36 579 36 579 36 580 C33 582 31 582 29 580 C28 579 28 579 27 580 C25 579 23 578 24 575 L24 574 C26 571 24 567 26 561 C27 560 29 559 29 556 C30 554 31 549 34 546 C34 545 35 544 36 543 L38 540 L38 539 C39 535 39 534 41 534 C41 533 42 532 43 532 C43 530 44 530 45 529 C46 528 46 526 47 524 C53 513 55 498 61 483 L64 474 C64 472 64 469 66 468 C67 467 67 467 66 466 L68 463 C68 461 68 459 69 458 C69 456 69 454 70 453 C71 452 71 450 71 449 C72 445 71 441 73 438 C73 436 74 436 73 435 C75 429 73 424 75 421 C76 421 76 420 76 420 C75 418 79 411 79 410 L81 397 C81 394 81 385 83 382 C84 380 83 378 83 376 C85 369 82 364 85 360 C86 359 86 358 85 355 C87 352 85 348 87 345 L87 340 C89 337 87 333 89 330 C90 326 90 317 89 314 C91 294 91 275 90 249 C89 247 89 244 89 242 C90 240 90 236 89 234 C87 230 89 224 87 219 C85 216 84 213 85 207 C85 207 85 205 86 205 C85 205 85 205 85 203 L85 199 C83 195 82 191 83 188 C82 186 82 185 82 183 C81 182 81 180 80 177 L80 173 C76 167 77 159 75 152 C76 150 76 148 75 148 C69 143 73 136 71 131 C69 130 69 127 69 125 C69 124 69 123 68 122 C67 121 66 118 66 116 L66 114 C64 112 66 109 64 107 C64 106 64 105 63 105 C62 102 63 97 61 94 L61 92 C60 90 59 88 59 87 C60 85 59 83 58 81 L58 80 C58 79 57 79 57 77 C57 77 57 76 56 76 C56 75 55 73 55 72 C55 67 46 61 44 56 C40 51 35 47 31 38 C28 33 24 30 20 24 C18 21 15 17 12 16 C11 15 5 12 5 10 L5 7 C5 6 9 5 10 5 C14 2 13 -1 19 2 C23 3 26 3 29 2 C37 1 45 3 52 5 C60 7 66 15 73 15 C78 15 82 20 84 25 C88 32 94 38 99 43 C106 50 114 57 117 66 L122 76 C124 79 126 81 126 85 C128 87 127 92 128 93 C128 94 128 94 129 96 C130 98 132 101 133 105 C138 109 139 115 143 120 C144 121 145 121 145 123 C145 123 145 124 146 124 C147 126 145 129 148 131 C148 132 149 133 150 135 C149 136 149 137 150 137 C153 140 152 146 153 153 C154 160 158 165 160 171 C162 175 159 180 161 184 C162 186 162 188 162 190 C164 197 161 211 164 217 C163 218 163 218 164 219 C163 220 163 221 164 222 C163 222 163 224 164 224 C163 224 163 225 163 225 C163 226 163 227 164 227 L164 230 C165 231 165 233 166 235 L166 245 Z " />
<glyph glyph-name="asterisk" unicode="&#x2a;" horiz-adv-x="184" d="M163 590 C168 596 170 607 166 613 C160 619 153 616 147 613 C138 606 128 600 119 592 L105 583 C103 616 94 628 75 633 C66 628 64 621 64 613 C64 604 66 596 64 585 C51 592 38 612 28 607 C13 592 37 578 43 564 C38 564 26 570 23 570 C16 568 7 570 6 560 C6 553 9 547 14 540 C20 535 39 540 46 536 C42 531 25 517 21 512 C15 505 18 493 25 490 C29 484 37 486 43 493 C47 498 58 508 62 513 C66 505 62 491 65 484 C73 463 88 465 91 476 C95 487 92 507 92 512 C104 503 113 491 125 484 C152 467 142 496 134 509 C127 519 123 525 117 536 C128 536 134 535 143 535 C149 535 155 536 158 540 C174 561 146 559 132 563 L163 590 Z " />
<glyph glyph-name="plus" unicode="&#x2b;" horiz-adv-x="299" d="M278 264 L276 267 L275 267 C275 270 274 271 274 272 L273 272 C272 273 272 275 269 277 L269 279 C268 282 268 284 266 286 C266 286 265 287 265 288 C264 289 264 292 264 294 C263 300 255 297 252 299 C250 304 244 301 242 300 C229 295 213 296 200 296 C191 296 190 297 179 307 C179 311 181 319 178 323 C177 327 180 331 180 334 C179 337 181 342 181 344 L179 344 C176 348 178 352 175 356 L175 355 C172 359 173 362 170 364 C168 367 170 371 168 373 C166 374 167 378 165 380 L163 382 L161 383 L161 384 C161 386 157 386 156 387 C155 388 154 391 154 392 C153 392 152 393 151 394 C148 395 145 395 144 396 C143 396 142 396 142 397 C141 398 136 398 135 399 C133 403 130 399 126 403 L128 403 C117 407 106 405 96 403 C93 400 93 398 95 396 L95 387 C97 385 93 383 95 380 C96 376 96 373 95 371 C93 369 93 367 95 364 C96 362 96 361 95 359 C93 356 93 355 95 352 C96 351 96 349 95 347 C92 340 96 333 92 326 C92 322 93 319 92 315 C87 308 95 298 86 292 C85 290 84 290 82 292 C81 290 79 290 76 290 C74 290 73 289 70 290 L69 290 C64 287 59 295 55 290 C49 288 44 292 38 288 L37 288 C32 285 25 289 20 286 C19 285 18 285 18 286 C14 284 14 282 13 278 L13 277 C14 274 15 270 13 264 L10 263 C11 260 5 254 5 250 L5 249 C5 246 9 241 13 240 L18 240 L19 239 C20 238 21 237 22 237 C23 234 26 235 30 234 L31 234 L31 233 C34 231 36 231 38 233 C42 233 43 233 45 234 C48 235 51 235 55 234 L59 234 C69 234 78 243 87 233 L88 231 C88 231 88 230 90 230 C91 229 90 228 90 227 L90 226 C100 189 91 167 91 164 C91 161 95 158 96 157 L92 157 C93 156 91 155 91 154 C91 153 96 150 99 150 L100 150 C104 144 124 150 129 143 L130 142 C133 142 139 146 143 143 L144 143 C147 143 151 144 152 149 C153 146 153 146 154 149 C155 150 158 150 161 150 L168 152 L169 152 C172 152 172 153 173 154 L177 157 L179 161 C180 162 181 163 181 164 C183 164 183 165 183 166 C184 166 184 166 185 167 C184 167 185 168 185 168 L185 171 C187 173 188 174 188 176 C187 178 188 180 189 183 C190 193 190 201 188 210 C187 213 188 217 188 221 C185 224 188 229 185 233 L185 237 L190 237 C190 238 181 239 196 239 C196 240 195 242 197 245 C200 242 201 242 205 245 L209 245 C211 246 212 246 213 245 C216 245 216 246 218 248 C218 248 219 249 220 249 C221 248 223 250 223 250 C229 250 235 249 241 252 L241 251 C243 253 247 251 250 253 C253 254 255 254 257 253 C263 252 267 251 273 254 C275 257 282 252 282 260 C279 261 280 264 278 264 L278 264 Z " />
<glyph glyph-name="comma" unicode="&#x2c;" horiz-adv-x="158" d="M103 41 C102 45 101 53 98 57 C97 60 95 60 93 62 C92 63 92 65 91 67 C90 71 85 72 83 73 C80 77 75 79 72 80 C67 84 60 84 54 80 C52 80 50 79 48 78 C45 77 43 72 42 71 C41 68 39 68 39 67 C38 65 38 60 35 58 C35 57 35 54 34 53 C36 47 34 39 34 35 C35 27 38 22 39 13 C42 9 46 7 51 7 C54 7 57 8 60 7 C61 6 63 5 64 -2 C64 -5 62 -10 61 -14 C59 -19 58 -22 56 -25 C51 -30 45 -39 43 -48 L43 -54 C43 -58 43 -59 45 -60 C50 -65 50 -65 56 -60 C57 -60 59 -60 60 -59 C63 -59 65 -55 69 -54 C71 -53 74 -52 78 -49 C81 -44 83 -43 87 -39 C91 -36 94 -32 97 -25 C99 -25 99 -20 101 -19 C107 -8 107 9 107 22 C105 27 103 33 103 39 L103 41 Z " />
<glyph glyph-name="hyphen" unicode="&#x2d;" horiz-adv-x="321" d="M139 217 C137 216 136 216 135 216 C134 216 133 216 132 215 C125 215 118 212 111 212 C108 212 106 212 103 211 C101 211 100 210 98 210 L95 210 C93 210 92 209 91 209 C90 208 89 208 88 208 L83 205 C82 204 82 204 82 203 C82 201 83 199 84 197 C84 196 85 196 85 195 L88 192 C89 192 89 191 89 191 C90 190 91 190 91 189 C92 189 92 188 92 188 L97 183 C98 182 98 181 99 181 C105 178 109 175 114 171 L116 169 C125 163 135 158 146 160 C147 160 148 161 149 161 L155 163 C156 163 157 163 158 164 C160 164 162 165 163 165 L176 165 C177 165 178 165 179 166 C181 167 184 167 187 166 C188 166 189 166 190 165 L199 165 C203 166 207 166 210 165 C213 164 216 164 219 164 L238 164 C240 164 241 164 242 165 C245 165 249 167 252 167 C255 167 257 167 259 168 L267 170 L270 170 C272 171 275 171 277 171 L280 171 C282 172 284 173 287 173 L289 173 C290 172 291 172 292 172 C294 172 295 173 296 173 C298 174 300 175 302 175 C303 175 304 176 305 176 C307 177 309 178 310 180 L310 183 C310 184 310 186 309 187 C308 188 307 189 306 189 C305 189 304 189 304 190 L302 194 C302 195 300 196 299 197 C297 198 295 199 293 201 C292 202 291 202 291 203 L288 206 C288 206 288 207 287 207 L286 208 L285 208 C284 207 283 207 282 208 C281 209 280 209 280 209 C278 210 277 211 276 211 C274 212 273 212 272 212 C259 216 244 214 231 217 C225 218 219 217 214 217 L167 217 L139 217 Z " />
<glyph glyph-name="period" unicode="&#x2e;" horiz-adv-x="129" d="M113 51 C116 69 98 88 82 95 C69 101 65 99 56 86 C55 83 54 81 51 80 C41 74 39 63 40 53 C43 41 46 30 52 19 C57 5 71 3 84 8 C106 17 112 32 113 51 L113 51 Z " />
<glyph glyph-name="slash" unicode="&#x2f;" horiz-adv-x="395" d="M200 205 C199 206 199 206 200 207 C201 208 202 208 202 210 L202 211 C204 213 203 215 205 216 C206 217 206 220 207 221 C206 222 206 223 207 223 C208 224 208 225 209 225 C211 226 210 229 211 230 C211 231 211 232 212 232 C212 233 213 234 213 235 L213 239 C213 240 216 243 217 244 C216 245 217 246 218 246 C219 247 219 249 221 251 C221 252 222 252 223 254 C222 254 223 255 223 255 C224 257 224 259 225 260 C227 261 227 263 227 265 C227 267 227 268 228 269 C229 270 230 271 230 272 C230 273 230 274 231 274 C231 275 232 276 232 276 C232 278 232 279 233 281 C233 282 234 282 234 283 C236 284 236 286 237 288 C239 290 240 293 241 295 L241 297 C243 298 243 300 243 302 C243 303 267 360 269 361 C270 363 270 365 271 366 C271 367 272 368 272 368 C273 370 275 372 275 373 C275 374 275 376 276 378 C277 379 278 385 279 387 C280 390 283 393 284 396 C285 399 283 402 285 404 C286 405 287 406 287 408 C289 409 289 411 290 412 L290 414 C291 416 291 418 292 419 C301 429 304 444 309 455 C310 456 310 457 310 458 L312 462 C312 463 313 464 313 465 C313 465 314 466 314 467 C315 468 315 468 315 469 L317 474 C317 475 318 477 319 478 C319 479 319 479 320 479 C320 480 321 481 321 481 C322 482 322 483 322 484 C322 485 323 487 323 489 C323 490 324 490 324 491 C324 492 325 493 326 494 C326 495 326 496 327 497 C327 498 328 499 328 500 C329 501 329 502 329 502 C330 504 330 506 331 507 C331 508 332 509 332 510 C332 512 333 513 334 515 L334 518 C336 524 338 530 335 536 L335 539 C335 540 334 541 334 542 C333 542 333 542 333 543 C332 543 332 544 331 545 C331 545 330 545 330 546 C329 546 329 547 328 547 C328 548 327 548 327 548 L325 550 C324 550 323 551 323 551 C321 551 319 552 318 553 L310 553 C309 553 309 552 308 552 L305 550 C305 549 304 548 303 547 C299 539 295 529 290 520 C291 519 290 519 290 519 C289 518 288 517 288 516 C286 514 285 512 283 511 C282 511 282 510 281 510 C281 509 280 508 280 508 L278 505 C278 502 277 500 276 498 C275 497 275 496 275 495 C274 494 273 493 273 492 L271 489 C271 487 270 485 269 483 C268 483 268 482 268 481 C267 480 267 480 267 479 C266 478 266 477 266 477 L264 474 L263 473 C263 472 262 472 262 471 C261 471 261 470 261 469 L259 466 L258 466 C258 465 257 465 257 464 L256 463 C246 454 243 436 239 423 C237 415 231 409 226 403 C222 397 222 393 220 387 C214 370 178 299 169 284 C166 279 165 273 164 267 C163 263 162 260 160 257 C159 255 155 252 156 250 L156 248 C155 248 155 248 155 247 C155 246 151 240 150 239 C149 235 149 232 147 228 C143 221 136 214 135 206 C136 205 135 204 135 204 C134 203 134 201 133 199 C133 198 133 198 132 197 C131 196 132 194 131 193 C128 190 126 182 124 178 L118 162 C116 158 113 154 111 149 C107 142 97 123 94 114 L94 112 L92 109 C92 109 93 108 92 108 L92 107 C92 107 91 107 91 106 C90 106 89 105 88 104 C88 103 87 101 86 99 C86 99 86 98 85 97 C85 96 84 95 84 94 C83 93 83 92 83 91 C82 90 82 88 81 86 C80 85 79 83 79 80 C78 79 77 77 77 75 C77 74 76 74 76 73 C77 70 78 68 76 66 C74 64 76 60 74 58 L72 56 L70 50 C70 50 70 49 69 49 L69 46 C69 44 69 43 68 41 C69 36 65 32 67 27 L69 12 L71 9 L79 5 C80 4 81 4 82 4 L89 2 C90 2 91 2 92 3 L105 6 L107 8 L109 13 C109 13 110 13 110 14 C110 14 111 15 112 15 C112 16 113 16 114 17 C114 17 115 18 116 18 C116 19 116 20 117 21 C117 22 118 24 119 25 L119 26 C120 27 121 27 121 28 C122 29 122 30 123 30 L125 38 L126 39 C126 40 127 41 127 41 L128 42 C129 43 129 44 130 44 C130 45 131 46 131 47 C132 49 132 52 134 55 L134 57 L136 59 C137 60 137 63 138 64 C138 65 138 65 139 66 C140 67 139 69 140 71 C143 73 141 76 143 78 L145 82 C147 84 146 86 147 88 C147 88 147 89 148 89 C148 90 149 91 150 92 L152 96 C152 97 152 98 153 98 C154 100 153 102 155 103 C156 104 156 107 157 108 C156 109 156 110 157 110 C158 111 159 112 159 113 C158 114 159 114 159 115 C161 116 160 118 161 120 C161 120 161 121 162 122 C162 122 163 123 163 124 C166 126 170 140 172 142 C174 143 173 145 174 147 C174 148 175 150 175 151 C176 153 175 154 177 156 L181 161 L181 163 C183 164 182 166 184 168 C183 168 183 169 184 170 C185 170 185 171 186 172 C187 173 187 175 188 177 C188 178 188 180 189 181 C189 182 190 183 190 183 C193 186 194 190 195 194 L195 195 C197 196 196 198 198 200 C199 201 199 203 200 205 L200 205 Z " />
<glyph glyph-name="zero" unicode="0" horiz-adv-x="333" d="M315 245 C313 259 314 273 312 287 C308 310 302 331 295 353 C290 369 285 387 278 404 L270 424 C267 428 263 444 260 447 L259 447 L259 448 C259 451 258 453 258 456 C257 456 257 457 257 457 C256 460 256 462 255 464 L250 470 C249 470 249 471 249 472 L246 476 C246 476 245 476 246 478 C245 480 242 480 241 481 C241 483 240 484 238 485 C237 485 236 486 236 488 C235 489 234 490 233 490 C233 492 231 493 230 493 L228 497 L222 502 C221 503 220 504 219 504 L217 504 L217 506 C216 506 215 507 214 508 C213 509 212 511 210 511 L209 511 L209 512 C207 513 205 512 203 514 C201 517 198 514 195 517 L189 522 C188 526 184 523 183 526 C180 528 177 526 174 528 C172 531 167 530 165 531 C164 531 162 531 160 532 C158 534 156 534 155 534 L153 534 L152 535 C150 536 148 536 144 535 C144 534 143 534 142 535 L139 535 C139 534 138 534 137 534 C136 534 135 532 135 531 C134 528 128 525 127 522 L115 508 C112 503 107 499 103 495 C101 493 95 489 94 484 C93 478 88 474 85 469 L78 457 C76 452 70 448 66 443 C64 439 63 433 59 429 C58 428 57 427 57 425 C57 424 57 423 56 423 C55 422 55 420 53 420 C52 419 52 415 51 414 C50 413 49 411 49 410 L49 409 L48 409 C48 408 46 406 45 405 C46 404 46 404 45 402 C44 401 43 400 43 399 C44 397 43 397 43 396 C42 396 41 395 41 392 L41 391 C38 390 39 386 38 385 C35 382 37 378 35 376 C36 375 35 373 35 373 C34 371 34 368 32 367 C32 366 32 366 31 364 C30 363 31 361 30 358 C30 357 30 357 29 355 L27 352 C28 352 28 350 27 350 C26 348 26 345 24 344 C22 341 24 338 22 335 C20 333 21 329 19 326 C16 324 19 320 16 317 L16 312 C14 310 15 306 14 302 C14 301 13 299 13 297 C12 294 13 291 10 288 C12 287 12 287 10 285 C9 283 10 279 8 275 L8 271 C6 268 8 263 6 259 C6 257 6 255 5 254 C3 250 5 247 3 243 C3 242 3 240 2 238 C0 233 3 226 0 221 C1 217 1 213 0 209 C-2 200 -1 190 0 180 L0 177 C-1 175 -1 174 0 171 C1 166 1 160 0 154 C2 151 0 146 2 142 C3 142 3 140 2 139 C5 137 5 133 5 130 C5 128 6 124 8 121 L9 121 L8 120 C9 118 9 115 12 112 C13 111 12 109 14 107 C14 106 15 105 15 104 C16 104 17 104 16 102 C16 101 17 100 19 98 C20 97 20 97 19 96 C20 95 21 93 21 92 C23 91 22 88 24 87 L29 81 C31 79 30 76 32 76 C32 74 34 73 35 72 L41 65 C42 64 43 62 45 60 L49 55 C49 54 50 53 51 51 C52 50 52 49 55 49 C55 48 56 46 57 46 C59 45 64 37 66 35 C69 34 73 31 76 28 C77 27 78 25 80 23 C81 22 84 22 85 22 L94 17 L95 17 L96 16 C98 15 100 15 102 13 C103 12 106 12 108 11 L109 11 L109 9 C112 8 114 8 116 8 C117 8 117 8 119 7 C122 4 127 2 133 2 L134 2 C136 -1 138 1 141 1 C141 -1 142 -1 143 -1 C145 -1 148 -1 150 -2 L156 -2 C157 -3 159 -3 160 -2 C165 1 170 2 173 1 C174 1 176 4 174 4 C176 4 176 3 176 3 C179 3 181 2 185 2 C185 3 185 3 186 3 C188 3 189 3 191 4 C192 3 194 3 195 4 L198 4 C198 6 199 6 199 6 C199 6 200 7 201 7 L201 8 L202 8 C205 8 207 8 208 11 C210 12 213 12 214 13 C215 15 217 15 219 17 C221 17 221 18 222 20 C226 21 229 21 230 25 L231 26 L231 25 L236 27 L236 28 L237 28 C243 28 251 41 255 46 C262 55 266 64 271 74 C276 83 283 91 287 100 C294 114 299 129 302 144 C306 162 312 179 314 196 C316 210 317 228 315 242 L315 245 Z M248 226 C246 207 241 190 238 172 L235 166 C210 123 186 65 136 54 C128 53 122 58 116 64 C107 72 100 81 91 90 C86 93 84 100 81 106 C74 126 69 147 67 167 C67 177 65 186 66 196 C67 205 67 214 67 224 C67 235 70 243 70 255 C71 263 71 274 74 280 C79 293 87 303 92 316 C100 340 108 366 123 386 C136 405 151 424 163 444 C169 456 176 461 186 469 C203 481 209 462 215 448 C219 441 219 434 220 427 C224 405 231 383 236 361 C241 339 243 317 246 297 C251 273 250 249 248 226 L248 226 Z " />
<glyph glyph-name="one" unicode="1" horiz-adv-x="167" d="M44 497 C43 496 43 495 42 495 L39 491 L35 488 L33 486 C33 484 32 484 31 484 C29 483 29 482 31 479 L31 482 C31 481 32 481 33 481 C34 470 34 474 35 473 L35 472 C36 470 37 469 37 468 C38 466 39 465 40 465 L40 464 C41 463 43 460 44 460 C45 460 46 459 47 459 C51 459 56 457 59 459 C62 460 64 465 67 466 C72 468 71 461 70 457 C69 453 69 446 67 442 C67 438 68 433 67 430 C65 424 67 417 65 411 C65 411 65 410 64 408 C64 407 63 405 63 402 C63 399 63 398 62 397 C61 396 61 393 60 390 C61 389 61 389 60 388 C58 383 60 376 58 370 C59 369 58 369 58 367 C55 363 58 357 56 353 C54 350 55 347 54 343 C53 341 53 340 53 338 C51 335 53 330 51 326 L51 323 C49 321 50 317 49 314 L49 309 C47 305 48 302 47 299 C47 298 46 296 46 294 C44 290 47 286 44 282 C45 280 45 278 44 277 L42 267 L42 253 C40 249 42 245 40 241 C40 238 40 237 39 236 C37 231 39 224 38 219 L38 214 C38 206 38 199 37 191 C36 188 37 184 35 182 L35 154 C33 147 35 141 33 135 L32 134 C32 134 32 133 33 133 L33 121 C35 121 33 115 35 110 C36 105 35 103 35 98 C37 93 35 88 37 81 L37 74 C39 71 39 69 37 65 L35 65 C33 66 24 63 21 63 C16 63 10 66 6 62 C2 60 -1 54 -1 49 C-2 44 0 44 1 40 C2 39 1 30 3 30 C3 30 4 29 3 27 C4 26 4 25 6 25 C6 22 7 22 8 21 C8 20 9 18 10 18 C11 17 12 16 13 16 L14 16 L15 14 C15 14 16 13 17 13 C18 12 20 9 20 8 C22 7 24 7 26 7 C30 7 35 3 39 3 C50 3 62 -1 74 -1 L96 -1 C104 -1 110 9 119 9 C124 9 131 9 136 13 C142 17 146 29 146 38 C146 48 141 56 135 61 C134 61 134 61 133 62 L118 69 L118 72 C115 72 113 71 115 75 C114 76 115 75 115 76 C118 83 115 89 117 97 L117 98 L118 98 C118 99 118 99 117 101 L117 103 C120 108 119 115 118 121 L118 123 C119 123 119 124 119 124 C119 124 120 124 120 125 C120 125 120 126 119 126 C120 129 120 130 120 133 C121 134 121 137 120 138 L120 142 C121 143 121 146 120 147 L120 150 C123 163 127 175 122 188 L122 191 C123 192 123 193 122 195 C121 197 121 200 122 202 C123 204 123 205 123 206 C123 208 123 208 124 208 C126 211 126 214 124 218 L124 220 C126 224 125 229 126 233 C125 235 126 236 126 237 C126 238 125 241 126 242 L126 247 C129 260 130 275 131 289 C130 290 131 290 131 291 C134 295 133 299 133 303 L133 305 L135 307 L135 308 L134 309 L134 308 C133 314 135 321 133 327 C133 329 133 331 134 332 C136 341 133 350 135 360 C135 362 134 367 135 369 C138 374 136 383 137 387 C138 394 142 398 143 406 C143 411 142 416 142 423 C141 428 139 433 140 438 C140 439 139 441 139 441 C140 446 149 451 147 456 L143 459 C147 463 149 461 149 469 C149 474 150 482 148 486 C147 488 144 488 143 490 C141 492 144 500 144 502 C144 509 143 513 140 518 L138 518 L135 523 C135 526 132 524 131 527 L132 527 C128 532 118 535 117 537 L116 536 L115 536 C115 536 114 540 113 538 C112 538 111 540 111 540 C104 541 97 540 90 538 C80 536 76 520 68 514 C64 511 60 513 57 510 L44 497 Z " />
<glyph glyph-name="two" unicode="2" horiz-adv-x="274" d="M249 66 C248 67 248 69 247 69 C246 75 241 78 236 81 C235 81 235 81 234 82 L232 85 C231 86 229 86 228 85 L226 85 C221 81 214 85 209 82 C206 81 203 80 200 80 C199 78 197 78 196 78 L192 78 C190 78 188 78 186 80 C177 80 168 81 159 81 C151 77 144 82 136 78 L128 78 L121 75 C118 74 115 74 113 75 C110 73 107 75 104 73 C103 71 100 73 99 74 C99 75 100 82 101 85 C102 89 105 93 106 97 C107 98 107 100 108 100 C110 102 108 106 110 109 L111 105 L112 104 L112 110 C114 112 114 116 115 117 C114 118 115 120 115 121 C116 122 118 124 118 125 C118 125 118 126 119 126 C119 128 120 129 120 132 C120 132 120 133 121 133 C122 134 121 138 123 140 C122 141 122 141 123 142 L125 148 C126 149 127 151 127 153 C127 153 127 155 128 155 C128 156 129 157 129 159 L129 160 L130 160 C131 163 131 165 132 167 C133 168 133 172 134 173 L134 176 L136 179 C139 181 139 184 139 185 C139 187 139 188 140 188 C141 189 141 192 142 195 C141 196 142 196 142 197 C143 199 143 200 144 200 L144 203 C145 205 145 208 146 209 C148 211 147 214 149 216 C148 218 146 218 147 219 C149 222 149 227 149 231 C149 232 153 232 153 235 C153 235 154 236 155 236 C159 239 161 250 163 254 C164 259 164 266 166 271 C168 274 170 275 172 279 C171 278 171 282 171 282 C171 285 173 289 174 291 L182 299 C187 307 189 321 189 331 C191 333 190 335 192 337 C192 338 193 339 194 341 C193 344 193 346 194 349 L196 353 L196 356 C199 358 196 362 200 365 C201 366 201 369 201 372 C201 372 201 373 202 374 L204 380 C203 381 204 382 204 382 C205 385 205 388 206 389 C207 390 207 393 208 396 C208 398 208 400 209 401 C210 404 210 406 210 408 L210 409 L211 411 C213 413 211 417 213 420 L213 425 C216 433 213 441 215 448 L215 457 C214 460 214 464 215 467 C214 469 214 473 214 478 C213 478 213 479 213 480 C214 483 214 484 213 486 C212 488 210 491 210 492 C210 494 209 494 209 495 C209 496 209 498 208 498 C207 500 208 503 206 504 C206 506 205 507 204 507 C202 510 203 512 202 514 L199 516 C199 518 197 519 196 519 C195 522 193 520 192 523 C190 524 188 524 187 526 C186 527 185 528 184 528 C183 528 183 528 182 530 C181 531 179 530 177 532 C176 534 174 534 172 535 L168 538 C166 541 164 539 162 541 C161 541 160 542 159 543 C154 547 150 550 146 550 C139 550 133 551 126 549 C123 549 121 547 118 546 C116 546 109 547 108 545 C108 543 107 543 107 543 C104 542 101 543 99 541 L98 541 L91 538 L87 535 C86 534 83 534 82 531 L74 526 L74 524 L73 526 L70 523 C69 522 68 520 67 520 C66 518 64 519 63 516 C62 515 61 515 61 512 C60 512 59 511 59 510 C58 510 57 508 57 507 C54 507 53 506 53 503 C53 502 53 502 51 502 C50 500 49 500 49 498 C47 498 47 496 46 494 C47 494 46 492 46 492 C45 491 45 490 44 490 C43 488 42 487 42 486 C41 486 40 484 40 483 C38 482 38 479 37 478 C36 476 34 475 34 473 C32 472 33 469 31 468 C30 465 30 464 31 461 C33 460 32 457 33 456 L34 455 C34 452 36 451 37 451 C38 448 39 448 40 447 C40 445 41 445 41 443 C43 441 44 439 46 439 C47 436 48 435 49 435 L51 435 C52 433 52 432 54 432 C55 432 57 432 58 431 C65 429 71 429 78 431 L78 432 L79 432 C80 432 81 433 82 435 L85 437 C85 439 86 440 87 440 C87 441 88 443 89 444 C91 447 89 451 91 453 C92 453 93 455 93 456 L89 456 C89 459 94 460 97 463 L98 461 C99 463 100 464 101 464 L103 465 C104 467 109 467 109 468 C109 469 111 471 112 473 L112 475 C114 475 114 476 115 478 C116 478 116 479 118 480 L120 480 L123 483 C126 486 129 486 132 490 C132 491 133 491 134 492 L135 492 C138 492 139 494 140 495 C142 496 145 496 148 496 C156 491 151 483 151 476 L151 473 C147 471 149 464 146 459 C146 457 145 456 144 455 C145 452 141 443 141 439 C139 432 135 428 132 421 C129 413 130 402 125 394 C124 393 124 390 123 388 C123 386 123 386 122 386 C122 385 121 384 121 382 C121 381 121 380 120 380 C120 378 119 377 119 376 C116 374 116 372 115 370 C114 369 113 368 113 366 C114 364 115 362 114 361 C113 360 114 357 114 356 C106 354 110 353 110 352 L108 349 C108 348 107 346 106 345 C107 345 107 344 106 344 C103 339 102 331 100 326 C99 323 88 309 93 310 L91 302 C92 302 92 301 91 301 C90 299 89 298 89 297 L89 294 L87 289 C85 287 86 285 85 282 C83 281 83 278 82 275 C83 275 82 274 82 272 L80 267 C79 266 79 263 78 260 C75 259 77 254 74 252 C73 250 73 247 72 246 L72 243 C71 240 69 238 69 236 C69 235 69 232 68 231 C66 228 66 226 66 223 C66 223 66 222 65 222 C62 215 63 207 60 200 C59 197 55 195 54 192 C52 189 51 185 51 183 C50 177 48 173 46 169 C44 167 46 163 44 160 C44 159 44 159 43 157 C43 156 42 155 42 153 C42 152 42 152 41 152 C41 151 40 149 40 148 C40 147 40 145 39 145 L37 140 C36 138 34 137 34 136 C34 134 34 133 33 133 C33 132 32 130 32 129 C32 128 32 128 31 128 C30 126 30 125 30 122 L29 121 C28 120 27 118 27 117 C28 116 27 116 27 114 L25 109 C23 106 23 104 23 102 C23 101 23 100 22 100 L20 96 C21 94 20 94 20 93 L18 88 C17 86 17 84 16 81 C16 80 16 80 14 78 C13 75 13 74 13 71 C13 69 13 67 12 66 C11 63 12 59 10 57 L10 51 C8 43 8 35 10 27 L10 25 C11 23 11 19 12 18 C14 17 13 12 16 11 C16 10 17 10 18 8 L22 6 C25 3 27 0 30 -1 C36 -4 40 -5 46 -5 C55 -4 64 -4 72 -1 C78 0 82 0 87 0 C91 0 100 -1 104 2 C105 3 106 3 108 3 C110 4 113 3 115 4 C116 6 119 6 121 4 C122 3 124 3 125 4 C127 6 128 6 130 4 C135 3 141 3 146 4 C148 6 149 6 150 6 C152 7 153 7 154 6 L161 6 C162 7 163 7 164 6 L169 6 C171 7 173 7 175 6 L177 6 C180 7 182 4 185 6 L186 6 C197 8 209 4 221 8 C223 10 225 10 227 8 C228 8 229 10 230 11 C231 12 231 14 232 14 C243 22 251 31 251 49 C254 55 250 61 249 66 L249 66 Z " />
<glyph glyph-name="three" unicode="3" horiz-adv-x="276" d="M68 469 L78 477 C83 481 87 487 92 488 C99 491 105 495 113 495 C120 495 129 488 125 479 L122 469 L124 468 L122 468 C120 460 119 453 118 446 C118 446 118 444 117 444 C115 443 115 442 115 439 C115 439 115 438 114 438 C113 437 113 435 112 435 C108 430 104 426 102 420 C98 418 98 414 96 412 L91 405 C89 404 87 403 87 399 C84 399 84 398 84 395 C84 394 80 390 78 387 C76 386 71 381 70 379 C67 375 65 370 62 365 C62 362 61 361 61 359 C60 357 58 352 58 351 L58 349 C59 347 59 343 58 339 C58 336 59 335 60 335 C60 334 61 333 62 331 L61 331 C61 330 62 330 62 329 L65 329 C66 322 71 325 75 322 C82 313 90 314 99 317 L100 317 C108 318 117 318 122 326 C124 326 125 327 125 329 C127 330 129 330 130 331 L130 333 L132 331 L139 334 C140 334 141 335 142 335 C144 335 145 336 147 336 C148 338 151 338 154 338 C161 340 171 336 178 334 C182 331 186 326 188 321 C189 317 188 308 192 305 C192 303 191 301 191 299 C189 296 188 294 192 291 C194 283 189 275 193 269 C194 266 194 264 193 261 C188 246 193 230 188 216 C185 213 186 208 186 204 C186 204 186 203 185 201 C182 199 182 194 180 190 L178 190 C174 186 180 179 171 175 C171 173 172 170 170 169 L171 169 C166 166 165 162 164 157 L162 157 C162 156 162 155 161 153 L162 153 C161 153 161 149 159 148 C159 149 157 144 157 144 L151 139 C147 133 143 123 136 118 C130 114 126 105 118 105 L118 101 C117 101 115 100 114 99 C114 97 113 96 112 96 C112 95 111 95 111 95 C108 95 107 94 106 92 C106 92 106 91 105 92 C103 91 100 91 99 90 C98 88 98 88 97 88 C95 87 92 88 90 88 C88 88 87 87 85 87 C84 86 83 86 81 86 C77 83 74 86 70 83 C69 83 69 82 68 83 C66 82 63 81 62 81 C60 81 56 78 54 81 L54 82 C52 86 53 88 52 92 C51 99 51 107 52 113 C53 114 54 116 54 117 C53 118 53 118 54 118 C56 121 54 125 56 127 C59 130 59 138 60 140 L67 156 C69 160 74 164 74 169 C74 170 71 178 69 178 C68 177 68 178 67 178 L65 181 C63 182 62 183 61 183 C60 183 60 183 59 184 C59 184 58 186 56 186 C53 191 47 186 44 190 L39 190 L36 187 C35 186 35 184 33 184 L30 181 C30 179 29 179 28 178 C28 177 26 175 25 175 C24 173 24 170 23 169 C22 169 21 168 21 166 C19 165 19 164 19 162 C18 162 18 161 17 160 L15 157 C13 156 14 153 13 151 C6 146 6 135 6 126 C6 122 7 117 7 112 C7 109 3 101 6 99 C7 97 6 96 6 96 C8 92 3 87 8 84 C9 82 7 78 10 75 C11 75 13 74 13 73 C13 71 14 70 14 69 C15 69 15 68 15 66 C17 60 21 55 25 51 L28 48 C31 44 29 40 35 38 C38 35 41 34 44 29 C46 22 51 17 56 14 C60 13 62 13 66 10 C68 9 71 5 74 6 L75 6 C77 4 78 6 81 6 L85 3 C90 1 96 3 100 3 C107 3 114 1 121 3 C127 3 136 3 141 6 C144 9 150 9 154 10 C156 13 159 14 163 16 C170 18 173 22 178 29 L184 34 L191 39 C192 40 193 40 193 42 C194 43 195 44 195 45 C198 47 198 49 199 51 L198 51 C199 53 200 55 200 57 C200 58 204 60 204 61 L206 62 L207 62 C208 65 210 64 211 65 L213 66 L214 66 C215 66 216 68 217 70 C216 70 217 71 217 71 C218 73 219 74 219 75 C221 75 222 77 222 78 C224 79 225 83 228 84 L230 87 L233 92 C233 92 233 94 235 94 C235 95 236 95 236 96 C236 96 237 96 237 97 C238 97 238 99 239 100 C239 100 239 101 240 103 C240 103 241 104 241 105 C241 105 243 107 243 108 C243 109 244 110 244 112 C245 112 245 113 245 114 L247 118 C247 118 247 120 248 121 C248 122 250 123 250 125 L250 127 C250 130 250 133 251 134 C254 136 252 140 254 143 C255 144 255 147 256 149 C255 151 255 151 256 151 C260 156 260 162 262 168 C263 179 263 190 261 201 C256 227 252 253 250 279 C248 287 247 294 244 299 C243 300 243 301 243 301 C243 316 239 326 232 338 C222 353 209 365 194 373 C181 382 179 391 182 405 C182 408 182 412 184 414 C185 417 185 420 185 421 L185 422 L186 424 L188 427 L188 431 C189 433 189 434 188 435 L188 438 L189 439 C189 439 189 440 188 440 L188 444 C191 450 188 456 191 461 L191 468 C192 469 192 472 192 473 C189 477 192 485 191 488 C189 492 187 495 186 498 C184 501 181 507 178 509 C176 513 172 514 170 518 C169 518 167 521 167 521 C166 521 165 522 164 524 L159 526 C158 529 156 527 154 529 C152 531 150 531 148 533 C148 531 147 531 147 533 L140 535 L139 534 L139 535 C136 538 133 535 129 538 L128 538 C125 540 121 539 119 540 C117 540 114 542 112 542 C103 543 95 543 85 542 C84 542 83 540 82 540 C78 539 75 540 73 538 L70 538 C69 537 67 537 65 535 C63 534 61 534 60 531 C59 531 58 530 56 529 L54 526 L51 524 C51 521 47 522 47 520 C45 520 45 518 44 517 C43 517 41 516 41 514 C40 513 39 513 39 511 C38 511 37 509 36 508 L33 503 L28 496 L26 496 C24 495 22 492 22 491 L24 491 L21 485 C19 485 19 483 18 482 L19 482 C17 481 18 477 17 476 L17 473 L15 466 L15 464 C14 460 13 456 15 453 C15 452 16 451 17 450 C18 447 21 446 23 444 C25 442 29 443 31 442 C32 438 50 447 52 448 C56 453 59 460 62 465 L68 469 Z " />
<glyph glyph-name="four" unicode="4" horiz-adv-x="307" d="M282 182 L282 181 L282 182 L282 182 Z M293 210 C292 211 292 213 292 213 C289 218 295 226 291 226 C281 228 274 245 263 241 C257 238 250 246 245 246 L244 246 C242 246 238 243 235 245 C233 246 234 251 234 254 C233 261 228 268 227 275 C223 293 231 319 216 332 C209 338 197 333 189 333 L184 333 C182 330 180 332 178 330 C177 329 177 329 176 329 C174 328 170 329 168 327 C167 325 165 325 164 324 C163 323 162 321 162 319 C163 318 162 316 162 316 C164 302 162 288 162 274 C162 268 162 260 161 252 C159 232 153 228 135 228 C125 227 115 231 105 229 C104 228 103 227 101 227 C105 227 105 246 108 250 C113 261 120 270 124 283 C127 297 133 311 137 325 C144 332 145 342 149 350 C150 351 150 352 150 353 C151 355 152 357 152 358 C153 360 153 361 153 362 C154 365 154 367 156 370 C156 371 157 373 157 374 C158 375 158 376 158 378 C158 379 159 380 159 381 C156 389 161 397 161 404 C163 412 165 420 166 427 C169 440 179 452 183 465 C187 475 191 486 189 499 C189 504 186 508 186 513 C185 519 186 525 183 528 L182 528 L179 532 C178 532 177 534 177 535 C176 536 175 536 174 537 L171 540 C170 541 169 542 168 542 C167 545 165 545 164 546 C162 548 160 548 159 549 C158 551 154 550 153 551 C152 551 152 551 151 553 C149 554 147 554 144 553 L142 553 C140 554 136 554 134 551 C133 551 132 550 132 549 C132 546 132 545 131 544 C130 540 131 536 129 534 C130 534 130 532 129 531 C128 530 128 527 127 525 C128 523 128 523 127 522 C125 521 126 518 125 517 C121 514 124 509 122 507 C122 505 122 505 121 504 C120 503 120 500 119 498 C120 496 119 496 119 495 C118 494 117 494 116 493 C115 493 115 491 114 490 C114 490 114 489 113 488 C113 488 113 486 112 485 C112 484 112 484 111 482 C111 481 111 481 110 480 C110 479 109 477 109 476 C108 475 108 475 108 473 C106 472 106 471 105 470 C105 468 104 468 104 467 C104 466 103 466 103 465 C103 463 102 462 102 462 C101 461 101 459 100 457 L100 454 C100 452 101 450 100 448 C98 447 98 444 97 442 L98 440 L97 439 L94 435 C94 435 93 434 93 433 C92 431 92 430 91 429 C91 427 91 426 89 425 L89 422 C89 422 89 421 91 421 C91 420 91 419 89 419 C88 417 88 415 87 413 C86 411 85 411 85 408 L85 407 L84 407 C83 404 83 402 82 401 C83 399 82 398 82 398 C81 397 81 396 80 394 C79 394 79 393 78 393 C77 392 77 390 76 389 C76 388 76 387 75 387 C75 384 75 383 73 381 C73 381 72 380 73 380 C72 380 72 379 71 379 C71 378 70 376 70 376 C70 375 69 374 69 373 C69 373 68 371 68 370 C68 369 67 367 66 366 C65 365 65 364 64 364 C64 362 63 361 63 361 C63 360 62 358 62 358 C61 357 61 356 61 355 C60 355 60 353 60 352 C59 351 59 350 57 350 C57 348 57 347 56 346 C56 346 55 344 55 343 C55 342 54 342 54 341 C54 339 53 338 53 337 C52 337 52 335 52 334 C51 333 51 333 51 332 C50 330 49 329 49 327 C48 327 48 325 47 324 C46 321 45 320 44 318 C32 297 22 275 14 254 C6 232 -1 209 3 185 C3 182 4 181 5 180 C5 178 5 178 6 177 L8 174 C10 174 10 173 11 173 L14 169 C15 168 16 168 17 167 C19 167 21 165 23 164 C23 164 24 163 26 163 C31 160 36 159 43 160 C44 162 44 163 45 163 L46 164 L47 164 C54 165 63 165 71 164 L76 164 C83 168 92 164 100 165 L110 165 C112 165 114 167 115 167 C116 167 118 167 119 168 C122 169 127 172 131 169 C134 169 136 169 138 172 C141 172 142 172 144 173 C148 174 152 176 158 172 C158 171 158 169 157 168 C156 164 156 160 154 157 C154 154 158 151 158 149 L158 145 C158 144 154 141 153 139 L153 63 C153 61 152 59 152 58 L152 53 L152 49 C153 47 153 44 153 40 C152 39 152 38 153 36 C154 35 154 34 153 31 L153 29 C157 24 159 19 162 15 C162 13 163 13 163 12 C164 12 165 11 165 11 C166 10 167 8 168 8 L184 1 C186 1 189 -1 191 -1 C196 -2 201 1 206 1 C211 1 216 10 215 19 L217 19 L218 19 C218 19 219 20 219 22 C219 24 218 24 219 24 C219 25 220 26 222 26 L222 27 L223 27 C224 27 225 29 226 30 C227 34 225 34 224 35 L224 39 C225 40 225 43 224 44 C223 47 223 49 224 50 C225 54 227 57 228 61 C228 63 227 66 228 68 C231 77 228 88 230 96 L230 102 C234 114 230 127 233 140 C232 142 232 144 233 145 C234 148 234 149 233 151 C232 154 232 157 233 160 C230 164 233 167 235 169 C240 176 245 174 251 173 L252 173 C260 176 267 176 275 178 L276 180 L277 178 C278 180 281 180 282 182 C284 183 283 186 284 187 C285 188 287 188 288 190 L288 191 L289 191 C291 191 292 192 292 194 C293 194 294 195 295 197 L295 205 C294 206 294 209 293 210 L293 210 Z " />
<glyph glyph-name="five" unicode="5" horiz-adv-x="299" d="M277 540 L277 537 C275 540 277 543 275 545 L279 545 C278 545 278 546 279 546 L274 546 C274 553 269 553 266 556 C262 558 258 561 253 559 C248 558 245 557 240 557 C230 557 220 558 210 557 L197 554 C194 554 192 553 189 553 C183 550 177 552 170 550 C161 548 151 545 142 545 L115 545 C108 546 101 544 93 545 C90 545 87 548 86 545 L86 546 C86 545 76 541 68 543 L69 541 C64 539 57 543 51 541 C49 540 48 541 46 543 C45 543 42 544 41 541 C39 541 38 541 36 543 C35 543 33 544 33 544 C31 546 30 546 28 545 C27 544 27 543 26 543 L26 541 C22 540 20 536 18 532 C16 530 14 527 16 523 L16 522 L14 521 C13 519 11 518 12 514 L12 512 C10 509 12 505 10 502 C11 500 11 499 10 496 C7 486 10 473 8 462 L8 460 L7 460 C7 458 7 458 8 457 C9 453 9 449 7 446 C2 439 6 434 8 427 L8 426 C8 426 8 425 7 425 C3 412 6 399 8 387 C9 377 7 365 10 355 L16 339 C17 336 21 333 20 328 C22 325 23 317 26 317 C29 317 31 315 33 312 L33 315 C36 312 38 312 40 311 C44 308 47 304 50 303 C55 299 67 293 73 298 C75 302 79 302 83 304 C84 306 85 306 85 307 L87 307 C89 308 92 308 93 310 L95 312 C97 314 99 317 101 317 C103 317 105 316 106 319 L106 317 L107 317 C110 317 111 317 111 320 C112 320 114 320 115 321 L116 323 C117 325 122 323 124 325 C125 326 126 326 129 325 C132 328 136 325 140 328 C141 329 142 330 142 332 C145 334 150 330 153 334 L155 334 C156 336 159 336 161 334 C164 332 168 332 171 334 C174 336 178 334 181 333 C182 333 183 332 184 332 C184 330 186 329 187 329 C190 323 188 315 192 310 L192 308 C193 306 193 304 192 303 L192 298 C192 251 199 184 161 147 C156 142 150 139 148 132 C149 134 133 121 132 121 C121 111 100 107 88 118 C75 130 82 159 93 171 C94 173 95 174 95 175 C97 175 97 176 98 178 C99 179 101 180 101 182 C103 182 105 184 106 187 C107 188 111 188 111 191 C111 195 112 197 112 201 C112 202 111 204 111 205 C111 206 108 210 106 210 C105 210 104 210 104 211 C103 211 102 213 101 214 C101 215 99 215 98 217 C97 218 96 219 95 219 L88 219 C85 223 85 219 83 219 C80 219 78 220 76 220 C71 219 66 213 64 209 L57 196 C55 192 51 189 48 187 L38 175 L33 169 L33 163 C32 163 31 161 31 160 L31 158 L30 157 C29 154 28 151 29 148 C29 147 28 145 28 144 C26 141 28 136 26 132 C27 131 27 131 26 130 C26 130 27 130 27 129 C27 127 27 127 26 126 C25 125 25 122 26 121 L26 114 C25 113 25 110 26 109 C27 108 27 108 26 107 C26 94 30 81 36 70 L38 66 C38 65 38 65 39 64 C39 63 40 61 41 60 C42 59 42 56 45 55 C45 53 46 52 47 52 C47 51 48 50 49 48 L51 46 C52 43 55 41 57 39 C58 38 58 37 58 35 C58 34 58 33 59 31 L60 30 C61 29 61 28 63 28 C64 26 65 25 65 24 L66 24 C67 22 67 21 68 21 C69 20 69 20 70 20 L74 17 C75 17 76 16 76 16 C77 16 78 15 78 15 C79 15 80 13 80 13 L85 11 C85 11 86 11 87 9 C88 9 89 8 90 7 C92 7 93 7 93 6 C94 6 95 4 96 4 L99 4 C104 4 107 6 112 3 L113 4 L113 3 C115 6 117 4 120 4 C122 4 123 4 124 7 C127 8 131 8 134 7 L139 7 L143 9 C144 9 145 11 145 11 C148 12 149 13 150 16 C151 16 152 17 153 17 L153 19 L155 19 C156 19 158 20 159 21 C160 24 162 22 163 25 C164 25 165 26 165 28 C168 29 170 29 171 31 C170 33 170 33 171 33 C172 39 178 39 181 43 C181 44 181 46 182 46 C182 47 183 47 184 48 C184 50 186 51 187 51 L188 52 L189 52 C191 52 193 53 193 56 L193 57 C194 59 194 60 196 60 C196 61 197 63 198 64 C198 65 201 65 202 66 C203 68 203 69 205 69 C206 72 209 70 210 73 C211 73 212 74 212 77 C212 78 212 78 214 78 C218 87 228 92 233 101 C235 105 237 112 238 117 C238 121 238 123 241 127 C243 127 244 129 244 130 C246 134 247 139 252 141 C254 143 253 147 254 148 C255 149 256 149 257 152 C256 152 256 153 257 153 L259 161 C258 161 258 162 259 162 C262 165 259 169 262 173 C265 175 262 180 265 184 C264 187 264 188 265 189 C266 192 267 193 266 196 C267 198 267 202 267 205 C269 211 266 217 267 223 C266 224 267 226 267 226 C269 228 267 229 267 232 L267 235 C267 254 264 273 259 292 C259 294 258 297 258 298 C258 306 254 315 249 321 C248 324 248 326 246 328 C246 329 245 330 244 332 L241 337 C240 338 239 339 239 341 C237 342 238 345 236 346 C236 347 235 348 234 348 C233 350 231 351 231 352 L228 355 C227 356 227 358 226 358 L222 361 L218 364 C217 365 216 367 216 368 C215 368 214 369 212 369 C211 372 209 372 207 373 L202 376 C200 378 198 378 197 378 C196 378 194 378 194 380 C193 381 192 382 191 382 C190 381 190 381 189 382 C188 383 186 383 183 385 C182 385 182 385 181 386 C180 387 178 386 175 389 C175 387 174 387 173 389 C172 391 168 389 167 391 C163 394 160 391 158 394 C156 394 154 394 153 395 C141 396 129 396 116 394 C114 391 111 394 108 391 C108 391 107 390 106 391 C104 389 101 391 98 389 C97 386 95 387 93 386 C93 385 93 385 92 385 C89 385 87 382 86 385 L86 389 C87 400 87 412 86 424 L86 427 C87 430 87 434 86 436 C85 438 85 440 86 442 C84 447 86 453 86 458 L86 460 C86 462 85 465 85 468 C84 471 85 474 88 475 C90 477 93 477 96 475 C97 474 97 474 98 475 L101 475 C108 473 115 473 122 475 L123 475 C126 475 131 477 134 477 L146 477 C153 477 160 478 167 478 C172 479 178 480 183 483 C190 486 197 484 203 486 C209 487 216 487 220 490 C222 491 225 490 226 491 L228 491 C230 493 234 491 236 493 L237 495 L237 493 C239 493 240 495 241 496 L243 497 L244 496 C247 500 254 495 256 501 C256 502 257 502 258 502 C262 502 263 505 265 508 C266 509 268 514 269 513 C271 512 272 518 273 518 C278 518 281 530 277 540 L277 540 Z " />
<glyph glyph-name="six" unicode="6" horiz-adv-x="288" d="M56 57 C56 54 72 44 75 44 C76 44 76 44 76 42 C77 42 78 41 80 41 C80 38 81 38 83 37 L84 38 L84 37 C85 36 87 34 88 34 L90 34 C91 33 94 33 95 33 C97 33 100 30 101 29 L102 29 L103 28 C104 26 106 25 108 25 L109 25 C110 24 111 22 113 22 L114 22 L115 21 C118 19 122 17 126 16 C130 11 135 5 142 7 C143 7 143 9 144 9 C150 7 157 9 163 9 C165 9 167 4 168 4 C169 5 170 5 172 5 C174 7 178 9 180 9 L180 8 L181 8 C183 8 188 7 188 9 C188 13 195 9 198 12 L198 13 L199 13 C201 15 204 13 205 16 C207 17 209 17 211 19 C212 21 214 20 215 22 C217 22 218 24 219 25 L220 25 C221 25 222 26 224 28 L225 29 L226 28 L230 32 C232 33 235 38 237 41 C240 46 245 52 247 57 L253 69 C254 73 257 77 257 79 C258 85 257 85 259 89 C261 94 261 99 263 104 C265 110 268 114 265 120 C265 122 265 122 266 123 C268 127 267 131 266 135 C266 136 265 137 265 139 C267 140 267 143 265 144 L265 147 C265 148 264 148 263 148 C263 152 263 155 260 157 L260 172 C259 173 259 173 259 174 C259 176 259 176 258 176 L258 177 C258 181 259 184 257 188 C254 190 257 194 254 197 C252 198 252 209 251 211 C248 219 246 226 241 231 C240 234 237 235 235 238 C234 240 234 244 231 246 C230 246 230 246 230 247 C230 250 228 251 227 251 C226 252 226 252 226 254 C226 256 222 256 221 258 L219 262 C217 263 215 268 213 269 C212 272 209 271 208 273 L205 276 C204 277 204 279 202 279 C201 280 200 281 199 281 C199 284 198 284 196 285 C194 288 191 289 188 291 C187 291 186 291 186 292 C185 293 183 293 183 295 C181 296 179 296 178 297 C176 300 174 299 172 300 C169 304 166 301 163 304 C162 302 162 302 161 304 C159 306 155 304 153 306 C150 306 149 306 147 308 C144 312 137 312 136 320 C136 320 136 321 137 322 C137 324 142 328 144 330 L149 342 C149 345 149 347 150 350 L159 361 C163 370 166 380 169 390 C175 395 178 402 180 408 C182 409 181 412 182 415 C185 415 185 419 186 420 C187 421 187 423 188 423 C191 425 193 427 194 429 C196 432 198 436 199 439 C201 440 204 441 205 445 C206 445 207 446 207 448 C208 449 209 450 209 452 C212 453 214 456 215 458 C215 460 215 462 217 464 C217 464 218 465 218 466 C220 468 221 469 221 470 L221 473 C222 473 224 474 224 477 L224 478 L225 478 C225 479 226 481 226 482 C228 482 228 483 230 485 C231 486 232 486 232 487 L238 495 C238 497 238 497 240 497 L246 506 C247 507 248 509 248 510 L248 523 L246 531 C245 532 245 536 241 536 C240 536 240 536 240 538 C240 542 237 540 235 543 L234 543 L234 544 C234 547 233 548 232 548 C231 551 228 549 227 552 C226 553 225 555 224 555 L221 555 C220 556 218 556 215 557 C214 557 214 557 213 559 L209 561 C209 560 208 560 207 561 C204 564 198 561 194 564 L192 564 C189 563 187 560 186 557 C185 557 185 556 183 556 C182 555 182 555 181 555 C178 552 179 546 175 543 C173 542 170 539 169 536 C168 535 167 535 167 534 C165 532 166 530 163 528 C163 527 162 527 161 527 C159 526 160 523 159 522 L157 522 C156 520 154 519 154 518 C154 516 150 515 150 512 C148 511 149 507 147 506 C146 503 143 505 142 502 C141 502 140 501 140 499 C139 499 137 498 137 497 L134 494 L120 478 C120 477 118 477 117 476 C116 474 115 473 115 472 C114 472 113 470 113 468 C111 466 110 464 109 464 C106 461 103 457 101 454 C100 453 98 452 98 450 C97 450 96 449 96 448 C94 446 94 445 93 444 C94 442 94 442 93 441 C91 441 91 440 90 439 C89 437 88 436 88 435 C88 433 89 433 88 432 L88 429 C88 428 84 428 83 427 L82 425 L82 424 C81 423 81 416 80 416 C78 416 77 416 76 415 C77 413 77 413 76 413 C75 412 75 411 74 411 C72 409 72 407 70 404 C70 404 69 403 69 402 C67 400 67 398 65 396 C64 395 63 394 63 392 C61 391 61 388 61 386 C58 384 58 382 57 380 C56 379 56 375 55 374 C52 371 55 367 51 365 L49 359 C48 357 48 354 46 353 C45 351 44 350 44 349 C44 347 44 347 43 346 C42 345 41 343 41 342 L42 341 L41 341 C39 338 39 336 38 334 C38 333 38 332 37 332 C37 330 36 329 36 328 C36 326 36 326 35 325 L32 317 L33 317 L32 316 C31 314 31 312 30 309 L30 306 C28 305 28 301 28 300 L28 299 L26 297 C24 295 26 291 24 288 C25 287 24 287 24 285 C23 283 23 280 22 279 C22 277 22 275 20 273 C19 271 20 268 19 267 C19 266 19 264 18 264 C17 262 17 259 16 258 C17 256 16 255 16 255 L13 247 C15 246 13 244 12 243 C11 239 12 235 11 232 C11 232 11 231 10 230 C7 226 11 219 7 214 L7 209 C6 207 6 206 7 206 L7 202 C6 202 6 201 7 199 C9 198 9 196 7 193 C6 192 6 189 7 188 C9 185 9 182 7 178 C11 173 9 164 10 159 L12 143 C13 139 16 132 18 129 C19 128 19 126 20 123 L22 123 L22 122 L24 114 C25 112 26 112 26 111 C29 107 31 103 32 99 L43 86 L56 57 L56 57 Z M199 139 C198 136 196 135 196 132 C193 111 180 99 162 91 C150 86 140 78 128 73 C121 70 117 71 114 78 C108 86 102 94 101 104 C100 108 98 114 95 116 C88 136 87 156 90 176 L100 225 C103 240 110 254 114 272 C122 264 129 256 139 256 C161 259 183 239 195 219 C208 196 207 164 199 139 L199 139 Z " />
<glyph glyph-name="seven" unicode="7" horiz-adv-x="320" d="M300 513 C299 515 302 516 303 519 C302 520 303 521 303 523 C303 523 298 524 298 525 L295 525 C293 528 292 532 288 533 C288 536 284 534 283 537 C281 537 281 538 279 540 C279 538 278 540 278 540 C276 541 275 541 275 542 C274 544 273 545 271 545 C269 545 268 545 266 546 C263 548 259 545 255 548 C252 548 251 548 250 549 C249 550 246 549 244 550 C242 550 242 550 241 552 C239 554 230 553 226 554 C218 554 211 556 203 554 C197 554 191 552 184 552 C174 552 165 553 155 550 C151 549 146 550 141 549 C139 549 138 548 135 546 C125 546 116 548 107 546 C97 545 87 545 77 549 C67 552 57 545 47 545 C44 544 39 546 37 545 C35 544 35 544 33 544 C28 545 23 531 20 527 C16 521 16 517 16 511 C16 508 13 498 14 496 C14 495 13 494 13 494 C11 491 11 488 10 487 C10 486 7 484 7 483 C9 480 5 478 5 475 L5 469 C5 466 7 462 10 459 L11 458 L11 457 C13 455 14 454 14 453 L15 453 L15 451 C16 449 16 446 18 445 L20 441 C23 440 21 437 23 436 C25 434 24 430 26 430 C28 430 29 430 29 429 C30 429 30 428 31 426 C33 426 33 425 34 424 C35 422 38 422 40 421 L48 421 L50 424 C52 426 55 425 55 428 C55 429 55 429 57 430 L59 434 C58 436 53 437 54 438 C57 442 50 447 50 451 C50 458 54 465 58 471 C62 476 68 482 68 490 C71 492 68 496 69 500 C71 500 72 502 73 502 L76 502 C81 499 86 503 91 499 L91 500 L92 499 C95 498 96 498 98 499 C100 500 101 499 102 496 C105 498 107 499 108 496 C115 492 122 498 129 494 C134 492 139 495 145 494 C148 495 150 495 153 494 C155 495 158 495 159 494 L175 494 C180 490 188 492 193 492 C201 492 201 488 201 482 L198 482 C197 480 197 478 194 476 L192 473 C192 470 191 470 189 469 C189 467 191 466 189 465 C186 458 183 450 182 444 C172 429 167 412 159 397 C158 397 155 388 156 388 C150 387 151 382 151 376 C150 371 145 366 140 363 C135 359 129 360 122 360 C121 360 106 357 107 359 C107 359 107 360 106 360 C102 360 100 364 96 363 C95 362 95 359 95 358 L95 355 C93 354 93 350 92 349 L92 345 C93 342 93 339 95 338 C96 337 96 335 95 335 C96 334 97 333 97 331 C98 331 98 330 98 330 C98 328 102 328 103 326 L103 325 C105 324 107 322 108 322 C110 322 111 320 112 320 L114 320 C115 321 116 321 117 320 L119 321 L120 320 C122 318 125 318 126 316 C127 312 124 308 122 305 C119 299 115 289 117 280 C117 275 115 270 110 266 C107 263 108 259 107 256 C107 255 107 254 106 252 C102 248 102 238 101 238 C95 235 96 230 96 225 C91 214 86 205 86 193 C86 187 85 181 83 175 C82 172 81 163 78 161 C77 160 77 158 76 155 C73 154 74 150 73 146 C73 144 73 143 72 142 C72 138 68 136 71 132 C71 131 69 131 69 130 C68 127 69 123 68 121 C68 119 68 119 67 118 C66 117 66 114 64 111 C66 111 66 110 64 110 C62 106 64 101 62 97 C63 97 62 96 62 96 C59 78 62 63 59 47 C62 43 62 39 63 35 C64 34 66 35 67 34 C67 34 66 32 67 32 C67 31 67 30 68 30 C69 30 69 28 71 28 L74 24 C76 24 76 23 77 23 C77 23 77 22 78 22 C78 20 78 19 77 19 L77 18 L78 16 C79 15 79 15 81 15 C82 14 83 14 85 14 C85 13 86 13 86 13 C86 11 87 11 87 10 C88 10 88 9 90 7 L93 2 L95 1 C95 1 96 -1 97 -1 C97 -1 98 -2 100 -2 L105 1 C106 1 106 1 107 2 C108 2 108 3 110 3 C110 5 111 5 111 6 L120 6 C120 7 120 7 121 9 C130 11 125 28 126 36 C126 42 129 45 131 49 C135 56 132 64 136 69 C135 71 136 72 136 72 C139 76 136 81 139 85 C139 85 139 86 140 86 C141 88 140 90 141 93 C141 96 141 98 143 101 C144 102 144 105 145 107 L145 113 C146 114 146 117 148 119 L150 129 C153 134 155 138 156 143 C158 147 156 151 158 155 C158 158 160 160 162 163 L162 167 L164 177 C163 179 164 180 164 181 C165 184 165 185 164 187 C165 187 167 188 167 188 C167 189 165 190 165 193 C167 194 165 194 165 196 C165 196 168 196 168 197 C168 198 169 201 169 202 C170 202 172 204 172 205 C174 208 174 210 173 213 L175 213 L175 218 C177 218 178 218 178 219 L178 222 C179 222 179 222 179 223 L178 225 C179 225 179 225 179 223 C179 225 180 225 180 226 C180 226 180 227 182 227 C180 229 180 229 180 230 L182 231 L182 233 C183 233 183 234 183 234 C183 237 183 238 184 239 C184 241 186 242 184 243 C186 245 186 245 186 246 C186 247 186 247 187 248 C188 250 188 252 189 255 C188 255 188 256 189 256 C191 259 191 262 192 263 L192 266 C193 267 194 267 194 268 L194 271 L197 277 C199 279 198 284 199 285 C203 291 199 299 206 302 C213 302 213 316 223 312 L227 312 C235 310 241 309 247 312 L252 314 C254 316 255 316 255 317 C257 318 256 322 257 324 C257 325 257 325 259 326 C259 328 260 328 260 330 C260 333 259 333 257 334 L257 337 C257 342 254 345 249 346 C247 346 247 346 246 347 C246 350 245 351 244 351 C242 354 240 353 239 355 C234 362 234 368 236 376 L236 380 C237 383 237 386 239 387 C241 389 239 395 241 399 C242 399 244 400 244 401 C247 404 245 408 247 411 C246 411 246 412 247 412 C252 420 254 429 257 437 C260 442 263 447 266 453 C269 457 269 462 271 465 C271 466 271 467 273 467 C274 470 275 474 278 476 C279 478 280 478 280 480 L280 482 L281 482 C283 486 285 490 289 494 C292 496 297 498 299 503 C299 503 299 504 300 505 C302 508 302 511 300 513 L300 513 Z " />
<glyph glyph-name="eight" unicode="8" horiz-adv-x="265" d="M242 133 L242 138 C242 142 245 149 242 152 L244 152 C240 158 244 164 242 169 C240 172 240 173 240 174 C238 181 235 187 234 194 C234 199 234 201 231 206 C229 210 226 213 225 218 C221 226 220 236 216 245 C215 249 212 251 210 255 C207 260 205 265 201 271 C194 278 192 285 188 294 L184 305 C180 310 173 312 171 319 C169 330 174 340 179 348 L183 350 C183 351 184 353 184 354 C187 354 187 355 187 358 L191 362 C192 363 192 364 193 364 L196 367 C197 368 198 369 198 371 C200 371 201 372 202 373 L205 376 L207 381 C208 382 210 384 210 385 C211 385 212 386 212 387 C216 389 214 394 216 395 L219 399 L221 404 C224 405 222 408 224 409 C226 412 225 416 228 418 C226 419 226 421 228 421 C229 422 229 423 230 423 C231 425 233 426 233 427 C231 428 233 430 233 430 L235 435 C236 436 238 437 238 439 L238 440 L239 441 C240 443 240 445 240 448 C240 452 239 454 242 458 C243 459 243 461 244 461 C243 462 243 463 244 463 C245 470 245 476 244 484 C243 484 243 485 244 485 C243 488 243 490 242 491 C239 495 238 500 236 504 C234 509 228 512 225 516 C222 520 222 521 219 523 C217 525 217 526 216 526 C215 526 214 527 212 527 C211 530 208 530 207 531 C206 532 206 534 203 534 L202 534 L196 536 C194 539 192 539 189 539 C188 539 187 540 186 540 C183 541 180 541 179 541 C179 543 178 544 177 545 L171 548 C169 549 166 549 165 550 C164 550 163 550 163 552 C160 553 156 552 154 553 C152 553 150 553 149 554 C145 556 141 556 137 554 L135 554 C133 556 131 556 129 553 C128 552 126 553 123 552 C122 550 121 550 118 550 C115 548 110 550 107 548 L105 548 C104 548 103 547 101 545 L103 545 C103 544 98 544 96 541 C93 541 91 539 90 536 C89 536 87 535 87 534 L84 531 C84 529 80 530 80 527 C77 527 77 526 76 525 L71 525 L68 520 L71 520 C70 518 68 518 68 517 C67 516 66 514 65 514 L62 511 C61 511 61 507 59 505 C58 504 57 503 57 502 C57 500 57 500 56 500 C56 499 54 498 54 496 C54 495 54 495 53 494 L51 491 C48 486 47 484 47 477 C45 473 42 470 40 464 C40 461 40 455 42 450 L42 441 C42 440 43 439 43 437 C44 436 44 434 44 431 C47 427 45 422 47 418 C48 417 48 414 48 413 C51 410 51 407 53 404 C54 401 57 399 58 395 C59 393 58 389 59 385 C59 381 62 378 63 375 C65 372 66 369 70 367 C71 366 71 363 73 362 C75 360 73 358 76 357 C80 350 80 339 76 339 C72 339 72 333 70 331 C70 330 68 328 67 328 C67 327 66 326 66 324 C62 323 61 315 59 315 L57 315 C57 315 56 315 56 317 C56 313 51 304 47 299 L48 298 L47 296 C47 296 45 295 45 294 C45 292 45 292 44 291 C40 289 39 283 37 280 C38 278 37 277 37 277 C35 276 35 274 34 274 C33 273 31 272 33 271 C33 269 29 265 29 263 C29 262 29 262 28 260 C28 259 26 258 26 256 C23 253 23 247 20 242 C21 241 20 241 20 240 L17 235 C17 233 17 232 16 232 C16 229 16 228 15 226 C15 224 15 222 14 220 C11 214 11 222 8 199 L10 204 C10 201 8 197 7 195 C7 192 7 191 6 190 C2 185 5 178 5 172 C5 165 3 160 3 155 C5 150 3 140 6 136 C7 134 7 133 7 131 C8 128 6 124 8 122 C10 122 10 120 8 119 L11 114 L11 110 C10 108 14 99 15 95 C17 91 20 88 24 86 L28 77 C30 74 31 73 33 69 L40 61 C40 61 42 60 42 59 C43 59 43 57 43 57 C43 54 45 52 48 52 C49 50 49 50 52 48 C52 47 53 46 54 46 C54 45 56 43 57 43 C57 42 58 41 61 41 C62 41 62 39 62 38 C63 37 63 36 66 34 C67 36 67 34 67 34 C68 33 70 33 70 32 C71 31 72 29 73 29 C73 28 75 27 76 27 C77 24 80 24 81 23 C84 22 86 22 87 20 L93 18 C94 15 96 16 99 15 L100 15 L101 14 C103 13 105 13 108 13 C109 11 110 11 113 11 C115 10 118 11 121 9 L122 10 L123 9 C127 7 129 9 133 6 L160 6 C161 5 161 5 163 6 L164 6 L165 7 C169 10 173 11 177 11 C180 11 184 13 188 15 L189 15 C192 15 192 16 193 18 C194 19 196 19 196 20 C197 22 198 22 198 24 C201 24 203 24 205 25 L208 29 C208 29 210 31 210 32 C211 33 212 33 212 34 C217 37 216 45 219 48 L224 55 C230 64 233 73 234 82 C235 92 240 101 244 110 C247 117 245 122 244 128 C244 129 242 129 243 131 C243 132 242 133 242 133 L242 133 L242 133 Z M151 143 C145 127 137 113 132 96 C129 84 128 73 117 65 C110 60 101 66 96 70 C81 83 75 105 76 124 C76 137 75 150 76 163 C79 176 82 190 87 201 C96 220 103 241 114 260 C117 265 119 273 126 273 C132 272 132 264 135 259 L152 213 C161 190 159 165 151 143 L151 143 L151 143 Z M143 417 C132 408 123 396 114 385 C96 400 94 421 93 441 C93 448 95 454 99 459 C109 471 118 485 135 491 C145 495 155 500 165 503 C173 505 179 503 186 504 C189 505 191 500 191 498 C189 488 186 480 182 471 C173 450 160 432 143 417 L143 417 Z " />
<glyph glyph-name="nine" unicode="9" horiz-adv-x="267" d="M247 353 C246 367 247 380 247 393 C249 396 249 397 247 400 L247 401 C246 405 246 411 247 415 L247 419 C246 420 246 421 247 423 L247 436 C247 437 246 439 244 440 C243 441 244 443 244 445 C244 447 243 453 243 456 L243 466 C244 470 243 472 242 474 C239 484 239 492 238 500 C236 512 227 525 220 533 C217 536 215 536 212 537 C209 540 209 542 207 545 C207 546 198 552 197 552 C196 550 196 550 194 552 C192 553 189 553 186 553 C181 553 174 553 167 556 C165 556 162 556 160 557 C156 558 154 558 151 557 C129 556 104 544 85 533 L78 528 C76 530 75 529 72 529 C66 529 58 517 52 513 L43 506 C41 504 40 500 39 500 C36 498 36 498 34 496 C33 496 33 493 30 492 C30 490 29 489 28 488 L25 485 C25 484 24 482 24 481 L24 480 L22 480 C22 478 21 477 21 477 C18 476 18 473 17 470 L14 465 L14 462 C13 461 13 458 11 456 C11 456 11 454 10 453 C10 452 10 449 9 448 L9 445 C6 435 6 424 9 413 C9 411 10 409 10 405 C10 403 10 400 11 396 C14 388 17 380 21 372 C25 364 32 357 37 352 C43 345 49 333 56 332 L58 332 L58 331 C59 329 60 328 62 328 L64 328 C64 327 66 325 67 325 C68 323 71 324 72 323 C75 319 81 321 85 319 C86 317 89 317 91 316 C93 317 94 317 95 316 C97 315 98 313 100 313 C102 315 105 315 108 313 C116 312 125 311 133 313 L135 315 L136 313 C137 313 139 315 139 316 L143 316 C146 315 148 316 151 319 L152 320 L154 319 C156 321 162 320 165 324 C162 317 166 309 163 303 C159 299 163 291 160 291 L159 289 C159 289 159 288 160 288 C160 287 160 285 159 284 C158 281 159 279 158 276 C152 273 158 268 154 264 L154 259 C152 257 152 257 152 256 C151 253 151 252 151 251 C150 248 148 247 148 244 L148 241 C146 239 147 235 146 232 C143 231 144 228 144 225 C143 225 143 224 143 224 C140 221 141 217 140 215 C141 209 135 195 133 189 C132 187 128 184 127 180 C127 176 129 172 121 172 C121 172 120 165 117 161 C118 161 118 161 117 160 C117 159 117 159 116 157 L113 152 L113 150 C112 150 110 148 110 147 L101 124 C100 122 94 118 93 115 C94 114 93 112 93 112 L90 110 C89 108 87 108 87 107 C85 104 83 102 82 98 C79 96 81 94 78 92 C78 91 76 91 75 90 L72 86 L70 86 C70 84 67 82 64 80 C64 80 51 72 48 71 C39 64 21 40 25 27 C26 24 28 22 32 20 C33 20 34 19 36 19 L40 14 C43 12 45 12 48 10 C51 8 53 6 56 6 L63 6 L63 4 C64 3 66 3 67 4 L68 4 L70 3 C70 4 71 7 72 6 C74 4 75 6 76 6 C79 6 82 4 83 6 C85 7 87 6 89 6 L104 6 C105 6 106 7 108 8 L110 12 C112 12 112 14 113 15 L116 18 C116 18 117 19 118 18 C121 19 120 22 123 23 L123 24 L124 24 C125 24 127 27 128 27 L128 30 L129 30 C132 30 132 30 133 31 L133 30 C135 31 136 31 136 32 L137 32 C137 32 140 32 141 34 L141 36 C143 36 144 39 146 42 C147 42 147 43 148 44 C148 46 148 46 150 47 C150 47 150 48 151 50 L155 55 C160 56 160 62 162 67 C163 68 163 68 163 70 L166 72 C167 74 169 74 169 76 C169 80 175 82 175 87 L182 98 C185 103 189 106 192 111 C193 112 194 124 197 124 L197 127 C200 127 198 131 201 132 C200 135 200 136 201 138 C205 142 205 147 207 151 L207 152 C208 154 209 155 209 156 L209 159 C212 161 212 164 212 167 L212 169 C215 171 215 173 215 176 C217 177 217 179 215 181 L215 183 L216 184 C219 192 225 200 227 209 C230 215 227 223 230 228 L230 231 C232 232 232 235 232 237 L232 239 C235 241 234 245 235 248 C235 249 235 249 236 251 C238 253 236 256 239 259 C238 260 238 261 239 261 C240 264 240 267 242 268 C240 269 240 269 242 271 C244 275 242 279 244 283 C244 285 243 288 244 291 C247 295 244 300 247 305 C246 317 246 329 247 343 C250 345 250 349 247 353 L247 353 L247 353 Z M166 443 C155 427 143 411 128 397 C117 387 104 380 89 376 C76 371 66 377 63 392 C60 409 66 425 71 443 C71 444 74 447 75 448 C94 468 114 486 141 497 L171 504 C173 496 173 488 175 481 C179 466 174 454 166 443 L166 443 L166 443 Z M143 35 C143 36 141 32 141 31 L141 34 C141 34 143 34 143 35 L143 35 Z " />
<glyph glyph-name="colon" unicode="&#x3a;" horiz-adv-x="193" d="M175 179 C178 197 160 216 144 223 C131 229 127 227 118 214 C117 211 116 209 113 208 C103 202 101 191 102 181 C105 169 108 158 114 147 C119 133 133 131 146 136 C168 145 174 160 175 179 L175 179 Z M114 330 C117 319 127 311 140 311 C152 310 158 315 166 330 C167 336 168 343 171 350 C183 372 166 391 145 399 C138 402 118 399 116 391 C111 384 110 373 105 363 L114 330 Z " />
<glyph glyph-name="semicolon" unicode="&#x3b;" horiz-adv-x="188" d="M148 313 C155 318 160 324 164 330 C170 344 177 357 181 370 C184 384 181 387 166 391 C160 391 156 395 153 396 C129 401 116 395 111 373 C110 360 111 347 113 336 C113 330 118 324 123 322 C130 316 140 315 148 313 L148 313 Z M172 184 C171 188 170 196 167 200 C166 203 164 203 162 205 C161 206 161 208 160 210 C159 214 154 215 152 216 C149 220 144 222 141 223 C136 227 129 227 123 223 C121 223 119 222 117 221 C114 220 112 215 111 214 C110 211 108 211 108 210 C107 208 107 203 104 201 C104 200 104 197 103 196 C105 190 103 182 103 178 C104 170 107 165 108 156 C111 152 115 150 120 150 C123 150 126 151 129 150 C130 149 132 148 133 141 C133 138 131 133 130 129 C128 124 127 121 125 118 C120 113 114 104 112 95 L112 89 C112 85 112 84 114 83 C119 78 119 78 125 83 C126 83 128 83 129 84 C132 84 134 88 138 89 C140 90 143 91 147 94 C150 99 152 100 156 104 C160 107 163 111 166 118 C168 118 168 123 170 124 C176 135 176 152 176 165 C174 170 172 182 172 182 L172 184 Z " />
<glyph glyph-name="less" unicode="&#x3c;" horiz-adv-x="413" d="M385 26 C383 31 385 37 382 40 C378 43 382 47 374 48 C372 48 367 55 366 56 C354 66 349 77 335 86 C324 90 312 105 300 105 L297 105 L295 110 C295 110 294 112 292 113 C288 117 286 125 278 126 C277 132 271 133 268 135 L255 142 L226 157 C215 161 208 169 197 175 C192 180 181 183 174 187 C162 190 156 196 148 201 C143 207 130 210 132 218 C132 222 145 234 148 234 C150 236 150 237 154 237 L161 247 C172 254 180 259 190 268 C197 270 207 280 219 282 C222 285 223 286 225 286 C235 295 237 303 249 309 C261 314 263 323 277 328 C278 330 279 330 281 331 L281 333 C283 334 283 335 283 337 L292 341 L292 344 L295 344 C297 346 297 347 301 347 L301 351 C302 351 304 352 305 352 C305 353 307 354 311 355 C312 356 313 357 313 358 C315 364 322 366 325 368 C325 369 325 372 328 372 L328 376 C329 376 329 376 328 377 C336 377 337 379 337 381 L338 381 C340 384 340 387 341 389 L351 389 C351 390 351 391 352 392 L350 392 C352 394 351 398 354 399 C356 401 359 402 359 406 C367 408 366 412 367 414 C365 420 368 428 365 434 C358 435 359 439 356 440 C355 442 355 446 352 447 C350 450 349 452 340 453 C339 453 339 453 339 454 C338 455 337 455 337 455 C337 455 336 456 336 458 C335 460 330 461 328 461 C325 464 318 462 315 464 C307 464 302 463 297 464 C295 465 294 465 292 464 C290 463 288 463 288 461 C285 460 285 455 283 455 L279 453 C277 453 275 452 275 450 C263 449 269 443 263 441 L263 440 L258 438 C255 435 252 434 251 430 L249 430 C249 425 241 427 242 422 L241 422 C239 422 239 420 239 420 C237 420 237 419 237 419 L235 419 L235 418 C235 418 233 418 233 417 C219 407 208 395 195 384 C190 377 176 372 164 365 L150 354 C148 350 143 345 138 343 C136 342 135 340 135 339 L112 325 C106 322 99 321 95 315 C95 314 95 308 93 310 L93 311 L83 303 C80 299 72 298 71 295 L71 292 L69 292 C65 291 65 290 64 290 L63 289 L57 282 C52 282 51 281 50 281 C50 279 49 278 48 278 C47 277 46 275 43 275 C43 273 38 271 36 271 C36 269 35 268 32 268 C32 266 31 265 29 265 L29 262 C28 260 22 260 21 260 C21 259 21 257 20 255 C19 256 19 255 17 255 L13 251 L13 246 C11 246 9 245 9 244 C4 243 4 238 3 236 C4 235 3 235 3 234 C-1 231 2 225 -1 222 C2 219 2 214 -1 211 C2 208 -2 202 4 200 C13 186 33 177 48 166 C63 156 86 150 104 141 C124 133 143 121 161 110 L178 95 C192 81 213 71 231 59 L247 47 C251 45 269 40 269 38 C270 35 275 32 278 31 L278 33 C279 33 285 31 286 28 C292 20 301 16 313 15 L315 15 L315 14 C327 9 338 2 354 4 L355 4 C359 5 368 6 372 4 C374 5 376 5 378 4 C383 4 384 5 385 6 C390 13 389 18 385 24 L385 26 Z " />
<glyph glyph-name="equal" unicode="&#x3d;" horiz-adv-x="290" d="M275 149 L272 152 C262 159 252 170 238 172 L235 172 C232 173 230 176 227 177 L213 177 C209 175 205 175 201 177 L190 177 C185 177 181 180 175 179 C169 179 164 177 158 176 C150 175 139 172 131 172 C124 172 119 174 112 174 L104 174 C99 171 94 170 89 169 L82 169 C78 167 74 168 70 168 L66 168 C65 169 64 169 63 169 L58 169 L49 167 C47 167 44 167 42 166 C35 165 27 162 19 163 L16 163 C15 162 14 161 14 160 L14 157 L16 153 C16 152 17 151 17 150 L19 147 C20 146 20 145 21 145 L24 142 C24 141 25 140 25 140 C26 139 26 138 27 138 L29 136 C31 135 34 135 33 134 L40 128 L42 128 C43 127 43 126 44 126 L47 124 C47 124 48 123 49 123 L51 121 L56 117 C57 117 58 116 59 116 C62 116 65 115 68 115 L71 115 C85 116 98 114 111 118 C112 118 114 119 115 119 L148 121 C151 121 154 121 157 122 C161 123 166 123 170 123 C172 123 174 123 176 124 C184 126 192 125 201 126 C203 126 205 126 206 127 L217 129 L222 129 C225 131 229 128 233 129 L236 131 C237 133 237 130 238 130 L242 130 C249 129 256 134 263 134 C265 134 266 135 267 135 C270 136 273 136 276 138 C278 140 278 142 277 145 C277 146 276 147 275 149 L275 149 Z M12 229 L17 224 L17 223 C18 223 18 222 19 221 C19 220 20 219 21 219 C22 218 23 217 25 217 C25 216 26 216 27 215 C27 215 28 214 29 214 L31 212 C32 211 33 210 34 210 C34 209 35 209 36 208 C37 208 38 207 39 206 C40 206 40 206 40 205 C41 205 42 204 43 204 C43 203 44 202 45 202 C47 201 49 200 51 200 C53 200 55 200 57 201 C73 202 90 201 107 201 C110 201 113 201 116 202 L120 202 C121 203 121 203 122 203 L132 205 C136 205 141 203 146 204 C148 204 150 204 152 205 C155 206 158 207 161 206 L166 206 C168 207 171 207 174 207 L179 207 C180 207 181 208 182 208 C183 208 184 209 185 210 L186 210 C191 212 196 210 200 210 C202 210 203 210 204 211 C205 213 207 213 209 211 L212 211 C220 212 227 211 235 212 C236 212 237 212 239 213 C241 213 243 214 245 215 C246 216 247 216 248 216 C249 217 251 218 252 218 L255 221 C259 226 259 232 255 238 L252 245 C250 247 247 248 245 249 L241 251 L238 251 C236 251 234 252 233 253 C227 256 221 257 216 259 C215 260 213 260 212 260 L205 260 C204 260 203 259 202 259 C192 258 183 258 174 259 C173 259 172 260 172 260 L170 260 C169 260 168 260 166 259 C161 258 156 259 150 260 C149 260 148 259 147 259 C130 259 114 255 98 256 L94 256 C86 254 79 253 72 253 C71 254 69 254 68 253 L56 253 C48 250 38 251 29 251 L26 251 C19 250 12 251 7 245 C6 244 6 242 6 241 L8 237 C8 236 9 235 9 234 C10 233 11 232 11 231 C12 230 12 229 12 229 L12 229 Z " />
<glyph glyph-name="greater" unicode="&#x3e;" horiz-adv-x="402" d="M3 24 C-1 18 -2 13 3 6 C4 5 5 4 10 4 C12 5 14 5 16 4 C20 6 29 5 33 4 L34 4 C50 2 61 9 73 14 L73 15 L75 15 C87 16 96 20 102 28 C103 31 109 33 110 33 L110 31 C113 32 118 35 119 38 C119 40 137 45 141 47 L157 59 C175 71 196 81 210 95 L227 110 C245 121 264 133 284 141 C302 150 325 156 340 166 C355 177 375 186 384 200 C390 202 386 208 389 211 C386 214 386 219 389 222 C386 225 389 231 385 234 C385 235 384 235 385 236 C384 238 384 243 379 244 C379 245 377 246 375 246 L375 251 L371 255 C369 255 369 256 368 255 C367 257 367 259 367 260 C366 260 360 260 359 262 L359 265 C357 265 356 266 356 268 C353 268 352 269 352 271 C350 271 345 273 345 275 C342 275 341 277 340 278 C339 278 338 279 338 281 C337 281 336 282 331 282 L325 289 L324 290 C323 290 323 291 319 292 L317 292 L317 295 C316 298 308 299 305 303 L295 311 L295 310 C293 308 293 314 293 315 C289 321 282 322 276 325 L253 339 C253 340 252 342 250 343 C245 345 240 350 238 354 L224 365 C212 372 198 377 193 384 C180 395 169 407 155 417 C155 418 153 418 153 418 L153 419 L151 419 C151 419 151 420 149 420 C149 420 149 422 147 422 L146 422 C147 427 139 425 139 430 L137 430 C136 434 133 435 130 438 L125 440 L125 441 C119 443 125 449 113 450 C113 452 111 453 109 453 L105 455 C103 455 103 460 100 461 C100 463 98 463 96 464 C94 465 93 465 91 464 C86 463 81 464 73 464 C70 462 63 464 60 461 C58 461 53 460 52 458 C52 456 51 455 51 455 C51 455 50 455 49 454 C49 453 49 453 48 453 C39 452 38 450 36 447 C33 446 33 442 32 440 C29 439 30 435 23 434 C20 428 23 420 21 414 C22 412 21 408 29 406 C29 402 32 401 34 399 C37 398 36 394 38 392 L36 392 C37 391 37 390 37 389 L47 389 C48 387 48 384 50 381 L51 381 C51 379 52 377 60 377 C59 376 59 376 60 376 L60 372 C63 372 63 369 63 368 C66 366 73 364 75 358 C75 357 76 356 77 355 C81 354 83 353 83 352 C84 352 86 351 87 351 L87 347 C91 347 91 346 93 344 L96 344 L96 341 L105 337 C105 335 105 334 107 333 L107 331 C109 330 110 330 111 328 C125 323 127 314 139 309 C151 303 153 295 163 286 C165 286 166 285 169 282 C181 280 191 270 198 268 C208 259 216 254 227 247 L234 237 C238 237 238 236 240 234 C243 234 256 222 256 218 C258 210 245 207 240 201 C232 196 226 190 214 187 C207 183 196 180 191 175 C180 169 173 161 162 157 L133 142 L120 135 C117 133 111 132 110 126 C102 125 100 117 96 113 C94 112 93 110 93 110 L91 105 L88 105 C76 105 64 90 53 86 C39 77 34 66 22 56 C21 55 16 48 14 48 C6 47 10 43 6 40 C3 37 5 31 3 26 L3 24 Z " />
<glyph glyph-name="question" unicode="&#x3f;" horiz-adv-x="324" d="M280 310 L283 310 C283 312 283 315 285 317 C288 319 288 323 288 326 C290 325 291 327 293 329 C295 330 295 336 296 340 L294 340 C296 341 296 346 296 349 C305 353 305 357 305 363 C305 364 306 368 308 371 L308 382 C309 389 308 394 308 401 C306 409 308 417 306 427 C306 431 305 436 304 442 C304 443 303 443 303 443 C303 444 301 446 301 447 C298 448 298 450 298 451 C298 454 298 456 296 458 L296 462 C294 462 293 465 293 469 C290 473 289 474 289 477 C288 481 285 484 285 486 C284 488 283 490 283 495 C279 497 279 503 276 505 C275 505 274 505 271 508 C271 509 271 511 269 511 L269 515 L265 522 C264 523 264 524 262 526 C262 527 260 530 258 530 L254 535 C252 535 249 535 248 538 C247 538 244 539 243 541 C240 542 237 546 234 550 C233 550 229 552 228 552 C228 553 223 553 223 554 C223 557 220 556 219 560 C217 562 212 560 209 564 L202 567 C199 567 199 567 198 568 C197 571 184 569 182 569 C174 569 171 571 166 571 C161 571 157 568 152 568 L131 568 C128 568 122 568 120 567 C117 567 107 569 107 568 C104 565 97 569 92 567 C92 565 91 565 89 567 C87 565 84 565 81 564 C80 561 79 561 76 560 L72 560 C71 556 67 554 64 554 C63 552 61 550 59 550 C59 549 55 548 54 548 C51 545 50 542 49 542 C48 539 46 538 45 538 C44 535 39 535 38 535 C38 531 36 531 34 531 C34 527 33 526 31 526 C30 523 28 523 26 523 C26 522 25 519 24 518 C23 515 21 511 20 511 L16 505 C16 504 16 503 13 501 C13 499 11 496 9 495 C9 489 9 486 7 482 L7 465 C5 461 5 451 7 447 L7 423 C9 420 9 416 10 412 L11 412 L11 406 C13 405 13 405 13 404 C13 401 14 401 16 398 C19 393 23 389 26 387 C28 384 30 383 31 382 C33 379 34 379 36 379 L36 376 C39 376 41 376 45 375 C48 375 50 375 50 370 C61 368 69 368 79 370 L79 374 L80 374 C82 374 86 371 87 375 C91 376 92 376 92 378 C95 389 95 397 92 405 C89 412 92 417 89 421 C86 427 87 431 85 435 C84 437 85 444 85 448 C87 450 86 456 87 456 L89 458 L89 459 C92 462 89 467 92 471 L92 477 C95 477 97 482 99 486 L99 484 C104 486 105 490 106 496 L109 499 C116 504 121 505 125 515 C126 512 126 515 128 515 L141 519 C152 524 162 523 173 523 L174 523 C179 522 182 522 183 519 C184 515 186 516 189 516 C191 511 196 512 196 511 C198 509 203 501 207 497 C209 490 216 486 217 478 C219 474 218 469 219 463 C220 458 222 450 222 444 C222 437 219 427 222 420 L223 418 C222 420 220 418 220 417 C222 416 220 416 220 414 C219 412 219 409 219 406 L218 406 L218 402 L217 402 C216 401 216 398 216 394 C216 394 214 394 214 391 C214 391 214 390 212 390 C212 389 211 387 211 384 C211 383 211 383 209 382 C208 376 204 374 203 368 L204 367 L203 364 C202 364 199 363 199 361 C197 360 198 356 196 355 L196 351 C194 351 194 349 194 349 C194 349 194 348 193 346 C193 346 191 349 189 349 L189 348 C187 348 186 344 184 344 L184 340 L183 340 C183 336 182 334 179 334 C179 330 177 329 174 329 L173 327 L172 327 C172 327 171 326 169 326 L166 321 C162 319 162 319 162 317 C161 317 160 315 160 315 C157 315 156 315 155 314 L156 314 C156 312 155 311 155 310 L152 310 L152 306 L147 306 C146 303 145 300 142 300 C141 299 140 298 138 298 L133 293 L128 288 C128 285 126 285 125 285 L122 284 L120 281 C118 280 117 280 117 278 C117 276 116 276 114 276 C112 276 111 274 109 273 C107 272 106 270 106 269 C106 268 105 266 104 266 C104 264 101 264 101 261 C101 261 100 261 100 259 C97 258 97 255 95 254 C94 253 95 246 94 243 C91 242 91 239 89 235 C89 231 89 230 87 230 L87 219 C89 205 82 187 94 172 C100 148 117 134 141 140 C142 143 146 141 147 145 C150 147 148 151 152 152 L155 162 C157 168 160 177 160 185 C161 196 168 205 174 212 C183 219 189 230 198 234 C198 236 199 239 203 239 C204 242 208 245 212 245 C212 246 214 249 214 249 C217 249 218 249 220 250 L224 255 C228 254 229 254 230 257 C233 259 237 258 240 259 C242 264 243 266 247 269 L265 287 C269 289 269 293 271 296 C275 302 279 302 280 310 L280 310 Z M179 58 L179 61 C177 65 177 69 174 72 L172 75 C171 79 169 79 168 80 C167 79 166 79 166 80 C162 83 160 81 158 83 L155 83 C150 87 145 83 141 87 C136 87 133 88 130 91 C122 92 117 88 111 88 C107 88 106 87 106 86 L104 75 L104 77 C101 73 101 68 100 68 C97 65 97 61 100 60 L100 58 L99 57 C97 53 97 50 97 46 C97 46 97 45 99 42 C97 38 95 34 95 33 C97 33 100 34 101 34 C106 28 111 22 117 18 C130 0 140 -1 162 7 C162 12 179 9 173 23 L172 22 C171 24 172 27 172 30 L172 31 C173 37 173 42 179 45 L179 46 C182 52 182 57 179 58 L179 58 Z " />
<glyph glyph-name="at" unicode="&#x40;" horiz-adv-x="447" d="M411 149 C408 147 405 149 402 148 C401 148 399 141 398 140 C398 139 397 138 396 137 L396 136 C378 114 333 74 309 68 C308 67 307 67 306 67 L301 64 C300 64 299 64 298 63 C282 57 267 51 251 46 C250 46 249 45 248 45 C242 43 236 43 230 42 C200 38 172 42 147 64 C122 86 94 108 76 138 C62 162 55 196 56 224 C56 234 60 242 62 252 C65 267 65 281 73 295 C86 320 108 340 132 356 C162 377 198 398 234 404 C250 406 265 403 280 404 C299 404 317 399 333 388 L339 384 L343 378 C347 375 350 371 353 367 C362 355 369 343 370 327 C372 284 378 286 371 242 C368 222 360 205 348 189 C344 184 330 186 324 188 C316 191 316 202 316 210 C315 228 315 245 317 263 C318 278 317 293 305 304 C293 316 286 302 280 287 L274 277 C260 255 246 239 235 215 C224 194 201 187 179 180 C164 176 153 185 152 201 C151 219 164 234 173 249 C185 268 193 275 211 287 C226 296 248 314 265 320 C273 323 284 316 292 317 C308 321 315 337 304 349 C295 358 284 365 271 366 C234 370 208 353 175 338 C143 325 119 286 103 257 L101 253 C95 234 89 232 94 212 C96 202 99 192 104 183 C108 174 115 167 120 159 C128 143 140 131 157 125 C159 125 160 125 161 124 C162 124 164 123 165 122 C166 122 167 122 168 121 L178 118 L185 118 C189 118 182 119 187 119 C189 119 191 120 194 120 C197 121 201 122 204 122 C206 122 207 122 209 123 C212 124 215 125 218 125 C219 126 220 126 221 126 C221 126 222 127 223 127 C225 128 226 128 227 128 C228 129 230 130 231 130 C232 131 233 131 233 131 C235 132 236 133 237 133 L240 135 L248 139 L250 141 L254 147 C258 152 279 169 283 174 C285 178 287 173 291 170 C294 132 312 129 334 131 C339 130 354 136 361 139 C364 140 367 145 370 146 L373 148 C374 148 375 149 375 149 C376 150 377 151 378 151 L381 154 C383 155 384 156 384 157 C384 159 386 160 388 162 C389 164 391 165 393 168 C392 168 392 169 393 169 L395 173 C396 173 397 174 398 174 L401 177 C401 177 401 178 402 178 C402 179 403 179 403 180 L405 182 L409 187 C410 188 410 188 410 189 L412 198 C412 199 413 200 413 201 C413 203 414 205 415 207 C415 209 416 211 416 213 C416 214 417 216 417 217 L417 220 C417 223 416 225 418 227 L418 232 C421 237 421 242 422 247 C422 248 422 249 423 250 C424 256 421 262 422 268 C423 273 425 279 425 284 C425 295 424 305 422 316 C421 322 420 334 416 338 C414 339 415 341 415 342 C415 343 415 345 414 345 C413 347 412 347 411 348 C410 349 410 350 410 350 C410 351 409 352 409 353 C408 354 407 354 408 355 C407 357 407 358 405 358 C405 359 404 360 403 361 C402 362 401 363 400 363 C400 364 399 365 398 366 C397 367 396 368 396 369 C394 370 395 373 392 373 C392 374 391 375 390 376 C390 377 389 378 388 379 C387 379 387 379 388 380 C387 381 387 382 387 383 C386 384 386 384 386 385 L384 389 C384 390 383 391 382 391 C382 392 381 393 380 395 C379 395 379 395 378 396 L376 398 C376 399 375 399 374 400 L364 408 L362 410 L359 416 C359 417 358 417 358 418 L356 421 C342 436 322 443 303 448 C301 448 300 448 299 449 C296 449 293 447 290 449 L280 451 C278 451 277 452 275 452 C273 452 270 452 268 453 L265 453 C262 453 259 454 257 454 C254 455 251 455 248 455 L238 455 C237 454 236 454 235 454 C232 453 229 452 226 452 C225 452 223 452 222 451 C220 451 218 450 216 449 C212 449 209 448 207 446 C205 445 203 444 201 444 L198 442 C192 438 184 438 178 433 C177 432 176 432 176 431 C174 430 173 429 172 429 C171 428 170 428 170 427 C169 427 167 426 166 426 C165 425 165 425 164 425 C163 424 162 424 162 424 C161 423 160 423 159 423 C158 422 156 422 154 421 C152 421 150 420 148 419 L142 416 C141 416 141 415 140 415 L137 413 L136 412 C135 412 135 411 134 411 L131 409 C130 409 129 408 128 407 C127 406 126 406 125 406 C124 405 123 404 122 404 C121 403 120 403 120 402 C119 402 118 401 118 401 C117 400 116 400 116 399 C115 399 114 399 114 398 C113 398 112 397 112 397 L108 395 C108 395 107 395 106 394 C106 393 105 393 104 392 L103 391 C103 391 102 390 101 390 C101 389 100 389 99 388 C98 387 97 386 96 386 L93 384 L87 378 C86 377 85 377 85 376 C84 375 83 374 81 374 C81 373 80 373 79 372 C78 371 77 371 77 370 C76 369 75 369 75 368 L71 365 C71 364 70 364 69 363 C68 362 67 360 65 359 C65 358 65 358 64 358 C64 357 63 356 62 355 C62 355 61 354 61 353 L59 350 C58 349 58 348 57 348 L54 345 C54 345 54 344 53 344 L51 342 L51 341 C50 341 49 340 49 339 L47 337 C47 336 46 335 46 335 L44 332 L42 328 C41 327 41 327 41 326 L39 322 L38 321 C38 321 37 320 37 319 C36 319 36 318 35 317 C35 316 34 315 34 314 L33 313 C32 313 32 312 31 311 C31 311 30 310 30 309 L28 306 C28 305 28 305 27 304 C27 303 26 302 26 301 C26 301 25 300 25 299 L25 295 C25 294 25 294 24 293 L22 287 L22 285 C17 280 20 273 17 267 C14 266 16 262 14 260 C11 256 15 250 10 246 C10 245 9 244 9 243 C8 235 10 227 8 219 C7 217 7 216 7 215 C6 213 6 211 6 210 L6 193 C8 186 9 180 9 173 C9 171 9 169 10 167 C12 159 17 152 18 143 C18 142 18 141 19 140 L22 134 L24 131 L33 113 L35 111 C36 110 37 108 37 107 C38 107 38 106 39 105 C39 104 40 103 40 102 C41 101 41 100 42 100 C42 99 43 98 43 98 L46 95 C46 95 47 94 47 93 C48 93 49 91 50 91 C50 90 51 89 52 88 C53 88 53 87 53 86 L54 85 C54 84 55 84 55 83 C56 83 56 82 57 81 C57 81 57 80 58 79 C58 78 59 78 59 77 L67 69 C68 68 68 67 69 67 L71 65 C71 65 71 64 72 64 C72 63 73 63 74 62 C74 62 74 61 75 61 C75 60 76 60 77 59 C77 58 78 57 79 57 C83 51 90 48 95 43 C95 42 96 42 97 41 L102 38 C103 37 103 37 104 37 C104 36 105 36 106 35 C107 35 108 34 108 34 C110 33 111 32 112 32 C112 31 113 30 114 30 L119 27 C119 26 119 26 120 26 C120 25 121 25 122 24 C123 24 124 23 125 23 L134 21 L135 21 L135 20 C138 17 142 17 146 15 C147 13 149 14 151 13 C151 12 152 11 153 11 L159 9 C160 9 160 8 161 8 C163 7 165 6 167 6 C168 5 170 5 171 5 C174 5 176 7 179 5 L181 5 C185 1 190 -1 196 2 L199 2 C205 -1 212 -2 219 1 C220 0 221 0 221 0 C224 -2 226 -2 229 0 L233 0 C236 2 239 0 241 2 C245 3 248 3 251 3 L257 5 L257 6 L258 5 C262 7 267 5 272 7 L272 8 L273 8 L279 10 L281 10 C284 12 287 10 289 13 L291 13 C295 15 301 14 304 18 L307 20 L308 21 L309 21 C311 21 313 21 314 23 C315 23 316 24 317 25 L318 26 L319 26 C320 26 321 27 322 27 L323 28 L324 28 C326 29 328 29 330 31 C333 31 335 34 337 35 L338 36 L339 36 L346 38 C347 38 348 39 348 39 C350 40 351 41 352 41 C353 41 354 42 354 42 L360 44 C361 44 361 45 362 45 L367 48 C368 49 369 49 369 50 L372 52 L374 54 C390 64 418 111 420 129 C420 130 421 131 421 133 C424 141 424 148 413 149 C412 148 412 148 411 149 L411 149 Z " />
<glyph glyph-name="A" unicode="A" horiz-adv-x="376" d="M349 279 C345 280 343 280 341 279 C337 277 336 273 330 271 C323 269 320 271 313 272 C313 281 312 291 312 300 L312 305 C310 335 307 365 305 394 C304 409 302 424 300 438 C299 453 296 468 294 483 C294 486 293 489 294 492 C298 502 294 509 288 517 C283 525 277 532 267 533 C255 536 243 538 230 540 L212 543 C206 532 200 522 194 511 L167 454 C150 417 139 378 127 339 C118 312 113 272 95 250 C80 233 61 221 48 203 C36 186 26 165 17 146 C0 107 -11 58 21 24 C49 -7 93 -16 126 8 C157 29 152 76 159 111 C163 133 167 154 172 176 C173 180 174 184 176 187 C191 205 212 209 233 213 C237 166 232 104 253 60 C268 26 312 -4 346 0 C373 3 357 22 349 40 C335 71 330 99 329 133 C328 153 324 173 322 193 L319 226 C328 228 337 232 344 241 C347 245 358 276 349 279 L349 279 Z M236 267 L186 267 C200 326 212 384 246 432 C251 414 243 294 236 267 L236 267 Z M62 48 C47 60 48 98 56 114 C67 134 79 160 98 172 C101 153 94 23 62 48 L62 48 Z " />
<glyph glyph-name="B" unicode="B" horiz-adv-x="308" d="M338 253 C325 241 313 230 301 219 C289 208 279 195 264 185 C263 193 262 199 262 205 C260 237 247 264 223 285 C216 291 209 297 201 302 C191 310 191 311 197 322 C209 347 212 373 210 400 C210 405 209 409 208 413 C202 436 191 455 175 473 C158 491 136 505 112 508 C92 511 68 506 49 501 C40 499 30 493 21 489 C12 485 2 479 -5 473 C-19 461 -30 445 -37 428 C-44 413 -47 401 -45 383 C-43 367 -27 358 -14 370 C-8 375 -3 382 2 389 C2 386 2 383 2 380 C3 354 3 327 3 301 C2 250 2 199 6 147 C7 137 8 128 8 118 C8 96 7 74 6 51 C6 35 30 22 42 14 C57 3 79 -5 98 -8 C145 -14 186 21 210 62 C217 74 226 85 231 98 C237 113 246 122 260 127 C273 132 286 136 297 144 C313 156 327 172 336 192 C343 207 344 223 344 240 C344 244 340 247 338 253 L338 253 L338 253 Z M68 360 L68 360 C67 371 65 382 64 394 C64 398 64 403 64 407 C63 415 58 428 65 434 C91 458 130 466 153 424 C166 399 168 375 155 351 C151 343 147 336 144 328 C141 321 136 318 130 318 C111 318 94 314 77 307 C76 307 75 307 71 306 C74 307 68 356 68 360 L68 360 L68 360 Z M89 268 L89 268 C97 270 105 272 113 270 C108 257 97 248 78 238 C69 255 72 264 89 268 L89 268 L89 268 Z M94 65 L94 65 C95 76 103 80 110 84 C121 91 133 95 145 100 C158 105 171 109 187 114 C174 72 132 54 94 65 L94 65 L94 65 Z M211 168 L211 168 C188 161 167 157 146 150 C125 144 105 136 84 128 C83 131 81 135 81 139 C80 153 80 166 79 180 C78 199 77 198 95 206 C112 215 130 223 145 237 C148 240 152 244 155 248 C163 262 179 263 190 252 C204 238 213 221 214 200 C215 189 212 178 211 168 L211 168 Z " />
<glyph glyph-name="C" unicode="C" horiz-adv-x="284" d="M240 176 C235 169 231 162 228 154 C218 132 207 111 192 92 C179 76 173 57 155 44 C134 28 110 34 101 62 C97 74 92 87 90 100 C87 114 87 130 85 144 C82 163 83 179 83 197 C84 217 85 237 87 257 C90 291 95 324 100 358 C102 370 105 382 111 392 C120 407 140 430 158 427 C174 425 176 399 173 384 C167 361 155 378 143 379 C129 379 122 355 124 342 C126 316 149 315 166 317 C188 320 206 347 212 371 C213 376 215 381 217 386 C223 403 225 420 217 436 C208 455 196 470 179 477 C160 485 142 488 121 485 C104 483 74 474 63 460 C59 456 56 452 53 447 C48 438 43 428 38 419 C34 412 30 406 28 399 C14 352 5 304 2 254 C-1 201 0 149 8 97 C13 60 28 31 54 12 C58 9 62 5 66 2 C88 -14 128 -29 154 -28 C179 -27 189 -16 204 1 C218 17 234 26 244 46 C250 58 256 70 262 81 C273 105 280 130 288 154 C296 179 306 200 309 226 C310 234 316 246 307 252 C300 257 291 251 285 246 C276 237 269 221 263 210 C255 198 247 187 240 176 L240 176 Z " />
<glyph glyph-name="D" unicode="D" horiz-adv-x="340" d="M340 245 C320 212 299 177 257 169 C260 181 261 193 261 205 C261 220 264 236 261 251 C260 261 257 270 254 279 C240 326 210 372 178 407 C146 442 111 469 68 482 C42 490 13 489 -10 473 C-25 463 -50 449 -44 426 C-43 417 -37 409 -32 402 C-17 379 12 413 28 422 C42 432 60 434 75 428 C107 417 131 391 150 360 C186 303 192 238 183 170 C181 161 177 155 168 152 C151 145 134 137 116 130 C103 124 91 118 77 111 C76 116 75 120 75 124 C72 163 70 201 68 240 C66 269 65 299 66 328 C66 343 66 358 67 373 C67 377 70 382 70 385 C70 390 65 395 61 398 C48 411 23 415 11 397 C7 390 10 376 10 367 C12 342 12 318 11 292 C10 260 9 228 9 197 C9 142 4 88 9 33 C9 25 11 19 17 15 C25 9 32 3 39 -3 L69 -27 C71 -29 75 -29 78 -29 C96 -28 113 -29 130 -19 C147 -9 162 1 176 14 C193 30 209 46 222 67 C230 79 237 92 242 106 C243 106 243 106 244 106 C251 107 258 108 265 110 C313 122 354 190 363 238 C368 261 356 274 340 245 L340 245 Z M138 70 C130 62 122 55 114 47 C106 39 96 38 86 39 C88 64 122 93 149 92 C149 82 144 75 138 70 L138 70 Z " />
<glyph glyph-name="E" unicode="E" horiz-adv-x="291" d="M136 356 C136 360 135 363 135 367 C132 395 142 423 162 439 C173 449 195 458 209 451 C218 446 222 432 230 425 C240 416 252 433 253 445 C253 454 251 462 249 470 C243 492 226 510 206 513 C190 515 169 516 152 513 C145 512 137 507 131 504 C81 481 45 424 62 360 C68 341 68 332 79 317 C42 279 5 273 0 152 C-5 90 12 44 43 10 C54 -3 69 -13 84 -22 C94 -27 107 -30 118 -32 C141 -37 167 -30 190 -22 C219 -11 249 22 269 48 C283 66 296 85 301 109 C304 125 321 155 310 169 C302 180 284 148 279 142 C256 114 234 80 207 58 C192 45 179 36 161 30 C152 27 140 28 131 28 C122 29 112 30 104 37 C80 57 78 95 78 126 C78 160 97 184 112 210 C125 233 150 246 170 259 C184 267 195 265 207 282 C218 297 214 319 210 335 C202 348 180 330 168 331 C154 333 141 337 136 356 L136 356 Z " />
<glyph glyph-name="F" unicode="F" horiz-adv-x="245" d="M109 311 C107 340 111 367 125 392 C129 399 131 406 136 412 C143 422 157 434 170 428 C177 425 187 412 188 404 C190 390 192 374 191 360 C189 351 185 341 188 331 C191 323 203 319 210 324 C219 329 224 338 230 346 C238 358 243 376 243 390 C243 407 245 426 236 440 C228 453 217 463 205 471 C195 478 180 481 169 482 C160 484 149 482 140 480 C44 461 45 313 45 234 C45 218 44 201 44 184 C19 171 -7 165 6 130 C13 110 36 127 49 125 C46 100 51 73 52 47 C52 24 55 1 51 -22 C49 -36 51 -50 52 -64 C52 -70 55 -75 61 -77 C64 -79 67 -79 70 -81 C80 -86 90 -82 97 -75 C105 -69 111 -60 117 -52 C119 -49 120 -46 122 -43 C128 -22 130 0 132 22 C133 40 131 59 130 78 C130 85 128 91 127 98 C126 105 126 112 125 119 C124 124 121 133 123 139 C126 143 134 146 140 147 C152 150 161 154 172 159 C181 162 189 162 198 165 C212 171 234 180 231 199 C229 213 220 215 209 213 C196 210 184 207 171 205 C159 203 146 203 134 203 C126 203 119 200 115 207 C113 212 115 220 114 225 C113 252 111 279 109 305 C109 307 109 309 109 311 L109 311 Z " />
<glyph glyph-name="G" unicode="G" horiz-adv-x="275" d="M250 260 C220 277 205 251 193 226 C187 214 162 160 156 148 C146 127 120 107 96 120 C87 125 79 139 73 147 C52 179 79 263 86 300 C91 325 101 347 114 369 C123 383 160 446 181 415 C191 400 179 380 191 366 C202 351 219 353 231 365 C246 379 251 399 249 419 C248 433 244 449 231 457 C208 471 184 474 158 469 C144 465 125 453 113 445 C96 434 82 418 68 403 C46 381 26 352 14 324 C-6 274 -25 173 -8 125 C-3 110 9 87 22 78 C34 70 47 63 62 62 C81 60 105 67 123 74 C134 78 146 93 157 94 C164 51 165 -55 123 -51 C106 -51 112 -31 100 -23 C87 -14 65 -23 57 -36 C40 -64 67 -96 88 -110 C115 -128 149 -129 176 -113 C206 -94 212 -71 225 -38 C239 -4 237 32 240 68 C242 97 240 130 246 159 C252 185 264 210 265 237 C266 247 259 255 250 260 L250 260 Z " />
<glyph glyph-name="H" unicode="H" horiz-adv-x="370" d="M324 26 C321 34 319 42 318 50 C315 66 315 81 317 99 C319 118 321 138 319 158 C319 171 322 184 321 197 C319 218 323 239 321 259 C320 292 326 325 323 358 C318 404 338 458 315 501 C301 526 274 524 251 519 C231 515 239 493 239 477 C240 451 242 423 238 398 C233 372 234 333 218 311 C209 299 188 293 175 288 C158 280 140 276 123 269 L121 269 C118 289 121 309 123 330 C125 359 123 387 123 416 C123 440 122 464 123 488 C124 499 124 508 119 518 C111 534 92 541 77 531 C70 527 64 520 56 515 C48 509 38 501 33 491 C26 477 41 457 43 443 C50 406 42 367 42 330 C42 297 38 266 34 234 C28 231 21 228 15 225 C-6 215 -5 201 -6 176 C-6 149 7 146 28 156 L29 156 C28 136 27 116 25 97 C23 84 21 72 19 59 C17 46 18 34 18 21 C18 6 17 4 31 2 C51 0 72 3 86 19 C98 31 105 45 108 63 C111 79 115 96 116 113 C117 125 117 137 119 150 C121 162 118 174 120 186 C122 195 130 199 138 202 C154 209 170 216 185 225 C200 234 218 248 236 245 C247 243 241 148 241 139 C241 103 233 54 245 20 C251 3 254 -14 269 -25 C281 -33 310 -42 322 -30 C334 -17 328 12 324 26 L324 26 Z " />
<glyph glyph-name="I" unicode="I" horiz-adv-x="185" d="M116 36 C118 59 121 81 122 103 C122 130 121 157 120 184 C119 214 118 243 118 273 C118 304 119 335 118 367 C118 390 118 411 121 434 C123 450 120 464 134 473 C144 480 160 479 167 489 C173 497 176 517 172 526 C169 532 165 535 159 534 C149 532 138 531 128 529 C118 526 108 524 97 521 C93 520 88 519 83 517 C70 512 57 505 44 500 C33 496 21 494 9 491 C6 490 3 489 -1 488 C5 478 16 450 25 445 C29 444 59 453 59 449 C60 437 59 427 58 415 C55 375 52 336 50 297 C48 266 46 234 45 203 C44 189 47 174 46 160 C45 136 45 112 47 87 C47 73 45 59 44 44 C44 42 42 40 41 38 C25 35 8 38 -6 26 C2 14 11 6 21 -2 C33 -12 46 -6 60 -5 C72 -4 83 -4 95 -4 C115 -3 153 -6 161 23 C166 42 154 39 141 37 C138 36 115 34 116 36 L116 36 Z " />
<glyph glyph-name="J" unicode="J" horiz-adv-x="277" d="M121 449 C122 446 123 443 123 440 C122 431 121 422 121 413 C124 387 126 362 129 336 C132 310 136 284 139 258 C142 229 145 201 149 172 C153 137 145 98 126 67 C106 36 71 21 49 61 C44 70 45 81 35 86 C19 92 3 73 -2 61 C-16 30 2 -1 26 -21 C40 -34 60 -42 80 -41 C90 -40 99 -41 109 -37 C119 -33 127 -28 136 -23 C148 -15 158 -5 167 6 C200 48 209 108 210 159 C210 193 208 226 207 260 C206 267 205 274 204 282 C203 307 202 333 200 359 C198 389 202 418 203 448 C203 458 209 464 220 466 C235 469 250 474 261 486 C265 491 269 495 268 502 C266 509 260 508 255 510 C254 510 253 510 252 510 C229 515 205 512 182 508 C155 504 129 497 101 499 C98 499 94 500 90 500 C70 500 61 491 63 472 C63 468 64 463 64 459 C74 455 83 451 92 448 C95 447 99 447 102 447 C108 448 114 449 121 449 L121 449 Z " />
<glyph glyph-name="K" unicode="K" horiz-adv-x="354" d="M2 532 C5 523 8 514 9 505 C10 497 10 488 9 479 C8 449 6 419 4 389 C3 366 3 343 2 320 C1 292 -1 264 0 236 C0 201 4 165 6 129 C7 109 7 89 9 70 C10 57 11 44 15 32 C19 19 28 9 43 3 C53 0 60 2 66 10 C80 30 87 52 90 75 C93 95 99 115 95 135 C95 136 96 138 96 139 C97 158 98 176 100 195 C101 200 102 206 105 211 C114 223 125 235 135 248 C138 246 139 244 140 243 C142 240 144 237 146 234 C168 198 181 159 195 121 C206 92 219 64 235 37 C247 15 252 -10 269 -29 C279 -39 300 -37 313 -33 C323 -29 337 -17 341 -5 C347 12 335 26 329 40 C322 56 316 70 308 85 C278 141 255 203 222 257 C213 273 202 287 193 302 C182 320 193 337 203 352 C221 379 239 407 257 434 C268 449 279 465 290 480 C296 490 304 503 297 516 C292 525 282 541 271 541 C264 542 259 541 253 537 C245 531 238 523 232 516 C226 510 219 504 215 498 C208 488 201 480 194 471 C178 449 164 426 151 403 C148 398 103 322 98 352 C96 361 97 369 96 378 C95 400 95 423 94 445 C93 455 92 464 90 473 C88 482 84 490 81 499 C76 512 66 522 52 527 C42 531 32 533 22 536 C14 539 8 536 2 532 L2 532 Z " />
<glyph glyph-name="L" unicode="L" horiz-adv-x="232" d="M130 63 C114 64 102 65 99 69 C95 74 98 92 98 98 C98 119 98 139 98 160 C98 202 98 244 98 287 C98 350 90 410 85 473 C84 492 83 521 66 534 C58 540 10 545 10 529 C6 456 -1 382 -3 308 C-4 262 -4 216 -4 169 C-4 126 -2 82 -1 38 C-1 24 -7 9 3 -4 C11 -14 23 -17 34 -18 C56 -20 86 -17 106 -10 C127 -2 148 2 171 6 C187 9 225 -1 225 26 C225 50 218 56 195 60 C174 63 152 62 130 63 L130 63 Z " />
<glyph glyph-name="M" unicode="M" horiz-adv-x="348" d="M88 514 C64 526 -1 493 -1 461 C0 447 2 433 2 418 C2 397 1 375 1 354 C2 279 2 205 4 131 C5 102 10 74 13 45 C14 39 17 32 22 27 C37 10 56 0 81 3 C96 40 96 79 93 117 C91 137 88 156 90 176 C93 197 95 218 93 239 C92 264 89 289 92 313 C94 329 95 345 91 360 C91 363 91 366 91 369 C91 377 90 385 90 393 C90 396 90 398 91 401 C94 397 96 392 97 388 C105 353 110 317 120 283 C124 268 129 246 138 235 C147 225 164 223 175 219 C177 219 179 219 181 219 C191 219 194 223 195 233 C196 240 197 247 199 253 C206 277 214 301 221 325 C223 332 224 338 225 345 C227 341 227 338 227 335 C226 322 225 310 225 297 C224 263 225 230 224 196 C222 162 225 128 228 94 C232 57 238 21 244 -16 C246 -29 250 -41 255 -53 C258 -59 263 -66 268 -68 C281 -72 295 -74 309 -75 C324 -76 332 -67 332 -52 C333 -36 333 -19 329 -4 C322 21 321 46 320 72 C319 98 320 125 320 151 C320 160 320 170 320 179 C319 189 318 199 318 209 C317 223 318 238 317 252 C317 268 316 284 315 300 C314 327 312 354 311 381 C311 401 310 420 310 439 C310 462 311 484 311 506 C311 519 303 526 290 526 C288 526 285 525 283 526 C277 527 272 525 266 525 C260 524 254 525 249 520 C244 516 240 508 237 502 C233 495 229 489 226 482 C222 474 219 467 214 459 C208 450 203 439 198 429 C188 410 178 390 168 371 C166 366 164 361 160 353 C165 364 134 425 130 437 C122 457 108 502 89 513 C89 513 88 514 88 514 L88 514 Z " />
<glyph glyph-name="N" unicode="N" horiz-adv-x="315" d="M279 -36 C280 -33 280 -29 282 -27 C292 -17 290 -2 292 10 C296 27 295 46 295 64 C297 108 299 153 300 197 C300 224 299 251 299 277 C298 303 297 329 296 355 C296 375 296 396 297 416 C297 438 298 460 298 482 C298 496 296 511 293 525 C291 540 286 554 283 568 C280 582 272 591 257 592 C251 592 245 591 239 592 C216 593 200 573 198 554 C194 521 200 488 203 456 C204 444 206 432 206 421 C206 400 205 380 205 360 C206 312 207 264 208 216 C208 213 208 210 207 207 C200 217 194 226 190 236 C180 258 172 282 158 302 C150 313 145 325 139 337 C122 370 104 403 87 436 C84 441 82 447 80 452 C76 461 70 469 60 473 C43 479 26 481 9 475 C-5 471 -7 463 -2 450 C-2 448 -2 446 -1 444 C0 421 1 397 2 374 C3 355 2 336 2 317 C3 282 3 247 4 212 C4 188 4 164 5 140 C6 120 8 100 10 81 C12 63 14 46 17 29 C18 17 26 9 38 6 C53 2 68 -2 84 -4 C89 -5 96 -2 99 2 C105 11 112 21 110 34 C108 44 109 53 111 63 C112 70 111 78 111 85 C110 105 107 125 106 145 C106 178 104 210 99 242 C98 252 98 262 97 274 C110 246 121 221 132 195 C139 177 147 159 155 141 C162 127 170 114 177 100 C182 90 186 80 190 70 C199 45 208 20 218 -5 C227 -27 253 -40 279 -36 L279 -36 Z " />
<glyph glyph-name="O" unicode="O" horiz-adv-x="332" d="M355 383 C346 385 341 382 338 373 C332 354 320 340 306 327 C301 322 296 318 292 313 C288 309 285 304 281 301 C280 301 280 300 279 300 C280 302 280 304 280 306 C280 310 279 314 279 318 L279 343 C279 369 276 394 273 421 C272 429 271 437 267 444 C260 457 250 470 238 479 C226 487 213 493 199 493 L195 493 C189 492 186 491 180 492 C181 498 186 508 183 515 C178 526 156 525 147 525 C128 527 111 523 97 508 C90 500 84 492 77 484 C56 461 45 432 34 403 C26 382 18 360 15 339 C10 309 8 279 6 250 C3 197 5 145 14 93 C19 65 26 38 40 13 C49 -5 63 -19 84 -20 C100 -21 116 -20 131 -17 C154 -13 176 -5 193 15 C211 36 223 60 234 85 C239 97 242 110 245 123 C249 136 253 150 256 163 C260 177 261 191 265 205 C266 212 268 219 269 226 C272 227 274 228 277 229 C282 232 286 234 290 238 C294 242 297 247 301 250 C322 265 333 288 346 309 C350 314 352 320 353 326 C356 345 357 364 355 383 L355 383 Z M188 167 C179 133 172 94 157 63 C149 46 122 28 114 55 C107 83 101 112 96 140 C93 157 93 175 92 192 C91 203 90 214 89 224 L89 234 C90 251 91 269 92 286 C92 299 93 314 96 328 C95 322 98 317 99 312 C100 306 100 300 102 294 C105 280 112 267 119 255 C126 244 134 227 145 220 C153 216 164 213 173 210 C175 209 192 208 195 211 L196 211 C199 197 191 180 188 167 L188 167 Z M158 402 C162 415 177 441 194 431 C203 427 204 417 205 408 C206 399 208 390 210 381 C213 366 212 351 213 336 L213 334 C214 318 213 302 214 286 C214 282 213 278 212 275 C206 273 200 270 194 270 C193 270 193 269 193 269 C184 269 178 273 171 279 C155 294 150 310 150 333 C150 356 152 379 158 402 L158 402 Z " />
<glyph glyph-name="P" unicode="P" horiz-adv-x="288" d="M80 234 L80 234 C80 232 146 236 152 238 C182 248 211 265 235 289 C246 300 256 313 264 326 C288 366 283 423 261 463 C254 477 242 488 231 499 C187 538 135 552 78 548 C56 547 35 541 13 537 C-3 534 -19 530 -35 536 C-37 537 -39 536 -42 535 C-46 519 -42 505 -34 491 C-29 482 -22 480 -13 482 C3 485 12 478 13 462 C14 454 13 446 13 439 C12 411 10 383 9 354 C8 304 7 254 7 204 C7 150 1 96 6 42 C7 28 11 15 18 4 C26 -9 37 -13 50 -9 C55 -8 59 -6 63 -4 C76 1 81 10 82 24 C82 33 83 41 85 49 C88 60 89 70 86 80 C85 83 85 86 85 89 C86 106 87 123 84 140 C83 147 83 153 82 160 C81 184 81 207 80 234 L80 234 Z M109 482 C135 482 157 480 177 471 C190 466 198 454 204 442 C215 422 211 398 195 383 C169 358 128 337 93 333 C88 332 83 334 78 336 C73 338 71 343 72 349 C77 384 77 419 74 455 C73 457 73 459 73 462 C74 476 76 479 90 480 C97 480 105 481 109 482 L109 482 Z " />
<glyph glyph-name="Q" unicode="Q" horiz-adv-x="333" d="M327 -4 C332 31 297 24 279 33 C253 45 229 69 252 101 C285 148 299 212 302 275 C305 340 293 422 264 477 C241 521 185 563 144 526 C127 511 140 489 155 482 C163 478 171 479 180 477 C207 470 223 432 228 400 C231 379 237 358 235 336 C233 301 232 265 226 230 C223 211 218 194 212 177 C206 161 200 144 194 127 C185 131 176 135 167 136 C142 137 123 120 112 93 C111 90 110 88 110 86 C98 102 90 123 87 141 C83 163 79 184 77 206 C74 230 75 254 80 278 C83 295 88 311 95 327 C102 342 107 360 120 369 C130 377 145 379 152 363 C162 339 143 331 142 310 C141 286 169 288 181 298 C197 312 204 344 203 367 C203 389 202 423 189 438 C178 452 148 463 133 461 C78 454 36 395 14 340 C-9 286 -10 199 6 142 C20 94 45 49 80 18 C97 4 109 1 131 1 C156 1 183 17 203 33 C216 7 227 -10 250 -24 C272 -36 297 -39 317 -23 C323 -18 326 -11 327 -4 L327 -4 L327 -4 Z M139 61 L139 61 C135 62 131 65 128 67 C129 68 131 68 133 70 C149 81 162 80 173 72 C165 61 154 56 139 61 L139 61 Z " />
<glyph glyph-name="R" unicode="R" horiz-adv-x="346" d="M12 453 L12 453 C17 446 12 425 11 419 C5 385 0 350 0 315 C1 245 -3 175 1 105 C2 86 2 66 3 46 C3 22 15 7 35 3 C59 -2 68 7 76 29 C82 46 84 63 83 81 C82 105 81 128 82 151 C83 180 86 210 89 240 C90 255 93 259 109 261 C163 270 177 225 187 183 C202 123 207 38 261 -2 C284 -19 305 -15 329 -2 C351 10 335 27 324 41 C305 66 286 90 273 119 C256 156 251 198 238 237 C230 260 218 281 199 297 C194 300 190 304 186 308 C189 311 190 314 192 316 C212 329 229 346 245 364 C260 382 261 402 260 424 C259 440 249 453 241 466 C216 508 180 529 130 529 C101 529 73 527 45 518 C21 511 -51 501 -45 464 C-43 453 -33 436 -20 438 C-11 440 3 458 11 455 C11 454 12 454 12 453 L12 453 Z M126 480 C141 483 155 481 169 475 C182 469 191 459 196 446 C199 437 198 427 191 420 C170 397 149 375 128 353 C121 345 113 338 106 331 C103 329 99 329 96 329 C95 332 94 335 94 338 C93 351 93 364 92 377 C91 388 92 398 91 409 C90 420 89 432 87 443 C84 452 88 460 89 469 C90 476 98 478 105 479 C112 480 119 480 126 480 L126 480 Z " />
<glyph glyph-name="S" unicode="S" horiz-adv-x="295" d="M327 268 C311 271 299 239 289 230 C282 224 274 219 266 214 C251 205 237 196 220 195 C216 195 213 195 210 197 C207 208 202 219 197 231 C196 234 194 239 193 244 C191 249 189 253 186 258 C179 268 168 279 159 288 C142 303 123 315 106 330 C89 345 80 362 71 382 C63 399 61 416 68 434 C77 457 97 485 123 480 C146 476 160 445 151 420 C148 410 135 385 142 375 C146 368 163 367 169 369 C178 372 188 391 192 399 C208 431 202 484 184 512 C163 543 120 552 88 543 C39 527 6 441 14 388 C16 377 17 364 21 353 C29 330 46 312 64 295 C89 271 112 247 127 215 C131 206 133 196 137 186 C124 184 114 184 105 182 C88 179 73 172 59 163 C51 158 43 153 36 146 C29 139 23 131 17 122 C0 97 -4 62 6 33 C8 25 16 20 21 15 C31 5 44 -2 58 -5 C93 -13 135 -9 163 20 C191 49 212 88 217 132 C217 137 217 143 223 146 C226 147 229 147 232 148 C241 151 250 155 260 157 C269 159 277 163 285 166 C303 172 312 181 324 197 C332 208 335 222 335 236 C335 244 336 266 327 268 L327 268 L327 268 Z M124 97 L124 97 C118 84 113 76 101 71 C88 65 74 67 60 67 C48 68 42 78 49 90 C55 100 62 109 69 118 C76 127 85 131 93 136 C96 138 137 149 137 143 C136 127 131 111 124 97 L124 97 Z " />
<glyph glyph-name="T" unicode="T" horiz-adv-x="201" d="M216 542 C213 545 202 544 198 545 C182 546 166 546 150 547 C136 547 120 549 106 546 C105 546 104 546 103 546 C102 554 102 569 98 574 C92 580 82 571 77 568 C70 562 62 560 55 554 C52 553 51 551 50 548 C49 545 48 542 48 539 C48 539 47 539 47 539 C33 537 19 534 5 531 C-4 529 -13 525 -22 523 C-30 521 -36 517 -42 511 C-46 506 -46 501 -45 494 C-44 487 -41 482 -38 478 C-31 471 -24 465 -14 468 C-4 471 6 473 17 472 C22 472 28 473 33 474 C36 475 40 476 41 475 C42 473 42 468 42 465 C40 450 38 436 37 421 C36 396 35 371 35 347 C35 298 35 248 31 199 C31 187 32 174 32 161 C32 137 34 112 34 88 C34 83 34 78 33 72 C33 45 33 8 57 1 C67 -2 82 -3 92 2 C111 11 114 35 114 58 C114 91 115 124 115 158 C115 186 113 215 113 244 C113 269 109 294 110 320 C110 336 111 352 109 368 C108 382 108 396 108 410 C108 419 108 427 108 435 C108 445 108 455 108 465 C108 469 109 473 110 476 C110 479 110 478 111 480 C114 482 117 484 120 484 C127 486 135 487 142 487 C149 487 156 489 163 491 C172 493 182 495 191 498 C198 499 208 502 213 508 C216 511 217 517 217 522 C217 527 219 538 216 542 L216 542 Z " />
<glyph glyph-name="U" unicode="U" horiz-adv-x="284" d="M200 24 C219 36 234 56 244 83 C254 112 251 141 256 171 C262 207 261 243 262 279 C262 302 262 325 262 349 C262 381 262 414 262 446 C262 449 262 452 263 455 C264 471 268 485 268 502 C268 515 263 524 256 532 C255 535 251 536 248 536 C243 536 238 534 234 535 C221 539 213 530 206 521 C203 516 200 508 200 501 C198 475 199 449 198 422 C197 402 196 382 194 361 C192 333 189 306 187 278 C185 254 184 229 182 205 C181 194 182 183 179 172 C174 147 167 121 160 96 C156 80 148 68 135 61 C93 38 90 132 86 163 C84 171 86 180 85 188 C83 201 81 214 82 228 C82 232 81 236 81 240 C81 258 80 276 80 294 C81 309 84 324 85 339 C87 371 89 402 90 433 C91 453 91 473 95 492 C95 494 95 498 94 500 C88 516 79 528 65 534 C54 539 42 536 32 531 C26 528 22 524 21 515 C21 502 19 489 17 476 C15 457 12 439 10 420 C8 405 7 390 6 374 C4 349 2 324 1 299 C1 279 3 260 5 240 C6 223 6 206 9 190 C14 157 20 123 31 92 C39 68 48 46 64 28 C74 17 86 9 99 6 C134 0 171 4 200 24 L200 24 Z " />
<glyph glyph-name="V" unicode="V" horiz-adv-x="289" d="M128 153 C127 154 126 155 126 156 C123 165 121 174 119 183 C118 187 116 191 116 195 C113 212 112 228 109 245 C107 258 104 271 101 284 C99 295 97 306 95 316 C92 331 89 346 86 361 C84 371 82 380 80 390 C74 418 69 445 67 474 C66 482 67 500 62 506 C58 511 45 514 39 516 C21 520 9 508 7 491 C4 477 2 462 3 448 C3 422 6 397 9 372 C14 306 50 90 73 33 C77 22 80 11 94 9 C99 8 103 5 108 4 C118 2 128 0 139 -2 C140 -2 142 -1 143 1 C146 6 150 11 153 16 C158 24 163 32 167 40 C169 43 169 46 170 49 C173 59 176 69 178 79 C180 89 180 100 182 111 C183 118 187 125 189 132 C193 149 197 165 201 182 C204 197 206 212 209 227 C210 235 212 242 213 250 C215 260 215 270 217 280 C219 287 221 295 223 303 C225 314 227 326 230 337 C233 352 236 367 236 383 C236 384 237 385 238 387 C240 396 244 405 246 415 C248 426 248 437 250 448 C256 471 262 494 268 517 C270 525 272 535 270 542 C267 550 259 558 252 565 C247 570 239 570 233 565 C228 561 224 554 221 548 C217 538 214 527 210 517 C206 506 202 496 198 485 C185 449 180 411 172 373 C164 335 157 295 149 256 C146 240 143 224 139 208 C136 190 132 172 128 153 L128 153 Z " />
<glyph glyph-name="W" unicode="W" horiz-adv-x="362" d="M252 236 C251 238 250 239 250 240 C246 256 242 273 238 288 C234 300 232 312 226 322 C224 325 223 329 221 332 C216 345 206 355 204 370 C203 372 201 374 199 376 C191 382 183 378 175 377 C164 376 153 370 145 360 C138 350 135 337 130 325 C129 321 129 317 127 313 C120 287 113 261 105 236 C104 229 101 223 98 215 C97 221 95 225 94 229 C90 249 86 268 82 288 C82 289 81 289 81 290 C79 304 77 317 75 331 C73 342 68 352 67 363 C63 396 60 428 58 462 C57 476 57 492 52 505 C46 524 36 519 24 527 C17 532 9 532 3 526 C-3 522 -5 515 -4 507 C-3 500 -2 494 -2 488 C2 450 6 411 9 373 C12 341 15 308 17 276 C19 248 20 220 22 192 C23 162 25 132 26 101 C27 87 29 72 30 57 C31 43 34 30 40 17 C42 11 46 7 52 5 C55 5 57 3 60 2 C64 0 69 -3 73 -4 C83 -7 91 -9 101 -8 C112 -6 112 -4 118 6 C121 13 124 17 126 26 C129 35 131 44 133 53 C135 62 135 72 136 81 C138 105 138 131 143 154 C145 164 150 173 153 182 C156 193 157 204 160 214 C162 222 162 231 164 239 C167 251 170 263 174 276 C175 273 176 272 176 271 C180 254 184 238 188 221 C193 196 198 170 205 145 C212 114 221 84 230 54 C231 47 233 39 233 32 C233 21 234 12 244 8 C258 2 279 -17 295 -12 C311 -6 320 14 320 33 C319 42 318 51 319 59 C322 96 321 134 324 172 C324 180 326 189 326 197 C327 211 327 225 327 239 C327 248 329 258 329 267 C329 281 328 295 328 308 C328 354 332 400 338 446 C339 457 341 468 342 478 C344 490 345 501 346 512 C347 519 349 526 349 533 C350 539 349 545 349 551 C348 556 347 562 346 568 C346 570 345 572 344 573 C339 578 335 582 330 586 C323 590 319 589 315 582 C304 563 297 543 293 521 C287 492 281 463 276 433 C273 418 272 403 271 387 C268 369 265 350 263 331 C260 304 258 277 255 251 C254 246 253 242 252 236 L252 236 Z " />
<glyph glyph-name="X" unicode="X" horiz-adv-x="257" d="M14 532 C7 526 8 502 8 493 C8 475 9 457 10 439 C12 416 15 394 19 372 C27 334 37 297 45 259 C46 255 46 250 44 247 C38 234 30 221 24 207 C9 174 -6 142 -20 108 C-29 87 -37 65 -44 43 C-49 26 -53 8 -39 -8 C-33 -16 -26 -18 -16 -13 C-4 -8 1 4 9 13 C14 18 18 24 22 30 C31 44 42 57 50 71 C63 95 75 119 87 143 C88 144 89 145 90 146 C92 140 93 134 95 129 C98 117 101 106 105 95 C108 87 114 79 118 71 C124 59 130 48 137 36 C142 26 149 16 154 5 C160 -10 172 -18 186 -23 C189 -24 193 -26 196 -27 C202 -29 208 -30 213 -31 C224 -34 238 -29 245 -21 C258 -7 242 -1 236 11 C230 23 226 35 221 48 C216 61 211 74 206 87 C201 99 197 111 192 122 C185 134 182 147 177 159 C171 171 167 184 161 196 C158 203 154 210 151 218 C148 226 145 234 143 242 C142 245 142 248 143 250 C160 283 177 316 194 349 C198 356 203 364 207 371 C211 377 215 383 219 388 C225 395 231 403 238 410 C251 424 262 441 278 453 C279 454 280 456 281 457 C285 465 288 473 284 482 C280 494 273 503 264 511 C259 515 254 517 248 511 C246 510 244 508 242 507 C229 494 215 480 201 467 C189 456 176 445 164 433 C144 412 126 390 112 365 C109 360 106 356 102 351 C98 361 95 370 92 380 C90 384 88 389 87 394 C84 404 82 414 80 423 C76 437 72 451 67 464 C63 478 56 491 51 505 C46 516 49 531 34 533 C28 534 19 537 14 532 L14 532 Z " />
<glyph glyph-name="Y" unicode="Y" horiz-adv-x="239" d="M221 564 C214 572 198 577 188 573 C155 562 140 539 140 505 C140 483 137 461 137 438 C137 402 134 366 136 329 C137 311 133 276 113 268 C91 260 82 294 78 309 C72 340 69 372 66 403 C64 421 64 438 67 455 C68 460 69 467 67 472 C64 485 57 495 47 502 C37 508 26 511 15 515 C6 518 -1 514 -6 505 C-8 500 -10 495 -11 490 C-14 466 -18 443 -15 419 C-10 388 -9 355 -1 325 C8 295 18 262 40 239 C66 211 98 212 131 220 C131 208 134 197 135 186 C136 182 136 177 136 172 C137 144 139 116 126 91 C121 80 106 50 92 48 C74 46 78 68 63 75 C49 83 26 71 19 56 C3 25 36 -6 61 -19 C91 -34 128 -31 156 -11 C187 12 191 38 202 74 C221 140 210 217 213 285 C214 297 215 309 215 321 C215 333 215 345 215 357 C215 361 215 366 215 371 C215 371 215 371 215 371 C215 381 216 390 216 400 C216 419 217 438 218 457 C220 473 219 489 220 505 C221 521 217 537 224 552 C225 555 223 561 221 564 L221 564 Z " />
<glyph glyph-name="Z" unicode="Z" horiz-adv-x="287" d="M112 63 C114 68 115 72 117 76 C122 86 129 96 133 107 C139 120 144 134 149 148 C155 166 162 184 168 202 C171 210 174 217 177 225 C181 237 185 248 190 260 C195 275 201 290 207 305 C210 312 214 319 216 326 C221 340 225 354 229 368 C234 382 238 396 241 410 C243 422 246 434 251 444 C258 457 261 480 249 492 C240 501 226 500 215 501 C188 502 161 504 134 505 C119 506 104 505 89 506 C79 506 68 508 57 509 C55 509 54 508 52 508 C49 507 47 507 45 507 C43 507 42 505 41 505 C33 502 28 494 27 485 C27 469 33 458 42 448 C50 439 58 435 68 439 C72 440 77 440 81 439 C91 438 100 435 109 434 C115 434 121 435 127 434 C139 434 151 433 163 432 C166 431 169 431 173 431 C167 418 161 406 155 394 C141 368 127 342 114 315 C102 291 91 265 80 240 C66 209 51 177 37 146 C21 108 5 71 -1 28 C-3 14 -4 -1 3 -15 C4 -17 6 -19 7 -20 C12 -22 16 -23 20 -25 C23 -24 26 -21 28 -21 C36 -22 45 -17 54 -17 C62 -17 70 -14 78 -12 C88 -10 98 -9 107 -7 C111 -7 115 -4 120 -4 C131 -2 142 0 154 1 C165 2 176 2 187 2 C195 2 203 1 211 0 C220 -1 230 -1 240 -2 C248 -3 258 5 256 12 C255 18 256 23 258 27 C262 33 265 39 268 46 C269 49 270 53 269 55 C267 59 265 62 260 61 C246 57 230 57 215 60 C189 64 163 66 137 64 C129 64 121 63 112 63 L112 63 Z " />
<glyph glyph-name="bracketleft" unicode="&#x5b;" horiz-adv-x="141" d="M5 178 C5 178 5 177 6 177 C5 170 6 165 6 158 C7 155 7 149 6 146 C6 146 7 146 7 145 L6 144 L6 129 C8 124 5 117 7 112 C8 106 7 102 7 97 C9 94 6 89 9 86 C9 86 10 86 10 85 C10 83 10 83 9 82 L9 75 C11 70 8 64 10 59 C11 58 11 57 11 54 C12 52 14 48 13 46 C12 42 15 35 15 30 C15 25 14 20 13 15 C13 13 12 9 12 8 C13 6 17 3 18 3 C21 1 25 1 28 1 L69 1 C74 2 79 2 84 2 L86 2 C90 1 94 -1 98 2 L101 2 C102 1 102 1 103 2 C104 2 104 2 104 3 L118 3 C124 3 129 12 129 18 L129 37 C130 45 128 45 124 46 C123 47 122 47 120 47 C117 47 113 48 109 48 L78 48 C78 54 77 60 78 66 C78 74 79 74 79 81 C81 208 71 327 70 453 C70 455 71 461 70 465 C70 468 70 470 71 471 C73 483 69 495 72 507 C73 515 67 527 77 527 L109 527 C113 527 117 528 120 528 C122 528 123 528 124 529 C128 530 130 530 129 538 L129 558 C129 563 124 572 118 572 C116 572 114 571 113 571 C111 571 109 572 107 572 L101 572 C80 573 46 576 28 574 L18 572 C17 571 13 570 12 568 C12 566 13 562 13 560 C14 556 15 549 15 546 C15 540 12 534 13 529 C14 526 12 524 11 520 C11 518 11 517 10 516 C8 512 11 505 9 501 L9 493 C10 492 10 491 10 491 C10 490 9 490 9 490 C6 487 9 481 7 479 C7 473 8 469 7 464 C5 458 8 452 6 446 L6 431 C7 431 7 431 7 430 L6 430 C7 424 7 421 6 418 C5 407 5 396 7 385 C8 384 8 381 7 379 C5 373 7 366 6 360 C5 352 5 349 5 341 C6 335 6 332 5 327 C5 321 8 312 7 308 C5 301 8 295 6 288 L6 286 L5 285 C7 276 4 267 4 260 C4 255 5 253 5 249 C5 247 7 243 6 242 C6 241 8 240 8 237 C5 232 9 225 6 220 C4 214 6 207 6 202 L6 201 C6 196 7 193 6 190 L5 190 C6 185 6 182 5 179 L5 178 Z " />
<glyph glyph-name="backslash" unicode="&#x5c;" horiz-adv-x="289" d="M142 204 C143 202 143 200 144 199 C146 197 145 195 147 194 L147 193 C148 189 149 185 152 182 C152 182 153 181 153 180 C154 179 154 177 154 176 C155 174 155 172 156 171 C157 170 157 169 158 169 C159 168 159 167 158 167 C160 165 159 163 161 162 L161 160 L165 155 C167 153 166 152 167 150 C167 149 168 147 168 146 C169 144 168 142 170 141 C172 139 176 125 179 123 C179 122 180 121 180 121 C181 120 181 119 181 119 C182 117 181 115 183 114 C183 113 184 113 183 112 C183 111 184 110 185 109 C186 109 186 108 185 107 C186 106 186 103 187 102 C189 101 188 99 189 97 C190 97 190 96 190 95 L192 91 C193 90 194 89 194 88 C195 88 195 87 195 87 C196 85 195 83 197 81 L199 77 C201 75 199 72 202 70 C203 68 202 66 203 65 C204 64 204 64 204 63 C205 62 205 59 206 58 L208 56 L208 54 C210 51 210 48 211 46 C211 45 212 44 212 43 C213 43 213 42 214 41 L215 40 C215 40 216 39 216 38 L217 37 L219 29 C220 29 220 28 221 27 C221 26 222 26 223 25 L223 24 C224 23 225 21 225 20 C226 19 226 18 226 17 C227 17 228 16 228 16 C229 15 230 15 230 14 C231 14 232 13 232 13 C232 12 233 12 233 12 L235 7 L237 5 L250 2 C251 1 252 1 253 1 L260 3 C261 3 262 3 263 4 L271 8 L273 11 L275 26 C277 31 273 35 274 40 C273 42 273 43 273 45 L273 48 C272 48 272 49 272 49 L270 55 L268 57 C266 59 268 63 266 65 C264 67 265 69 266 72 C266 73 265 73 265 74 C265 76 264 78 263 79 C263 82 262 84 261 85 C260 87 260 89 259 90 C259 91 259 92 258 93 C258 94 257 95 257 96 C256 97 256 98 256 98 C255 100 254 102 254 103 C253 104 252 105 251 105 C251 106 250 106 250 106 L250 107 C249 107 250 108 250 108 L248 111 L248 113 C245 122 235 141 231 148 C229 153 226 157 224 161 L218 177 C216 181 214 189 211 192 C210 193 211 195 210 196 C209 197 209 197 209 198 C208 200 208 202 207 203 C207 203 206 204 207 205 C206 213 199 220 195 227 C193 231 193 234 192 238 C191 239 187 245 187 246 C187 247 187 247 186 247 L186 249 C187 251 183 254 182 256 C180 259 179 262 178 266 C177 272 176 278 173 283 C164 298 128 369 122 386 C120 392 120 396 116 402 C111 408 105 414 103 422 C99 435 96 453 86 462 L85 463 C85 464 84 464 84 465 L83 465 L81 468 C81 469 81 470 80 470 C80 471 79 471 79 472 L78 473 L76 476 C76 476 76 477 75 478 C75 479 75 479 74 480 C74 481 74 482 73 482 C72 484 71 486 71 488 L69 491 C69 492 68 493 67 494 C67 495 67 496 66 497 C65 499 64 501 64 504 L62 507 C62 507 61 508 61 509 C60 509 60 510 59 510 C57 511 56 513 54 515 C54 516 53 517 52 518 C52 518 51 518 52 519 C47 528 43 538 39 546 C38 547 37 548 37 549 L34 551 C33 551 33 552 32 552 L24 552 C23 551 21 550 19 550 C19 550 18 549 17 549 L15 547 C15 547 14 547 14 546 C13 546 13 545 12 545 C12 544 11 544 11 544 C10 543 10 542 9 542 C9 541 9 541 8 541 C8 540 7 539 7 538 L7 535 C4 529 6 523 8 517 L8 514 C9 512 10 511 10 509 C10 508 11 507 11 506 C12 505 12 503 13 501 C13 501 13 500 14 499 C14 498 15 497 15 496 C16 495 16 494 16 493 C17 492 18 491 18 490 C18 489 19 489 19 488 C19 486 20 484 20 483 C20 482 20 481 21 480 C21 480 22 479 22 478 C23 478 23 478 23 477 C24 476 25 474 25 473 L27 468 C27 467 27 467 28 466 C28 465 29 464 29 464 C29 463 30 462 30 461 L32 457 C32 456 32 455 33 454 C38 443 41 428 50 418 C51 417 51 415 52 413 L52 411 C53 410 53 408 55 407 C55 405 56 404 57 403 C59 401 57 398 58 395 C59 392 62 389 63 386 C64 384 65 378 66 377 C67 375 67 373 67 372 C67 371 69 369 70 367 C70 367 71 366 71 365 C72 364 72 362 73 360 C75 359 99 302 99 301 C99 299 99 297 101 296 L101 294 C102 292 103 289 105 287 C106 285 106 283 108 282 C108 281 109 281 109 280 C110 278 110 277 110 275 C110 275 111 274 111 273 C112 273 112 272 112 271 C112 270 113 269 114 268 C115 267 115 266 115 264 C115 262 115 260 117 259 C118 258 118 256 119 254 C119 254 120 253 119 253 C120 251 121 251 121 250 C123 248 123 246 124 245 C125 245 126 244 125 243 C126 242 129 239 129 238 L129 234 C129 233 130 232 130 231 C131 231 131 230 131 229 C132 228 131 225 133 224 C134 224 134 223 135 222 C136 222 136 221 135 220 C136 219 136 216 137 215 C139 214 138 212 140 210 L140 209 C140 207 141 207 142 206 C143 205 143 205 142 204 L142 204 Z " />
<glyph glyph-name="bracketright" unicode="&#x5d;" horiz-adv-x="144" d="M129 179 C128 182 128 185 129 190 L128 190 C127 193 128 196 128 201 L128 202 C128 207 130 214 128 220 C125 225 129 232 126 237 C126 240 128 241 128 242 C127 243 129 247 129 249 C129 253 130 255 130 260 C130 267 127 276 129 285 L128 286 L128 288 C126 295 129 301 127 308 C126 312 129 321 129 327 C128 332 128 335 129 341 C129 349 129 352 128 360 C127 366 129 373 127 379 C126 381 126 384 127 385 C129 396 129 407 128 418 C127 421 127 424 128 430 L127 430 C127 431 127 431 128 431 L128 446 C126 452 129 458 127 464 C126 469 127 473 127 479 C125 481 128 487 125 490 C125 490 124 490 124 491 C124 491 124 492 125 493 L125 501 C123 505 126 512 124 516 C123 517 123 518 123 520 C122 524 120 526 121 529 C122 534 119 540 119 546 C119 549 120 556 121 560 C121 562 122 566 122 568 C121 570 117 571 116 572 L106 574 C88 576 54 573 33 572 L27 572 C25 572 23 571 21 571 C20 571 18 572 16 572 C10 572 5 563 5 558 L5 538 C4 530 6 530 10 529 C11 528 12 528 14 528 C17 528 21 527 25 527 L57 527 C67 527 61 515 62 507 C65 495 61 483 63 471 C64 470 64 468 64 465 C63 461 64 455 64 453 C63 327 53 208 55 81 C55 74 56 74 56 66 C57 60 56 54 56 48 L25 48 C21 48 17 47 14 47 C12 47 11 47 10 46 C6 45 4 45 5 37 L5 18 C5 12 10 3 16 3 L30 3 C30 2 30 2 31 2 C32 1 32 1 33 2 L36 2 C40 -1 44 1 48 2 L50 2 C55 2 60 2 65 1 L106 1 C109 1 113 1 116 3 C117 3 121 6 122 8 C122 9 121 13 121 15 C120 20 119 25 119 30 C119 35 122 42 121 46 C120 48 122 52 123 54 C123 57 123 58 124 59 C126 64 123 70 125 75 L125 82 C124 83 124 83 124 85 C124 86 125 86 125 86 C128 89 125 94 127 97 C127 102 126 106 127 112 C129 117 126 124 128 129 L128 144 L127 145 C127 146 128 146 128 146 C127 149 127 155 128 158 C128 165 129 170 128 177 C129 177 129 178 129 178 L129 179 Z " />
<glyph glyph-name="asciicircum" unicode="&#x5e;" horiz-adv-x="283" d="M248 545 C225 560 222 589 206 607 C204 610 204 610 204 612 L199 612 C199 612 198 615 194 615 L192 617 C189 617 189 617 189 621 C189 621 189 622 187 622 C187 623 184 627 182 629 L180 629 L174 636 C174 633 171 636 171 636 C168 640 171 643 168 648 L168 650 C168 651 168 651 166 653 L163 653 C163 653 163 657 160 657 C160 659 158 659 158 659 L153 662 L141 670 C140 670 140 671 139 671 C137 676 134 676 133 676 L118 676 C117 676 115 671 112 670 L107 662 C107 660 104 659 104 657 L101 653 L97 648 L95 645 C95 645 95 643 93 643 C93 640 93 637 91 637 C88 633 86 633 86 629 C83 629 83 627 83 623 C81 623 81 622 81 621 L77 617 C77 615 76 615 76 612 L75 612 C71 610 71 607 69 607 C69 605 69 605 69 603 C69 601 65 601 65 599 L65 597 C62 597 62 597 61 594 C61 594 61 591 58 591 L55 589 C55 589 55 586 53 586 C53 583 50 581 50 580 L48 578 L45 565 C45 564 41 563 41 563 C41 562 39 561 39 560 C39 559 38 558 38 558 C36 557 36 557 36 556 L31 556 C29 547 29 547 29 545 C28 543 28 541 27 541 C27 540 22 538 22 538 C22 535 22 530 20 530 L20 524 C20 522 20 518 19 516 C18 516 18 516 16 514 C16 511 11 509 9 506 L9 499 C9 498 9 494 7 494 C6 494 6 492 6 492 C4 492 4 488 4 488 C6 488 6 485 6 484 C7 484 7 481 9 478 L20 468 L22 468 L31 462 C36 462 36 461 38 461 C39 459 41 459 45 459 L48 459 L71 470 L76 473 C77 473 77 476 81 478 C81 481 83 481 83 484 C86 484 86 485 86 488 L86 492 C86 492 88 492 88 492 C91 492 93 494 95 494 C97 498 97 498 97 499 C99 500 99 506 99 509 C101 509 101 509 101 511 L107 516 L107 520 C109 520 109 522 112 522 L120 532 C120 532 122 532 122 535 L124 535 C133 538 133 538 133 540 L135 543 L135 545 L136 547 C136 556 136 556 137 556 L139 559 C138 560 139 561 139 561 C141 562 142 563 142 565 C153 574 155 574 157 565 C168 561 171 545 178 532 C184 522 189 509 192 498 C198 488 206 481 210 470 C213 461 214 461 225 452 C228 451 227 445 230 450 C237 450 248 464 253 468 C259 473 271 481 271 492 C271 504 266 509 259 518 C256 527 256 540 248 545 L248 545 Z " />
<glyph glyph-name="underscore" unicode="&#x5f;" horiz-adv-x="354" d="M236 -29 C242 -27 249 -31 256 -29 L259 -29 C259 -29 260 -30 262 -29 L267 -29 C270 -28 273 -29 276 -28 L278 -27 L280 -28 C283 -26 286 -28 292 -28 L295 -28 C297 -27 299 -27 304 -27 C306 -28 308 -28 310 -27 C311 -27 316 -26 318 -26 L321 -26 C329 -25 335 -24 340 -18 C342 -18 342 -17 342 -16 C343 -15 342 -13 342 -12 C342 -11 340 -10 340 -9 C339 -8 339 -6 336 -5 C333 -3 331 -3 329 -2 L324 -2 C322 -2 321 -1 320 0 C320 0 319 1 318 1 C317 1 317 0 316 0 C313 0 313 -1 311 -2 C309 -3 310 0 309 -1 C309 -1 308 -1 308 0 L306 0 L305 -1 C286 -2 271 6 254 3 L231 3 C225 2 219 3 212 3 C211 2 209 2 207 1 C206 0 203 0 201 1 C200 2 199 2 198 2 L187 2 C185 3 184 3 179 2 C176 2 172 1 165 1 L162 1 C159 0 152 1 149 -2 C146 -2 142 -2 138 -1 C135 1 133 0 130 1 C126 1 123 0 121 0 C119 -1 118 -1 118 -2 L113 -2 C112 0 111 0 109 -2 C105 -2 99 0 94 -2 C91 -2 89 -3 86 -3 C80 -2 74 -3 67 -1 C66 -1 66 -1 65 -2 L55 -2 C54 -3 53 -3 52 -3 C50 -4 45 -4 43 -4 L40 -4 L16 -6 C14 -6 13 -7 12 -7 L9 -9 C7 -10 5 -12 7 -14 C7 -15 7 -17 6 -19 C6 -20 7 -20 7 -21 C9 -23 10 -24 12 -24 L14 -26 L25 -29 C27 -29 28 -30 28 -30 L36 -33 L41 -33 C45 -32 51 -33 55 -33 C57 -33 61 -33 64 -32 C66 -31 67 -31 68 -32 C69 -33 71 -33 73 -33 C80 -32 87 -33 94 -31 L105 -31 C109 -32 113 -33 119 -32 C121 -32 122 -31 123 -30 C133 -29 142 -32 151 -30 C152 -30 153 -31 153 -31 L159 -31 C162 -30 165 -31 171 -31 C175 -30 178 -32 184 -30 L190 -30 C206 -33 219 -34 232 -29 L236 -29 Z " />
<glyph glyph-name="grave" unicode="&#x60;" horiz-adv-x="144" d="M75 494 C81 488 84 482 90 476 C93 472 98 466 103 466 C107 466 107 469 110 472 C112 476 115 479 115 483 C115 488 113 493 113 498 L111 513 C108 523 107 534 104 543 C104 547 104 552 101 556 C100 559 98 562 96 564 C92 568 84 566 79 564 C71 562 63 556 56 550 C50 544 52 532 57 525 C65 515 69 504 75 494 L75 494 Z " />
<glyph glyph-name="a" unicode="a" horiz-adv-x="344" d="M193 30 C198 23 208 11 212 9 C227 4 247 3 264 7 C285 11 303 22 318 40 C332 58 343 85 351 97 C365 120 392 167 399 193 C400 198 405 215 403 225 C402 235 390 238 382 235 C365 229 326 152 319 132 C312 112 289 48 254 60 C242 65 238 77 235 88 C230 96 228 105 227 123 C226 154 222 186 223 200 C224 220 232 249 222 268 C219 275 212 278 208 281 C203 284 205 285 194 285 C177 287 159 286 142 285 C138 284 135 284 131 285 C119 286 107 287 95 288 C90 289 87 288 84 287 C76 285 71 281 65 278 C24 233 -1 172 -1 106 C-1 96 1 89 7 73 C16 45 33 24 63 16 C67 15 71 14 75 13 C87 10 109 6 123 6 C135 5 151 10 161 13 C171 19 177 34 190 35 C190 35 191 33 193 30 L193 30 Z M146 239 C149 239 152 238 155 235 C165 227 167 201 169 195 C176 162 169 101 140 83 C132 74 115 51 100 54 C86 56 83 83 84 95 C84 96 84 96 84 96 C84 106 86 121 89 136 C93 149 94 162 97 175 C101 192 121 239 146 239 L146 239 Z " />
<glyph glyph-name="b" unicode="b" horiz-adv-x="222" d="M289 262 C289 270 260 241 254 235 C245 228 238 219 230 210 C217 197 206 184 192 170 C187 165 181 162 174 159 C170 169 167 179 166 191 C165 197 163 203 159 208 C158 209 158 209 158 210 C146 227 131 229 115 236 C117 240 117 242 118 244 C119 245 120 247 121 249 C134 265 137 287 144 307 C151 326 154 346 157 367 C161 384 161 400 155 415 C146 437 133 455 117 471 C113 474 110 476 107 477 C92 483 78 486 64 480 C59 477 55 476 51 475 C44 474 38 471 36 464 C30 449 20 436 16 418 C14 399 10 379 8 360 C5 337 4 312 2 288 C1 260 0 232 -1 205 C-2 185 -1 166 -1 147 C-2 123 -1 100 1 76 C5 35 8 10 47 -11 C66 -21 90 -24 111 -21 C168 -10 179 56 178 102 C179 103 183 103 185 104 C198 109 209 114 221 122 C234 130 244 143 254 156 C260 163 290 188 289 198 C286 210 298 224 303 236 C305 241 290 256 289 262 L289 262 Z M110 397 C104 357 97 319 84 280 L77 254 C75 250 73 245 70 240 C69 241 69 241 68 241 L68 267 C67 294 66 320 66 346 C66 357 67 368 69 378 C70 389 73 400 76 411 C78 420 81 428 89 432 C99 439 107 437 109 425 C111 416 112 406 110 397 L110 397 Z M114 98 C114 90 113 84 113 78 C112 62 101 27 80 41 C67 49 77 87 77 101 C78 113 79 125 79 141 C81 134 106 128 110 123 C114 118 114 108 114 98 L114 98 Z M110 166 C95 172 91 179 100 189 C110 184 111 179 110 166 L110 166 Z " />
<glyph glyph-name="c" unicode="c" horiz-adv-x="232" d="M179 98 C171 87 162 77 150 65 C133 56 118 52 103 67 C86 87 84 113 84 139 C84 186 77 248 121 270 C127 273 130 272 130 266 C130 264 131 261 130 258 C129 246 137 240 148 232 C155 227 162 230 167 238 C179 250 179 263 175 276 C171 295 159 304 145 309 C132 314 118 317 105 321 C102 321 99 321 97 320 C88 316 78 313 70 307 C60 300 48 294 39 281 C31 271 25 260 19 249 C15 241 12 228 9 219 C4 205 0 190 0 170 C-1 153 -2 136 1 113 C5 93 9 67 22 48 C33 33 46 18 66 10 L72 7 C96 -2 128 -16 152 -3 C185 14 205 51 222 87 C230 102 238 118 247 138 C252 148 255 160 259 171 C263 189 263 179 269 191 C275 203 279 226 277 240 C274 263 254 236 248 229 C240 218 234 200 228 188 C211 149 202 135 179 98 L179 98 Z " />
<glyph glyph-name="d" unicode="d" horiz-adv-x="295" d="M356 224 C356 236 350 250 338 237 C327 225 321 207 315 192 C301 157 284 108 251 88 C221 71 220 107 215 127 C213 138 211 148 215 158 C218 167 221 177 222 186 C262 260 284 374 262 458 C250 504 226 513 184 496 C133 475 142 375 137 340 C136 332 137 324 137 316 C137 304 137 292 137 279 C46 308 19 215 7 188 C-7 155 -4 113 2 78 C5 60 12 45 28 36 C42 28 56 20 70 11 C86 2 103 -2 121 1 C141 5 156 13 164 33 C178 15 184 2 209 -1 C226 -3 244 -3 257 10 C292 40 320 88 332 131 C337 146 339 161 343 175 C347 191 357 208 356 224 L356 224 Z M139 108 C136 103 135 98 133 93 C128 82 119 74 111 65 C108 61 104 58 100 55 C93 48 84 50 81 60 C79 65 78 71 77 76 C76 98 71 120 78 142 C82 160 90 175 103 188 C112 197 122 203 138 204 C135 180 145 158 141 136 C140 134 141 132 141 130 C143 122 142 115 139 108 L139 108 Z M200 285 C197 273 194 260 192 248 C191 248 191 248 190 248 C189 262 187 275 187 289 C187 312 184 405 184 428 C184 431 184 435 185 438 C187 441 199 444 201 444 C204 444 209 442 210 440 C212 436 214 431 214 426 C215 402 208 308 200 285 L200 285 Z " />
<glyph glyph-name="e" unicode="e" horiz-adv-x="264" d="M310 257 C291 255 283 229 275 215 C266 200 258 184 250 169 C234 140 215 114 193 88 C184 78 175 68 164 60 C152 49 137 44 119 46 C115 46 111 47 109 50 C102 57 97 65 95 75 C94 85 91 94 89 103 C89 104 88 105 88 106 C88 118 88 129 89 140 C90 148 93 156 105 159 C127 165 146 177 163 191 C169 196 175 202 180 209 C186 216 193 223 196 232 C197 236 200 241 203 245 C214 259 212 277 197 289 C188 296 178 303 167 309 C162 312 157 316 151 317 C134 322 116 325 97 325 C88 316 78 309 70 301 C50 281 34 260 22 236 C6 203 -5 169 -1 132 C1 106 9 81 25 57 C35 42 49 30 69 24 C78 20 87 15 97 10 C102 8 108 4 114 4 C132 2 150 2 166 11 C175 15 184 19 192 23 C198 26 204 29 208 34 C222 49 238 63 251 79 C259 90 264 104 271 117 C279 130 289 137 294 151 C301 175 322 197 324 222 C325 234 328 259 310 257 L310 257 Z M90 207 C91 211 91 216 92 220 C94 229 96 238 104 244 C108 247 109 252 113 255 C117 260 122 264 128 269 C133 262 140 257 142 251 C145 243 145 234 139 226 C128 210 113 196 93 187 C92 187 91 187 88 186 C89 194 89 201 90 207 L90 207 Z " />
<glyph glyph-name="f" unicode="f" horiz-adv-x="207" d="M250 206 C248 203 245 196 243 193 C232 177 219 163 205 150 C198 144 194 135 187 129 C179 121 171 115 162 109 C155 104 149 107 148 116 C146 127 146 139 142 149 C139 161 133 174 119 179 C111 181 102 184 93 188 C79 192 125 243 129 249 C135 257 142 265 147 274 C150 282 152 288 157 294 C168 308 172 324 179 339 C190 362 194 389 183 412 C179 422 169 426 161 432 C150 441 139 446 125 449 C112 451 100 447 90 440 C79 432 59 416 53 404 C3 292 21 206 5 89 C4 83 3 76 3 70 L3 52 C3 42 2 32 2 23 C2 -5 3 -32 4 -60 C5 -86 18 -106 38 -122 C45 -127 53 -130 62 -130 C66 -130 70 -131 74 -131 C89 -133 104 -136 119 -130 C128 -127 135 -122 139 -114 C144 -104 149 -94 150 -84 C153 -62 162 -42 160 -19 C160 -12 159 -5 158 2 C157 14 156 26 156 37 C156 50 153 60 167 68 C185 77 200 94 213 109 C217 115 223 120 228 126 C236 137 248 148 256 161 C262 171 261 186 260 197 C259 201 258 210 252 207 C251 207 251 207 250 206 L250 206 Z M90 302 C91 313 94 325 96 336 C98 353 101 370 108 385 C112 395 117 404 128 409 C135 412 140 411 145 406 C161 390 157 372 148 355 C138 337 128 320 117 303 C112 296 108 288 102 282 C98 278 90 274 89 269 C89 280 88 291 90 302 L90 302 Z M88 -84 C82 -72 83 -58 82 -46 C80 -34 82 -23 82 -12 C82 5 82 22 83 39 C83 50 84 60 85 72 C94 70 102 69 112 67 C112 60 113 53 112 46 C108 30 108 15 108 -2 C109 -18 109 -35 109 -52 C109 -63 106 -74 94 -79 C92 -80 90 -82 88 -84 L88 -84 Z M95 142 C107 129 103 114 107 99 C95 103 94 113 91 120 C87 126 92 134 95 142 L95 142 Z " />
<glyph glyph-name="g" unicode="g" horiz-adv-x="258" d="M180 66 C178 82 179 97 181 117 C183 138 181 155 180 179 C180 196 178 213 177 235 C177 236 177 239 178 240 C185 250 180 259 176 270 C173 277 170 280 164 282 C158 282 153 285 148 287 C146 288 144 288 142 288 C137 289 132 288 129 290 C120 295 113 295 105 290 C89 282 71 280 57 267 C46 257 30 241 22 226 C6 199 -1 169 -6 138 C-11 102 -1 79 26 53 C45 41 64 39 84 38 C86 38 89 39 92 40 C101 44 111 49 121 54 C120 48 119 42 118 35 C109 32 101 29 93 26 C58 15 27 -10 2 -38 C-10 -60 -20 -76 -29 -92 C-32 -101 -36 -110 -36 -121 C-37 -131 -36 -142 -36 -154 C-36 -169 -33 -188 -25 -197 C-17 -210 3 -220 16 -224 C22 -224 27 -226 33 -227 C51 -231 66 -232 83 -225 C90 -221 94 -220 100 -215 C109 -205 121 -199 130 -189 C139 -180 145 -165 151 -150 C153 -145 155 -141 155 -137 C158 -126 159 -113 161 -98 C164 -80 167 -64 169 -39 C171 -29 172 -19 174 -8 C175 -7 177 -5 180 -4 C181 -3 183 -2 185 7 C210 17 228 33 249 49 C265 68 281 88 289 107 C296 131 304 153 306 176 C306 184 306 217 298 219 C273 221 273 178 265 155 C253 129 230 100 208 84 C205 82 180 67 180 66 L180 66 Z M112 -22 C110 -39 108 -63 106 -78 C105 -85 105 -91 103 -98 C100 -115 93 -125 81 -128 C71 -130 62 -137 51 -137 C40 -138 29 -137 19 -137 C16 -130 17 -124 22 -118 C33 -94 43 -78 54 -63 C57 -56 62 -50 67 -44 C80 -34 94 -26 112 -22 L112 -22 Z M110 204 C106 185 103 158 98 140 C95 126 89 106 79 96 C72 89 64 87 55 90 C48 138 73 191 110 204 L110 204 Z " />
<glyph glyph-name="h" unicode="h" horiz-adv-x="274" d="M101 274 C97 285 98 286 105 292 C111 296 116 302 121 308 C127 317 133 326 139 336 C144 344 151 351 155 360 C166 383 175 406 185 428 C186 430 187 433 186 435 C184 443 181 452 178 460 C171 473 158 480 146 487 C138 492 128 494 119 498 C104 504 95 496 86 487 C85 486 85 486 84 485 C59 457 42 426 34 389 C27 354 23 319 19 284 C16 250 14 217 12 183 C11 168 9 153 9 139 C9 123 8 108 9 93 C10 78 7 63 10 49 C13 40 15 31 18 22 C20 15 26 10 33 8 C42 6 52 4 62 4 C80 6 85 14 84 32 C84 38 85 45 86 52 C86 60 87 68 88 76 C90 94 92 113 93 131 C95 149 98 166 98 184 C98 199 101 212 113 223 C113 223 114 224 114 224 C121 235 133 238 144 247 C147 239 150 234 152 228 C159 207 156 185 153 164 C151 142 146 97 142 75 C138 57 137 38 140 19 C142 3 149 -10 164 -17 C168 -20 173 -22 177 -24 C243 -53 280 70 303 108 C329 150 353 199 358 248 C359 263 347 278 332 266 C323 259 319 237 313 227 C300 203 290 190 277 165 C271 154 216 32 203 46 C197 51 210 85 211 93 C212 106 210 143 211 156 C212 170 211 184 209 198 C207 219 202 237 189 255 C176 273 156 279 136 284 C133 284 130 283 128 282 C119 280 110 277 101 274 L101 274 Z M94 340 C90 354 89 367 91 380 C95 398 100 415 108 431 C111 437 114 442 118 447 C120 452 124 452 129 451 C144 445 155 428 145 411 C131 386 116 362 94 340 L94 340 Z " />
<glyph glyph-name="i" unicode="i" horiz-adv-x="203" d="M246 201 C251 216 252 231 243 242 C231 259 213 210 209 201 C194 167 157 97 127 74 C119 67 107 60 100 73 C97 80 102 99 101 107 C101 121 100 135 99 150 C99 157 101 164 101 172 C100 186 98 219 98 233 C98 237 98 240 100 243 C103 251 101 257 96 264 C90 271 82 278 72 283 C69 285 65 286 62 287 C58 290 52 291 46 293 C38 294 29 295 21 294 C12 293 6 285 11 277 C15 270 15 263 14 256 C11 224 7 172 7 139 C8 132 7 125 6 118 C4 98 4 77 8 57 C12 30 26 8 55 -5 C68 -11 82 -12 95 -8 C143 9 177 51 195 97 C202 114 238 175 246 201 L246 201 Z M59 312 C68 310 79 310 84 319 C89 331 95 343 97 355 C99 369 99 384 98 399 C98 409 95 419 93 430 C92 430 91 431 90 431 C86 427 81 424 78 419 C73 414 70 408 66 403 C55 388 44 373 37 356 C28 335 36 316 59 312 L59 312 Z " />
<glyph glyph-name="j" unicode="j" horiz-adv-x="179" d="M236 207 C233 228 213 208 207 200 C205 197 203 195 201 192 C193 179 171 135 162 124 C153 111 137 102 126 90 C118 82 98 58 85 70 C74 79 85 151 85 163 L85 229 C84 241 82 253 81 264 C79 281 69 284 54 289 C52 290 51 291 49 291 C39 294 20 297 9 300 C7 292 7 285 9 278 C11 274 12 269 12 265 C13 254 12 244 12 233 C12 186 16 68 11 22 C10 12 6 7 -1 3 C-17 -8 -32 -18 -47 -28 C-71 -46 -90 -69 -100 -98 C-106 -116 -119 -149 -103 -167 C-86 -185 -65 -197 -42 -205 C-12 -215 40 -229 59 -192 C63 -184 67 -175 71 -166 C75 -155 76 -143 78 -131 C80 -115 82 -100 83 -84 L86 -18 C86 -7 91 0 100 7 C128 29 159 52 179 82 C198 111 242 170 236 207 L236 207 Z M49 316 C51 316 53 315 55 316 C61 317 68 317 73 320 C76 321 76 326 78 329 C79 334 81 339 82 344 C83 349 86 354 86 360 C86 370 85 380 84 390 C83 396 81 402 73 406 C71 405 68 405 66 404 C60 407 55 410 50 413 C34 406 25 396 22 385 C21 378 18 372 16 366 C13 359 11 353 8 346 L8 342 C11 332 34 318 49 316 L49 316 Z M-3 -89 C-4 -95 -5 -100 -6 -106 C-9 -122 -18 -133 -35 -135 C-38 -135 -40 -136 -43 -136 C-50 -128 -50 -120 -48 -110 C-45 -96 -36 -86 -30 -75 C-23 -64 -12 -57 0 -50 C1 -64 -1 -77 -3 -89 L-3 -89 Z " />
<glyph glyph-name="k" unicode="k" horiz-adv-x="296" d="M337 229 C335 244 326 237 319 228 C314 221 309 212 305 204 C292 182 279 160 266 137 C260 126 251 117 246 104 C240 86 220 65 199 70 C180 73 159 91 151 107 C149 111 147 115 146 119 C144 126 145 129 152 132 C173 141 191 154 207 170 C214 179 222 187 228 197 C235 208 237 220 229 233 C225 239 221 245 216 251 C197 270 174 282 146 280 C137 280 128 277 117 275 C116 283 120 289 125 294 C134 304 141 314 143 328 C144 334 147 340 149 346 C151 353 152 359 154 366 C155 371 155 376 157 382 C160 394 163 406 156 418 C152 426 146 432 141 440 C135 449 125 453 115 457 C111 458 107 458 104 459 C99 461 95 460 91 457 C76 443 61 430 54 410 C49 397 42 385 38 372 C30 344 26 316 25 287 C25 275 24 262 22 250 C19 230 15 209 13 188 C11 159 7 130 7 101 C7 83 5 65 3 46 C1 22 10 1 25 -17 C28 -20 31 -23 35 -25 C45 -33 53 -31 59 -19 C60 -18 60 -16 60 -15 C63 -10 67 -5 73 -2 C89 6 90 7 96 24 C100 37 103 51 105 65 C107 74 108 82 110 93 C114 87 117 82 119 78 C136 51 160 29 187 13 C201 5 212 0 227 8 C240 16 252 29 259 43 C266 56 274 68 281 82 C295 108 309 134 320 162 C324 173 329 183 334 194 C340 204 339 218 337 229 L337 229 Z M94 339 C98 358 102 377 107 396 C108 402 113 406 118 410 C116 384 108 361 96 338 C95 339 94 339 94 339 L94 339 Z M125 191 C117 192 109 193 105 201 C102 207 106 215 114 222 C119 226 124 232 130 236 C131 238 134 239 136 239 C147 241 158 242 170 243 C177 244 185 243 188 237 C192 230 184 225 180 221 C168 207 153 197 135 193 C132 192 128 192 125 191 L125 191 Z " />
<glyph glyph-name="l" unicode="l" horiz-adv-x="233" d="M280 246 C275 247 264 231 261 227 C254 218 253 208 249 199 C238 172 223 148 210 123 C202 109 191 96 183 82 C174 67 162 52 150 40 C142 31 116 5 102 8 C102 8 102 8 101 8 C93 12 88 23 89 32 C90 50 86 69 88 87 C89 93 87 98 87 103 C88 122 89 157 89 176 C89 178 89 180 89 182 C86 191 90 199 95 206 C101 214 107 220 112 228 C123 247 134 266 146 285 C155 298 163 313 169 328 C173 337 177 346 180 355 C183 365 183 376 186 387 C192 407 183 422 168 433 C150 447 127 453 104 454 C99 454 66 453 63 450 C56 443 51 434 44 426 C39 420 37 411 34 403 C9 335 7 259 2 188 C0 150 4 95 8 57 C11 34 17 12 28 -7 C37 -22 63 -33 81 -35 C84 -35 87 -36 90 -37 C102 -42 115 -41 127 -40 C138 -40 147 -33 155 -26 C171 -9 183 9 197 27 C210 46 226 67 235 89 C246 114 262 138 273 163 C277 175 278 187 281 198 C283 207 286 213 286 222 C286 228 288 245 280 246 L280 246 Z M89 341 C92 355 97 369 103 382 C105 387 108 397 114 399 C114 399 115 399 116 399 C123 399 128 390 130 384 C137 367 122 344 115 330 C110 319 104 309 98 300 C97 296 81 276 82 273 C74 291 84 323 89 341 L89 341 Z " />
<glyph glyph-name="m" unicode="m" horiz-adv-x="440" d="M88 192 C87 192 86 192 86 192 C84 205 85 232 83 244 C81 257 77 270 74 283 C73 290 69 294 62 295 C52 297 35 298 24 299 C15 301 10 298 7 289 C6 285 5 280 4 276 C2 252 0 214 -1 190 C-2 171 -1 151 0 132 C1 99 3 66 5 32 C6 22 8 12 21 9 C23 9 25 8 26 6 C32 -3 48 -2 57 -7 C58 -8 61 -7 63 -7 C67 -8 71 -8 75 -8 C79 -4 81 1 81 7 C82 18 86 29 84 40 C84 41 85 42 85 42 C88 51 90 61 93 70 C96 81 99 94 104 105 C112 124 122 143 131 162 C135 170 140 177 145 185 C147 187 150 190 154 193 C156 172 159 153 159 134 C159 116 167 104 180 94 C187 89 198 88 203 93 C210 100 218 108 224 117 C232 128 238 142 246 154 C251 162 256 169 261 177 C262 177 263 177 264 176 C262 161 261 146 259 131 C257 102 254 73 258 44 C261 26 264 9 272 -8 C276 -18 282 -27 289 -35 C300 -46 318 -45 332 -41 C347 -37 359 -27 368 -15 C389 12 404 37 415 69 C425 95 440 118 450 144 C461 171 483 193 486 223 C486 229 487 245 480 249 C473 252 464 241 460 237 C449 223 441 209 433 194 C414 162 400 129 383 96 C376 83 369 68 361 55 C357 48 332 24 328 41 C326 46 333 60 333 66 C333 80 331 94 331 108 C330 133 325 158 325 183 C325 204 321 225 311 243 C309 247 307 250 304 252 C290 260 275 259 261 255 C258 255 256 253 255 251 C241 234 228 216 215 199 C211 195 208 190 204 184 C202 195 201 203 201 211 C200 224 193 234 185 243 C179 250 171 253 162 253 C156 253 150 253 144 254 C134 254 128 250 122 243 C118 239 112 234 109 228 C102 216 95 204 88 192 L88 192 Z " />
<glyph glyph-name="n" unicode="n" horiz-adv-x="313" d="M75 167 C75 167 74 168 73 168 C71 190 75 248 73 265 C73 271 72 279 66 282 C17 307 -2 288 -4 258 C-6 243 5 83 2 41 C0 17 0 0 4 -18 C4 -20 6 -25 8 -27 C21 -41 39 -49 55 -52 C57 -52 59 -53 61 -52 C66 -51 69 -49 75 -46 C76 -41 79 -33 79 -22 C81 -3 84 15 91 38 C98 55 103 73 110 96 C120 121 132 150 146 173 C150 180 158 194 166 197 C180 203 181 182 180 171 C178 150 174 124 171 104 C168 84 166 59 168 39 C170 25 174 10 185 3 C190 1 194 -3 198 -6 C209 -14 226 -10 237 -4 C244 -1 250 5 257 9 C272 21 284 35 296 49 C315 71 333 101 347 128 C358 156 379 176 386 207 C393 233 377 258 356 228 C340 210 330 179 316 159 C306 146 259 56 240 72 C234 83 235 93 235 100 C233 137 238 167 231 204 C228 216 221 229 210 239 C200 246 184 258 173 257 C169 256 165 256 161 256 C140 254 122 246 108 224 C102 218 97 211 92 203 C86 194 81 177 75 167 L75 167 Z " />
<glyph glyph-name="o" unicode="o" horiz-adv-x="296" d="M133 278 C85 322 42 262 18 214 C-2 174 -5 111 -3 66 C-2 53 5 40 11 28 C21 7 40 -5 60 -12 C76 -18 94 -19 112 -22 C126 -24 140 -18 154 -14 C169 -10 180 9 188 22 C196 35 201 49 206 64 C209 73 210 81 212 91 C218 115 250 105 270 111 C310 124 397 257 350 271 C337 275 329 250 323 242 C316 230 307 219 300 206 C293 194 283 179 271 171 C267 168 238 169 233 173 C229 177 232 185 231 190 C230 195 230 201 230 206 C229 264 170 299 133 278 L133 278 Z M95 181 C96 179 96 176 96 174 C97 160 105 150 116 142 C124 137 132 134 140 130 C149 127 149 126 146 117 C136 88 124 59 108 32 C100 19 93 14 82 32 C69 53 67 75 70 99 C73 116 77 134 81 151 C84 162 88 171 92 181 L95 181 Z M158 169 C150 174 129 204 136 206 C148 210 183 200 158 169 L158 169 Z " />
<glyph glyph-name="p" unicode="p" horiz-adv-x="262" d="M39 307 C32 302 9 287 9 281 C8 265 6 249 5 232 C2 134 -10 -24 6 -116 C8 -127 8 -141 18 -148 C25 -154 37 -155 45 -159 C52 -162 63 -158 71 -157 C84 -61 81 37 80 61 C80 67 79 73 84 80 C92 72 103 70 114 70 L127 70 C146 70 160 79 169 95 C173 102 179 107 187 107 C193 108 198 110 204 112 C211 114 219 117 227 118 C242 121 253 128 264 138 C277 150 285 164 293 178 C300 189 303 201 303 214 C303 216 302 218 301 221 C275 204 274 207 256 185 L247 173 C239 163 228 160 214 160 C216 168 218 174 220 181 C221 186 222 192 223 198 C223 210 218 221 214 232 C213 236 211 241 208 245 C173 286 112 283 81 249 C79 247 77 246 75 243 C70 254 72 264 75 273 C79 286 75 293 63 298 C55 302 47 304 39 307 L39 307 Z M95 143 C92 155 97 166 102 176 C107 190 114 203 122 216 C127 224 135 232 143 237 C154 245 166 240 170 227 C174 215 175 203 170 191 C166 178 159 167 152 154 C151 152 148 150 145 150 C129 147 112 145 95 143 L95 143 Z " />
<glyph glyph-name="q" unicode="q" horiz-adv-x="289" d="M115 97 C114 93 114 90 113 87 C110 78 107 70 106 61 C99 32 94 -33 93 -63 C92 -87 92 -111 100 -135 C105 -150 117 -161 133 -162 C140 -163 147 -165 153 -164 C169 -164 170 -162 179 -151 C187 -140 199 -130 206 -118 C213 -104 218 -91 223 -76 C235 -36 241 40 249 81 C255 108 252 118 278 131 C299 142 315 157 325 178 C331 192 338 207 346 220 C352 231 349 246 331 253 C320 223 300 198 281 173 C277 169 272 165 267 162 C259 159 251 157 243 154 C236 152 230 152 223 155 C219 156 215 157 211 157 L192 157 C193 161 194 164 195 168 C199 184 204 200 208 216 C210 229 214 240 224 249 C231 255 230 259 225 267 C220 276 211 282 202 289 C197 292 192 295 186 299 C185 296 184 295 183 294 C177 283 168 280 159 288 C151 295 141 299 136 309 C135 310 130 312 128 311 C114 304 99 301 87 291 C76 283 64 275 53 267 C49 264 45 260 41 255 C27 236 16 215 8 193 C5 182 2 171 0 159 C-3 142 1 127 14 114 C33 95 55 86 82 90 C93 92 103 94 115 97 L115 97 Z M50 134 C49 145 50 154 56 163 C65 180 77 193 91 206 C102 217 117 223 128 233 C131 236 136 236 143 238 C140 234 139 233 137 230 L107 182 C98 169 90 155 80 142 C72 131 65 130 50 134 L50 134 Z M181 108 C185 99 189 91 193 82 C194 80 194 76 193 74 C186 36 175 -36 164 -72 C164 -73 163 -74 163 -74 C162 -79 159 -83 154 -82 C149 -81 150 -76 150 -72 C151 -45 154 17 160 43 C166 63 172 83 178 102 C178 104 179 105 181 108 L181 108 Z " />
<glyph glyph-name="r" unicode="r" horiz-adv-x="258" d="M87 181 C84 170 73 166 59 122 C51 95 43 67 46 38 C48 8 75 -34 108 -39 C177 -50 212 9 249 68 C281 123 311 195 291 226 C263 237 259 188 253 171 C243 139 189 12 145 10 C126 9 123 38 125 52 C131 92 133 102 146 139 C151 154 153 170 152 187 C151 194 148 200 143 203 C128 213 113 222 95 222 C90 223 85 223 80 224 C80 226 81 228 81 229 C86 238 91 247 95 257 C96 259 97 262 97 265 C96 279 89 289 73 294 C61 297 50 299 38 300 C34 301 29 299 27 296 C13 283 4 266 1 247 C-3 220 19 181 48 178 C53 177 86 177 87 181 L87 181 Z " />
<glyph glyph-name="s" unicode="s" horiz-adv-x="181" d="M220 237 C208 248 197 241 190 228 C177 204 165 179 145 159 C127 141 109 117 82 111 C73 109 63 205 64 212 C66 220 79 240 89 236 C90 236 91 235 91 233 C96 226 99 205 110 214 C114 217 118 222 119 226 C120 233 119 241 119 248 C119 257 113 264 110 273 C105 292 77 293 61 290 C42 286 24 269 13 254 C-10 223 3 177 14 144 C19 130 30 118 35 104 C42 85 31 83 18 72 C-5 54 -25 31 -23 -1 C-23 -15 -9 -30 -2 -41 C16 -65 74 -62 95 -45 C105 -37 113 -28 120 -17 C127 -6 131 8 130 22 C129 35 126 47 117 57 C99 78 109 81 127 90 C144 98 156 112 168 125 C178 137 190 146 197 160 C205 177 238 220 220 237 L220 237 Z M55 10 C51 -1 40 -6 30 -2 C25 0 22 4 24 9 C27 22 30 36 41 47 C45 50 49 53 54 57 C59 40 59 25 55 10 L55 10 Z " />
<glyph glyph-name="t" unicode="t" horiz-adv-x="215" d="M202 148 C186 115 164 52 137 26 C124 13 100 -14 87 15 C79 32 80 53 81 71 C81 91 78 110 78 130 C77 151 80 173 79 195 C78 221 78 246 81 272 C83 284 85 287 97 290 C107 292 148 297 158 300 C163 302 167 306 170 310 C176 316 181 323 186 330 C188 333 190 336 194 340 C180 346 168 340 156 342 C143 343 101 342 87 343 C89 349 90 354 91 359 C98 387 88 405 62 416 C54 420 47 416 45 407 C39 387 33 366 28 346 C26 339 23 336 17 336 L-9 336 C-22 337 -31 332 -41 323 C-28 313 -15 303 -3 294 C0 291 5 291 9 290 C12 290 15 289 18 289 C17 271 16 254 14 237 C13 220 10 204 9 187 C8 160 7 133 7 106 C6 73 7 41 14 9 C19 -12 30 -32 51 -42 C71 -52 92 -63 114 -57 C151 -46 169 -9 190 20 C215 53 234 113 253 148 C260 161 287 217 256 221 C229 223 223 182 213 167 C209 161 206 154 202 148 L202 148 Z " />
<glyph glyph-name="u" unicode="u" horiz-adv-x="301" d="M160 18 C162 15 164 11 166 9 C169 5 172 1 176 -1 C230 -27 293 40 314 84 C324 105 331 129 340 150 C348 168 358 189 346 208 C326 213 317 192 309 177 C296 151 292 141 276 116 C268 103 261 90 251 78 C245 71 226 53 216 69 C211 78 213 83 212 93 C212 107 212 101 210 115 C209 126 209 137 209 148 C209 157 209 167 210 176 C210 187 211 198 212 209 C213 215 214 220 215 226 C215 234 213 242 216 248 C220 258 219 267 221 276 C222 281 220 285 216 288 C204 297 183 291 178 277 C175 267 171 256 169 246 C164 224 159 201 155 179 C149 151 139 124 130 97 C124 81 114 67 101 56 C62 22 71 241 72 260 C72 269 73 279 74 289 C74 295 71 298 67 301 C63 302 59 304 56 305 C51 307 38 305 34 302 C26 295 5 285 4 275 C3 266 3 257 2 249 C1 239 0 230 -1 220 C-2 204 0 167 -1 151 C-3 119 10 88 20 57 C27 33 41 17 66 10 C74 8 82 6 89 3 C105 -2 120 -5 136 3 C144 6 151 12 160 18 L160 18 Z " />
<glyph glyph-name="v" unicode="v" horiz-adv-x="252" d="M108 64 C107 65 107 65 106 65 L103 74 C98 95 94 115 89 135 C86 148 83 160 80 173 C78 179 78 186 77 192 C74 204 70 216 68 228 C64 250 56 275 48 297 C41 315 33 337 11 339 C3 339 3 331 -1 328 L-2 327 C-5 323 -5 319 -3 314 C-1 312 0 308 0 304 C3 288 5 272 8 256 C12 233 16 210 19 187 C23 160 26 133 30 105 C33 83 36 60 40 37 C44 22 49 7 55 -8 C56 -11 59 -15 61 -16 C71 -19 81 -20 90 -23 C118 -29 118 -30 136 -5 C142 2 147 9 150 17 C155 29 159 41 164 54 C169 69 177 83 182 99 C187 111 189 124 193 137 C197 149 202 162 206 175 C207 179 209 181 213 181 C230 179 246 185 261 192 C272 197 280 205 283 217 C285 223 285 231 278 237 C268 232 257 228 247 223 C237 218 227 213 215 213 C214 215 214 216 214 217 C217 228 221 239 224 250 L224 255 C223 262 223 270 223 277 C222 284 214 292 208 292 C203 292 198 292 193 293 C182 295 174 291 166 284 C164 282 162 279 160 277 C148 265 145 250 150 234 C152 228 155 222 159 218 C165 212 166 205 163 198 C160 190 157 181 157 172 C158 169 156 166 155 162 C151 153 147 143 142 134 C134 116 125 98 116 80 C114 75 111 70 108 64 L108 64 Z " />
<glyph glyph-name="w" unicode="w" horiz-adv-x="406" d="M87 268 C85 271 83 273 81 275 C69 282 57 290 45 296 C34 302 20 295 16 283 C14 274 13 265 11 256 C5 228 0 201 1 174 C2 152 2 130 3 108 C4 82 7 57 15 31 C19 18 25 5 36 -3 C52 -14 70 -19 89 -21 C93 -21 97 -21 100 -19 C115 -11 129 0 136 16 C150 51 161 88 168 124 C168 126 170 128 172 131 C173 119 174 108 176 97 C180 76 186 55 186 33 C187 13 195 1 212 -7 C216 -9 219 -12 222 -13 C231 -15 241 -16 248 -17 C253 -10 258 -3 262 3 C273 18 284 33 289 51 C294 69 298 87 305 105 C309 115 311 126 313 137 C315 148 316 159 318 171 C321 169 324 169 326 168 C368 146 415 159 444 196 C451 205 462 209 463 222 C465 260 432 233 419 220 C407 208 392 200 374 196 C364 194 354 194 345 200 C339 204 333 209 327 214 C322 217 321 221 322 228 C324 238 326 249 324 260 C321 278 320 297 315 315 C311 326 307 337 301 347 C291 362 270 364 258 363 C256 363 255 361 253 360 C243 351 233 339 226 327 C222 319 218 310 216 301 C213 281 220 264 235 251 C241 246 246 241 252 236 C257 232 258 229 257 223 C250 194 244 165 237 136 C236 130 234 124 232 118 C229 121 227 125 226 129 C221 149 217 170 213 190 C211 196 208 203 209 209 C210 219 206 221 200 226 C194 231 189 237 184 242 C172 253 166 242 155 232 C138 214 129 192 120 170 C106 132 93 94 80 57 C79 54 78 52 77 50 C74 65 71 80 71 94 C70 134 69 173 75 212 C78 230 78 249 87 268 L87 268 Z " />
<glyph glyph-name="x" unicode="x" horiz-adv-x="327" d="M304 246 C294 256 288 268 285 282 L274 314 C273 317 271 320 271 324 C271 330 267 335 262 337 C252 342 241 345 231 350 C220 355 211 351 202 343 C198 340 195 336 192 331 C174 317 162 301 149 281 C141 262 131 246 120 227 C118 229 117 228 116 230 C104 256 90 280 80 306 C76 326 55 329 37 328 C36 328 35 326 33 325 C37 309 44 294 46 277 C53 256 58 235 62 216 C68 198 76 182 80 163 C82 158 85 153 82 149 C72 131 67 115 59 100 C51 83 44 61 33 43 C24 22 13 4 -7 -9 C-13 -13 -16 -18 -19 -23 C-25 -35 -21 -53 -9 -61 C-7 -62 -5 -63 -3 -64 C3 -65 9 -65 15 -65 C23 -66 32 -64 39 -58 C43 -56 47 -53 51 -52 C66 -50 72 -41 81 -30 C85 -24 90 -18 91 -12 L100 0 C105 15 113 33 118 50 C131 25 143 5 164 -10 C185 -23 207 -28 232 -26 C237 -19 242 -15 245 -10 C242 -3 237 3 235 9 C229 11 223 12 219 15 C206 26 197 38 190 51 C181 75 172 99 165 124 C165 129 160 136 161 140 C164 148 169 155 172 163 C184 191 202 218 219 246 C222 252 225 259 231 267 C232 262 234 260 235 256 C247 227 285 197 326 204 C334 206 340 209 344 215 C354 233 362 252 372 269 C376 274 374 280 371 286 C369 284 367 283 366 282 C354 273 341 262 329 253 C322 246 314 245 304 246 L304 246 Z " />
<glyph glyph-name="y" unicode="y" horiz-adv-x="332" d="M385 244 C361 257 334 187 327 170 C313 142 248 29 230 19 C223 15 225 10 221 19 C220 22 221 29 222 32 C224 45 226 65 227 80 C229 103 231 134 231 157 C232 179 229 193 227 208 C226 233 224 254 222 276 C221 283 219 289 213 289 C202 291 193 296 185 302 C184 303 184 302 184 303 C157 290 144 265 140 238 C137 213 132 194 127 174 C119 136 106 98 90 68 C84 51 84 51 72 53 C63 79 64 98 65 125 C66 143 68 177 71 201 C72 208 73 214 75 221 C79 236 77 253 77 266 C77 273 75 279 70 285 C61 295 38 298 26 299 C15 299 10 291 7 288 C6 274 6 267 4 260 C-8 212 -6 149 -4 99 C-3 68 7 35 38 19 C59 9 80 -3 103 9 C120 13 133 20 147 32 C145 14 142 -9 140 -25 C123 -29 107 -31 92 -35 C74 -39 59 -51 46 -66 C20 -91 -8 -143 15 -185 C24 -201 38 -216 53 -225 C79 -239 110 -236 138 -228 C156 -220 166 -206 178 -189 C196 -165 208 -126 212 -91 C214 -80 212 -67 217 -58 C224 -39 241 -36 253 -29 C284 -10 343 86 359 123 C369 139 409 229 385 244 L385 244 Z M122 -130 C121 -133 118 -137 115 -138 C98 -147 80 -151 61 -148 C55 -147 52 -139 55 -133 C62 -121 69 -106 77 -92 C82 -87 90 -83 96 -81 C107 -77 119 -74 131 -71 C131 -71 132 -72 133 -73 C130 -90 126 -114 122 -130 L122 -130 Z " />
<glyph glyph-name="z" unicode="z" horiz-adv-x="260" d="M91 57 C94 62 98 66 100 71 C107 82 113 94 120 105 C127 117 135 128 142 140 C150 155 157 170 166 185 C182 211 197 238 210 265 C215 275 216 285 218 295 C219 298 218 303 216 306 C205 320 189 329 172 325 C147 319 122 312 97 307 C83 304 69 299 55 298 C42 297 32 297 20 290 C-14 271 -16 229 -14 192 C-13 180 -5 180 6 181 C17 181 20 188 24 198 C30 210 35 224 45 233 C58 243 77 240 93 243 C100 243 107 245 114 246 C124 246 134 251 145 247 C142 241 140 236 137 232 C116 201 94 171 72 140 C65 130 57 121 49 111 C36 95 23 78 10 62 C-1 49 -17 34 -12 15 C-11 8 18 -29 26 -22 C28 -20 31 -18 33 -16 C43 -3 56 -1 72 -2 C104 -4 137 0 170 1 C186 2 205 4 218 15 C235 28 245 53 253 72 C257 83 261 95 265 107 C269 120 278 130 284 143 C289 155 294 167 300 178 C306 190 311 203 309 217 C307 225 297 241 286 240 C275 239 275 210 270 201 C260 181 253 160 241 141 C230 124 222 105 211 88 C202 74 190 69 174 64 C157 59 140 55 121 55 C118 55 90 57 89 52 C90 53 90 55 91 57 L91 57 Z " />
<glyph glyph-name="braceleft" unicode="&#x7b;" horiz-adv-x="161" d="M153 17 C154 18 154 21 153 24 C153 25 153 28 152 29 C150 33 147 35 145 37 C139 40 136 34 133 31 L132 30 L130 31 C129 31 128 30 127 29 C121 27 112 29 106 33 C100 35 97 48 96 55 C92 69 96 84 96 97 C96 110 94 123 100 134 C102 141 102 145 102 153 C102 157 102 161 103 167 L108 185 C108 192 109 196 109 202 C109 202 109 203 110 203 C110 205 112 211 112 212 C111 213 111 213 112 214 C113 214 114 215 114 216 C113 217 114 219 114 219 C116 221 115 225 116 228 L116 244 L114 252 L114 254 C113 255 113 258 112 261 C111 261 111 262 112 263 C113 266 103 277 101 279 C96 284 88 290 81 291 C77 292 72 292 66 294 C63 296 77 310 78 311 L87 316 C89 320 91 322 94 325 C98 330 101 334 103 339 C105 345 105 349 106 354 C108 356 110 363 109 365 L109 367 C110 368 111 370 110 371 L110 377 C110 378 110 378 109 378 C109 380 106 399 103 403 L103 405 C103 408 103 411 101 414 L101 416 L94 441 L92 449 L89 460 C88 464 89 469 89 474 L89 488 C89 496 88 501 89 508 L92 515 C93 517 93 522 96 524 C97 527 99 529 102 533 C103 533 103 535 104 535 L105 536 L106 536 C108 536 109 537 110 538 C111 540 113 539 115 540 C118 544 123 543 127 545 C133 547 132 557 130 562 C129 576 112 576 102 573 L98 573 C96 572 93 572 92 570 C91 570 90 569 89 569 C87 567 82 567 79 563 C78 562 76 562 75 559 C74 559 73 558 73 557 L74 557 C70 553 67 552 67 546 C67 545 64 544 64 543 C64 541 63 541 62 540 C62 539 61 539 60 537 C61 537 60 536 60 536 L57 528 C57 527 57 526 56 524 C54 522 56 516 55 513 C51 510 55 503 52 500 C45 490 51 407 52 406 C53 405 53 405 52 404 C54 402 53 398 54 395 C55 394 55 394 55 393 L55 392 C55 390 55 389 56 386 C56 384 56 381 57 379 L57 377 C57 373 57 370 58 367 L60 366 L60 365 C60 363 60 362 58 361 L58 359 C60 351 60 346 58 338 C54 333 47 327 41 325 C34 322 26 323 21 319 C20 316 18 318 17 318 C16 318 15 316 14 315 C13 313 9 313 8 312 L6 309 C4 308 3 306 1 304 C-1 301 -2 297 1 294 L3 290 L4 290 L4 289 C4 286 5 285 6 285 L7 285 L8 284 C13 282 16 277 21 279 C22 279 25 278 26 277 C31 277 34 271 39 268 C41 268 42 265 43 265 C44 265 46 263 47 263 L52 261 C56 258 60 256 62 252 C65 248 66 242 66 236 L66 225 C66 224 66 223 65 221 C65 216 64 212 64 207 L64 203 C64 202 63 201 63 200 L64 200 C63 197 63 196 64 195 C64 193 44 121 42 113 C41 112 41 110 41 109 L41 105 C40 99 40 93 41 86 C42 83 42 77 42 73 C44 70 41 63 44 59 C45 58 45 55 46 52 C49 51 49 48 51 47 L54 40 C57 34 62 30 66 25 C70 21 75 16 79 13 C80 11 81 10 82 10 C84 7 86 7 88 6 L89 7 L90 6 L94 4 C97 2 100 4 102 2 C104 0 108 0 110 1 L112 1 C114 0 115 0 117 1 L120 1 C125 0 129 -1 135 2 C136 3 138 3 140 4 L145 6 C147 7 148 9 149 10 C152 13 153 15 153 17 L153 17 Z " />
<glyph glyph-name="bar" unicode="&#x7c;" horiz-adv-x="80" d="M7 669 C2 645 0 631 2 613 C6 586 6 563 5 538 C6 531 8 458 9 444 C8 440 7 429 9 419 L9 417 C12 403 8 388 11 375 C11 369 7 361 10 354 C13 345 6 337 10 327 L10 325 C12 316 9 310 12 301 C10 282 5 263 7 243 C9 233 6 223 8 214 C8 206 7 201 6 194 C6 171 5 151 5 129 C5 123 6 117 6 108 C7 92 7 75 7 61 C7 37 7 10 8 -13 C9 -26 14 -39 24 -46 L26 -7 C27 4 27 11 29 21 C42 64 47 113 49 165 C50 184 54 209 56 231 C58 263 62 296 62 325 C62 375 59 427 57 476 C56 520 53 566 44 607 C38 641 25 659 7 669 L7 669 Z " />
<glyph glyph-name="braceright" unicode="&#x7d;" horiz-adv-x="157" d="M-1 17 C-1 15 0 13 3 10 C4 9 5 7 7 6 L12 4 C14 3 16 3 17 2 C23 -1 27 0 32 1 L35 1 C37 0 38 0 40 1 L42 1 C44 0 48 0 50 2 C52 4 55 2 58 4 L62 6 L63 7 L64 6 C66 7 68 7 70 10 C71 10 72 11 73 13 C77 16 82 21 86 25 C90 30 95 34 98 40 L101 47 C103 48 103 51 106 52 C107 55 107 58 108 59 C111 63 108 70 110 73 C110 77 110 83 111 86 C112 93 112 99 111 105 L111 109 C111 110 111 112 110 113 C108 121 88 193 88 195 C89 196 89 197 88 200 L89 200 C89 201 88 202 88 203 L88 207 C88 212 87 216 87 221 C86 223 86 224 86 225 L86 236 C86 242 87 248 90 252 C92 256 96 258 100 261 L105 263 C106 263 108 265 109 265 C110 265 111 268 113 268 C118 271 121 277 126 277 C127 278 130 279 131 279 C136 277 139 282 144 284 L145 285 L146 285 C147 285 148 286 148 289 L148 290 L149 290 L151 294 C154 297 153 301 151 304 C149 306 148 308 146 309 L144 312 C143 313 139 313 138 315 C137 316 136 318 135 318 C134 318 132 316 131 319 C126 323 118 322 111 325 C105 327 98 333 94 338 C92 346 92 351 94 359 L94 361 C92 362 92 363 92 365 L92 366 L94 367 C95 370 95 373 95 377 L95 379 C96 381 96 384 96 386 C97 389 97 390 97 392 L97 393 C97 394 97 394 98 395 C99 398 98 402 100 404 C99 405 99 405 100 406 C101 407 107 490 100 500 C97 503 101 510 97 513 C96 516 98 522 96 524 C95 526 95 527 95 528 L92 536 C92 536 91 537 92 537 C91 539 90 539 90 540 C89 541 88 541 88 543 C88 544 85 545 85 546 C85 552 82 553 78 557 L79 557 C79 558 78 559 77 559 C76 562 74 562 73 563 C70 567 65 567 63 569 C62 569 61 570 60 570 C59 572 56 572 54 573 L50 573 C40 576 23 576 22 562 C20 557 19 547 25 545 C29 543 34 544 37 540 C39 539 41 540 42 538 C43 537 44 536 46 536 L47 536 L48 535 C49 535 49 533 50 533 C53 529 55 527 56 524 C59 522 59 517 60 515 L63 508 C64 501 63 496 63 488 L63 474 C63 469 64 464 63 460 L60 449 L58 441 L51 416 L51 414 C49 411 49 408 49 405 L49 403 C46 399 43 380 43 378 C42 378 42 378 42 377 L42 371 C41 370 42 368 43 367 L43 365 C42 363 44 356 46 354 C47 349 47 345 49 339 C51 334 54 330 58 325 C61 322 63 320 65 316 L74 311 C75 310 89 296 86 294 C80 292 75 292 71 291 C64 290 56 284 51 279 C49 277 39 266 40 263 C41 262 41 261 40 261 C39 258 39 255 38 254 L38 252 L36 244 L36 228 C37 225 36 221 38 219 C38 219 39 217 38 216 C38 215 39 214 40 214 C41 213 41 213 40 212 C40 211 42 205 42 203 C43 203 43 202 43 202 C43 196 44 192 44 185 L49 167 C50 161 50 157 50 153 C50 145 50 141 52 134 C58 123 56 110 56 97 C56 84 60 69 56 55 C55 48 52 35 46 33 C40 29 31 27 25 29 C24 30 23 31 22 31 L20 30 L19 31 C16 34 13 40 7 37 C5 35 2 33 0 29 C-1 28 -1 25 -1 24 C-2 21 -2 18 -1 17 L-1 17 Z " />
<glyph glyph-name="asciitilde" unicode="&#x7e;" horiz-adv-x="332" d="M314 221 L314 223 C308 239 303 249 290 253 C287 256 269 265 265 258 C266 251 275 252 275 242 C275 233 270 223 265 220 C256 211 250 205 242 203 C227 193 207 195 191 196 C174 197 158 204 144 210 C129 221 111 222 95 229 C75 237 58 247 39 239 C17 233 3 218 2 195 C2 193 1 190 2 184 C3 181 3 179 3 176 C2 176 2 176 2 175 L3 173 C3 172 8 170 9 168 C9 166 11 164 12 163 C13 163 13 162 14 160 C28 149 36 168 39 179 C41 194 51 208 67 207 C83 206 95 195 108 186 C114 181 117 181 126 179 C135 176 147 168 158 163 C174 154 194 154 214 154 C227 154 243 150 256 157 C266 160 277 160 283 170 C289 172 292 175 293 179 C300 182 302 186 303 188 C305 190 305 193 306 195 L306 194 C316 197 315 210 314 221 L314 221 Z " />
<glyph glyph-name="exclamdown" unicode="&#xa1;" horiz-adv-x="109" d="M97 0 C106 18 107 19 100 33 C98 37 96 47 94 60 L94 64 L96 66 L96 67 C97 67 96 68 94 68 L96 68 C96 69 93 71 93 72 C91 82 90 94 90 107 C90 123 91 137 90 151 C89 156 89 161 90 168 C89 168 89 169 88 169 L89 169 C89 178 88 189 90 198 C89 199 89 201 90 204 C90 207 90 208 91 211 C89 216 90 222 90 227 C89 229 89 230 89 231 C89 239 90 245 89 253 C89 258 91 265 91 270 L88 282 C88 296 91 302 88 315 C87 321 88 314 89 319 C89 321 90 322 89 322 L89 331 C87 337 88 344 88 349 C88 350 87 350 87 350 L87 355 C88 357 88 358 88 359 C88 363 90 367 87 370 L88 370 C86 372 86 377 86 380 L85 380 C85 381 84 383 83 384 C83 385 82 385 83 387 L81 394 C79 396 80 399 78 402 C75 406 74 412 70 415 C69 416 68 418 67 418 C65 418 60 423 56 424 C53 423 50 424 48 424 C44 423 38 425 36 418 L36 421 L34 421 L34 416 C32 415 31 414 31 411 C27 406 31 398 28 393 C29 390 29 389 27 388 C25 379 27 370 27 361 C28 359 28 358 27 357 C28 355 28 354 29 354 C28 354 27 353 27 352 C27 350 28 349 28 349 L27 346 C27 346 27 344 26 344 C25 340 25 337 25 335 L27 331 C26 330 25 327 26 323 L24 319 C24 318 24 327 22 326 C21 322 21 319 22 315 C24 313 24 309 22 305 C19 293 22 286 19 274 C17 270 17 267 18 264 C19 261 19 260 18 257 C16 252 16 245 18 240 L18 238 C18 236 19 236 19 235 L19 231 C19 220 18 208 18 196 L9 101 C3 53 14 42 54 22 C63 16 72 13 82 7 L97 0 Z M25 495 L25 493 C27 489 27 485 29 482 L31 480 C32 476 33 476 34 475 C35 476 36 476 36 475 C39 472 42 473 43 472 L46 472 C50 468 54 472 57 468 C62 468 64 467 67 464 C73 463 78 467 83 467 C86 467 87 468 87 469 L89 480 L89 477 C91 481 91 486 92 486 C94 489 94 493 92 494 L92 495 L93 497 C94 500 94 503 94 507 C94 507 94 508 93 511 C94 515 97 519 97 520 C94 520 92 519 91 519 C87 524 83 530 78 534 C67 551 58 552 39 544 C39 539 25 542 30 529 L31 530 C32 528 31 525 31 522 L31 521 C30 516 30 511 25 508 L25 507 C22 502 22 497 25 495 L25 495 Z " />
<glyph glyph-name="cent" unicode="&#xa2;" horiz-adv-x="260" d="M243 306 C241 310 243 318 242 322 C242 328 240 333 238 338 C237 338 237 339 237 340 C236 340 235 341 235 342 C235 342 234 342 234 343 L233 344 C232 345 232 346 231 346 C231 347 231 348 230 348 C230 349 229 350 229 350 L226 353 C226 353 225 354 225 355 L224 355 L222 357 C221 357 220 357 219 358 L212 358 C211 359 209 359 207 360 C205 362 202 361 200 363 C199 362 199 362 198 363 C196 365 194 365 192 366 L190 368 C189 368 188 370 188 371 L188 377 C187 379 188 380 187 382 C186 383 186 385 187 386 C188 389 187 392 188 394 C189 395 189 397 189 398 C191 400 189 403 191 406 C190 406 190 407 191 407 C192 409 193 410 193 412 C192 414 192 416 193 418 L193 423 C193 424 192 425 191 426 C190 427 190 428 190 429 C190 430 190 431 189 432 C189 432 188 433 188 434 L187 434 C186 435 186 436 185 436 C184 436 184 437 183 437 L180 439 C179 439 178 440 178 440 L174 442 L171 442 C166 446 160 448 154 445 C153 445 152 444 152 445 L150 445 L148 443 L147 443 C147 442 146 441 145 441 C145 440 144 439 144 438 C143 437 143 436 143 435 C142 434 142 433 143 432 C144 425 141 420 138 415 C135 408 135 401 133 395 L133 391 C134 388 134 386 133 383 L133 382 C133 380 134 378 133 377 C130 374 136 371 132 368 C128 366 125 367 121 367 C120 368 119 368 118 368 C117 368 115 368 113 367 C113 367 112 367 111 366 C109 366 108 365 106 365 C105 365 105 364 104 364 C103 364 102 363 101 362 C100 362 99 362 98 361 C97 361 96 360 95 360 C94 359 94 359 93 359 C92 358 91 358 90 358 C89 357 88 357 87 357 L84 355 C83 355 83 354 82 354 C81 354 81 353 80 352 L79 352 C79 351 78 351 77 351 C77 350 76 350 75 349 C75 349 74 349 74 348 L73 347 C72 347 72 346 71 346 L70 345 C70 344 69 344 69 343 C68 343 68 342 67 342 C66 342 66 341 65 341 C64 341 64 340 63 340 L61 338 L61 337 C60 337 59 336 59 336 L58 335 C58 334 57 334 57 333 L56 333 C55 332 55 331 54 331 L53 330 C53 330 52 329 52 328 C51 328 51 327 51 326 C50 326 50 325 50 324 C49 324 49 323 49 322 L47 319 C47 318 46 318 46 317 C46 316 45 316 45 315 L44 314 C44 313 43 313 43 312 C42 312 42 312 42 311 C41 311 41 310 40 310 C40 309 39 308 39 307 C40 306 39 305 38 304 C38 303 37 303 36 303 C36 302 35 302 35 301 L33 298 C33 297 32 297 32 296 C32 295 31 294 31 293 C30 292 30 292 30 291 C30 290 30 288 29 288 C29 287 28 287 27 286 L25 283 L25 280 L23 275 C23 274 23 273 22 273 C22 271 21 270 21 269 C20 268 20 267 20 266 C21 264 21 263 20 261 L20 259 C18 258 17 255 16 253 C16 252 15 251 15 250 L13 244 C13 243 12 241 12 240 C12 238 13 236 13 234 C13 234 12 234 12 233 C10 231 11 229 11 226 C11 223 12 219 11 216 C10 208 10 200 10 192 C10 189 11 185 12 182 L12 172 C13 170 15 168 16 165 C17 163 16 162 16 159 C16 157 17 157 17 155 C17 155 17 153 18 153 C18 152 19 151 19 151 C18 149 18 148 20 147 L20 145 C21 143 21 141 22 140 C24 137 23 133 26 131 L26 130 C27 125 29 121 32 116 C32 116 33 115 33 114 C42 103 49 92 57 82 L59 80 L62 78 C62 78 63 78 63 77 C64 77 64 76 65 76 C65 75 66 75 66 75 C67 74 67 73 68 73 C69 72 69 71 70 71 L73 68 L76 68 C76 68 76 67 77 67 L78 67 L78 66 C79 66 80 65 81 65 C81 63 82 63 84 63 L83 62 L84 61 L90 61 C92 61 95 56 98 57 C99 55 100 54 102 53 L104 51 C105 51 105 50 106 50 C105 48 105 46 104 45 C105 45 104 44 104 43 C103 42 102 40 102 38 L102 35 C101 35 101 34 101 33 L98 29 C97 27 97 26 97 24 C97 22 96 19 95 16 L95 13 C96 8 97 3 95 -3 C96 -5 96 -8 95 -11 C93 -12 92 -14 92 -17 C93 -18 93 -19 93 -20 C94 -22 95 -23 95 -25 C95 -26 95 -27 96 -28 C97 -32 97 -36 100 -39 C101 -40 102 -41 103 -41 C107 -43 110 -44 114 -45 C117 -45 120 -47 122 -47 C131 -47 132 -39 134 -33 C136 -28 140 -24 140 -19 C140 -15 138 -10 142 -6 C144 -3 141 1 144 4 C144 6 143 8 144 10 L146 16 C146 17 146 19 147 20 C149 24 147 28 149 32 C148 34 148 37 149 39 C150 48 159 43 163 45 C164 45 164 45 165 46 C167 44 168 44 170 46 L171 46 L177 48 L181 48 L184 50 L185 51 L186 51 C187 51 188 52 189 52 L189 53 L191 53 C196 55 201 56 205 60 C206 60 207 61 207 62 C212 65 214 74 216 79 C220 85 225 90 227 96 L229 117 C229 122 229 128 227 133 C226 136 224 138 223 140 L218 146 C218 147 217 148 216 149 L214 151 C214 152 213 153 211 153 C211 153 210 153 210 154 C207 156 203 154 200 156 L198 156 C195 157 192 158 189 156 C188 155 187 154 186 154 C185 151 185 149 187 147 C187 146 188 145 188 144 C189 144 189 143 189 142 C189 142 191 138 192 137 L192 132 C192 128 191 125 189 122 C187 119 185 116 182 114 L173 106 C170 103 163 100 159 98 L154 94 C149 92 142 93 137 93 C129 93 122 92 116 96 C110 99 107 106 102 109 C101 110 100 111 100 112 C98 113 99 115 97 116 C96 117 96 118 95 118 C94 119 95 119 95 120 C95 121 94 122 94 123 C94 124 92 127 90 128 C89 129 89 131 88 133 C86 134 87 136 85 137 C83 139 85 142 83 144 L82 145 L83 146 C82 148 82 150 81 151 C79 155 79 160 79 164 C78 170 79 177 79 183 C79 187 78 195 81 199 C80 199 80 200 81 201 C83 203 81 206 83 208 C82 210 82 213 83 215 C85 217 84 220 85 223 L85 224 C87 226 87 228 87 230 C87 230 87 231 88 231 C89 232 90 233 90 234 C89 235 89 236 90 236 C91 238 91 240 92 241 C92 242 92 243 93 243 C93 244 94 245 94 246 L94 247 L95 248 C96 249 96 251 97 253 C96 254 97 254 97 255 C98 256 99 257 99 258 L99 259 L100 259 C100 260 101 261 102 263 C101 263 101 264 102 264 C103 265 104 266 104 267 C106 268 105 270 106 271 C107 272 108 273 108 274 C110 275 110 276 110 277 C111 278 112 279 113 279 C115 281 117 284 120 286 L126 290 C130 293 133 297 138 300 C142 302 147 303 152 305 C155 307 159 308 162 311 C172 317 181 321 192 324 C203 327 204 323 210 316 C211 316 211 315 210 314 C210 314 211 314 211 313 C211 312 211 311 210 311 C210 305 211 300 209 295 C209 293 209 291 208 289 C208 289 208 288 207 288 C205 286 205 274 206 272 C207 270 209 270 210 269 C214 266 219 262 224 264 C225 265 227 265 229 266 L229 267 L230 267 C232 267 232 268 233 269 C234 270 235 271 235 272 L235 273 L236 274 C237 274 237 275 238 277 C237 278 238 279 238 281 C240 283 241 285 242 287 L242 290 C242 293 241 295 243 297 C242 298 242 299 243 299 C244 302 244 304 243 306 L243 306 Z " />
<glyph glyph-name="sterling" unicode="&#xa3;" horiz-adv-x="369" d="M331 18 L330 18 C335 24 343 33 345 33 L346 33 L350 37 L350 38 C350 41 355 44 355 49 C355 50 354 56 354 56 C358 59 356 53 358 74 C364 74 355 94 354 97 L337 116 C331 119 327 122 319 120 C306 115 308 102 312 92 C315 85 318 85 322 80 C326 76 323 75 324 71 C325 70 324 69 323 69 C321 67 318 65 319 61 C319 60 318 60 318 59 L314 56 L312 56 C310 56 308 53 307 51 C305 50 303 51 301 49 L297 49 C293 51 290 46 286 49 C280 53 274 44 267 49 C266 51 264 50 262 51 C256 51 251 45 245 51 L241 51 C239 50 237 51 235 49 L231 49 C229 51 227 50 225 51 C224 53 222 53 221 52 L218 52 C217 53 215 53 213 54 C212 56 209 56 207 56 L206 57 C205 57 204 58 203 58 C203 60 202 61 200 61 C199 60 197 61 196 62 C195 62 195 63 194 64 C193 65 190 65 189 67 C188 67 187 68 186 69 C184 71 180 72 176 73 C175 73 175 73 174 74 C172 79 166 79 161 81 C160 82 158 83 157 83 L154 86 C153 85 152 85 152 86 C146 89 141 97 133 95 C132 95 131 95 130 96 L126 101 L126 103 C128 113 125 123 127 133 C127 137 128 141 128 144 C125 148 128 153 125 157 L125 160 C125 161 125 163 126 164 C127 166 127 167 126 169 C125 171 124 172 125 174 C125 175 127 177 125 179 C124 180 124 181 125 182 L125 186 C124 187 124 189 123 191 C122 192 122 194 123 196 C120 200 123 206 121 211 C120 213 120 215 120 218 C119 222 118 226 120 230 L120 232 C122 234 126 236 127 236 L128 235 C127 235 127 234 127 234 C132 235 136 235 141 233 L142 233 L142 232 C144 231 146 231 147 233 L155 233 C157 231 160 231 162 232 L163 233 L164 233 C174 231 179 231 189 233 C190 234 192 236 194 236 C195 236 196 237 196 238 C198 239 198 241 198 243 C198 245 203 247 203 249 C204 251 204 253 204 256 C204 261 203 266 199 270 C193 275 185 279 177 280 C169 281 154 278 146 282 C139 286 134 285 128 281 C114 278 115 278 113 291 C112 297 116 303 111 308 L110 309 L110 310 C109 319 109 329 111 338 L111 340 C113 343 111 347 113 350 L113 355 C115 358 113 362 115 365 C119 368 115 372 118 375 C118 376 118 376 119 377 C120 379 119 382 120 385 C122 386 122 388 123 390 L122 391 L123 392 C124 393 124 395 125 397 C125 398 125 399 126 399 L130 407 C132 407 131 410 133 411 C133 412 134 413 135 414 C136 414 137 415 138 416 C138 417 139 418 140 419 C141 419 142 420 142 422 C143 422 144 423 145 424 C146 425 148 424 149 426 C152 428 155 426 157 428 C164 432 170 423 169 417 C168 410 162 404 159 399 C157 397 157 394 156 392 C154 391 148 390 148 387 C148 385 143 384 141 382 C137 376 144 374 145 370 L145 368 C145 367 146 366 148 365 C150 363 152 361 155 360 L155 358 C157 358 160 358 162 356 L163 357 L164 357 C167 359 170 360 171 363 C174 365 176 367 176 370 C177 370 177 371 177 372 C181 375 184 378 187 382 C187 383 188 383 189 385 C190 385 190 386 192 387 L197 391 C197 392 198 393 199 394 C200 396 200 398 201 399 C204 401 202 404 204 406 C209 412 212 432 208 439 C203 450 190 454 180 457 C175 459 170 462 164 463 C158 464 152 463 145 462 C136 462 128 461 121 456 C116 452 106 446 103 441 C102 439 99 440 99 437 C96 436 95 433 94 431 C92 428 90 426 89 423 C86 421 88 418 86 416 C84 414 82 412 83 409 L84 408 C84 407 83 407 83 406 C83 405 82 404 82 404 C80 402 80 400 79 398 C80 396 79 395 78 394 C77 392 78 390 77 389 C76 387 76 386 76 384 C73 382 74 377 72 374 C70 370 75 366 72 362 C68 354 68 346 69 338 L69 331 C70 330 70 329 69 328 C70 327 70 327 69 326 C71 324 70 322 69 320 C66 316 70 312 70 308 C70 306 69 304 69 302 L70 301 C70 300 70 299 69 299 C67 295 67 292 68 287 C72 275 70 273 57 273 C52 273 47 270 42 269 L40 269 C39 268 38 269 36 269 C32 267 27 269 23 267 L20 267 C16 269 11 271 6 270 L3 264 C1 262 3 259 1 257 L1 243 C3 241 1 237 3 235 L5 233 C6 232 6 232 6 231 C6 230 7 229 8 228 C9 227 10 226 10 225 L16 223 L18 223 C19 222 19 222 20 223 L25 223 C32 221 40 221 47 223 L51 223 C56 225 60 225 65 223 L66 223 C68 224 70 224 72 223 C75 222 78 220 79 216 L79 213 C77 210 76 206 79 203 C82 194 78 183 81 174 C82 173 82 173 81 172 C83 167 83 163 81 159 C82 158 82 158 82 157 C81 156 82 149 82 148 L82 138 C82 134 80 130 81 126 C81 124 82 122 82 120 C82 115 80 110 75 108 C68 104 60 108 53 109 C43 110 42 101 33 98 C30 97 29 95 28 93 L25 91 C21 90 18 86 16 83 C14 82 14 79 13 77 L13 76 C11 75 12 72 10 71 L10 69 C9 67 9 65 8 64 L8 61 C5 57 8 51 6 46 C6 43 6 40 5 37 L5 35 C5 32 6 30 6 28 C7 25 6 22 8 20 L8 18 L10 12 C11 12 12 11 12 10 C11 9 11 5 12 4 C14 2 17 3 19 1 C20 0 20 -2 21 -4 C23 -15 33 -15 42 -16 C54 -16 64 -9 76 -10 C83 -10 84 -3 89 0 L101 10 C108 13 111 19 114 25 C115 28 119 31 119 34 C118 39 128 38 125 44 C124 54 125 55 134 53 C137 52 139 50 143 50 C144 50 145 49 145 47 C146 45 148 46 150 45 C151 43 154 43 155 42 L162 39 C163 38 164 37 166 37 C167 38 168 37 169 35 C170 35 171 33 172 33 C174 33 178 30 182 29 L184 27 C186 25 189 24 192 23 C193 21 195 21 196 20 C198 18 200 19 202 18 L203 18 L204 17 C207 16 209 13 212 13 L213 13 L213 12 C214 12 215 10 216 11 C221 6 228 11 233 8 L234 8 L235 7 C241 5 247 6 252 3 C261 2 270 1 279 -1 C281 -1 283 -1 284 1 C286 1 288 1 289 2 L290 3 L291 3 C293 4 295 4 296 5 C297 6 298 7 299 7 L300 8 L301 8 C305 10 310 9 313 13 C315 14 317 14 319 12 L321 12 C325 13 327 16 329 19 C329 19 329 18 330 18 C330 17 330 17 331 18 L331 18 Z M83 33 C73 25 58 26 53 28 C33 32 50 52 59 59 C66 65 69 71 78 71 C82 71 95 68 97 64 C100 57 94 40 83 33 L83 33 Z " />
<glyph glyph-name="currency" unicode="&#xa4;" horiz-adv-x="342" d="M324 378 C323 379 323 380 323 380 L323 384 L322 387 C322 393 323 394 323 396 C323 397 323 398 322 402 C318 402 318 407 314 407 L313 407 C311 407 310 407 309 402 L303 402 C301 398 300 397 298 397 C298 396 298 396 297 396 C297 395 296 394 291 393 C291 392 289 392 289 392 C286 384 280 380 276 378 C276 378 274 373 271 373 C264 368 262 358 254 355 C252 355 251 355 249 350 C244 356 236 358 227 366 C226 367 222 367 221 368 C208 373 195 373 182 371 C168 371 152 371 136 368 C123 366 109 356 95 350 C95 350 94 350 93 348 C90 355 88 356 85 356 C79 359 77 370 70 378 C68 378 65 379 63 380 C60 380 54 387 51 393 C51 394 50 394 50 394 C48 395 43 396 43 397 L42 398 C41 402 39 407 38 407 C36 408 36 408 30 408 C30 408 29 409 29 409 L28 409 C26 409 25 408 21 408 C21 407 17 402 17 398 C17 396 21 395 21 393 L17 392 L17 384 C17 383 16 380 16 380 C16 379 16 378 17 371 L17 368 C21 366 25 359 26 356 C26 356 26 355 28 350 C28 348 29 346 30 344 C30 340 30 339 30 339 C30 336 36 334 36 334 L38 332 C39 330 41 329 41 324 C42 319 43 314 50 307 C39 296 30 284 30 273 C29 260 25 251 25 240 C25 227 28 218 29 207 C30 197 30 187 39 178 C41 177 42 171 43 170 L42 167 C42 167 41 165 41 164 L36 152 C36 150 36 149 30 147 C30 141 29 135 28 130 C26 129 26 124 26 123 C26 121 26 120 25 113 C25 112 21 111 21 108 C17 100 16 98 15 95 L15 81 C15 81 15 81 16 81 C16 77 17 72 21 72 C25 71 26 71 28 71 L36 71 C38 70 39 70 41 70 C42 70 43 71 50 71 C50 72 51 77 51 81 C51 81 52 84 54 85 L59 86 C61 87 65 95 71 91 C80 100 93 111 101 122 C109 117 123 111 134 108 C150 105 170 99 185 100 C203 108 221 112 236 122 C242 108 252 99 262 87 C268 87 271 85 276 84 L278 84 L278 81 C280 81 285 81 285 72 C285 71 286 70 286 70 C287 69 289 69 291 69 L309 69 C309 69 310 69 311 70 C313 70 314 71 314 72 C318 77 318 81 318 81 L318 87 C314 95 313 99 311 100 C311 108 311 108 310 111 C310 113 310 120 309 121 L309 124 C309 131 301 138 300 143 L300 149 C298 152 297 157 296 160 C296 162 291 164 291 165 C289 165 289 167 288 170 C300 183 309 198 311 218 C311 226 313 238 313 243 C313 259 313 280 309 291 C303 297 298 306 296 312 L298 322 C298 324 300 327 301 329 L303 330 C309 332 309 334 309 336 C309 336 309 338 310 339 C310 340 311 346 313 348 C313 348 314 350 314 355 C314 356 318 359 322 366 C323 367 323 368 323 368 C324 371 324 373 324 378 L324 378 Z M264 242 L264 225 C259 197 238 179 216 164 C205 157 192 150 182 149 C170 147 157 149 147 152 C134 155 125 160 115 165 C112 167 108 170 107 173 C101 177 101 179 97 183 L82 198 C79 204 77 209 77 218 C75 225 73 235 73 239 C73 243 77 253 77 260 C79 271 87 282 94 291 C103 297 109 308 120 314 C131 315 138 321 149 324 C157 327 168 327 174 327 C185 329 195 329 203 324 L208 321 C219 315 231 307 242 299 C249 291 254 282 260 273 C264 265 266 252 264 242 L264 242 Z " />
<glyph glyph-name="yen" unicode="&#xa5;" horiz-adv-x="369" d="M357 464 C356 466 356 469 356 472 L356 474 L354 477 L353 477 C353 478 352 479 351 479 C351 479 350 479 350 480 L347 480 C347 480 346 480 346 481 C344 482 343 482 341 481 C340 480 339 479 338 479 L336 479 L334 477 L333 477 C333 476 332 476 332 475 C331 475 330 474 330 474 C329 474 327 473 326 473 C326 473 325 473 324 472 C323 472 323 471 322 471 C321 471 320 470 319 470 C319 469 318 469 317 468 C317 467 316 467 315 466 L308 460 L304 457 C303 456 302 455 302 454 C301 453 301 452 300 452 L298 449 C298 448 297 448 297 448 C296 447 296 446 295 446 C295 445 295 445 294 445 C294 444 293 444 292 443 C292 443 291 442 290 442 L284 435 C283 434 279 433 279 432 L270 421 C266 412 259 407 253 399 C253 398 252 398 252 397 L243 387 C243 386 242 385 242 384 C241 383 240 381 238 380 L238 379 C237 378 236 378 236 377 C235 377 234 376 234 375 C232 374 231 373 230 371 C229 371 229 371 229 370 C228 370 228 369 227 368 C227 368 226 368 226 367 C226 367 225 366 225 365 C224 365 224 364 223 363 C223 363 222 362 222 361 L220 359 C219 358 219 357 218 357 C218 356 217 355 216 354 C215 354 215 353 214 353 C214 351 213 350 212 349 C211 348 211 347 210 347 C210 346 209 345 208 345 C207 344 206 344 205 344 L204 345 C203 345 202 346 202 346 C201 347 200 347 200 348 C199 348 198 349 197 350 L194 353 C193 353 193 354 192 354 L190 356 C188 357 186 359 184 361 L182 363 L176 366 C175 366 175 367 174 367 L166 371 C159 380 148 382 141 390 C140 390 140 391 140 391 L137 393 C136 393 135 394 134 394 L123 401 C122 401 121 402 121 402 L117 404 L116 405 C115 405 115 406 114 406 L112 408 L106 411 C105 411 105 412 104 412 L99 415 C99 415 98 416 97 416 L94 418 L93 419 C92 419 92 420 91 421 C91 421 90 421 90 422 C89 422 89 423 88 423 C87 423 86 424 85 424 C77 427 71 433 63 436 L60 438 C55 440 49 442 44 445 C43 446 42 446 41 446 C32 449 24 452 15 452 L4 452 C3 452 3 451 3 451 C-1 449 1 446 2 444 C3 443 2 441 2 440 L2 439 C2 438 2 437 3 436 C3 435 4 435 4 434 C5 431 7 429 8 427 C8 426 9 425 9 424 L11 421 C11 420 12 419 12 418 C13 418 13 417 14 416 L15 416 C15 415 16 414 17 414 L17 413 C18 412 18 411 19 411 C19 410 20 409 21 408 C26 402 32 397 37 392 C38 392 38 392 39 391 L44 386 L45 386 C45 385 46 384 47 384 C47 383 48 383 49 383 L52 380 L53 380 C54 379 54 378 55 378 C56 377 56 377 57 377 C58 376 59 375 60 375 C60 374 61 374 61 374 L63 372 C64 372 65 371 65 371 L74 365 C75 364 76 364 76 363 L80 360 C81 359 82 359 82 358 C83 358 84 357 85 357 C85 357 86 356 87 356 L90 354 L91 353 C91 352 92 352 93 351 C94 351 94 350 95 350 L104 344 L107 342 C108 342 109 341 110 340 C111 340 111 339 112 338 L120 332 C121 332 121 331 122 331 L127 326 L131 323 C131 322 132 322 133 322 C133 321 134 321 135 320 L136 320 C136 319 137 319 138 318 C138 318 139 317 140 317 C140 317 141 316 142 316 L143 315 L144 315 L147 313 L150 313 C150 312 150 312 151 312 C151 311 152 311 152 311 L152 310 C152 309 153 309 153 309 C153 309 154 309 154 308 C154 307 155 307 156 307 C156 306 157 306 157 306 L161 303 C162 301 164 300 166 298 L168 296 L174 293 L177 291 L183 288 C184 288 184 287 185 287 C190 284 193 280 192 273 C192 272 195 270 192 268 C190 265 191 261 189 258 L189 255 C186 249 180 252 176 251 L173 251 C171 251 169 251 167 250 C166 250 165 250 164 249 L159 249 C158 248 158 248 157 248 L138 245 C133 245 129 244 124 243 C123 243 121 244 120 244 C113 241 102 247 97 237 C97 236 97 235 96 234 C96 232 97 231 97 229 C98 229 98 228 98 227 C99 225 101 224 102 223 C104 219 107 217 111 214 C111 214 112 213 111 212 C112 212 112 211 113 211 C114 210 115 211 116 211 C117 213 118 212 118 210 C119 210 120 210 121 209 C123 209 125 208 126 207 L147 207 C150 209 154 210 158 208 L160 208 C161 207 162 207 163 207 L172 207 C177 206 186 212 184 200 L184 196 C183 190 184 183 182 177 L182 174 C181 170 182 167 181 164 C180 163 180 162 179 162 C178 161 176 161 175 161 C174 161 173 160 173 160 C170 159 167 159 164 159 C163 159 162 158 161 158 C156 157 150 157 145 155 C144 155 143 154 143 154 L136 152 C135 152 134 152 133 151 C131 150 129 149 127 147 L125 145 C124 143 123 141 123 139 C123 138 124 137 124 136 C126 135 128 134 129 134 C130 133 131 133 132 133 L135 131 C136 131 137 130 137 130 C144 127 151 126 159 126 C162 126 167 127 171 125 C177 123 176 118 175 113 C175 106 174 100 174 93 C174 91 173 89 174 87 C176 82 175 77 175 73 C175 70 175 69 174 67 C174 66 175 64 175 63 C177 58 176 53 173 49 C172 49 172 49 172 48 L172 45 C172 44 173 42 175 41 C175 40 175 39 176 38 C176 38 177 37 178 37 C178 36 179 36 179 35 C179 34 178 33 179 32 C179 31 180 31 180 30 L183 27 L183 26 C184 25 184 25 184 24 C185 23 185 22 185 21 L193 13 C194 10 194 7 196 4 L199 2 C201 1 204 0 208 0 C209 1 210 1 210 2 C213 8 219 4 223 7 C227 12 235 16 232 25 L232 27 C236 30 235 34 235 38 L234 39 L234 40 C234 41 233 42 232 43 C231 44 230 46 232 48 C234 50 233 52 232 54 C231 58 231 62 232 65 C230 69 230 72 232 76 C231 77 231 78 232 79 C231 81 231 83 232 85 L232 91 C231 92 231 93 231 94 C231 99 230 103 232 107 C233 110 230 116 231 119 C231 124 235 126 240 128 C248 131 260 127 269 127 C271 127 279 125 280 125 L281 126 L282 125 C283 124 284 124 284 125 C285 126 286 127 286 128 C288 129 291 128 293 130 C294 131 295 131 297 130 C299 131 300 133 303 134 L303 135 L304 135 C310 137 315 141 316 148 L316 150 C317 150 317 150 317 151 C317 151 317 152 316 152 C316 153 315 153 316 154 C316 154 311 160 310 160 C309 162 305 165 303 165 C300 166 287 167 285 165 L284 166 C271 169 258 167 244 168 C236 168 233 171 232 178 C231 179 231 181 232 182 C233 184 233 185 232 187 L232 191 C231 192 231 193 232 194 L231 195 L232 195 C231 196 231 197 232 198 C231 199 231 199 232 200 C231 201 231 202 232 204 C229 211 235 212 239 214 C241 215 243 215 246 214 C250 212 256 213 259 210 L259 211 C262 209 264 212 266 212 L266 210 C271 213 277 209 282 212 L284 212 C293 213 302 212 309 216 L316 221 C319 231 313 239 306 246 L301 250 C298 252 295 250 292 250 L267 250 C264 250 261 252 257 251 C254 250 251 250 248 250 L246 250 C239 250 235 253 236 261 C236 264 236 268 235 271 C234 272 234 274 234 276 C236 279 234 288 236 287 L238 289 L241 291 C241 292 242 292 243 292 C244 292 245 293 245 294 C247 295 247 297 248 298 C249 299 250 300 250 301 C250 303 250 304 251 304 C253 304 254 307 254 306 C256 306 256 307 257 308 C256 309 256 309 257 310 C258 311 259 312 259 313 C259 314 259 314 260 314 L260 316 C261 316 261 316 261 317 C262 317 263 318 263 319 C265 320 265 320 266 322 L266 320 C267 320 268 321 268 321 C269 321 270 323 271 324 C275 327 279 331 282 335 C286 339 287 345 291 349 C292 349 293 350 293 351 C294 352 295 353 294 354 C295 355 295 355 295 356 C295 357 295 357 296 358 C299 359 302 368 303 371 C305 378 307 383 312 389 C315 393 320 396 323 401 C324 403 333 416 332 418 C331 418 332 419 332 419 C333 420 334 421 334 422 C336 422 335 425 337 426 C337 427 338 427 339 428 C340 429 341 430 341 431 C342 431 343 432 344 433 C344 434 345 435 345 436 L347 439 C347 440 347 440 348 441 C348 442 348 442 349 443 C349 444 349 444 350 445 C350 446 351 447 352 448 L352 449 C353 449 353 450 354 451 C354 451 355 452 355 453 C355 454 356 454 356 455 L356 458 C356 460 356 461 357 463 L357 464 Z " />
<glyph glyph-name="brokenbar" unicode="&#xa6;" horiz-adv-x="63" d="M35 452 C33 456 37 459 35 463 L35 465 C35 465 36 465 35 466 L35 470 C34 471 35 473 34 475 L33 476 L34 477 C32 478 34 480 34 484 C33 486 33 488 33 492 C34 492 34 492 33 494 C33 495 32 498 32 500 L32 501 C31 505 30 509 24 512 C24 513 23 513 22 513 C21 514 19 513 18 513 C17 513 16 512 15 512 C14 510 12 510 11 509 C9 508 9 507 8 505 L8 502 C8 501 7 501 6 501 L5 500 C5 499 6 499 6 498 C6 496 7 496 8 495 C9 493 6 494 7 493 C7 493 7 492 6 492 L7 492 C8 480 0 471 3 462 L3 448 C4 445 3 442 3 438 L5 435 C6 434 6 432 5 432 C4 431 4 430 4 429 L4 423 C3 422 3 421 4 420 C4 418 5 414 5 411 L5 409 C6 406 5 403 8 401 C8 399 8 397 7 395 C5 393 6 392 5 390 C5 388 6 386 6 385 C7 384 7 383 8 383 L8 380 C6 379 6 379 8 378 C8 375 6 372 8 370 C8 368 9 366 9 366 C8 361 9 358 7 354 L8 354 L8 347 L9 347 C10 344 10 341 10 339 L12 324 C12 322 13 322 13 322 L15 321 C16 319 18 317 20 319 C21 319 23 319 25 318 C26 318 26 319 27 319 C29 321 30 321 30 322 L32 322 L35 330 L36 331 L39 336 L39 339 C38 341 39 345 39 347 C39 347 39 351 38 353 C37 354 37 354 38 354 C39 354 39 356 39 357 C38 361 39 366 37 370 L37 375 C38 378 39 380 38 384 C38 385 37 386 36 386 C35 392 38 397 36 402 C36 403 37 403 37 403 L37 406 C36 409 37 411 37 413 C36 417 38 420 36 421 L36 426 C39 434 40 442 35 449 L35 452 Z M35 200 C33 204 37 207 35 211 L35 213 C35 213 36 213 35 214 L35 218 C34 219 35 221 34 223 L33 224 L34 225 C32 226 34 228 34 232 C33 234 33 236 33 240 C34 240 34 240 33 242 C33 243 32 246 32 248 L32 249 C31 253 30 257 24 260 C24 261 23 261 22 261 C21 262 19 261 18 261 C17 261 16 260 15 260 C14 258 12 258 11 257 C9 256 9 255 8 253 L8 250 C8 249 7 249 6 249 L5 248 C5 247 6 247 6 246 C6 244 7 244 8 243 C9 241 6 242 7 241 C7 241 7 240 6 240 L7 240 C8 228 0 219 3 210 L3 196 C4 193 3 190 3 186 L5 183 C6 182 6 180 5 180 C4 179 4 178 4 177 L4 171 C3 170 3 169 4 168 C4 166 5 162 5 159 L5 157 C6 154 5 151 8 149 C8 147 8 145 7 143 C5 141 6 140 5 138 C5 136 6 134 6 133 C7 132 7 131 8 131 L8 128 C6 127 6 127 8 126 C8 123 6 120 8 118 C8 116 9 114 9 114 C8 109 9 106 7 102 L8 102 L8 95 L9 95 C10 92 10 89 10 87 L12 72 C12 70 13 70 13 70 L15 69 C16 67 18 65 20 67 C21 67 23 67 25 66 C26 66 26 67 27 67 C29 69 30 69 30 70 L32 70 L35 78 L36 79 L39 84 L39 87 C38 89 39 93 39 95 C39 95 39 99 38 101 C37 102 37 102 38 102 C39 102 39 104 39 105 C38 109 39 114 37 118 L37 123 C38 126 39 128 38 132 C38 133 37 134 36 134 C35 140 38 145 36 150 C36 151 37 151 37 151 L37 154 C36 157 37 159 37 161 C36 165 38 168 36 169 L36 174 C39 182 40 190 35 197 L35 200 Z " />
<glyph glyph-name="section" unicode="&#xa7;" horiz-adv-x="380" d="M333 107 L333 112 C333 114 332 115 332 117 C332 121 334 125 333 129 C333 131 332 132 332 134 C331 135 331 136 331 137 C330 139 328 140 327 141 C326 142 326 144 326 145 C326 146 325 147 325 148 C324 150 323 152 323 154 C322 155 322 156 322 156 L320 160 C320 161 319 162 319 163 C318 163 318 164 317 165 C317 166 316 166 315 167 C313 170 312 173 309 175 C309 175 309 176 308 176 C308 177 307 178 306 178 C306 179 305 180 305 180 L299 187 L297 189 C294 191 292 194 290 196 C290 197 289 198 289 198 C285 207 295 209 298 215 C298 216 299 216 300 217 L303 229 C303 230 304 231 304 231 C304 233 305 235 305 237 C305 237 306 238 306 239 C305 241 306 244 307 246 L307 258 C307 260 307 262 306 264 L302 275 C301 276 301 277 301 278 L293 294 L291 297 C287 303 281 308 277 314 C276 315 275 316 275 317 L264 325 C263 325 262 326 261 326 C257 327 252 331 247 330 C246 331 246 331 245 331 C233 337 221 342 208 344 C207 344 207 346 206 347 L203 347 C200 347 197 348 195 349 C190 352 186 355 181 355 C174 356 168 357 164 363 C162 366 161 370 160 373 C158 377 156 380 155 384 L153 397 C153 400 153 402 155 406 C159 412 167 416 171 422 C173 424 177 425 179 427 C182 430 185 434 189 436 C192 438 196 442 200 443 C205 444 210 442 215 444 C222 448 233 445 242 445 C243 445 244 445 245 446 C247 447 250 446 253 446 C254 447 256 447 257 446 L266 446 C267 446 267 447 267 448 C267 449 270 451 269 452 C268 453 269 453 269 454 L269 459 C269 459 268 460 268 461 C268 461 267 462 267 463 C267 464 266 464 266 465 L264 468 C264 469 263 469 263 470 C262 470 261 471 260 471 L259 472 C258 472 258 473 257 473 C257 474 256 474 256 475 C255 475 254 476 253 477 C253 478 252 478 251 479 L248 481 C248 482 247 482 246 483 C245 484 244 485 243 485 C242 486 241 486 240 486 L229 489 C228 489 227 490 226 490 C213 491 200 494 188 489 C186 487 183 488 181 487 C179 487 178 486 176 486 C174 487 171 486 169 484 L162 484 C162 484 161 483 160 483 C159 483 158 482 157 482 L154 480 C153 480 153 479 152 478 C151 477 150 477 150 476 L147 474 C146 474 146 473 145 473 C144 472 145 474 144 474 L141 474 C141 473 140 473 139 472 L139 471 C138 471 137 470 137 470 C137 469 136 469 136 469 C136 468 135 468 134 467 L134 466 C133 466 132 465 132 465 C132 465 131 465 131 464 C130 464 130 463 129 463 C128 463 128 462 127 462 L125 459 L125 458 L121 454 C120 453 119 452 119 451 C118 451 118 450 117 449 C117 448 116 447 116 446 C115 445 115 444 115 443 C114 442 113 440 113 438 C112 437 112 436 112 435 C112 433 111 431 110 428 C110 427 109 425 109 424 C109 420 109 416 108 413 C107 409 107 406 107 402 C108 399 109 396 109 393 L109 391 C110 390 111 389 109 388 C108 387 108 386 108 384 L110 381 C110 380 111 379 111 378 L113 374 L113 371 C114 370 114 368 114 366 C115 365 115 365 115 364 C116 362 117 361 117 359 C118 358 118 358 118 357 C119 356 119 355 119 353 L119 351 C119 350 118 348 117 347 C116 347 116 346 115 345 L112 342 L111 342 C111 341 110 340 110 340 L107 337 C107 336 106 336 106 335 C106 334 105 333 105 332 C104 331 104 331 104 330 L102 327 L100 325 C99 324 99 323 99 323 C98 322 98 321 98 321 L96 318 C96 317 95 316 95 315 C95 314 94 314 94 313 C94 310 93 308 92 306 L92 304 L90 292 L90 289 C91 281 91 273 91 265 C91 264 92 263 92 262 C92 261 93 260 93 259 C94 258 94 257 95 257 C95 256 96 254 96 253 C97 252 97 251 97 251 L99 247 C99 246 100 246 100 245 L103 241 C103 240 104 239 104 239 L106 237 C107 236 107 235 108 235 L110 232 L113 229 C113 229 114 228 115 228 C115 227 115 227 116 227 C116 226 117 226 117 225 L118 225 L125 218 C125 218 126 218 127 217 C128 217 129 216 129 216 L132 213 L133 213 C133 212 134 212 134 211 C135 211 136 210 136 210 C137 209 138 209 138 209 L139 208 C140 207 141 207 141 206 C142 206 143 206 143 205 C144 205 145 205 146 204 C146 204 147 204 148 203 C149 203 150 203 151 202 L152 202 L154 200 C155 200 155 199 156 199 C157 199 158 198 159 198 C160 197 161 197 161 196 C162 196 163 196 163 195 C164 195 165 195 166 194 C166 194 167 194 168 193 C169 193 169 192 170 192 C171 192 172 191 173 190 L176 190 C177 189 177 189 178 189 C180 189 182 188 183 187 L186 187 C189 187 192 186 194 185 L197 185 L206 183 C207 183 208 182 210 182 C212 182 214 182 217 181 C217 181 218 180 219 180 C221 180 223 179 224 178 C226 178 228 177 229 176 C233 174 236 173 240 172 L241 172 C242 172 242 172 242 171 C243 171 244 171 245 170 L246 170 C246 169 247 169 248 168 L249 168 C249 167 250 167 250 166 L251 165 C252 165 252 164 252 164 C253 163 253 162 254 162 C254 161 255 159 255 158 C256 158 256 157 257 156 C259 154 260 152 261 150 L263 147 C266 138 265 129 264 120 C264 119 263 118 263 117 C261 111 260 105 257 99 L253 93 L250 87 C246 81 244 74 238 69 C234 66 228 63 223 60 L213 54 C202 50 191 46 180 54 C169 62 156 71 159 88 C159 89 160 90 160 91 C160 93 161 95 161 97 C162 98 162 99 162 100 C162 101 163 103 163 104 C164 104 164 105 165 106 C165 107 166 108 166 109 C170 115 171 125 167 131 C164 134 160 134 158 136 C156 136 155 136 153 137 C150 138 146 137 143 138 C142 138 141 137 139 138 C138 138 137 138 137 137 C136 137 135 136 135 136 L134 135 C133 134 132 134 132 133 L131 132 C130 132 130 131 129 130 L128 129 C128 129 127 128 127 127 C126 127 126 126 126 125 C125 123 124 122 124 120 C124 119 124 118 123 118 C123 117 122 117 121 116 C120 115 120 112 119 111 L119 109 L116 85 C116 84 116 83 117 81 C117 79 118 77 119 75 C119 74 119 74 120 73 L122 66 C122 65 123 64 123 64 L126 59 C126 59 126 58 127 58 C127 57 128 57 128 56 C129 56 129 55 130 54 L132 51 L135 47 L138 44 L141 42 L144 39 L147 35 C148 35 148 34 149 34 L151 31 C152 31 152 31 152 30 C153 30 153 29 154 29 C154 28 155 28 155 28 L157 26 C157 26 158 25 159 25 C160 24 161 23 162 23 L166 20 C167 20 168 19 169 19 L171 17 C171 17 172 16 173 16 C174 16 174 15 175 15 C176 15 177 15 178 14 C179 14 180 13 180 13 L184 11 L186 11 L190 9 C190 9 191 8 192 8 L196 6 C198 6 200 7 201 7 C204 7 206 7 209 6 C212 5 215 6 218 6 C219 6 222 5 224 5 L238 9 C239 9 240 9 241 8 C244 9 247 9 249 9 C251 9 252 11 254 12 L255 13 L256 13 C257 14 259 14 261 15 L261 16 L262 15 L265 17 L266 18 L267 18 C268 18 269 19 270 20 C271 20 271 21 272 22 L285 30 C288 31 290 34 293 35 C295 37 298 37 300 39 L305 46 C312 53 321 60 325 69 C327 72 329 76 329 79 C330 82 330 85 330 88 C331 92 333 96 334 101 C334 103 334 105 333 107 L333 107 Z M242 266 C237 250 230 234 211 229 C209 229 207 227 204 228 C191 231 177 233 164 237 C153 240 146 246 139 253 C132 261 131 271 134 280 C136 287 139 293 143 298 C146 303 149 308 154 311 C159 314 165 313 170 311 C182 305 196 305 209 301 L224 298 C230 296 235 293 238 288 C242 281 245 274 242 266 L242 266 Z " />
<glyph glyph-name="dieresis" unicode="&#xa8;" horiz-adv-x="177" d="M63 592 C65 606 51 622 38 628 C27 633 24 631 17 621 C16 618 16 616 13 615 C5 611 3 602 4 594 C7 584 8 575 14 566 C17 555 29 553 40 557 C57 564 62 577 63 592 L63 592 Z M163 592 C166 606 152 622 138 628 C128 633 125 631 117 621 C116 618 116 616 113 615 C105 611 104 602 105 594 C107 584 109 575 114 566 C118 555 129 553 140 557 C158 564 162 577 163 592 L163 592 Z " />
</font>
</svg>
